<?xml version="1.0" encoding="UTF-8" standalone="no"?>
<!DOCTYPE svg PUBLIC "-//W3C//DTD SVG 1.1//EN"
 "http://www.w3.org/Graphics/SVG/1.1/DTD/svg11.dtd">
<!-- Generated by graphviz version 2.40.1 (20161225.0304)
 -->
<!-- Title: g Pages: 1 -->
<svg width="365pt" height="372pt"
 viewBox="0.00 0.00 364.97 371.68" xmlns="http://www.w3.org/2000/svg" xmlns:xlink="http://www.w3.org/1999/xlink">
<g id="graph0" class="graph" transform="scale(1 1) rotate(0) translate(4 367.6834)">
<title>g</title>
<polygon fill="#ffffff" stroke="transparent" points="-4,4 -4,-367.6834 360.9724,-367.6834 360.9724,4 -4,4"/>
<!-- 0 -->
<g id="node1" class="node">
<title>0</title>
<ellipse fill="#000000" stroke="#000000" cx="329.5894" cy="-147.9797" rx="1.8" ry="1.8"/>
</g>
<!-- 1 -->
<g id="node2" class="node">
<title>1</title>
<ellipse fill="#000000" stroke="#000000" cx="321.2439" cy="-68.8996" rx="1.8" ry="1.8"/>
</g>
<!-- 0&#45;&#45;1 -->
<g id="edge1" class="edge">
<title>0&#45;&#45;1</title>
<path fill="none" stroke="#000000" d="M329.3831,-146.0249C328.2285,-135.084 322.5787,-81.5477 321.443,-70.786"/>
</g>
<!-- 2 -->
<g id="node3" class="node">
<title>2</title>
<ellipse fill="#000000" stroke="#000000" cx="301.7998" cy="-48.9075" rx="1.8" ry="1.8"/>
</g>
<!-- 0&#45;&#45;2 -->
<g id="edge2" class="edge">
<title>0&#45;&#45;2</title>
<path fill="none" stroke="#000000" d="M329.009,-145.9104C325.3613,-132.906 305.6485,-62.6283 302.2873,-50.6454"/>
</g>
<!-- 3 -->
<g id="node4" class="node">
<title>3</title>
<ellipse fill="#000000" stroke="#000000" cx="260.7237" cy="-105.6628" rx="1.8" ry="1.8"/>
</g>
<!-- 0&#45;&#45;3 -->
<g id="edge3" class="edge">
<title>0&#45;&#45;3</title>
<path fill="none" stroke="#000000" d="M327.8871,-146.9336C318.4423,-141.1299 272.5462,-112.9275 262.6194,-106.8277"/>
</g>
<!-- 4 -->
<g id="node5" class="node">
<title>4</title>
<ellipse fill="#000000" stroke="#000000" cx="287.094" cy="-82.138" rx="1.8" ry="1.8"/>
</g>
<!-- 0&#45;&#45;4 -->
<g id="edge4" class="edge">
<title>0&#45;&#45;4</title>
<path fill="none" stroke="#000000" d="M328.539,-146.3521C322.7108,-137.322 294.3893,-93.4413 288.2638,-83.9504"/>
</g>
<!-- 5 -->
<g id="node6" class="node">
<title>5</title>
<ellipse fill="#000000" stroke="#000000" cx="224.5607" cy="-33.5458" rx="1.8" ry="1.8"/>
</g>
<!-- 1&#45;&#45;5 -->
<g id="edge5" class="edge">
<title>1&#45;&#45;5</title>
<path fill="none" stroke="#000000" d="M319.2245,-68.1612C306.5336,-63.5205 237.9506,-38.442 226.2567,-34.1659"/>
</g>
<!-- 2&#45;&#45;5 -->
<g id="edge6" class="edge">
<title>2&#45;&#45;5</title>
<path fill="none" stroke="#000000" d="M299.8905,-48.5277C289.2044,-46.4024 236.9144,-36.0027 226.4032,-33.9122"/>
</g>
<!-- 3&#45;&#45;5 -->
<g id="edge7" class="edge">
<title>3&#45;&#45;5</title>
<path fill="none" stroke="#000000" d="M259.8298,-103.8801C254.8266,-93.9026 230.3446,-45.0802 225.4233,-35.2661"/>
</g>
<!-- 4&#45;&#45;5 -->
<g id="edge8" class="edge">
<title>4&#45;&#45;5</title>
<path fill="none" stroke="#000000" d="M285.5482,-80.9368C276.9718,-74.2724 235.296,-41.8878 226.282,-34.8834"/>
</g>
<!-- 6 -->
<g id="node7" class="node">
<title>6</title>
<ellipse fill="#000000" stroke="#000000" cx="145.5837" cy="-37.5413" rx="1.8" ry="1.8"/>
</g>
<!-- 5&#45;&#45;6 -->
<g id="edge9" class="edge">
<title>5&#45;&#45;6</title>
<path fill="none" stroke="#000000" d="M222.6084,-33.6445C211.6818,-34.1973 158.2154,-36.9022 147.4677,-37.4459"/>
</g>
<!-- 7 -->
<g id="node8" class="node">
<title>7</title>
<ellipse fill="#000000" stroke="#000000" cx="153.5871" cy="-71.9502" rx="1.8" ry="1.8"/>
</g>
<!-- 5&#45;&#45;7 -->
<g id="edge10" class="edge">
<title>5&#45;&#45;7</title>
<path fill="none" stroke="#000000" d="M222.8062,-34.4951C212.9869,-39.8084 164.9387,-65.8078 155.2802,-71.0341"/>
</g>
<!-- 8 -->
<g id="node9" class="node">
<title>8</title>
<ellipse fill="#000000" stroke="#000000" cx="125.0296" cy="-7.2821" rx="1.8" ry="1.8"/>
</g>
<!-- 5&#45;&#45;8 -->
<g id="edge11" class="edge">
<title>5&#45;&#45;8</title>
<path fill="none" stroke="#000000" d="M222.4818,-32.9972C209.4171,-29.5498 138.814,-10.9195 126.7756,-7.7428"/>
</g>
<!-- 9 -->
<g id="node10" class="node">
<title>9</title>
<ellipse fill="#000000" stroke="#000000" cx="152.3774" cy="-1.8" rx="1.8" ry="1.8"/>
</g>
<!-- 5&#45;&#45;9 -->
<g id="edge12" class="edge">
<title>5&#45;&#45;9</title>
<path fill="none" stroke="#000000" d="M222.7763,-32.761C212.7897,-28.3689 163.9225,-6.8775 154.0994,-2.5573"/>
</g>
<!-- 10 -->
<g id="node11" class="node">
<title>10</title>
<ellipse fill="#000000" stroke="#000000" cx="72.9041" cy="-67.1878" rx="1.8" ry="1.8"/>
</g>
<!-- 6&#45;&#45;10 -->
<g id="edge13" class="edge">
<title>6&#45;&#45;10</title>
<path fill="none" stroke="#000000" d="M143.7871,-38.2741C133.7317,-42.3758 84.5286,-62.4461 74.6379,-66.4806"/>
</g>
<!-- 7&#45;&#45;10 -->
<g id="edge14" class="edge">
<title>7&#45;&#45;10</title>
<path fill="none" stroke="#000000" d="M151.5926,-71.8325C140.43,-71.1736 85.8086,-67.9495 74.8288,-67.3014"/>
</g>
<!-- 8&#45;&#45;10 -->
<g id="edge15" class="edge">
<title>8&#45;&#45;10</title>
<path fill="none" stroke="#000000" d="M123.7411,-8.7629C116.5922,-16.9789 81.8527,-56.9036 74.339,-65.5388"/>
</g>
<!-- 9&#45;&#45;10 -->
<g id="edge16" class="edge">
<title>9&#45;&#45;10</title>
<path fill="none" stroke="#000000" d="M150.7175,-3.1657C140.3748,-11.6753 84.871,-57.3419 74.5549,-65.8296"/>
</g>
<!-- 11 -->
<g id="node12" class="node">
<title>11</title>
<ellipse fill="#000000" stroke="#000000" cx="7.68" cy="-114.1699" rx="1.8" ry="1.8"/>
</g>
<!-- 10&#45;&#45;11 -->
<g id="edge17" class="edge">
<title>10&#45;&#45;11</title>
<path fill="none" stroke="#000000" d="M71.2918,-68.3492C62.3464,-74.7927 18.8773,-106.1043 9.4754,-112.8766"/>
</g>
<!-- 12 -->
<g id="node13" class="node">
<title>12</title>
<ellipse fill="#000000" stroke="#000000" cx="37.3831" cy="-136.0633" rx="1.8" ry="1.8"/>
</g>
<!-- 10&#45;&#45;12 -->
<g id="edge18" class="edge">
<title>10&#45;&#45;12</title>
<path fill="none" stroke="#000000" d="M72.0261,-68.8904C67.1544,-78.3366 43.4812,-124.2392 38.3609,-134.1674"/>
</g>
<!-- 13 -->
<g id="node14" class="node">
<title>13</title>
<ellipse fill="#000000" stroke="#000000" cx="70.6574" cy="-148.1357" rx="1.8" ry="1.8"/>
</g>
<!-- 10&#45;&#45;13 -->
<g id="edge19" class="edge">
<title>10&#45;&#45;13</title>
<path fill="none" stroke="#000000" d="M72.8486,-69.1888C72.5377,-80.3881 71.0167,-135.1888 70.711,-146.2046"/>
</g>
<!-- 14 -->
<g id="node15" class="node">
<title>14</title>
<ellipse fill="#000000" stroke="#000000" cx="1.8" cy="-141.4236" rx="1.8" ry="1.8"/>
</g>
<!-- 10&#45;&#45;14 -->
<g id="edge20" class="edge">
<title>10&#45;&#45;14</title>
<path fill="none" stroke="#000000" d="M71.419,-68.7383C62.1655,-78.3994 12.5066,-130.2454 3.2769,-139.8816"/>
</g>
<!-- 15 -->
<g id="node16" class="node">
<title>15</title>
<ellipse fill="#000000" stroke="#000000" cx="26.3805" cy="-215.402" rx="1.8" ry="1.8"/>
</g>
<!-- 11&#45;&#45;15 -->
<g id="edge21" class="edge">
<title>11&#45;&#45;15</title>
<path fill="none" stroke="#000000" d="M8.0706,-116.2843C10.5252,-129.5723 23.7906,-201.382 26.0525,-213.6262"/>
</g>
<!-- 12&#45;&#45;15 -->
<g id="edge22" class="edge">
<title>12&#45;&#45;15</title>
<path fill="none" stroke="#000000" d="M37.1111,-138.0245C35.5889,-149.0012 28.1403,-202.7125 26.643,-213.5093"/>
</g>
<!-- 13&#45;&#45;15 -->
<g id="edge23" class="edge">
<title>13&#45;&#45;15</title>
<path fill="none" stroke="#000000" d="M69.5629,-149.7984C63.4904,-159.0239 33.9817,-203.8541 27.5993,-213.5503"/>
</g>
<!-- 14&#45;&#45;15 -->
<g id="edge24" class="edge">
<title>14&#45;&#45;15</title>
<path fill="none" stroke="#000000" d="M2.4076,-143.2523C5.8084,-153.4874 22.4491,-203.5698 25.7941,-213.6372"/>
</g>
<!-- 16 -->
<g id="node17" class="node">
<title>16</title>
<ellipse fill="#000000" stroke="#000000" cx="95.1556" cy="-257.665" rx="1.8" ry="1.8"/>
</g>
<!-- 15&#45;&#45;16 -->
<g id="edge25" class="edge">
<title>15&#45;&#45;16</title>
<path fill="none" stroke="#000000" d="M28.0806,-216.4467C37.513,-222.243 83.3487,-250.4096 93.2624,-256.5016"/>
</g>
<!-- 17 -->
<g id="node18" class="node">
<title>17</title>
<ellipse fill="#000000" stroke="#000000" cx="53.6237" cy="-314.6516" rx="1.8" ry="1.8"/>
</g>
<!-- 15&#45;&#45;17 -->
<g id="edge26" class="edge">
<title>15&#45;&#45;17</title>
<path fill="none" stroke="#000000" d="M26.9495,-217.4749C30.5255,-230.5027 49.8507,-300.9062 53.1458,-312.9106"/>
</g>
<!-- 18 -->
<g id="node19" class="node">
<title>18</title>
<ellipse fill="#000000" stroke="#000000" cx="34.8751" cy="-294.0045" rx="1.8" ry="1.8"/>
</g>
<!-- 15&#45;&#45;18 -->
<g id="edge27" class="edge">
<title>15&#45;&#45;18</title>
<path fill="none" stroke="#000000" d="M26.5905,-217.345C27.7657,-228.2198 33.5164,-281.4327 34.6724,-292.1294"/>
</g>
<!-- 19 -->
<g id="node20" class="node">
<title>19</title>
<ellipse fill="#000000" stroke="#000000" cx="69.1733" cy="-281.6177" rx="1.8" ry="1.8"/>
</g>
<!-- 15&#45;&#45;19 -->
<g id="edge28" class="edge">
<title>15&#45;&#45;19</title>
<path fill="none" stroke="#000000" d="M27.4383,-217.0388C33.3073,-226.1202 61.8269,-270.2501 67.9954,-279.7949"/>
</g>
<!-- 20 -->
<g id="node21" class="node">
<title>20</title>
<ellipse fill="#000000" stroke="#000000" cx="131.3478" cy="-329.8684" rx="1.8" ry="1.8"/>
</g>
<!-- 16&#45;&#45;20 -->
<g id="edge29" class="edge">
<title>16&#45;&#45;20</title>
<path fill="none" stroke="#000000" d="M96.0502,-259.4498C101.0575,-269.4393 125.5592,-318.3201 130.4844,-328.146"/>
</g>
<!-- 17&#45;&#45;20 -->
<g id="edge30" class="edge">
<title>17&#45;&#45;20</title>
<path fill="none" stroke="#000000" d="M55.5449,-315.0278C66.2982,-317.133 118.9165,-327.4346 129.4937,-329.5054"/>
</g>
<!-- 18&#45;&#45;20 -->
<g id="edge31" class="edge">
<title>18&#45;&#45;20</title>
<path fill="none" stroke="#000000" d="M36.89,-294.7536C49.5533,-299.4612 117.987,-324.9015 129.6555,-329.2393"/>
</g>
<!-- 19&#45;&#45;20 -->
<g id="edge32" class="edge">
<title>19&#45;&#45;20</title>
<path fill="none" stroke="#000000" d="M70.7102,-282.8104C79.2374,-289.4279 120.6741,-321.585 129.6363,-328.5402"/>
</g>
<!-- 21 -->
<g id="node22" class="node">
<title>21</title>
<ellipse fill="#000000" stroke="#000000" cx="202.3699" cy="-291.4198" rx="1.8" ry="1.8"/>
</g>
<!-- 20&#45;&#45;21 -->
<g id="edge33" class="edge">
<title>20&#45;&#45;21</title>
<path fill="none" stroke="#000000" d="M133.1034,-328.918C142.9295,-323.5985 191.0105,-297.5693 200.6757,-292.337"/>
</g>
<!-- 22 -->
<g id="node23" class="node">
<title>22</title>
<ellipse fill="#000000" stroke="#000000" cx="209.9796" cy="-325.9183" rx="1.8" ry="1.8"/>
</g>
<!-- 20&#45;&#45;22 -->
<g id="edge34" class="edge">
<title>20&#45;&#45;22</title>
<path fill="none" stroke="#000000" d="M133.2915,-329.7707C144.1704,-329.2243 197.4032,-326.5501 208.1038,-326.0126"/>
</g>
<!-- 23 -->
<g id="node24" class="node">
<title>23</title>
<ellipse fill="#000000" stroke="#000000" cx="230.9688" cy="-355.7365" rx="1.8" ry="1.8"/>
</g>
<!-- 20&#45;&#45;23 -->
<g id="edge35" class="edge">
<title>20&#45;&#45;23</title>
<path fill="none" stroke="#000000" d="M133.4285,-330.4087C146.505,-333.8042 217.172,-352.154 229.2213,-355.2828"/>
</g>
<!-- 24 -->
<g id="node25" class="node">
<title>24</title>
<ellipse fill="#000000" stroke="#000000" cx="203.7599" cy="-361.8834" rx="1.8" ry="1.8"/>
</g>
<!-- 20&#45;&#45;24 -->
<g id="edge36" class="edge">
<title>20&#45;&#45;24</title>
<path fill="none" stroke="#000000" d="M133.1378,-330.6598C143.1561,-335.0891 192.1782,-356.7629 202.0325,-361.1197"/>
</g>
<!-- 25 -->
<g id="node26" class="node">
<title>25</title>
<ellipse fill="#000000" stroke="#000000" cx="282.9727" cy="-296.1535" rx="1.8" ry="1.8"/>
</g>
<!-- 21&#45;&#45;25 -->
<g id="edge37" class="edge">
<title>21&#45;&#45;25</title>
<path fill="none" stroke="#000000" d="M204.3623,-291.5368C215.5139,-292.1917 270.081,-295.3964 281.0499,-296.0405"/>
</g>
<!-- 22&#45;&#45;25 -->
<g id="edge38" class="edge">
<title>22&#45;&#45;25</title>
<path fill="none" stroke="#000000" d="M211.784,-325.1826C221.8827,-321.0645 271.2981,-300.9141 281.2314,-296.8635"/>
</g>
<!-- 23&#45;&#45;25 -->
<g id="edge39" class="edge">
<title>23&#45;&#45;25</title>
<path fill="none" stroke="#000000" d="M232.2543,-354.2637C239.3866,-346.0919 274.0449,-306.3823 281.5411,-297.7936"/>
</g>
<!-- 24&#45;&#45;25 -->
<g id="edge40" class="edge">
<title>24&#45;&#45;25</title>
<path fill="none" stroke="#000000" d="M205.4144,-360.5106C215.7232,-351.9564 271.045,-306.0509 281.3273,-297.5188"/>
</g>
<!-- 26 -->
<g id="node27" class="node">
<title>26</title>
<ellipse fill="#000000" stroke="#000000" cx="346.915" cy="-249.4437" rx="1.8" ry="1.8"/>
</g>
<!-- 25&#45;&#45;26 -->
<g id="edge41" class="edge">
<title>25&#45;&#45;26</title>
<path fill="none" stroke="#000000" d="M284.5533,-294.9988C293.3229,-288.5926 335.9378,-257.4625 345.1549,-250.7295"/>
</g>
<!-- 27 -->
<g id="node28" class="node">
<title>27</title>
<ellipse fill="#000000" stroke="#000000" cx="318.8571" cy="-226.0888" rx="1.8" ry="1.8"/>
</g>
<!-- 25&#45;&#45;27 -->
<g id="edge42" class="edge">
<title>25&#45;&#45;27</title>
<path fill="none" stroke="#000000" d="M283.8597,-294.4215C288.7812,-284.8122 312.6967,-238.1171 317.8693,-228.0175"/>
</g>
<!-- 28 -->
<g id="node29" class="node">
<title>28</title>
<ellipse fill="#000000" stroke="#000000" cx="285.1793" cy="-215.419" rx="1.8" ry="1.8"/>
</g>
<!-- 25&#45;&#45;28 -->
<g id="edge43" class="edge">
<title>25&#45;&#45;28</title>
<path fill="none" stroke="#000000" d="M283.0272,-294.1578C283.3325,-282.988 284.8264,-228.3318 285.1266,-217.3449"/>
</g>
<!-- 29 -->
<g id="node30" class="node">
<title>29</title>
<ellipse fill="#000000" stroke="#000000" cx="355.1724" cy="-222.8033" rx="1.8" ry="1.8"/>
</g>
<!-- 25&#45;&#45;29 -->
<g id="edge44" class="edge">
<title>25&#45;&#45;29</title>
<path fill="none" stroke="#000000" d="M284.4807,-294.6214C293.8768,-285.0756 344.3008,-233.8481 353.6727,-224.3268"/>
</g>
<!-- 26&#45;&#45;0 -->
<g id="edge45" class="edge">
<title>26&#45;&#45;0</title>
<path fill="none" stroke="#000000" d="M346.5532,-247.3244C344.279,-234.006 331.9889,-162.0318 329.8934,-149.7596"/>
</g>
<!-- 27&#45;&#45;0 -->
<g id="edge46" class="edge">
<title>27&#45;&#45;0</title>
<path fill="none" stroke="#000000" d="M319.1224,-224.158C320.6073,-213.3515 327.8729,-160.4726 329.3334,-149.843"/>
</g>
<!-- 28&#45;&#45;0 -->
<g id="edge47" class="edge">
<title>28&#45;&#45;0</title>
<path fill="none" stroke="#000000" d="M286.2771,-213.752C292.3679,-204.5027 321.9654,-159.5573 328.3669,-149.8361"/>
</g>
<!-- 29&#45;&#45;0 -->
<g id="edge48" class="edge">
<title>29&#45;&#45;0</title>
<path fill="none" stroke="#000000" d="M354.54,-220.9537C351.0006,-210.6017 333.6812,-159.9471 330.1997,-149.7646"/>
</g>
</g>
</svg>
