<?xml version="1.0" encoding="UTF-8" standalone="no"?>
<!DOCTYPE svg PUBLIC "-//W3C//DTD SVG 1.1//EN"
 "http://www.w3.org/Graphics/SVG/1.1/DTD/svg11.dtd">
<!-- Generated by graphviz version 2.40.1 (20161225.0304)
 -->
<!-- Title: g Pages: 1 -->
<svg width="875pt" height="873pt"
 viewBox="0.00 0.00 875.15 872.74" xmlns="http://www.w3.org/2000/svg" xmlns:xlink="http://www.w3.org/1999/xlink">
<g id="graph0" class="graph" transform="scale(1 1) rotate(0) translate(4 868.7432)">
<title>g</title>
<polygon fill="#ffffff" stroke="transparent" points="-4,4 -4,-868.7432 871.1518,-868.7432 871.1518,4 -4,4"/>
<!-- 0 -->
<g id="node1" class="node">
<title>0</title>
<polygon fill="none" stroke="#000000" points="408.683,-352.6192 354.683,-352.6192 354.683,-316.6192 408.683,-316.6192 408.683,-352.6192"/>
<text text-anchor="middle" x="381.683" y="-332.1192" font-family="century schoolbook" font-size="10.00" fill="#000000">0</text>
</g>
<!-- 1 -->
<g id="node2" class="node">
<title>1</title>
<polygon fill="none" stroke="#000000" points="648.742,-348.6784 594.742,-348.6784 594.742,-312.6784 648.742,-312.6784 648.742,-348.6784"/>
<text text-anchor="middle" x="621.742" y="-328.1784" font-family="century schoolbook" font-size="10.00" fill="#000000">1,2</text>
</g>
<!-- 0&#45;&#45;1 -->
<g id="edge1" class="edge">
<title>0&#45;&#45;1</title>
<path fill="none" stroke="#000000" d="M408.7542,-334.1748C454.8594,-333.4179 548.1133,-331.8871 594.4014,-331.1272"/>
</g>
<!-- 2 -->
<g id="node3" class="node">
<title>2</title>
<polygon fill="none" stroke="#000000" points="379.8015,-580.9262 325.8015,-580.9262 325.8015,-544.9262 379.8015,-544.9262 379.8015,-580.9262"/>
<text text-anchor="middle" x="352.8015" y="-560.4262" font-family="century schoolbook" font-size="10.00" fill="#000000">1,3</text>
</g>
<!-- 0&#45;&#45;2 -->
<g id="edge2" class="edge">
<title>0&#45;&#45;2</title>
<path fill="none" stroke="#000000" d="M379.3684,-352.9165C373.9472,-395.7709 360.4794,-502.2326 355.0871,-544.8586"/>
</g>
<!-- 3 -->
<g id="node4" class="node">
<title>3</title>
<polygon fill="none" stroke="#000000" points="287.5368,-561.5947 233.5368,-561.5947 233.5368,-525.5947 287.5368,-525.5947 287.5368,-561.5947"/>
<text text-anchor="middle" x="260.5368" y="-541.0947" font-family="century schoolbook" font-size="10.00" fill="#000000">2,4</text>
</g>
<!-- 0&#45;&#45;3 -->
<g id="edge3" class="edge">
<title>0&#45;&#45;3</title>
<path fill="none" stroke="#000000" d="M371.144,-352.7988C348.2325,-392.3209 294.1053,-485.6894 271.1377,-525.3083"/>
</g>
<!-- 4 -->
<g id="node5" class="node">
<title>4</title>
<polygon fill="none" stroke="#000000" points="621.6375,-421.3527 567.6375,-421.3527 567.6375,-385.3527 621.6375,-385.3527 621.6375,-421.3527"/>
<text text-anchor="middle" x="594.6375" y="-400.8527" font-family="century schoolbook" font-size="10.00" fill="#000000">3,4</text>
</g>
<!-- 0&#45;&#45;4 -->
<g id="edge4" class="edge">
<title>0&#45;&#45;4</title>
<path fill="none" stroke="#000000" d="M409.0872,-343.4642C449.9771,-356.6619 526.5098,-381.3637 567.3386,-394.5417"/>
</g>
<!-- 5 -->
<g id="node6" class="node">
<title>5</title>
<polygon fill="none" stroke="#000000" points="406.9375,-104.8765 352.9375,-104.8765 352.9375,-68.8765 406.9375,-68.8765 406.9375,-104.8765"/>
<text text-anchor="middle" x="379.9375" y="-84.3765" font-family="century schoolbook" font-size="10.00" fill="#000000">5,6</text>
</g>
<!-- 0&#45;&#45;5 -->
<g id="edge5" class="edge">
<title>0&#45;&#45;5</title>
<path fill="none" stroke="#000000" d="M381.5547,-316.402C381.2319,-270.5869 380.389,-150.9641 380.066,-105.1203"/>
</g>
<!-- 6 -->
<g id="node7" class="node">
<title>6</title>
<polygon fill="none" stroke="#000000" points="185.9461,-244.8357 131.9461,-244.8357 131.9461,-208.8357 185.9461,-208.8357 185.9461,-244.8357"/>
<text text-anchor="middle" x="158.9461" y="-224.3357" font-family="century schoolbook" font-size="10.00" fill="#000000">5,7</text>
</g>
<!-- 0&#45;&#45;6 -->
<g id="edge6" class="edge">
<title>0&#45;&#45;6</title>
<path fill="none" stroke="#000000" d="M354.3711,-321.4028C311.5057,-300.66 228.9205,-260.6966 186.1327,-239.9914"/>
</g>
<!-- 7 -->
<g id="node8" class="node">
<title>7</title>
<polygon fill="none" stroke="#000000" points="187.3008,-323.5361 133.3008,-323.5361 133.3008,-287.5361 187.3008,-287.5361 187.3008,-323.5361"/>
<text text-anchor="middle" x="160.3008" y="-303.0361" font-family="century schoolbook" font-size="10.00" fill="#000000">6,8</text>
</g>
<!-- 0&#45;&#45;7 -->
<g id="edge7" class="edge">
<title>0&#45;&#45;7</title>
<path fill="none" stroke="#000000" d="M354.5372,-331.053C311.9326,-325.456 229.8496,-314.6728 187.322,-309.0859"/>
</g>
<!-- 8 -->
<g id="node9" class="node">
<title>8</title>
<polygon fill="none" stroke="#000000" points="489.9155,-141.1773 435.9155,-141.1773 435.9155,-105.1773 489.9155,-105.1773 489.9155,-141.1773"/>
<text text-anchor="middle" x="462.9155" y="-120.6773" font-family="century schoolbook" font-size="10.00" fill="#000000">7,8</text>
</g>
<!-- 0&#45;&#45;8 -->
<g id="edge8" class="edge">
<title>0&#45;&#45;8</title>
<path fill="none" stroke="#000000" d="M388.6089,-316.5917C403.9176,-276.7443 440.493,-181.5415 455.8919,-141.4594"/>
</g>
<!-- 9 -->
<g id="node10" class="node">
<title>9</title>
<polygon fill="none" stroke="#000000" points="571.1236,-243.4903 517.1236,-243.4903 517.1236,-207.4903 571.1236,-207.4903 571.1236,-243.4903"/>
<text text-anchor="middle" x="544.1236" y="-222.9903" font-family="century schoolbook" font-size="10.00" fill="#000000">1</text>
</g>
<!-- 9&#45;&#45;8 -->
<g id="edge9" class="edge">
<title>9&#45;&#45;8</title>
<path fill="none" stroke="#000000" d="M529.6052,-207.1988C514.8238,-188.5759 492.0441,-159.876 477.3082,-141.3105"/>
</g>
<!-- 10 -->
<g id="node11" class="node">
<title>10</title>
<polygon fill="none" stroke="#000000" points="626.5316,-68.3097 572.5316,-68.3097 572.5316,-32.3097 626.5316,-32.3097 626.5316,-68.3097"/>
<text text-anchor="middle" x="599.5316" y="-47.8097" font-family="century schoolbook" font-size="10.00" fill="#000000">0,2</text>
</g>
<!-- 9&#45;&#45;10 -->
<g id="edge10" class="edge">
<title>9&#45;&#45;10</title>
<path fill="none" stroke="#000000" d="M549.8445,-207.4027C560.462,-173.834 583.1023,-102.2535 593.7588,-68.5613"/>
</g>
<!-- 11 -->
<g id="node12" class="node">
<title>11</title>
<polygon fill="none" stroke="#000000" points="556.9625,-36 502.9625,-36 502.9625,0 556.9625,0 556.9625,-36"/>
<text text-anchor="middle" x="529.9625" y="-15.5" font-family="century schoolbook" font-size="10.00" fill="#000000">0,3</text>
</g>
<!-- 9&#45;&#45;11 -->
<g id="edge11" class="edge">
<title>9&#45;&#45;11</title>
<path fill="none" stroke="#000000" d="M542.8917,-207.4399C540.2135,-168.1987 533.8864,-75.4937 531.2017,-36.1565"/>
</g>
<!-- 12 -->
<g id="node13" class="node">
<title>12</title>
<polygon fill="none" stroke="#000000" points="774.6913,-336.9504 720.6913,-336.9504 720.6913,-300.9504 774.6913,-300.9504 774.6913,-336.9504"/>
<text text-anchor="middle" x="747.6913" y="-316.4504" font-family="century schoolbook" font-size="10.00" fill="#000000">2,5</text>
</g>
<!-- 9&#45;&#45;12 -->
<g id="edge12" class="edge">
<title>9&#45;&#45;12</title>
<path fill="none" stroke="#000000" d="M571.1558,-237.9011C610.0909,-255.7766 681.55,-288.5842 720.5473,-306.4883"/>
</g>
<!-- 13 -->
<g id="node14" class="node">
<title>13</title>
<polygon fill="none" stroke="#000000" points="358.5209,-260.3531 304.5209,-260.3531 304.5209,-224.3531 358.5209,-224.3531 358.5209,-260.3531"/>
<text text-anchor="middle" x="331.5209" y="-239.8531" font-family="century schoolbook" font-size="10.00" fill="#000000">3,6</text>
</g>
<!-- 9&#45;&#45;13 -->
<g id="edge13" class="edge">
<title>9&#45;&#45;13</title>
<path fill="none" stroke="#000000" d="M516.7647,-227.6603C475.9423,-230.8982 399.5361,-236.9584 358.7748,-240.1914"/>
</g>
<!-- 14 -->
<g id="node15" class="node">
<title>14</title>
<polygon fill="none" stroke="#000000" points="576.0677,-484.5457 522.0677,-484.5457 522.0677,-448.5457 576.0677,-448.5457 576.0677,-484.5457"/>
<text text-anchor="middle" x="549.0677" y="-464.0457" font-family="century schoolbook" font-size="10.00" fill="#000000">4,5</text>
</g>
<!-- 9&#45;&#45;14 -->
<g id="edge14" class="edge">
<title>9&#45;&#45;14</title>
<path fill="none" stroke="#000000" d="M544.4952,-243.6086C545.4115,-288.2816 547.771,-403.3242 548.6918,-448.2171"/>
</g>
<!-- 15 -->
<g id="node16" class="node">
<title>15</title>
<polygon fill="none" stroke="#000000" points="336.8554,-173.9265 282.8554,-173.9265 282.8554,-137.9265 336.8554,-137.9265 336.8554,-173.9265"/>
<text text-anchor="middle" x="309.8554" y="-153.4265" font-family="century schoolbook" font-size="10.00" fill="#000000">4,8</text>
</g>
<!-- 9&#45;&#45;15 -->
<g id="edge15" class="edge">
<title>9&#45;&#45;15</title>
<path fill="none" stroke="#000000" d="M516.7916,-217.3743C471.6505,-203.9701 382.0398,-177.361 337.0133,-163.9908"/>
</g>
<!-- 16 -->
<g id="node17" class="node">
<title>16</title>
<polygon fill="none" stroke="#000000" points="678.1118,-114.1942 624.1118,-114.1942 624.1118,-78.1942 678.1118,-78.1942 678.1118,-114.1942"/>
<text text-anchor="middle" x="651.1118" y="-93.6942" font-family="century schoolbook" font-size="10.00" fill="#000000">6,7</text>
</g>
<!-- 9&#45;&#45;16 -->
<g id="edge16" class="edge">
<title>9&#45;&#45;16</title>
<path fill="none" stroke="#000000" d="M559.2255,-207.2396C579.616,-182.5975 615.7358,-138.9464 636.0867,-114.3521"/>
</g>
<!-- 17 -->
<g id="node18" class="node">
<title>17</title>
<polygon fill="none" stroke="#000000" points="239.8237,-442.1837 185.8237,-442.1837 185.8237,-406.1837 239.8237,-406.1837 239.8237,-442.1837"/>
<text text-anchor="middle" x="212.8237" y="-421.6837" font-family="century schoolbook" font-size="10.00" fill="#000000">2</text>
</g>
<!-- 17&#45;&#45;7 -->
<g id="edge17" class="edge">
<title>17&#45;&#45;7</title>
<path fill="none" stroke="#000000" d="M204.8466,-406.1637C194.9747,-383.8633 178.2595,-346.1042 168.353,-323.7257"/>
</g>
<!-- 17&#45;&#45;13 -->
<g id="edge18" class="edge">
<title>17&#45;&#45;13</title>
<path fill="none" stroke="#000000" d="M224.6388,-406.0843C247.3906,-371.2311 297.0395,-295.1747 319.7536,-260.3792"/>
</g>
<!-- 18 -->
<g id="node19" class="node">
<title>18</title>
<polygon fill="none" stroke="#000000" points="54,-421.5557 0,-421.5557 0,-385.5557 54,-385.5557 54,-421.5557"/>
<text text-anchor="middle" x="27" y="-401.0557" font-family="century schoolbook" font-size="10.00" fill="#000000">0,1</text>
</g>
<!-- 17&#45;&#45;18 -->
<g id="edge19" class="edge">
<title>17&#45;&#45;18</title>
<path fill="none" stroke="#000000" d="M185.8033,-421.1842C150.5724,-417.2733 89.2999,-410.4715 54.053,-406.5588"/>
</g>
<!-- 19 -->
<g id="node20" class="node">
<title>19</title>
<polygon fill="none" stroke="#000000" points="56.6307,-345.1399 2.6307,-345.1399 2.6307,-309.1399 56.6307,-309.1399 56.6307,-345.1399"/>
<text text-anchor="middle" x="29.6307" y="-324.6399" font-family="century schoolbook" font-size="10.00" fill="#000000">0,4</text>
</g>
<!-- 17&#45;&#45;19 -->
<g id="edge20" class="edge">
<title>17&#45;&#45;19</title>
<path fill="none" stroke="#000000" d="M185.7929,-409.8645C151.1573,-391.5168 91.4614,-359.8938 56.7724,-341.5178"/>
</g>
<!-- 20 -->
<g id="node21" class="node">
<title>20</title>
<polygon fill="none" stroke="#000000" points="265.7175,-201.523 211.7175,-201.523 211.7175,-165.523 265.7175,-165.523 265.7175,-201.523"/>
<text text-anchor="middle" x="238.7175" y="-181.023" font-family="century schoolbook" font-size="10.00" fill="#000000">1,5</text>
</g>
<!-- 17&#45;&#45;20 -->
<g id="edge21" class="edge">
<title>17&#45;&#45;20</title>
<path fill="none" stroke="#000000" d="M214.7699,-406.095C219.5686,-361.4952 231.9264,-246.6409 236.7487,-201.8216"/>
</g>
<!-- 21 -->
<g id="node22" class="node">
<title>21</title>
<polygon fill="none" stroke="#000000" points="468.0898,-526.1888 414.0898,-526.1888 414.0898,-490.1888 468.0898,-490.1888 468.0898,-526.1888"/>
<text text-anchor="middle" x="441.0898" y="-505.6888" font-family="century schoolbook" font-size="10.00" fill="#000000">3,7</text>
</g>
<!-- 17&#45;&#45;21 -->
<g id="edge22" class="edge">
<title>17&#45;&#45;21</title>
<path fill="none" stroke="#000000" d="M239.9052,-434.1501C283.837,-450.3176 370.1344,-482.0762 414.0435,-498.2354"/>
</g>
<!-- 22 -->
<g id="node23" class="node">
<title>22</title>
<polygon fill="none" stroke="#000000" points="234.491,-671.0913 180.491,-671.0913 180.491,-635.0913 234.491,-635.0913 234.491,-671.0913"/>
<text text-anchor="middle" x="207.491" y="-650.5913" font-family="century schoolbook" font-size="10.00" fill="#000000">4,7</text>
</g>
<!-- 17&#45;&#45;22 -->
<g id="edge23" class="edge">
<title>17&#45;&#45;22</title>
<path fill="none" stroke="#000000" d="M212.3963,-442.5292C211.3953,-485.4963 208.9087,-592.238 207.913,-634.9762"/>
</g>
<!-- 23 -->
<g id="node24" class="node">
<title>23</title>
<polygon fill="none" stroke="#000000" points="72.1195,-488.3167 18.1195,-488.3167 18.1195,-452.3167 72.1195,-452.3167 72.1195,-488.3167"/>
<text text-anchor="middle" x="45.1195" y="-467.8167" font-family="century schoolbook" font-size="10.00" fill="#000000">5,8</text>
</g>
<!-- 17&#45;&#45;23 -->
<g id="edge24" class="edge">
<title>17&#45;&#45;23</title>
<path fill="none" stroke="#000000" d="M185.5059,-431.6984C154.2274,-440.3027 103.3043,-454.3109 72.1478,-462.8816"/>
</g>
<!-- 24 -->
<g id="node25" class="node">
<title>24</title>
<polygon fill="none" stroke="#000000" points="226.1129,-377.8386 172.1129,-377.8386 172.1129,-341.8386 226.1129,-341.8386 226.1129,-377.8386"/>
<text text-anchor="middle" x="199.1129" y="-357.3386" font-family="century schoolbook" font-size="10.00" fill="#000000">3</text>
</g>
<!-- 24&#45;&#45;6 -->
<g id="edge25" class="edge">
<title>24&#45;&#45;6</title>
<path fill="none" stroke="#000000" d="M193.6121,-341.624C185.9632,-316.2964 172.1915,-270.6945 164.5094,-245.2571"/>
</g>
<!-- 24&#45;&#45;15 -->
<g id="edge26" class="edge">
<title>24&#45;&#45;15</title>
<path fill="none" stroke="#000000" d="M208.9406,-341.7428C229.9559,-303.0469 279.0541,-212.6414 300.0498,-173.9818"/>
</g>
<!-- 24&#45;&#45;18 -->
<g id="edge27" class="edge">
<title>24&#45;&#45;18</title>
<path fill="none" stroke="#000000" d="M171.8411,-366.7657C139.6134,-374.9516 86.3162,-388.4892 54.1442,-396.661"/>
</g>
<!-- 24&#45;&#45;19 -->
<g id="edge28" class="edge">
<title>24&#45;&#45;19</title>
<path fill="none" stroke="#000000" d="M171.8827,-354.585C140.2555,-348.483 88.3918,-338.4768 56.7934,-332.3804"/>
</g>
<!-- 24&#45;&#45;23 -->
<g id="edge29" class="edge">
<title>24&#45;&#45;23</title>
<path fill="none" stroke="#000000" d="M173.684,-378.0818C145.0661,-398.6129 98.8584,-431.7633 70.3302,-452.23"/>
</g>
<!-- 25 -->
<g id="node26" class="node">
<title>25</title>
<polygon fill="none" stroke="#000000" points="180.3528,-619.4544 126.3528,-619.4544 126.3528,-583.4544 180.3528,-583.4544 180.3528,-619.4544"/>
<text text-anchor="middle" x="153.3528" y="-598.9544" font-family="century schoolbook" font-size="10.00" fill="#000000">1,6</text>
</g>
<!-- 24&#45;&#45;25 -->
<g id="edge30" class="edge">
<title>24&#45;&#45;25</title>
<path fill="none" stroke="#000000" d="M195.6735,-377.9991C187.1723,-422.8856 165.2471,-538.6516 156.7697,-583.4128"/>
</g>
<!-- 26 -->
<g id="node27" class="node">
<title>26</title>
<polygon fill="none" stroke="#000000" points="432.0175,-498.2779 378.0175,-498.2779 378.0175,-462.2779 432.0175,-462.2779 432.0175,-498.2779"/>
<text text-anchor="middle" x="405.0175" y="-477.7779" font-family="century schoolbook" font-size="10.00" fill="#000000">2,6</text>
</g>
<!-- 24&#45;&#45;26 -->
<g id="edge31" class="edge">
<title>24&#45;&#45;26</title>
<path fill="none" stroke="#000000" d="M226.4555,-375.832C265.9469,-398.9317 338.5188,-441.3809 377.8899,-464.4102"/>
</g>
<!-- 27 -->
<g id="node28" class="node">
<title>27</title>
<polygon fill="none" stroke="#000000" points="267.0767,-124.8616 213.0767,-124.8616 213.0767,-88.8616 267.0767,-88.8616 267.0767,-124.8616"/>
<text text-anchor="middle" x="240.0767" y="-104.3616" font-family="century schoolbook" font-size="10.00" fill="#000000">2,7</text>
</g>
<!-- 24&#45;&#45;27 -->
<g id="edge32" class="edge">
<title>24&#45;&#45;27</title>
<path fill="none" stroke="#000000" d="M202.0589,-341.6451C209.6171,-294.969 229.6286,-171.3848 237.1574,-124.8903"/>
</g>
<!-- 28 -->
<g id="node29" class="node">
<title>28</title>
<polygon fill="none" stroke="#000000" points="501.0451,-202.226 447.0451,-202.226 447.0451,-166.226 501.0451,-166.226 501.0451,-202.226"/>
<text text-anchor="middle" x="474.0451" y="-181.726" font-family="century schoolbook" font-size="10.00" fill="#000000">4</text>
</g>
<!-- 28&#45;&#45;5 -->
<g id="edge33" class="edge">
<title>28&#45;&#45;5</title>
<path fill="none" stroke="#000000" d="M456.3441,-165.9153C439.5192,-148.5107 414.3577,-122.4824 397.559,-105.1051"/>
</g>
<!-- 28&#45;&#45;10 -->
<g id="edge34" class="edge">
<title>28&#45;&#45;10</title>
<path fill="none" stroke="#000000" d="M490.9687,-166.1654C514.9187,-140.6066 558.4533,-94.1475 582.4753,-68.5118"/>
</g>
<!-- 28&#45;&#45;11 -->
<g id="edge35" class="edge">
<title>28&#45;&#45;11</title>
<path fill="none" stroke="#000000" d="M480.1357,-166.1205C490.8919,-134.1454 513.1286,-68.0423 523.8794,-36.0832"/>
</g>
<!-- 28&#45;&#45;16 -->
<g id="edge36" class="edge">
<title>28&#45;&#45;16</title>
<path fill="none" stroke="#000000" d="M501.3237,-170.6639C534.6948,-154.0729 590.8402,-126.1592 624.0927,-109.6272"/>
</g>
<!-- 28&#45;&#45;20 -->
<g id="edge37" class="edge">
<title>28&#45;&#45;20</title>
<path fill="none" stroke="#000000" d="M446.5894,-184.144C401.2443,-184.0085 311.2283,-183.7396 265.9983,-183.6045"/>
</g>
<!-- 28&#45;&#45;27 -->
<g id="edge38" class="edge">
<title>28&#45;&#45;27</title>
<path fill="none" stroke="#000000" d="M446.748,-175.1999C401.6647,-160.2926 312.1687,-130.6997 267.1999,-115.8302"/>
</g>
<!-- 29 -->
<g id="node30" class="node">
<title>29</title>
<polygon fill="none" stroke="#000000" points="471.2682,-431.4724 417.2682,-431.4724 417.2682,-395.4724 471.2682,-395.4724 471.2682,-431.4724"/>
<text text-anchor="middle" x="444.2682" y="-410.9724" font-family="century schoolbook" font-size="10.00" fill="#000000">1,8</text>
</g>
<!-- 28&#45;&#45;29 -->
<g id="edge39" class="edge">
<title>28&#45;&#45;29</title>
<path fill="none" stroke="#000000" d="M471.6586,-202.5987C466.0694,-245.6294 452.1842,-352.5291 446.6247,-395.3305"/>
</g>
<!-- 30 -->
<g id="node31" class="node">
<title>30</title>
<polygon fill="none" stroke="#000000" points="739.0954,-278.0238 685.0954,-278.0238 685.0954,-242.0238 739.0954,-242.0238 739.0954,-278.0238"/>
<text text-anchor="middle" x="712.0954" y="-257.5238" font-family="century schoolbook" font-size="10.00" fill="#000000">3,8</text>
</g>
<!-- 28&#45;&#45;30 -->
<g id="edge40" class="edge">
<title>28&#45;&#45;30</title>
<path fill="none" stroke="#000000" d="M501.3525,-192.921C547.1494,-207.5032 638.9123,-236.7215 684.7409,-251.3138"/>
</g>
<!-- 31 -->
<g id="node32" class="node">
<title>31</title>
<polygon fill="none" stroke="#000000" points="704.7433,-509.9357 650.7433,-509.9357 650.7433,-473.9357 704.7433,-473.9357 704.7433,-509.9357"/>
<text text-anchor="middle" x="677.7433" y="-489.4357" font-family="century schoolbook" font-size="10.00" fill="#000000">5</text>
</g>
<!-- 31&#45;&#45;1 -->
<g id="edge41" class="edge">
<title>31&#45;&#45;1</title>
<path fill="none" stroke="#000000" d="M671.4281,-473.7509C660.6726,-442.7802 638.9182,-380.1378 628.12,-349.0442"/>
</g>
<!-- 31&#45;&#45;21 -->
<g id="edge42" class="edge">
<title>31&#45;&#45;21</title>
<path fill="none" stroke="#000000" d="M650.5961,-493.8001C605.0679,-496.927 513.8435,-503.1922 468.2839,-506.3211"/>
</g>
<!-- 31&#45;&#45;30 -->
<g id="edge43" class="edge">
<title>31&#45;&#45;30</title>
<path fill="none" stroke="#000000" d="M680.4388,-473.738C686.8605,-430.3855 703.0034,-321.404 709.4124,-278.137"/>
</g>
<!-- 32 -->
<g id="node33" class="node">
<title>32</title>
<polygon fill="none" stroke="#000000" points="867.1518,-494.1133 813.1518,-494.1133 813.1518,-458.1133 867.1518,-458.1133 867.1518,-494.1133"/>
<text text-anchor="middle" x="840.1518" y="-473.6133" font-family="century schoolbook" font-size="10.00" fill="#000000">0,6</text>
</g>
<!-- 31&#45;&#45;32 -->
<g id="edge44" class="edge">
<title>31&#45;&#45;32</title>
<path fill="none" stroke="#000000" d="M704.9268,-489.2874C734.9968,-486.3579 783.1536,-481.6663 813.1503,-478.7439"/>
</g>
<!-- 33 -->
<g id="node34" class="node">
<title>33</title>
<polygon fill="none" stroke="#000000" points="840.2446,-629.9765 786.2446,-629.9765 786.2446,-593.9765 840.2446,-593.9765 840.2446,-629.9765"/>
<text text-anchor="middle" x="813.2446" y="-609.4765" font-family="century schoolbook" font-size="10.00" fill="#000000">0,7</text>
</g>
<!-- 31&#45;&#45;33 -->
<g id="edge45" class="edge">
<title>31&#45;&#45;33</title>
<path fill="none" stroke="#000000" d="M698.323,-510.1673C723.9392,-532.8608 767.416,-571.3769 792.9152,-593.9667"/>
</g>
<!-- 34 -->
<g id="node35" class="node">
<title>34</title>
<polygon fill="none" stroke="#000000" points="864.3392,-563.3062 810.3392,-563.3062 810.3392,-527.3062 864.3392,-527.3062 864.3392,-563.3062"/>
<text text-anchor="middle" x="837.3392" y="-542.8062" font-family="century schoolbook" font-size="10.00" fill="#000000">1,4</text>
</g>
<!-- 31&#45;&#45;34 -->
<g id="edge46" class="edge">
<title>31&#45;&#45;34</title>
<path fill="none" stroke="#000000" d="M704.8166,-500.9893C734.1643,-510.8034 780.7336,-526.3767 810.1331,-536.2082"/>
</g>
<!-- 35 -->
<g id="node36" class="node">
<title>35</title>
<polygon fill="none" stroke="#000000" points="704.626,-722.4458 650.626,-722.4458 650.626,-686.4458 704.626,-686.4458 704.626,-722.4458"/>
<text text-anchor="middle" x="677.626" y="-701.9458" font-family="century schoolbook" font-size="10.00" fill="#000000">2,8</text>
</g>
<!-- 31&#45;&#45;35 -->
<g id="edge47" class="edge">
<title>31&#45;&#45;35</title>
<path fill="none" stroke="#000000" d="M677.7333,-510.0542C677.7111,-550.2033 677.6581,-646.2667 677.6359,-686.3732"/>
</g>
<!-- 36 -->
<g id="node37" class="node">
<title>36</title>
<polygon fill="none" stroke="#000000" points="615.0938,-693.2803 561.0938,-693.2803 561.0938,-657.2803 615.0938,-657.2803 615.0938,-693.2803"/>
<text text-anchor="middle" x="588.0938" y="-672.7803" font-family="century schoolbook" font-size="10.00" fill="#000000">4,6</text>
</g>
<!-- 31&#45;&#45;36 -->
<g id="edge48" class="edge">
<title>31&#45;&#45;36</title>
<path fill="none" stroke="#000000" d="M668.8196,-510.1858C651.6356,-545.3292 614.1369,-622.0188 596.9814,-657.104"/>
</g>
<!-- 37 -->
<g id="node38" class="node">
<title>37</title>
<polygon fill="none" stroke="#000000" points="479.1619,-708.1021 425.1619,-708.1021 425.1619,-672.1021 479.1619,-672.1021 479.1619,-708.1021"/>
<text text-anchor="middle" x="452.1619" y="-687.6021" font-family="century schoolbook" font-size="10.00" fill="#000000">6</text>
</g>
<!-- 37&#45;&#45;2 -->
<g id="edge49" class="edge">
<title>37&#45;&#45;2</title>
<path fill="none" stroke="#000000" d="M437.926,-671.8809C419.0376,-647.7048 385.8861,-605.2727 367.011,-581.1136"/>
</g>
<!-- 37&#45;&#45;14 -->
<g id="edge50" class="edge">
<title>37&#45;&#45;14</title>
<path fill="none" stroke="#000000" d="M460.0921,-671.8076C478.3089,-629.7824 522.9725,-526.7458 541.1638,-484.7795"/>
</g>
<!-- 37&#45;&#45;22 -->
<g id="edge51" class="edge">
<title>37&#45;&#45;22</title>
<path fill="none" stroke="#000000" d="M425.043,-685.9999C378.0122,-678.8857 281.8466,-664.3389 234.7314,-657.2119"/>
</g>
<!-- 37&#45;&#45;35 -->
<g id="edge52" class="edge">
<title>37&#45;&#45;35</title>
<path fill="none" stroke="#000000" d="M479.3582,-691.8323C522.6934,-694.5892 606.9375,-699.9487 650.3333,-702.7095"/>
</g>
<!-- 38 -->
<g id="node39" class="node">
<title>38</title>
<polygon fill="none" stroke="#000000" points="384.9085,-854.6318 330.9085,-854.6318 330.9085,-818.6318 384.9085,-818.6318 384.9085,-854.6318"/>
<text text-anchor="middle" x="357.9085" y="-834.1318" font-family="century schoolbook" font-size="10.00" fill="#000000">0,5</text>
</g>
<!-- 37&#45;&#45;38 -->
<g id="edge53" class="edge">
<title>37&#45;&#45;38</title>
<path fill="none" stroke="#000000" d="M440.4152,-708.3639C422.2551,-736.5963 387.5771,-790.508 369.5072,-818.6001"/>
</g>
<!-- 39 -->
<g id="node40" class="node">
<title>39</title>
<polygon fill="none" stroke="#000000" points="323.3662,-826.4539 269.3662,-826.4539 269.3662,-790.4539 323.3662,-790.4539 323.3662,-826.4539"/>
<text text-anchor="middle" x="296.3662" y="-805.9539" font-family="century schoolbook" font-size="10.00" fill="#000000">0,8</text>
</g>
<!-- 37&#45;&#45;39 -->
<g id="edge54" class="edge">
<title>37&#45;&#45;39</title>
<path fill="none" stroke="#000000" d="M428.1603,-708.3352C398.798,-730.6405 349.3973,-768.1682 320.1395,-790.3943"/>
</g>
<!-- 40 -->
<g id="node41" class="node">
<title>40</title>
<polygon fill="none" stroke="#000000" points="666.5545,-788.3783 612.5545,-788.3783 612.5545,-752.3783 666.5545,-752.3783 666.5545,-788.3783"/>
<text text-anchor="middle" x="639.5545" y="-767.8783" font-family="century schoolbook" font-size="10.00" fill="#000000">1,7</text>
</g>
<!-- 37&#45;&#45;40 -->
<g id="edge55" class="edge">
<title>37&#45;&#45;40</title>
<path fill="none" stroke="#000000" d="M479.4104,-701.775C514.9388,-716.9948 576.7286,-743.4646 612.2732,-758.6914"/>
</g>
<!-- 41 -->
<g id="node42" class="node">
<title>41</title>
<polygon fill="none" stroke="#000000" points="454.1546,-864.7432 400.1546,-864.7432 400.1546,-828.7432 454.1546,-828.7432 454.1546,-864.7432"/>
<text text-anchor="middle" x="427.1546" y="-844.2432" font-family="century schoolbook" font-size="10.00" fill="#000000">2,3</text>
</g>
<!-- 37&#45;&#45;41 -->
<g id="edge56" class="edge">
<title>37&#45;&#45;41</title>
<path fill="none" stroke="#000000" d="M449.2443,-708.3774C444.4257,-738.5605 434.86,-798.4779 430.0536,-828.5843"/>
</g>
<!-- 42 -->
<g id="node43" class="node">
<title>42</title>
<polygon fill="none" stroke="#000000" points="402.8277,-679.7141 348.8277,-679.7141 348.8277,-643.7141 402.8277,-643.7141 402.8277,-679.7141"/>
<text text-anchor="middle" x="375.8277" y="-659.2141" font-family="century schoolbook" font-size="10.00" fill="#000000">7</text>
</g>
<!-- 42&#45;&#45;3 -->
<g id="edge57" class="edge">
<title>42&#45;&#45;3</title>
<path fill="none" stroke="#000000" d="M358.0661,-643.5168C336.3377,-621.2553 299.7805,-583.8012 278.1293,-561.6188"/>
</g>
<!-- 42&#45;&#45;25 -->
<g id="edge58" class="edge">
<title>42&#45;&#45;25</title>
<path fill="none" stroke="#000000" d="M348.5479,-654.3251C305.7329,-642.7282 223.2448,-620.3854 180.5074,-608.8095"/>
</g>
<!-- 42&#45;&#45;29 -->
<g id="edge59" class="edge">
<title>42&#45;&#45;29</title>
<path fill="none" stroke="#000000" d="M380.8603,-643.4603C393.517,-597.5528 426.5636,-477.6892 439.2283,-431.753"/>
</g>
<!-- 42&#45;&#45;36 -->
<g id="edge60" class="edge">
<title>42&#45;&#45;36</title>
<path fill="none" stroke="#000000" d="M403.1432,-663.4598C443.901,-666.0647 520.1863,-670.9402 560.8831,-673.5412"/>
</g>
<!-- 42&#45;&#45;38 -->
<g id="edge61" class="edge">
<title>42&#45;&#45;38</title>
<path fill="none" stroke="#000000" d="M373.9775,-679.7745C370.5438,-713.2929 363.2218,-784.7659 359.7755,-818.4075"/>
</g>
<!-- 42&#45;&#45;39 -->
<g id="edge62" class="edge">
<title>42&#45;&#45;39</title>
<path fill="none" stroke="#000000" d="M365.9245,-680.0021C350.6144,-708.275 321.3786,-762.264 306.1446,-790.3964"/>
</g>
<!-- 42&#45;&#45;41 -->
<g id="edge63" class="edge">
<title>42&#45;&#45;41</title>
<path fill="none" stroke="#000000" d="M380.8426,-679.7923C390.6551,-715.1656 412.2905,-793.1595 422.1193,-828.5916"/>
</g>
<!-- 43 -->
<g id="node44" class="node">
<title>43</title>
<polygon fill="none" stroke="#000000" points="592.5309,-763.8147 538.5309,-763.8147 538.5309,-727.8147 592.5309,-727.8147 592.5309,-763.8147"/>
<text text-anchor="middle" x="565.5309" y="-743.3147" font-family="century schoolbook" font-size="10.00" fill="#000000">3,5</text>
</g>
<!-- 42&#45;&#45;43 -->
<g id="edge64" class="edge">
<title>42&#45;&#45;43</title>
<path fill="none" stroke="#000000" d="M403.0075,-673.7637C439.0701,-689.7512 502.3643,-717.8113 538.4015,-733.7875"/>
</g>
<!-- 44 -->
<g id="node45" class="node">
<title>44</title>
<polygon fill="none" stroke="#000000" points="685.2532,-568.4033 631.2532,-568.4033 631.2532,-532.4033 685.2532,-532.4033 685.2532,-568.4033"/>
<text text-anchor="middle" x="658.2532" y="-547.9033" font-family="century schoolbook" font-size="10.00" fill="#000000">8</text>
</g>
<!-- 44&#45;&#45;4 -->
<g id="edge65" class="edge">
<title>44&#45;&#45;4</title>
<path fill="none" stroke="#000000" d="M650.4527,-532.372C638.2431,-504.1491 614.7506,-449.845 602.5018,-421.5315"/>
</g>
<!-- 44&#45;&#45;12 -->
<g id="edge66" class="edge">
<title>44&#45;&#45;12</title>
<path fill="none" stroke="#000000" d="M665.2713,-532.2416C681.9904,-488.9749 724.0197,-380.2091 740.7059,-337.0277"/>
</g>
<!-- 44&#45;&#45;26 -->
<g id="edge67" class="edge">
<title>44&#45;&#45;26</title>
<path fill="none" stroke="#000000" d="M631.1525,-542.8987C582.5394,-529.4368 481.0551,-501.334 432.3061,-487.8346"/>
</g>
<!-- 44&#45;&#45;32 -->
<g id="edge68" class="edge">
<title>44&#45;&#45;32</title>
<path fill="none" stroke="#000000" d="M685.4853,-539.2814C719.876,-525.2357 778.6932,-501.2139 813.0311,-487.1898"/>
</g>
<!-- 44&#45;&#45;33 -->
<g id="edge69" class="edge">
<title>44&#45;&#45;33</title>
<path fill="none" stroke="#000000" d="M685.6058,-561.2696C713.9365,-572.5246 757.936,-590.0042 786.1655,-601.2188"/>
</g>
<!-- 44&#45;&#45;34 -->
<g id="edge70" class="edge">
<title>44&#45;&#45;34</title>
<path fill="none" stroke="#000000" d="M685.4525,-549.6292C719.2105,-548.6684 776.4376,-547.0396 810.1779,-546.0792"/>
</g>
<!-- 44&#45;&#45;40 -->
<g id="edge71" class="edge">
<title>44&#45;&#45;40</title>
<path fill="none" stroke="#000000" d="M656.723,-568.4048C653.2167,-609.6541 644.6325,-710.6398 641.1059,-752.1281"/>
</g>
<!-- 44&#45;&#45;43 -->
<g id="edge72" class="edge">
<title>44&#45;&#45;43</title>
<path fill="none" stroke="#000000" d="M649.6963,-568.4369C632.0772,-605.5691 591.9179,-690.2044 574.2019,-727.5407"/>
</g>
</g>
</svg>
