<?xml version="1.0" encoding="UTF-8" standalone="no"?>
<!DOCTYPE svg PUBLIC "-//W3C//DTD SVG 1.1//EN"
 "http://www.w3.org/Graphics/SVG/1.1/DTD/svg11.dtd">
<!-- Generated by graphviz version 2.40.1 (20161225.0304)
 -->
<!-- Title: g Pages: 1 -->
<svg width="549pt" height="633pt"
 viewBox="0.00 0.00 548.86 633.04" xmlns="http://www.w3.org/2000/svg" xmlns:xlink="http://www.w3.org/1999/xlink">
<g id="graph0" class="graph" transform="scale(1 1) rotate(0) translate(4 629.0377)">
<title>g</title>
<polygon fill="#ffffff" stroke="transparent" points="-4,4 -4,-629.0377 544.8591,-629.0377 544.8591,4 -4,4"/>
<!-- 0 -->
<g id="node1" class="node">
<title>0</title>
<text text-anchor="middle" x="80.1065" y="-61.5138" font-family="century schoolbook" font-size="10.00" fill="#000000">0,4</text>
</g>
<!-- 1 -->
<g id="node2" class="node">
<title>1</title>
<text text-anchor="middle" x="66.9039" y="-135.9452" font-family="century schoolbook" font-size="10.00" fill="#000000">1,6</text>
</g>
<!-- 0&#45;&#45;1 -->
<g id="edge1" class="edge">
<title>0&#45;&#45;1</title>
<path fill="none" stroke="#000000" d="M76.9106,-82.0315C74.8501,-93.648 72.18,-108.7009 70.1163,-120.3354"/>
</g>
<!-- 19 -->
<g id="node20" class="node">
<title>19</title>
<text text-anchor="middle" x="157.5003" y="-15.5" font-family="century schoolbook" font-size="10.00" fill="#000000">3,10</text>
</g>
<!-- 0&#45;&#45;19 -->
<g id="edge2" class="edge">
<title>0&#45;&#45;19</title>
<path fill="none" stroke="#000000" d="M107.1751,-47.9204C114.6726,-43.4628 122.8121,-38.6235 130.3162,-34.1621"/>
</g>
<!-- 30 -->
<g id="node31" class="node">
<title>30</title>
<text text-anchor="middle" x="155.3229" y="-55.2454" font-family="century schoolbook" font-size="10.00" fill="#000000">6,7</text>
</g>
<!-- 0&#45;&#45;30 -->
<g id="edge3" class="edge">
<title>0&#45;&#45;30</title>
<path fill="none" stroke="#000000" d="M107.2614,-61.7507C114.0783,-61.1826 121.393,-60.573 128.2079,-60.0051"/>
</g>
<!-- 33 -->
<g id="node34" class="node">
<title>33</title>
<text text-anchor="middle" x="27" y="-134.0962" font-family="century schoolbook" font-size="10.00" fill="#000000">9,10</text>
</g>
<!-- 0&#45;&#45;33 -->
<g id="edge4" class="edge">
<title>0&#45;&#45;33</title>
<path fill="none" stroke="#000000" d="M66.7055,-82.3294C58.5935,-93.4163 48.2905,-107.4977 40.2128,-118.5379"/>
</g>
<!-- 2 -->
<g id="node3" class="node">
<title>2</title>
<text text-anchor="middle" x="318.1065" y="-231.5138" font-family="century schoolbook" font-size="10.00" fill="#000000">1,5</text>
</g>
<!-- 3 -->
<g id="node4" class="node">
<title>3</title>
<text text-anchor="middle" x="304.9039" y="-305.9452" font-family="century schoolbook" font-size="10.00" fill="#000000">2,7</text>
</g>
<!-- 2&#45;&#45;3 -->
<g id="edge5" class="edge">
<title>2&#45;&#45;3</title>
<path fill="none" stroke="#000000" d="M314.9106,-252.0315C312.8501,-263.648 310.18,-278.7009 308.1163,-290.3354"/>
</g>
<!-- 21 -->
<g id="node22" class="node">
<title>21</title>
<text text-anchor="middle" x="395.5003" y="-185.5" font-family="century schoolbook" font-size="10.00" fill="#000000">4,11</text>
</g>
<!-- 2&#45;&#45;21 -->
<g id="edge6" class="edge">
<title>2&#45;&#45;21</title>
<path fill="none" stroke="#000000" d="M345.1751,-217.9204C352.6726,-213.4628 360.8121,-208.6235 368.3162,-204.1621"/>
</g>
<!-- 31 -->
<g id="node32" class="node">
<title>31</title>
<text text-anchor="middle" x="393.3229" y="-225.2454" font-family="century schoolbook" font-size="10.00" fill="#000000">7,8</text>
</g>
<!-- 2&#45;&#45;31 -->
<g id="edge7" class="edge">
<title>2&#45;&#45;31</title>
<path fill="none" stroke="#000000" d="M345.2614,-231.7507C352.0783,-231.1826 359.393,-230.573 366.2079,-230.0051"/>
</g>
<!-- 34 -->
<g id="node35" class="node">
<title>34</title>
<text text-anchor="middle" x="265" y="-304.0962" font-family="century schoolbook" font-size="10.00" fill="#000000">10,11</text>
</g>
<!-- 2&#45;&#45;34 -->
<g id="edge8" class="edge">
<title>2&#45;&#45;34</title>
<path fill="none" stroke="#000000" d="M304.7055,-252.3294C296.5935,-263.4163 286.2905,-277.4977 278.2128,-288.5379"/>
</g>
<!-- 4 -->
<g id="node5" class="node">
<title>4</title>
<text text-anchor="middle" x="80.1065" y="-401.5138" font-family="century schoolbook" font-size="10.00" fill="#000000">2,6</text>
</g>
<!-- 5 -->
<g id="node6" class="node">
<title>5</title>
<text text-anchor="middle" x="66.9039" y="-475.9452" font-family="century schoolbook" font-size="10.00" fill="#000000">3,8</text>
</g>
<!-- 4&#45;&#45;5 -->
<g id="edge9" class="edge">
<title>4&#45;&#45;5</title>
<path fill="none" stroke="#000000" d="M76.9106,-422.0315C74.8501,-433.648 72.18,-448.7009 70.1163,-460.3354"/>
</g>
<!-- 23 -->
<g id="node24" class="node">
<title>23</title>
<text text-anchor="middle" x="157.5003" y="-355.5" font-family="century schoolbook" font-size="10.00" fill="#000000">0,5</text>
</g>
<!-- 4&#45;&#45;23 -->
<g id="edge10" class="edge">
<title>4&#45;&#45;23</title>
<path fill="none" stroke="#000000" d="M107.1751,-387.9204C114.6726,-383.4628 122.8121,-378.6235 130.3162,-374.1621"/>
</g>
<!-- 32 -->
<g id="node33" class="node">
<title>32</title>
<text text-anchor="middle" x="155.3229" y="-395.2454" font-family="century schoolbook" font-size="10.00" fill="#000000">8,9</text>
</g>
<!-- 4&#45;&#45;32 -->
<g id="edge11" class="edge">
<title>4&#45;&#45;32</title>
<path fill="none" stroke="#000000" d="M107.2614,-401.7507C114.0783,-401.1826 121.393,-400.573 128.2079,-400.0051"/>
</g>
<!-- 35 -->
<g id="node36" class="node">
<title>35</title>
<text text-anchor="middle" x="27" y="-474.0962" font-family="century schoolbook" font-size="10.00" fill="#000000">0,11</text>
</g>
<!-- 4&#45;&#45;35 -->
<g id="edge12" class="edge">
<title>4&#45;&#45;35</title>
<path fill="none" stroke="#000000" d="M66.7055,-422.3294C58.5935,-433.4163 48.2905,-447.4977 40.2128,-458.5379"/>
</g>
<!-- 6 -->
<g id="node7" class="node">
<title>6</title>
<text text-anchor="middle" x="73.0282" y="-211.3135" font-family="century schoolbook" font-size="10.00" fill="#000000">3,7</text>
</g>
<!-- 6&#45;&#45;1 -->
<g id="edge13" class="edge">
<title>6&#45;&#45;1</title>
<path fill="none" stroke="#000000" d="M71.5457,-195.569C70.5828,-183.7192 69.333,-168.338 68.3728,-156.5218"/>
</g>
<!-- 7 -->
<g id="node8" class="node">
<title>7</title>
<text text-anchor="middle" x="145.4969" y="-264.5377" font-family="century schoolbook" font-size="10.00" fill="#000000">4,9</text>
</g>
<!-- 6&#45;&#45;7 -->
<g id="edge14" class="edge">
<title>6&#45;&#45;7</title>
<path fill="none" stroke="#000000" d="M97.5628,-231.8328C105.1182,-237.3818 113.4338,-243.4892 120.9875,-249.037"/>
</g>
<!-- 24 -->
<g id="node25" class="node">
<title>24</title>
<text text-anchor="middle" x="147.4146" y="-224.7411" font-family="century schoolbook" font-size="10.00" fill="#000000">0,1</text>
</g>
<!-- 6&#45;&#45;24 -->
<g id="edge15" class="edge">
<title>6&#45;&#45;24</title>
<path fill="none" stroke="#000000" d="M100.3045,-218.7372C106.773,-219.9048 113.6732,-221.1504 120.1415,-222.318"/>
</g>
<!-- 6&#45;&#45;33 -->
<g id="edge16" class="edge">
<title>6&#45;&#45;33</title>
<path fill="none" stroke="#000000" d="M62.1201,-195.5141C54.7829,-183.205 45.1506,-167.0458 37.8297,-154.7643"/>
</g>
<!-- 8 -->
<g id="node9" class="node">
<title>8</title>
<text text-anchor="middle" x="311.0282" y="-381.3135" font-family="century schoolbook" font-size="10.00" fill="#000000">4,8</text>
</g>
<!-- 8&#45;&#45;3 -->
<g id="edge17" class="edge">
<title>8&#45;&#45;3</title>
<path fill="none" stroke="#000000" d="M309.5457,-365.569C308.5828,-353.7192 307.333,-338.338 306.3728,-326.5218"/>
</g>
<!-- 9 -->
<g id="node10" class="node">
<title>9</title>
<text text-anchor="middle" x="383.4969" y="-434.5377" font-family="century schoolbook" font-size="10.00" fill="#000000">5,10</text>
</g>
<!-- 8&#45;&#45;9 -->
<g id="edge18" class="edge">
<title>8&#45;&#45;9</title>
<path fill="none" stroke="#000000" d="M335.5628,-401.8328C343.1182,-407.3818 351.4338,-413.4892 358.9875,-419.037"/>
</g>
<!-- 25 -->
<g id="node26" class="node">
<title>25</title>
<text text-anchor="middle" x="385.4146" y="-394.7411" font-family="century schoolbook" font-size="10.00" fill="#000000">1,2</text>
</g>
<!-- 8&#45;&#45;25 -->
<g id="edge19" class="edge">
<title>8&#45;&#45;25</title>
<path fill="none" stroke="#000000" d="M338.3045,-388.7372C344.773,-389.9048 351.6732,-391.1504 358.1415,-392.318"/>
</g>
<!-- 8&#45;&#45;34 -->
<g id="edge20" class="edge">
<title>8&#45;&#45;34</title>
<path fill="none" stroke="#000000" d="M300.1201,-365.5141C292.7829,-353.205 283.1506,-337.0458 275.8297,-324.7643"/>
</g>
<!-- 10 -->
<g id="node11" class="node">
<title>10</title>
<text text-anchor="middle" x="73.0282" y="-551.3135" font-family="century schoolbook" font-size="10.00" fill="#000000">5,9</text>
</g>
<!-- 10&#45;&#45;5 -->
<g id="edge21" class="edge">
<title>10&#45;&#45;5</title>
<path fill="none" stroke="#000000" d="M71.5457,-535.569C70.5828,-523.7192 69.333,-508.338 68.3728,-496.5218"/>
</g>
<!-- 11 -->
<g id="node12" class="node">
<title>11</title>
<text text-anchor="middle" x="145.4969" y="-604.5377" font-family="century schoolbook" font-size="10.00" fill="#000000">6,11</text>
</g>
<!-- 10&#45;&#45;11 -->
<g id="edge22" class="edge">
<title>10&#45;&#45;11</title>
<path fill="none" stroke="#000000" d="M97.5628,-571.8328C105.1182,-577.3818 113.4338,-583.4892 120.9875,-589.037"/>
</g>
<!-- 26 -->
<g id="node27" class="node">
<title>26</title>
<text text-anchor="middle" x="147.4146" y="-564.7411" font-family="century schoolbook" font-size="10.00" fill="#000000">2,3</text>
</g>
<!-- 10&#45;&#45;26 -->
<g id="edge23" class="edge">
<title>10&#45;&#45;26</title>
<path fill="none" stroke="#000000" d="M100.3045,-558.7372C106.773,-559.9048 113.6732,-561.1504 120.1415,-562.318"/>
</g>
<!-- 10&#45;&#45;35 -->
<g id="edge24" class="edge">
<title>10&#45;&#45;35</title>
<path fill="none" stroke="#000000" d="M62.1201,-535.5141C54.7829,-523.205 45.1506,-507.0458 37.8297,-494.7643"/>
</g>
<!-- 12 -->
<g id="node13" class="node">
<title>12</title>
<text text-anchor="middle" x="222.7395" y="-218.5012" font-family="century schoolbook" font-size="10.00" fill="#000000">6,10</text>
</g>
<!-- 12&#45;&#45;7 -->
<g id="edge25" class="edge">
<title>12&#45;&#45;7</title>
<path fill="none" stroke="#000000" d="M195.7238,-237.1025C188.2409,-241.5623 180.1173,-246.404 172.6279,-250.8676"/>
</g>
<!-- 13 -->
<g id="node14" class="node">
<title>13</title>
<text text-anchor="middle" x="235.964" y="-144.1088" font-family="century schoolbook" font-size="10.00" fill="#000000">0,7</text>
</g>
<!-- 12&#45;&#45;13 -->
<g id="edge26" class="edge">
<title>12&#45;&#45;13</title>
<path fill="none" stroke="#000000" d="M225.9408,-202.9928C228.0047,-191.3825 230.6792,-176.3375 232.7464,-164.7091"/>
</g>
<!-- 12&#45;&#45;24 -->
<g id="edge27" class="edge">
<title>12&#45;&#45;24</title>
<path fill="none" stroke="#000000" d="M195.5455,-223.2539C188.7187,-223.8194 181.3935,-224.4263 174.5687,-224.9916"/>
</g>
<!-- 27 -->
<g id="node28" class="node">
<title>27</title>
<text text-anchor="middle" x="275.8591" y="-145.9226" font-family="century schoolbook" font-size="10.00" fill="#000000">3,4</text>
</g>
<!-- 12&#45;&#45;27 -->
<g id="edge28" class="edge">
<title>12&#45;&#45;27</title>
<path fill="none" stroke="#000000" d="M236.1438,-202.6865C244.2578,-191.6002 254.5633,-177.5195 262.6431,-166.4799"/>
</g>
<!-- 14 -->
<g id="node15" class="node">
<title>14</title>
<text text-anchor="middle" x="460.7395" y="-388.5012" font-family="century schoolbook" font-size="10.00" fill="#000000">7,11</text>
</g>
<!-- 14&#45;&#45;9 -->
<g id="edge29" class="edge">
<title>14&#45;&#45;9</title>
<path fill="none" stroke="#000000" d="M433.7238,-407.1025C426.2409,-411.5623 418.1173,-416.404 410.6279,-420.8676"/>
</g>
<!-- 15 -->
<g id="node16" class="node">
<title>15</title>
<text text-anchor="middle" x="473.964" y="-314.1088" font-family="century schoolbook" font-size="10.00" fill="#000000">1,8</text>
</g>
<!-- 14&#45;&#45;15 -->
<g id="edge30" class="edge">
<title>14&#45;&#45;15</title>
<path fill="none" stroke="#000000" d="M463.9408,-372.9928C466.0047,-361.3825 468.6792,-346.3375 470.7464,-334.7091"/>
</g>
<!-- 14&#45;&#45;25 -->
<g id="edge31" class="edge">
<title>14&#45;&#45;25</title>
<path fill="none" stroke="#000000" d="M433.5455,-393.2539C426.7187,-393.8194 419.3935,-394.4263 412.5687,-394.9916"/>
</g>
<!-- 28 -->
<g id="node29" class="node">
<title>28</title>
<text text-anchor="middle" x="513.8591" y="-315.9226" font-family="century schoolbook" font-size="10.00" fill="#000000">4,5</text>
</g>
<!-- 14&#45;&#45;28 -->
<g id="edge32" class="edge">
<title>14&#45;&#45;28</title>
<path fill="none" stroke="#000000" d="M474.1438,-372.6865C482.2578,-361.6002 492.5633,-347.5195 500.6431,-336.4799"/>
</g>
<!-- 16 -->
<g id="node17" class="node">
<title>16</title>
<text text-anchor="middle" x="222.7395" y="-558.5012" font-family="century schoolbook" font-size="10.00" fill="#000000">0,8</text>
</g>
<!-- 16&#45;&#45;11 -->
<g id="edge33" class="edge">
<title>16&#45;&#45;11</title>
<path fill="none" stroke="#000000" d="M195.7238,-577.1025C188.2409,-581.5623 180.1173,-586.404 172.6279,-590.8676"/>
</g>
<!-- 17 -->
<g id="node18" class="node">
<title>17</title>
<text text-anchor="middle" x="235.964" y="-484.1088" font-family="century schoolbook" font-size="10.00" fill="#000000">2,9</text>
</g>
<!-- 16&#45;&#45;17 -->
<g id="edge34" class="edge">
<title>16&#45;&#45;17</title>
<path fill="none" stroke="#000000" d="M225.9408,-542.9928C228.0047,-531.3825 230.6792,-516.3375 232.7464,-504.7091"/>
</g>
<!-- 16&#45;&#45;26 -->
<g id="edge35" class="edge">
<title>16&#45;&#45;26</title>
<path fill="none" stroke="#000000" d="M195.5455,-563.2539C188.7187,-563.8194 181.3935,-564.4263 174.5687,-564.9916"/>
</g>
<!-- 29 -->
<g id="node30" class="node">
<title>29</title>
<text text-anchor="middle" x="275.8591" y="-485.9226" font-family="century schoolbook" font-size="10.00" fill="#000000">5,6</text>
</g>
<!-- 16&#45;&#45;29 -->
<g id="edge36" class="edge">
<title>16&#45;&#45;29</title>
<path fill="none" stroke="#000000" d="M236.1438,-542.6865C244.2578,-531.6002 254.5633,-517.5195 262.6431,-506.4799"/>
</g>
<!-- 18 -->
<g id="node19" class="node">
<title>18</title>
<text text-anchor="middle" x="229.801" y="-68.7525" font-family="century schoolbook" font-size="10.00" fill="#000000">1,9</text>
</g>
<!-- 18&#45;&#45;13 -->
<g id="edge37" class="edge">
<title>18&#45;&#45;13</title>
<path fill="none" stroke="#000000" d="M231.2929,-89.4942C232.2618,-101.342 233.5196,-116.7208 234.4858,-128.5351"/>
</g>
<!-- 18&#45;&#45;19 -->
<g id="edge38" class="edge">
<title>18&#45;&#45;19</title>
<path fill="none" stroke="#000000" d="M205.3233,-53.2237C197.7854,-47.6717 189.489,-41.561 181.9528,-36.0103"/>
</g>
<!-- 18&#45;&#45;27 -->
<g id="edge39" class="edge">
<title>18&#45;&#45;27</title>
<path fill="none" stroke="#000000" d="M240.7161,-89.5407C248.0581,-101.8423 257.6967,-117.9916 265.0223,-130.2656"/>
</g>
<!-- 18&#45;&#45;30 -->
<g id="edge40" class="edge">
<title>18&#45;&#45;30</title>
<path fill="none" stroke="#000000" d="M202.491,-66.2997C196.0146,-65.1251 189.1059,-63.8722 182.6296,-62.6977"/>
</g>
<!-- 20 -->
<g id="node21" class="node">
<title>20</title>
<text text-anchor="middle" x="467.801" y="-238.7525" font-family="century schoolbook" font-size="10.00" fill="#000000">2,10</text>
</g>
<!-- 20&#45;&#45;15 -->
<g id="edge41" class="edge">
<title>20&#45;&#45;15</title>
<path fill="none" stroke="#000000" d="M469.2929,-259.4942C470.2618,-271.342 471.5196,-286.7208 472.4858,-298.5351"/>
</g>
<!-- 20&#45;&#45;21 -->
<g id="edge42" class="edge">
<title>20&#45;&#45;21</title>
<path fill="none" stroke="#000000" d="M443.3233,-223.2237C435.7854,-217.6717 427.489,-211.561 419.9528,-206.0103"/>
</g>
<!-- 20&#45;&#45;28 -->
<g id="edge43" class="edge">
<title>20&#45;&#45;28</title>
<path fill="none" stroke="#000000" d="M478.7161,-259.5407C486.0581,-271.8423 495.6967,-287.9916 503.0223,-300.2656"/>
</g>
<!-- 20&#45;&#45;31 -->
<g id="edge44" class="edge">
<title>20&#45;&#45;31</title>
<path fill="none" stroke="#000000" d="M440.491,-236.2997C434.0146,-235.1251 427.1059,-233.8722 420.6296,-232.6977"/>
</g>
<!-- 22 -->
<g id="node23" class="node">
<title>22</title>
<text text-anchor="middle" x="229.801" y="-408.7525" font-family="century schoolbook" font-size="10.00" fill="#000000">3,11</text>
</g>
<!-- 22&#45;&#45;17 -->
<g id="edge45" class="edge">
<title>22&#45;&#45;17</title>
<path fill="none" stroke="#000000" d="M231.2929,-429.4942C232.2618,-441.342 233.5196,-456.7208 234.4858,-468.5351"/>
</g>
<!-- 22&#45;&#45;23 -->
<g id="edge46" class="edge">
<title>22&#45;&#45;23</title>
<path fill="none" stroke="#000000" d="M205.3233,-393.2237C197.7854,-387.6717 189.489,-381.561 181.9528,-376.0103"/>
</g>
<!-- 22&#45;&#45;29 -->
<g id="edge47" class="edge">
<title>22&#45;&#45;29</title>
<path fill="none" stroke="#000000" d="M240.7161,-429.5407C248.0581,-441.8423 257.6967,-457.9916 265.0223,-470.2656"/>
</g>
<!-- 22&#45;&#45;32 -->
<g id="edge48" class="edge">
<title>22&#45;&#45;32</title>
<path fill="none" stroke="#000000" d="M202.491,-406.2997C196.0146,-405.1251 189.1059,-403.8722 182.6296,-402.6977"/>
</g>
</g>
</svg>
