<?xml version="1.0" encoding="UTF-8" standalone="no"?>
<!DOCTYPE svg PUBLIC "-//W3C//DTD SVG 1.1//EN"
 "http://www.w3.org/Graphics/SVG/1.1/DTD/svg11.dtd">
<!-- Generated by graphviz version 2.40.1 (20161225.0304)
 -->
<!-- Title: g Pages: 1 -->
<svg width="812pt" height="576pt"
 viewBox="0.00 0.00 812.38 575.80" xmlns="http://www.w3.org/2000/svg" xmlns:xlink="http://www.w3.org/1999/xlink">
<g id="graph0" class="graph" transform="scale(1 1) rotate(0) translate(4 571.7984)">
<title>g</title>
<polygon fill="#ffffff" stroke="transparent" points="-4,4 -4,-571.7984 808.3775,-571.7984 808.3775,4 -4,4"/>
<!-- 0 -->
<g id="node1" class="node">
<title>0</title>
<polygon fill="none" stroke="#000000" points="54,-149.778 0,-149.778 0,-113.778 54,-113.778 54,-149.778"/>
<text text-anchor="middle" x="27" y="-129.278" font-family="century schoolbook" font-size="10.00" fill="#000000">0,2,5</text>
</g>
<!-- 1 -->
<g id="node2" class="node">
<title>1</title>
<polygon fill="none" stroke="#000000" points="160.1502,-180.0934 106.1502,-180.0934 106.1502,-144.0934 160.1502,-144.0934 160.1502,-180.0934"/>
<text text-anchor="middle" x="133.1502" y="-159.5934" font-family="century schoolbook" font-size="10.00" fill="#000000">1,3,6</text>
</g>
<!-- 0&#45;&#45;1 -->
<g id="edge1" class="edge">
<title>0&#45;&#45;1</title>
<path fill="none" stroke="#000000" d="M54.0608,-139.5063C70.0314,-144.0673 90.1769,-149.8207 106.1388,-154.3792"/>
</g>
<!-- 2 -->
<g id="node3" class="node">
<title>2</title>
<polygon fill="none" stroke="#000000" points="137.4635,-74 83.4635,-74 83.4635,-38 137.4635,-38 137.4635,-74"/>
<text text-anchor="middle" x="110.4635" y="-53.5" font-family="century schoolbook" font-size="10.00" fill="#000000">0,3,5</text>
</g>
<!-- 0&#45;&#45;2 -->
<g id="edge2" class="edge">
<title>0&#45;&#45;2</title>
<path fill="none" stroke="#000000" d="M47.2042,-113.4342C60.3267,-101.52 77.3601,-86.0552 90.4454,-74.1748"/>
</g>
<!-- 3 -->
<g id="node4" class="node">
<title>3</title>
<polygon fill="none" stroke="#000000" points="266.3603,-216.9851 212.3603,-216.9851 212.3603,-180.9851 266.3603,-180.9851 266.3603,-216.9851"/>
<text text-anchor="middle" x="239.3603" y="-196.4851" font-family="century schoolbook" font-size="10.00" fill="#000000">2,4,7</text>
</g>
<!-- 1&#45;&#45;3 -->
<g id="edge3" class="edge">
<title>1&#45;&#45;3</title>
<path fill="none" stroke="#000000" d="M160.2263,-171.4982C176.2059,-177.0486 196.3627,-184.05 212.3336,-189.5975"/>
</g>
<!-- 4 -->
<g id="node5" class="node">
<title>4</title>
<polygon fill="none" stroke="#000000" points="245.9659,-107.6001 191.9659,-107.6001 191.9659,-71.6001 245.9659,-71.6001 245.9659,-107.6001"/>
<text text-anchor="middle" x="218.9659" y="-87.1001" font-family="century schoolbook" font-size="10.00" fill="#000000">1,4,6</text>
</g>
<!-- 1&#45;&#45;4 -->
<g id="edge4" class="edge">
<title>1&#45;&#45;4</title>
<path fill="none" stroke="#000000" d="M154.8052,-143.8003C167.9135,-132.727 184.5622,-118.6628 197.6152,-107.6362"/>
</g>
<!-- 2&#45;&#45;1 -->
<g id="edge5" class="edge">
<title>2&#45;&#45;1</title>
<path fill="none" stroke="#000000" d="M114.4153,-74.4801C118.5793,-93.9528 125.097,-124.4327 129.2438,-143.8251"/>
</g>
<!-- 2&#45;&#45;4 -->
<g id="edge6" class="edge">
<title>2&#45;&#45;4</title>
<path fill="none" stroke="#000000" d="M137.5634,-64.392C154.1344,-69.5236 175.2589,-76.0653 191.8355,-81.1986"/>
</g>
<!-- 5 -->
<g id="node6" class="node">
<title>5</title>
<polygon fill="none" stroke="#000000" points="372.2085,-255.3672 318.2085,-255.3672 318.2085,-219.3672 372.2085,-219.3672 372.2085,-255.3672"/>
<text text-anchor="middle" x="345.2085" y="-234.8672" font-family="century schoolbook" font-size="10.00" fill="#000000">3,5,8</text>
</g>
<!-- 3&#45;&#45;5 -->
<g id="edge7" class="edge">
<title>3&#45;&#45;5</title>
<path fill="none" stroke="#000000" d="M266.6188,-208.8694C282.4224,-214.6 302.2545,-221.7915 318.0423,-227.5164"/>
</g>
<!-- 6 -->
<g id="node7" class="node">
<title>6</title>
<polygon fill="none" stroke="#000000" points="353.0015,-145.0583 299.0015,-145.0583 299.0015,-109.0583 353.0015,-109.0583 353.0015,-145.0583"/>
<text text-anchor="middle" x="326.0015" y="-124.5583" font-family="century schoolbook" font-size="10.00" fill="#000000">2,5,7</text>
</g>
<!-- 3&#45;&#45;6 -->
<g id="edge8" class="edge">
<title>3&#45;&#45;6</title>
<path fill="none" stroke="#000000" d="M261.2235,-180.8349C274.3577,-169.9314 291.0124,-156.1052 304.1453,-145.2027"/>
</g>
<!-- 4&#45;&#45;3 -->
<g id="edge9" class="edge">
<title>4&#45;&#45;3</title>
<path fill="none" stroke="#000000" d="M222.3336,-107.6628C226.1124,-127.9301 232.2068,-160.6173 235.9876,-180.8955"/>
</g>
<!-- 4&#45;&#45;6 -->
<g id="edge10" class="edge">
<title>4&#45;&#45;6</title>
<path fill="none" stroke="#000000" d="M245.9755,-99.0524C262.2013,-104.7308 282.7763,-111.9312 299.0006,-117.6091"/>
</g>
<!-- 7 -->
<g id="node8" class="node">
<title>7</title>
<polygon fill="none" stroke="#000000" points="477.896,-294.5506 423.896,-294.5506 423.896,-258.5506 477.896,-258.5506 477.896,-294.5506"/>
<text text-anchor="middle" x="450.896" y="-274.0506" font-family="century schoolbook" font-size="10.00" fill="#000000">4,6,9</text>
</g>
<!-- 5&#45;&#45;7 -->
<g id="edge11" class="edge">
<title>5&#45;&#45;7</title>
<path fill="none" stroke="#000000" d="M372.4256,-247.4579C388.2052,-253.3082 408.0072,-260.6497 423.7711,-266.4941"/>
</g>
<!-- 8 -->
<g id="node9" class="node">
<title>8</title>
<polygon fill="none" stroke="#000000" points="459.2703,-184.0072 405.2703,-184.0072 405.2703,-148.0072 459.2703,-148.0072 459.2703,-184.0072"/>
<text text-anchor="middle" x="432.2703" y="-163.5072" font-family="century schoolbook" font-size="10.00" fill="#000000">3,6,8</text>
</g>
<!-- 5&#45;&#45;8 -->
<g id="edge12" class="edge">
<title>5&#45;&#45;8</title>
<path fill="none" stroke="#000000" d="M367.1778,-219.3601C380.3758,-208.5424 397.1113,-194.8252 410.3079,-184.0086"/>
</g>
<!-- 6&#45;&#45;5 -->
<g id="edge13" class="edge">
<title>6&#45;&#45;5</title>
<path fill="none" stroke="#000000" d="M329.1732,-145.2736C332.7319,-165.7121 338.4715,-198.6754 342.0321,-219.1249"/>
</g>
<!-- 6&#45;&#45;8 -->
<g id="edge14" class="edge">
<title>6&#45;&#45;8</title>
<path fill="none" stroke="#000000" d="M353.0926,-136.9876C369.0809,-142.8475 389.249,-150.2393 405.2287,-156.0961"/>
</g>
<!-- 9 -->
<g id="node10" class="node">
<title>9</title>
<polygon fill="none" stroke="#000000" points="583.919,-333.6353 529.919,-333.6353 529.919,-297.6353 583.919,-297.6353 583.919,-333.6353"/>
<text text-anchor="middle" x="556.919" y="-313.1353" font-family="century schoolbook" font-size="10.00" fill="#000000">5,7,10</text>
</g>
<!-- 7&#45;&#45;9 -->
<g id="edge15" class="edge">
<title>7&#45;&#45;9</title>
<path fill="none" stroke="#000000" d="M477.9244,-286.5144C493.7531,-292.3496 513.6878,-299.6984 529.5713,-305.5537"/>
</g>
<!-- 10 -->
<g id="node11" class="node">
<title>10</title>
<polygon fill="none" stroke="#000000" points="565.0856,-223.6356 511.0856,-223.6356 511.0856,-187.6356 565.0856,-187.6356 565.0856,-223.6356"/>
<text text-anchor="middle" x="538.0856" y="-203.1356" font-family="century schoolbook" font-size="10.00" fill="#000000">4,7,9</text>
</g>
<!-- 7&#45;&#45;10 -->
<g id="edge16" class="edge">
<title>7&#45;&#45;10</title>
<path fill="none" stroke="#000000" d="M473.3495,-258.2882C486.3672,-247.7004 502.7034,-234.4134 515.7082,-223.8361"/>
</g>
<!-- 8&#45;&#45;7 -->
<g id="edge17" class="edge">
<title>8&#45;&#45;7</title>
<path fill="none" stroke="#000000" d="M435.3459,-184.2612C438.797,-204.7431 444.3628,-237.7765 447.8158,-258.2695"/>
</g>
<!-- 8&#45;&#45;10 -->
<g id="edge18" class="edge">
<title>8&#45;&#45;10</title>
<path fill="none" stroke="#000000" d="M459.5203,-176.2125C475.319,-182.1292 495.145,-189.5541 510.9279,-195.4649"/>
</g>
<!-- 11 -->
<g id="node12" class="node">
<title>11</title>
<polygon fill="none" stroke="#000000" points="691.3576,-369.6949 637.3576,-369.6949 637.3576,-333.6949 691.3576,-333.6949 691.3576,-369.6949"/>
<text text-anchor="middle" x="664.3576" y="-349.1949" font-family="century schoolbook" font-size="10.00" fill="#000000">6,8,11</text>
</g>
<!-- 9&#45;&#45;11 -->
<g id="edge19" class="edge">
<title>9&#45;&#45;11</title>
<path fill="none" stroke="#000000" d="M584.0303,-324.7346C600.3172,-330.201 620.9697,-337.1326 637.255,-342.5984"/>
</g>
<!-- 12 -->
<g id="node13" class="node">
<title>12</title>
<polygon fill="none" stroke="#000000" points="670.7231,-262.822 616.7231,-262.822 616.7231,-226.822 670.7231,-226.822 670.7231,-262.822"/>
<text text-anchor="middle" x="643.7231" y="-242.322" font-family="century schoolbook" font-size="10.00" fill="#000000">5,8,10</text>
</g>
<!-- 9&#45;&#45;12 -->
<g id="edge20" class="edge">
<title>9&#45;&#45;12</title>
<path fill="none" stroke="#000000" d="M579.2732,-297.3991C592.2334,-286.8264 608.4974,-273.5586 621.4446,-262.9964"/>
</g>
<!-- 10&#45;&#45;9 -->
<g id="edge21" class="edge">
<title>10&#45;&#45;9</title>
<path fill="none" stroke="#000000" d="M541.1956,-223.7998C544.6851,-244.181 550.313,-277.0519 553.8044,-297.4441"/>
</g>
<!-- 10&#45;&#45;12 -->
<g id="edge22" class="edge">
<title>10&#45;&#45;12</title>
<path fill="none" stroke="#000000" d="M565.2899,-215.7271C581.062,-221.5778 600.8546,-228.9199 616.611,-234.7648"/>
</g>
<!-- 13 -->
<g id="node14" class="node">
<title>13</title>
<polygon fill="none" stroke="#000000" points="776.1606,-295.7421 722.1606,-295.7421 722.1606,-259.7421 776.1606,-259.7421 776.1606,-295.7421"/>
<text text-anchor="middle" x="749.1606" y="-275.2421" font-family="century schoolbook" font-size="10.00" fill="#000000">6,9,11</text>
</g>
<!-- 11&#45;&#45;13 -->
<g id="edge23" class="edge">
<title>11&#45;&#45;13</title>
<path fill="none" stroke="#000000" d="M685.3202,-333.4144C698.465,-321.9514 715.3403,-307.2352 728.4392,-295.8123"/>
</g>
<!-- 12&#45;&#45;11 -->
<g id="edge24" class="edge">
<title>12&#45;&#45;11</title>
<path fill="none" stroke="#000000" d="M647.2235,-262.9515C651.0179,-282.6041 657.039,-313.7891 660.8401,-333.4764"/>
</g>
<!-- 12&#45;&#45;13 -->
<g id="edge25" class="edge">
<title>12&#45;&#45;13</title>
<path fill="none" stroke="#000000" d="M670.8759,-253.2998C686.6181,-258.2149 706.3733,-264.3829 722.0998,-269.2931"/>
</g>
<!-- 14 -->
<g id="node15" class="node">
<title>14</title>
<polygon fill="none" stroke="#000000" points="396,-381.0955 342,-381.0955 342,-345.0955 396,-345.0955 396,-381.0955"/>
<text text-anchor="middle" x="369" y="-360.5955" font-family="century schoolbook" font-size="10.00" fill="#000000">0,7,9</text>
</g>
<!-- 15 -->
<g id="node16" class="node">
<title>15</title>
<polygon fill="none" stroke="#000000" points="509.3877,-457.4097 455.3877,-457.4097 455.3877,-421.4097 509.3877,-421.4097 509.3877,-457.4097"/>
<text text-anchor="middle" x="482.3877" y="-436.9097" font-family="century schoolbook" font-size="10.00" fill="#000000">1,8,10</text>
</g>
<!-- 14&#45;&#45;15 -->
<g id="edge26" class="edge">
<title>14&#45;&#45;15</title>
<path fill="none" stroke="#000000" d="M395.8713,-381.1809C413.8153,-393.2578 437.3312,-409.085 455.3164,-421.1896"/>
</g>
<!-- 16 -->
<g id="node17" class="node">
<title>16</title>
<polygon fill="none" stroke="#000000" points="484.7033,-378 430.7033,-378 430.7033,-342 484.7033,-342 484.7033,-378"/>
<text text-anchor="middle" x="457.7033" y="-357.5" font-family="century schoolbook" font-size="10.00" fill="#000000">0,7,10</text>
</g>
<!-- 14&#45;&#45;16 -->
<g id="edge27" class="edge">
<title>14&#45;&#45;16</title>
<path fill="none" stroke="#000000" d="M396.0959,-362.1499C406.999,-361.7694 419.5505,-361.3314 430.4677,-360.9505"/>
</g>
<!-- 17 -->
<g id="node18" class="node">
<title>17</title>
<polygon fill="none" stroke="#000000" points="526.7522,-567.7984 472.7522,-567.7984 472.7522,-531.7984 526.7522,-531.7984 526.7522,-567.7984"/>
<text text-anchor="middle" x="499.7522" y="-547.2984" font-family="century schoolbook" font-size="10.00" fill="#000000">2,9,11</text>
</g>
<!-- 15&#45;&#45;17 -->
<g id="edge28" class="edge">
<title>15&#45;&#45;17</title>
<path fill="none" stroke="#000000" d="M485.2551,-457.6381C488.4725,-478.0914 493.6615,-511.0785 496.8806,-531.5428"/>
</g>
<!-- 18 -->
<g id="node19" class="node">
<title>18</title>
<polygon fill="none" stroke="#000000" points="437.657,-509.4219 383.657,-509.4219 383.657,-473.4219 437.657,-473.4219 437.657,-509.4219"/>
<text text-anchor="middle" x="410.657" y="-488.9219" font-family="century schoolbook" font-size="10.00" fill="#000000">1,8,11</text>
</g>
<!-- 15&#45;&#45;18 -->
<g id="edge29" class="edge">
<title>15&#45;&#45;18</title>
<path fill="none" stroke="#000000" d="M457.2998,-457.601C450.3509,-462.6397 442.807,-468.1099 435.852,-473.1529"/>
</g>
<!-- 16&#45;&#45;15 -->
<g id="edge30" class="edge">
<title>16&#45;&#45;15</title>
<path fill="none" stroke="#000000" d="M463.3046,-378.0193C467.3159,-390.9236 472.6975,-408.2364 476.7232,-421.1868"/>
</g>
<!-- 16&#45;&#45;18 -->
<g id="edge31" class="edge">
<title>16&#45;&#45;18</title>
<path fill="none" stroke="#000000" d="M451.1617,-378.2737C442.1734,-403.3822 426.1021,-448.2768 417.143,-473.3035"/>
</g>
<!-- 18&#45;&#45;17 -->
<g id="edge32" class="edge">
<title>18&#45;&#45;17</title>
<path fill="none" stroke="#000000" d="M437.8726,-509.254C448.9263,-516.4965 461.6667,-524.8442 472.7033,-532.0755"/>
</g>
<!-- 19 -->
<g id="node20" class="node">
<title>19</title>
<polygon fill="none" stroke="#000000" points="650.4525,-36 596.4525,-36 596.4525,0 650.4525,0 650.4525,-36"/>
<text text-anchor="middle" x="623.4525" y="-15.5" font-family="century schoolbook" font-size="10.00" fill="#000000">0,3,10</text>
</g>
<!-- 20 -->
<g id="node21" class="node">
<title>20</title>
<polygon fill="none" stroke="#000000" points="763.9274,-50.0218 709.9274,-50.0218 709.9274,-14.0218 763.9274,-14.0218 763.9274,-50.0218"/>
<text text-anchor="middle" x="736.9274" y="-29.5218" font-family="century schoolbook" font-size="10.00" fill="#000000">1,4,11</text>
</g>
<!-- 19&#45;&#45;20 -->
<g id="edge33" class="edge">
<title>19&#45;&#45;20</title>
<path fill="none" stroke="#000000" d="M650.6325,-21.3586C668.4669,-23.5623 691.707,-26.4341 709.5758,-28.6421"/>
</g>
<!-- 21 -->
<g id="node22" class="node">
<title>21</title>
<polygon fill="none" stroke="#000000" points="695.9412,-134.0262 641.9412,-134.0262 641.9412,-98.0262 695.9412,-98.0262 695.9412,-134.0262"/>
<text text-anchor="middle" x="668.9412" y="-113.5262" font-family="century schoolbook" font-size="10.00" fill="#000000">1,3,10</text>
</g>
<!-- 19&#45;&#45;21 -->
<g id="edge34" class="edge">
<title>19&#45;&#45;21</title>
<path fill="none" stroke="#000000" d="M632.0085,-36.438C640.1927,-54.0744 652.4576,-80.5048 660.5772,-98.0021"/>
</g>
<!-- 22 -->
<g id="node23" class="node">
<title>22</title>
<polygon fill="none" stroke="#000000" points="804.3775,-153.5801 750.3775,-153.5801 750.3775,-117.5801 804.3775,-117.5801 804.3775,-153.5801"/>
<text text-anchor="middle" x="777.3775" y="-133.0801" font-family="century schoolbook" font-size="10.00" fill="#000000">2,4,11</text>
</g>
<!-- 20&#45;&#45;22 -->
<g id="edge35" class="edge">
<title>20&#45;&#45;22</title>
<path fill="none" stroke="#000000" d="M743.9733,-50.0603C751.3523,-68.9519 762.877,-98.4569 770.2766,-117.4009"/>
</g>
<!-- 21&#45;&#45;20 -->
<g id="edge36" class="edge">
<title>21&#45;&#45;20</title>
<path fill="none" stroke="#000000" d="M683.6932,-97.7985C695.0968,-83.7082 710.8079,-64.2953 722.2042,-50.214"/>
</g>
<!-- 21&#45;&#45;22 -->
<g id="edge37" class="edge">
<title>21&#45;&#45;22</title>
<path fill="none" stroke="#000000" d="M696.0245,-120.91C712.5854,-123.8964 733.6971,-127.7034 750.2636,-130.6908"/>
</g>
<!-- 23 -->
<g id="node24" class="node">
<title>23</title>
<polygon fill="none" stroke="#000000" points="586,-126.5921 532,-126.5921 532,-90.5921 586,-90.5921 586,-126.5921"/>
<text text-anchor="middle" x="559" y="-106.0921" font-family="century schoolbook" font-size="10.00" fill="#000000">0,2,9</text>
</g>
<!-- 23&#45;&#45;19 -->
<g id="edge38" class="edge">
<title>23&#45;&#45;19</title>
<path fill="none" stroke="#000000" d="M572.0429,-90.2594C583.2251,-74.5421 599.2523,-52.0148 610.4289,-36.3054"/>
</g>
<!-- 23&#45;&#45;21 -->
<g id="edge39" class="edge">
<title>23&#45;&#45;21</title>
<path fill="none" stroke="#000000" d="M586.1765,-110.4297C603.0907,-111.5734 624.7693,-113.0393 641.6963,-114.1839"/>
</g>
</g>
</svg>
