<?xml version="1.0" encoding="UTF-8" standalone="no"?>
<!DOCTYPE svg PUBLIC "-//W3C//DTD SVG 1.1//EN"
 "http://www.w3.org/Graphics/SVG/1.1/DTD/svg11.dtd">
<!-- Generated by graphviz version 2.40.1 (20161225.0304)
 -->
<!-- Title: g Pages: 1 -->
<svg width="586pt" height="376pt"
 viewBox="0.00 0.00 585.68 375.94" xmlns="http://www.w3.org/2000/svg" xmlns:xlink="http://www.w3.org/1999/xlink">
<g id="graph0" class="graph" transform="scale(1 1) rotate(0) translate(4 371.9426)">
<title>g</title>
<polygon fill="#ffffff" stroke="transparent" points="-4,4 -4,-371.9426 581.6836,-371.9426 581.6836,4 -4,4"/>
<!-- 0 -->
<g id="node1" class="node">
<title>0</title>
<text text-anchor="middle" x="325.5209" y="-72.65" font-family="century schoolbook" font-size="10.00" fill="#000000">C♮</text>
</g>
<!-- 1 -->
<g id="node2" class="node">
<title>1</title>
<text text-anchor="middle" x="400.1582" y="-35.1593" font-family="century schoolbook" font-size="10.00" fill="#000000">c♮</text>
</g>
<!-- 0&#45;&#45;1 -->
<g id="edge1" class="edge">
<title>0&#45;&#45;1</title>
<path fill="none" stroke="#000000" d="M352.8893,-61.4027C359.4628,-58.1008 366.4806,-54.5757 373.0426,-51.2796"/>
</g>
<!-- 9 -->
<g id="node10" class="node">
<title>9</title>
<text text-anchor="middle" x="327.0707" y="-160.9538" font-family="century schoolbook" font-size="10.00" fill="#000000">e♮</text>
</g>
<!-- 0&#45;&#45;9 -->
<g id="edge2" class="edge">
<title>0&#45;&#45;9</title>
<path fill="none" stroke="#000000" d="M325.842,-93.4466C326.108,-108.6017 326.4841,-130.032 326.75,-145.1806"/>
</g>
<!-- 19 -->
<g id="node20" class="node">
<title>19</title>
<text text-anchor="middle" x="248.8733" y="-37.4434" font-family="century schoolbook" font-size="10.00" fill="#000000">a♮</text>
</g>
<!-- 0&#45;&#45;19 -->
<g id="edge3" class="edge">
<title>0&#45;&#45;19</title>
<path fill="none" stroke="#000000" d="M298.282,-62.6383C291.0532,-59.3179 283.2486,-55.733 276.0245,-52.4147"/>
</g>
<!-- 2 -->
<g id="node3" class="node">
<title>2</title>
<text text-anchor="middle" x="96.7156" y="-205.8853" font-family="century schoolbook" font-size="10.00" fill="#000000">C♯</text>
</g>
<!-- 3 -->
<g id="node4" class="node">
<title>3</title>
<text text-anchor="middle" x="172.8537" y="-163.2822" font-family="century schoolbook" font-size="10.00" fill="#000000">c♯</text>
</g>
<!-- 2&#45;&#45;3 -->
<g id="edge4" class="edge">
<title>2&#45;&#45;3</title>
<path fill="none" stroke="#000000" d="M123.7734,-193.2451C130.8687,-189.2749 138.5223,-184.9923 145.6264,-181.0172"/>
</g>
<!-- 11 -->
<g id="node12" class="node">
<title>11</title>
<text text-anchor="middle" x="99.2673" y="-292.1036" font-family="century schoolbook" font-size="10.00" fill="#000000">f♮</text>
</g>
<!-- 2&#45;&#45;11 -->
<g id="edge5" class="edge">
<title>2&#45;&#45;11</title>
<path fill="none" stroke="#000000" d="M97.2567,-226.6699C97.6898,-241.3015 98.2941,-261.7207 98.7269,-276.3452"/>
</g>
<!-- 22 -->
<g id="node23" class="node">
<title>22</title>
<text text-anchor="middle" x="28.0452" y="-156.6342" font-family="century schoolbook" font-size="10.00" fill="#000000">b♭</text>
</g>
<!-- 2&#45;&#45;22 -->
<g id="edge6" class="edge">
<title>2&#45;&#45;22</title>
<path fill="none" stroke="#000000" d="M71.5352,-190.3257C65.5638,-186.0429 59.1938,-181.4743 53.2225,-177.1916"/>
</g>
<!-- 4 -->
<g id="node5" class="node">
<title>4</title>
<text text-anchor="middle" x="477.032" y="-328.9532" font-family="century schoolbook" font-size="10.00" fill="#000000">D♮</text>
</g>
<!-- 5 -->
<g id="node6" class="node">
<title>5</title>
<text text-anchor="middle" x="550.6836" y="-289.542" font-family="century schoolbook" font-size="10.00" fill="#000000">d♮</text>
</g>
<!-- 4&#45;&#45;5 -->
<g id="edge7" class="edge">
<title>4&#45;&#45;5</title>
<path fill="none" stroke="#000000" d="M504.0389,-317.0017C510.4435,-313.5746 517.2755,-309.9188 523.6799,-306.4917"/>
</g>
<!-- 21 -->
<g id="node22" class="node">
<title>21</title>
<text text-anchor="middle" x="404.7802" y="-287.843" font-family="century schoolbook" font-size="10.00" fill="#000000">b♮</text>
</g>
<!-- 4&#45;&#45;21 -->
<g id="edge8" class="edge">
<title>4&#45;&#45;21</title>
<path fill="none" stroke="#000000" d="M449.7167,-315.9112C443.9622,-312.637 437.8901,-309.182 432.1341,-305.907"/>
</g>
<!-- 6 -->
<g id="node7" class="node">
<title>6</title>
<text text-anchor="middle" x="478.255" y="-70.7772" font-family="century schoolbook" font-size="10.00" fill="#000000">E♭</text>
</g>
<!-- 6&#45;&#45;1 -->
<g id="edge9" class="edge">
<title>6&#45;&#45;1</title>
<path fill="none" stroke="#000000" d="M450.9405,-60.8198C443.2869,-57.3292 434.9704,-53.5362 427.3254,-50.0495"/>
</g>
<!-- 7 -->
<g id="node8" class="node">
<title>7</title>
<text text-anchor="middle" x="536.1898" y="-15.5" font-family="century schoolbook" font-size="10.00" fill="#000000">e♭</text>
</g>
<!-- 6&#45;&#45;7 -->
<g id="edge10" class="edge">
<title>6&#45;&#45;7</title>
<path fill="none" stroke="#000000" d="M497.225,-55.1774C503.5611,-49.1319 510.6246,-42.3925 516.9788,-36.3297"/>
</g>
<!-- 15 -->
<g id="node16" class="node">
<title>15</title>
<text text-anchor="middle" x="480.8057" y="-156.9942" font-family="century schoolbook" font-size="10.00" fill="#000000">g♮</text>
</g>
<!-- 6&#45;&#45;15 -->
<g id="edge11" class="edge">
<title>6&#45;&#45;15</title>
<path fill="none" stroke="#000000" d="M478.7959,-91.5616C479.2288,-106.1929 479.8329,-126.6118 480.2655,-141.2362"/>
</g>
<!-- 8 -->
<g id="node9" class="node">
<title>8</title>
<text text-anchor="middle" x="250.4799" y="-202.0659" font-family="century schoolbook" font-size="10.00" fill="#000000">E♮</text>
</g>
<!-- 8&#45;&#45;3 -->
<g id="edge12" class="edge">
<title>8&#45;&#45;3</title>
<path fill="none" stroke="#000000" d="M223.33,-191.0013C215.7225,-187.2004 207.4561,-183.0703 199.8571,-179.2737"/>
</g>
<!-- 8&#45;&#45;9 -->
<g id="edge13" class="edge">
<title>8&#45;&#45;9</title>
<path fill="none" stroke="#000000" d="M277.6986,-189.9556C284.9221,-186.0782 292.7209,-181.892 299.9397,-178.0171"/>
</g>
<!-- 17 -->
<g id="node18" class="node">
<title>17</title>
<text text-anchor="middle" x="252.0463" y="-290.3681" font-family="century schoolbook" font-size="10.00" fill="#000000">a♭</text>
</g>
<!-- 8&#45;&#45;17 -->
<g id="edge14" class="edge">
<title>8&#45;&#45;17</title>
<path fill="none" stroke="#000000" d="M250.8045,-222.8622C251.0733,-238.017 251.4535,-259.4469 251.7222,-274.5953"/>
</g>
<!-- 10 -->
<g id="node11" class="node">
<title>10</title>
<text text-anchor="middle" x="41.3831" y="-347.4426" font-family="century schoolbook" font-size="10.00" fill="#000000">F♮</text>
</g>
<!-- 10&#45;&#45;11 -->
<g id="edge15" class="edge">
<title>10&#45;&#45;11</title>
<path fill="none" stroke="#000000" d="M60.3365,-331.8226C66.6671,-325.7704 73.7244,-319.0234 80.0731,-312.9538"/>
</g>
<!-- 12 -->
<g id="node13" class="node">
<title>12</title>
<text text-anchor="middle" x="27" y="-73.1792" font-family="century schoolbook" font-size="10.00" fill="#000000">F♯</text>
</g>
<!-- 13 -->
<g id="node14" class="node">
<title>13</title>
<text text-anchor="middle" x="100.6751" y="-33.857" font-family="century schoolbook" font-size="10.00" fill="#000000">f♯</text>
</g>
<!-- 12&#45;&#45;13 -->
<g id="edge16" class="edge">
<title>12&#45;&#45;13</title>
<path fill="none" stroke="#000000" d="M54.0155,-61.2603C60.4221,-57.841 67.2563,-54.1934 73.6628,-50.7741"/>
</g>
<!-- 12&#45;&#45;22 -->
<g id="edge17" class="edge">
<title>12&#45;&#45;22</title>
<path fill="none" stroke="#000000" d="M27.2268,-93.7877C27.4021,-107.7859 27.6436,-127.0718 27.8188,-141.0611"/>
</g>
<!-- 14 -->
<g id="node15" class="node">
<title>14</title>
<text text-anchor="middle" x="404.7078" y="-199.6929" font-family="century schoolbook" font-size="10.00" fill="#000000">G♮</text>
</g>
<!-- 14&#45;&#45;9 -->
<g id="edge18" class="edge">
<title>14&#45;&#45;9</title>
<path fill="none" stroke="#000000" d="M377.5541,-188.6439C369.9456,-184.8474 361.678,-180.722 354.078,-176.9298"/>
</g>
<!-- 14&#45;&#45;15 -->
<g id="edge19" class="edge">
<title>14&#45;&#45;15</title>
<path fill="none" stroke="#000000" d="M431.7513,-187.0187C438.8429,-183.0397 446.4925,-178.7475 453.5928,-174.7634"/>
</g>
<!-- 14&#45;&#45;21 -->
<g id="edge20" class="edge">
<title>14&#45;&#45;21</title>
<path fill="none" stroke="#000000" d="M404.7228,-220.4577C404.7352,-235.5864 404.7528,-256.9794 404.7652,-272.1017"/>
</g>
<!-- 16 -->
<g id="node17" class="node">
<title>16</title>
<text text-anchor="middle" x="177.3646" y="-327.7671" font-family="century schoolbook" font-size="10.00" fill="#000000">A♭</text>
</g>
<!-- 16&#45;&#45;11 -->
<g id="edge21" class="edge">
<title>16&#45;&#45;11</title>
<path fill="none" stroke="#000000" d="M150.0499,-317.7938C142.3963,-314.2987 134.0797,-310.5009 126.4346,-307.0097"/>
</g>
<!-- 16&#45;&#45;17 -->
<g id="edge22" class="edge">
<title>16&#45;&#45;17</title>
<path fill="none" stroke="#000000" d="M204.7493,-316.5535C211.3267,-313.2597 218.3487,-309.7432 224.9145,-306.4551"/>
</g>
<!-- 18 -->
<g id="node19" class="node">
<title>18</title>
<text text-anchor="middle" x="172.836" y="-75.131" font-family="century schoolbook" font-size="10.00" fill="#000000">A♮</text>
</g>
<!-- 18&#45;&#45;3 -->
<g id="edge23" class="edge">
<title>18&#45;&#45;3</title>
<path fill="none" stroke="#000000" d="M172.8397,-95.896C172.8427,-111.0249 172.847,-132.4182 172.85,-147.5406"/>
</g>
<!-- 18&#45;&#45;13 -->
<g id="edge24" class="edge">
<title>18&#45;&#45;13</title>
<path fill="none" stroke="#000000" d="M145.5551,-62.0271C139.8078,-58.7398 133.7433,-55.2711 127.9946,-51.983"/>
</g>
<!-- 18&#45;&#45;19 -->
<g id="edge25" class="edge">
<title>18&#45;&#45;19</title>
<path fill="none" stroke="#000000" d="M199.858,-64.2376C206.9439,-60.7255 214.5874,-56.9371 221.6821,-53.4206"/>
</g>
<!-- 20 -->
<g id="node21" class="node">
<title>20</title>
<text text-anchor="middle" x="328.7284" y="-325.5451" font-family="century schoolbook" font-size="10.00" fill="#000000">B♮</text>
</g>
<!-- 20&#45;&#45;17 -->
<g id="edge26" class="edge">
<title>20&#45;&#45;17</title>
<path fill="none" stroke="#000000" d="M301.4773,-315.5439C294.2452,-312.2263 286.4371,-308.6445 279.2097,-305.329"/>
</g>
<!-- 20&#45;&#45;21 -->
<g id="edge27" class="edge">
<title>20&#45;&#45;21</title>
<path fill="none" stroke="#000000" d="M355.7556,-314.6466C362.8428,-311.1331 370.4878,-307.3432 377.5839,-303.8254"/>
</g>
<!-- 23 -->
<g id="node24" class="node">
<title>23</title>
<text text-anchor="middle" x="549.5479" y="-206.1059" font-family="century schoolbook" font-size="10.00" fill="#000000">B♭</text>
</g>
<!-- 23&#45;&#45;5 -->
<g id="edge28" class="edge">
<title>23&#45;&#45;5</title>
<path fill="none" stroke="#000000" d="M549.7943,-226.7103C549.9848,-240.7053 550.2473,-259.9868 550.4376,-273.9729"/>
</g>
<!-- 23&#45;&#45;15 -->
<g id="edge29" class="edge">
<title>23&#45;&#45;15</title>
<path fill="none" stroke="#000000" d="M524.3412,-190.5974C518.3635,-186.3268 511.9869,-181.7711 506.0094,-177.5006"/>
</g>
</g>
</svg>
