<?xml version="1.0" encoding="UTF-8" standalone="no"?>
<!DOCTYPE svg PUBLIC "-//W3C//DTD SVG 1.1//EN"
 "http://www.w3.org/Graphics/SVG/1.1/DTD/svg11.dtd">
<!-- Generated by graphviz version 2.40.1 (20161225.0304)
 -->
<!-- Title: g Pages: 1 -->
<svg width="798pt" height="744pt"
 viewBox="0.00 0.00 797.52 743.88" xmlns="http://www.w3.org/2000/svg" xmlns:xlink="http://www.w3.org/1999/xlink">
<g id="graph0" class="graph" transform="scale(1 1) rotate(0) translate(4 739.8833)">
<title>g</title>
<polygon fill="#ffffff" stroke="transparent" points="-4,4 -4,-739.8833 793.521,-739.8833 793.521,4 -4,4"/>
<!-- 0 -->
<g id="node1" class="node">
<title>0</title>
<text text-anchor="middle" x="27" y="-341.7373" font-family="century schoolbook" font-size="10.00" fill="#000000">0,1,3,7</text>
</g>
<!-- 1 -->
<g id="node2" class="node">
<title>1</title>
<text text-anchor="middle" x="195.8511" y="-336.2047" font-family="century schoolbook" font-size="10.00" fill="#000000">2,4,5,10</text>
</g>
<!-- 0&#45;&#45;1 -->
<g id="edge1" class="edge">
<title>0&#45;&#45;1</title>
<path fill="none" stroke="#000000" d="M54.1288,-343.3484C85.6383,-342.316 137.3089,-340.6229 168.7896,-339.5914"/>
</g>
<!-- 2 -->
<g id="node3" class="node">
<title>2</title>
<text text-anchor="middle" x="28.8215" y="-153.3638" font-family="century schoolbook" font-size="10.00" fill="#000000">2,6,8,9</text>
</g>
<!-- 0&#45;&#45;2 -->
<g id="edge2" class="edge">
<title>0&#45;&#45;2</title>
<path fill="none" stroke="#000000" d="M27.1746,-326.1753C27.5228,-290.1694 28.2996,-209.8321 28.6473,-173.8712"/>
</g>
<!-- 3 -->
<g id="node4" class="node">
<title>3</title>
<text text-anchor="middle" x="136.6223" y="-404.0733" font-family="century schoolbook" font-size="10.00" fill="#000000">4,8,10,11</text>
</g>
<!-- 0&#45;&#45;3 -->
<g id="edge3" class="edge">
<title>0&#45;&#45;3</title>
<path fill="none" stroke="#000000" d="M54.0977,-359.6463C70.4556,-368.9481 91.2826,-380.7912 107.921,-390.2526"/>
</g>
<!-- 4 -->
<g id="node5" class="node">
<title>4</title>
<text text-anchor="middle" x="648.6027" y="-515.4559" font-family="century schoolbook" font-size="10.00" fill="#000000">1,2,4,8</text>
</g>
<!-- 5 -->
<g id="node6" class="node">
<title>5</title>
<text text-anchor="middle" x="675.4275" y="-351.5" font-family="century schoolbook" font-size="10.00" fill="#000000">0,5,9,11</text>
</g>
<!-- 4&#45;&#45;5 -->
<g id="edge4" class="edge">
<title>4&#45;&#45;5</title>
<path fill="none" stroke="#000000" d="M651.5759,-499.7833C656.7322,-468.2676 667.2754,-403.8263 672.4409,-372.254"/>
</g>
<!-- 6 -->
<g id="node7" class="node">
<title>6</title>
<text text-anchor="middle" x="595.0875" y="-369.3316" font-family="century schoolbook" font-size="10.00" fill="#000000">3,5,6,11</text>
</g>
<!-- 4&#45;&#45;6 -->
<g id="edge5" class="edge">
<title>4&#45;&#45;6</title>
<path fill="none" stroke="#000000" d="M641.9332,-499.7446C631.6782,-471.7434 612.1464,-418.4114 601.8411,-390.2724"/>
</g>
<!-- 7 -->
<g id="node8" class="node">
<title>7</title>
<text text-anchor="middle" x="558.3407" y="-715.3833" font-family="century schoolbook" font-size="10.00" fill="#000000">3,7,9,10</text>
</g>
<!-- 4&#45;&#45;7 -->
<g id="edge6" class="edge">
<title>4&#45;&#45;7</title>
<path fill="none" stroke="#000000" d="M640.4333,-536.0508C623.2919,-574.0185 583.7386,-661.6278 566.5566,-699.6853"/>
</g>
<!-- 8 -->
<g id="node9" class="node">
<title>8</title>
<text text-anchor="middle" x="297.7525" y="-306.1528" font-family="century schoolbook" font-size="10.00" fill="#000000">2,3,5,9</text>
</g>
<!-- 8&#45;&#45;3 -->
<g id="edge7" class="edge">
<title>8&#45;&#45;3</title>
<path fill="none" stroke="#000000" d="M270.419,-325.2637C241.1483,-343.0518 194.9094,-371.1517 165.1769,-389.2204"/>
</g>
<!-- 9 -->
<g id="node10" class="node">
<title>9</title>
<text text-anchor="middle" x="343.7158" y="-112.2627" font-family="century schoolbook" font-size="10.00" fill="#000000">0,1,6,10</text>
</g>
<!-- 8&#45;&#45;9 -->
<g id="edge8" class="edge">
<title>8&#45;&#45;9</title>
<path fill="none" stroke="#000000" d="M302.0767,-290.4121C310.8592,-253.364 330.692,-169.7021 339.4367,-132.8137"/>
</g>
<!-- 10 -->
<g id="node11" class="node">
<title>10</title>
<text text-anchor="middle" x="291.6268" y="-165.3031" font-family="century schoolbook" font-size="10.00" fill="#000000">0,4,6,7</text>
</g>
<!-- 8&#45;&#45;10 -->
<g id="edge9" class="edge">
<title>8&#45;&#45;10</title>
<path fill="none" stroke="#000000" d="M296.9643,-290.5275C295.788,-263.4826 293.5865,-212.8633 292.4121,-185.8588"/>
</g>
<!-- 11 -->
<g id="node12" class="node">
<title>11</title>
<text text-anchor="middle" x="494.4854" y="-381.8966" font-family="century schoolbook" font-size="10.00" fill="#000000">3,4,6,10</text>
</g>
<!-- 11&#45;&#45;5 -->
<g id="edge10" class="edge">
<title>11&#45;&#45;5</title>
<path fill="none" stroke="#000000" d="M521.5743,-379.8459C555.6855,-374.1155 613.955,-364.3268 648.1534,-358.5818"/>
</g>
<!-- 12 -->
<g id="node13" class="node">
<title>12</title>
<text text-anchor="middle" x="488.9153" y="-537.2707" font-family="century schoolbook" font-size="10.00" fill="#000000">1,2,7,11</text>
</g>
<!-- 11&#45;&#45;12 -->
<g id="edge11" class="edge">
<title>11&#45;&#45;12</title>
<path fill="none" stroke="#000000" d="M493.8356,-402.5241C492.7623,-432.463 490.6316,-491.8957 489.561,-521.7587"/>
</g>
<!-- 13 -->
<g id="node14" class="node">
<title>13</title>
<text text-anchor="middle" x="363" y="-509.0999" font-family="century schoolbook" font-size="10.00" fill="#000000">1,5,7,8</text>
</g>
<!-- 11&#45;&#45;13 -->
<g id="edge12" class="edge">
<title>11&#45;&#45;13</title>
<path fill="none" stroke="#000000" d="M475.6468,-402.6217C450.6514,-426.803 406.7815,-469.2443 381.8037,-493.4086"/>
</g>
<!-- 14 -->
<g id="node15" class="node">
<title>14</title>
<text text-anchor="middle" x="173.9136" y="-15.5" font-family="century schoolbook" font-size="10.00" fill="#000000">4,5,7,11</text>
</g>
<!-- 14&#45;&#45;2 -->
<g id="edge13" class="edge">
<title>14&#45;&#45;2</title>
<path fill="none" stroke="#000000" d="M154.9453,-36.0233C127.1385,-62.4448 75.6038,-111.4121 47.7944,-137.8361"/>
</g>
<!-- 14&#45;&#45;9 -->
<g id="edge14" class="edge">
<title>14&#45;&#45;9</title>
<path fill="none" stroke="#000000" d="M201.1953,-33.5466C232.8822,-51.6036 284.8438,-81.2142 316.5018,-99.2547"/>
</g>
<!-- 15 -->
<g id="node16" class="node">
<title>15</title>
<text text-anchor="middle" x="30.9725" y="-59.7614" font-family="century schoolbook" font-size="10.00" fill="#000000">0,2,3,8</text>
</g>
<!-- 14&#45;&#45;15 -->
<g id="edge15" class="edge">
<title>14&#45;&#45;15</title>
<path fill="none" stroke="#000000" d="M146.691,-26.4294C121.2564,-34.3052 83.4956,-45.9977 58.0937,-53.8633"/>
</g>
<!-- 16 -->
<g id="node17" class="node">
<title>16</title>
<text text-anchor="middle" x="639.6803" y="-688.0924" font-family="century schoolbook" font-size="10.00" fill="#000000">0,5,6,8</text>
</g>
<!-- 16&#45;&#45;7 -->
<g id="edge16" class="edge">
<title>16&#45;&#45;7</title>
<path fill="none" stroke="#000000" d="M612.5954,-699.6799C603.9071,-702.595 594.2843,-705.8236 585.5847,-708.7425"/>
</g>
<!-- 16&#45;&#45;12 -->
<g id="edge17" class="edge">
<title>16&#45;&#45;12</title>
<path fill="none" stroke="#000000" d="M621.4945,-672.3998C592.5168,-643.4112 536.1838,-587.057 507.1656,-558.0279"/>
</g>
<!-- 17 -->
<g id="node18" class="node">
<title>17</title>
<text text-anchor="middle" x="707.7712" y="-605.7897" font-family="century schoolbook" font-size="10.00" fill="#000000">1,3,4,9</text>
</g>
<!-- 16&#45;&#45;17 -->
<g id="edge18" class="edge">
<title>16&#45;&#45;17</title>
<path fill="none" stroke="#000000" d="M654.7919,-672.3268C666.0757,-658.6878 681.4282,-640.1309 692.7019,-626.5043"/>
</g>
<!-- 18 -->
<g id="node19" class="node">
<title>18</title>
<text text-anchor="middle" x="56.1697" y="-256.0248" font-family="century schoolbook" font-size="10.00" fill="#000000">1,6,7,9</text>
</g>
<!-- 18&#45;&#45;1 -->
<g id="edge19" class="edge">
<title>18&#45;&#45;1</title>
<path fill="none" stroke="#000000" d="M83.4332,-274.1747C108.0454,-288.3025 144.0653,-308.9787 168.6563,-323.0944"/>
</g>
<!-- 18&#45;&#45;3 -->
<g id="edge20" class="edge">
<title>18&#45;&#45;3</title>
<path fill="none" stroke="#000000" d="M66.0347,-276.6785C81.4758,-305.093 111.186,-359.7655 126.6765,-388.2712"/>
</g>
<!-- 18&#45;&#45;15 -->
<g id="edge21" class="edge">
<title>18&#45;&#45;15</title>
<path fill="none" stroke="#000000" d="M53.8443,-240.4126C49.0442,-203.0236 38.0875,-117.6813 33.2922,-80.3298"/>
</g>
<!-- 19 -->
<g id="node20" class="node">
<title>19</title>
<text text-anchor="middle" x="762.521" y="-439.7039" font-family="century schoolbook" font-size="10.00" fill="#000000">2,7,8,10</text>
</g>
<!-- 19&#45;&#45;5 -->
<g id="edge22" class="edge">
<title>19&#45;&#45;5</title>
<path fill="none" stroke="#000000" d="M744.4751,-423.928C729.5277,-408.79 708.3912,-387.384 693.4502,-372.2525"/>
</g>
<!-- 19&#45;&#45;6 -->
<g id="edge23" class="edge">
<title>19&#45;&#45;6</title>
<path fill="none" stroke="#000000" d="M735.2472,-430.7408C704.112,-417.6546 653.48,-396.374 622.3496,-383.2899"/>
</g>
<!-- 19&#45;&#45;17 -->
<g id="edge24" class="edge">
<title>19&#45;&#45;17</title>
<path fill="none" stroke="#000000" d="M756.5576,-460.2942C746.026,-492.2422 724.2536,-558.2896 713.7272,-590.2217"/>
</g>
<!-- 20 -->
<g id="node21" class="node">
<title>20</title>
<text text-anchor="middle" x="376.8248" y="-256.9834" font-family="century schoolbook" font-size="10.00" fill="#000000">3,8,9,11</text>
</g>
<!-- 20&#45;&#45;1 -->
<g id="edge25" class="edge">
<title>20&#45;&#45;1</title>
<path fill="none" stroke="#000000" d="M349.7312,-271.3437C315.614,-286.2785 257.3343,-311.7904 223.1299,-326.7634"/>
</g>
<!-- 20&#45;&#45;9 -->
<g id="edge26" class="edge">
<title>20&#45;&#45;9</title>
<path fill="none" stroke="#000000" d="M372.6985,-241.4471C366.3539,-213.7147 354.2699,-160.8951 347.8941,-133.0264"/>
</g>
<!-- 20&#45;&#45;10 -->
<g id="edge27" class="edge">
<title>20&#45;&#45;10</title>
<path fill="none" stroke="#000000" d="M359.9924,-241.3703C345.056,-225.2975 323.35,-201.94 308.4242,-185.8786"/>
</g>
<!-- 21 -->
<g id="node22" class="node">
<title>21</title>
<text text-anchor="middle" x="412.1552" y="-394.2802" font-family="century schoolbook" font-size="10.00" fill="#000000">0,4,9,10</text>
</g>
<!-- 21&#45;&#45;6 -->
<g id="edge28" class="edge">
<title>21&#45;&#45;6</title>
<path fill="none" stroke="#000000" d="M439.542,-393.0451C474.1282,-388.3282 533.2796,-380.2611 567.8126,-375.5514"/>
</g>
<!-- 21&#45;&#45;12 -->
<g id="edge29" class="edge">
<title>21&#45;&#45;12</title>
<path fill="none" stroke="#000000" d="M421.8769,-414.89C436.5614,-442.2446 464.2497,-493.8231 479.0301,-521.3562"/>
</g>
<!-- 21&#45;&#45;13 -->
<g id="edge30" class="edge">
<title>21&#45;&#45;13</title>
<path fill="none" stroke="#000000" d="M404.3664,-414.9737C395.1622,-436.4734 379.9406,-472.0289 370.7524,-493.4915"/>
</g>
<!-- 22 -->
<g id="node23" class="node">
<title>22</title>
<text text-anchor="middle" x="151.7592" y="-85.718" font-family="century schoolbook" font-size="10.00" fill="#000000">1,5,10,11</text>
</g>
<!-- 22&#45;&#45;2 -->
<g id="edge31" class="edge">
<title>22&#45;&#45;2</title>
<path fill="none" stroke="#000000" d="M123.2458,-103.9073C102.9593,-115.0698 75.8737,-129.9736 55.9148,-140.9559"/>
</g>
<!-- 22&#45;&#45;10 -->
<g id="edge32" class="edge">
<title>22&#45;&#45;10</title>
<path fill="none" stroke="#000000" d="M180.401,-104.5152C205.017,-118.5218 240.267,-138.5792 264.449,-152.3388"/>
</g>
<!-- 22&#45;&#45;15 -->
<g id="edge33" class="edge">
<title>22&#45;&#45;15</title>
<path fill="none" stroke="#000000" d="M123.1344,-82.0666C103.4615,-77.839 77.5013,-72.2602 58.1476,-68.1012"/>
</g>
<!-- 23 -->
<g id="node24" class="node">
<title>23</title>
<text text-anchor="middle" x="475.2204" y="-645.1177" font-family="century schoolbook" font-size="10.00" fill="#000000">0,2,6,11</text>
</g>
<!-- 23&#45;&#45;7 -->
<g id="edge34" class="edge">
<title>23&#45;&#45;7</title>
<path fill="none" stroke="#000000" d="M496.626,-665.7128C509.0361,-676.2037 524.6099,-689.369 537.0077,-699.8495"/>
</g>
<!-- 23&#45;&#45;13 -->
<g id="edge35" class="edge">
<title>23&#45;&#45;13</title>
<path fill="none" stroke="#000000" d="M460.3184,-629.5555C438.8547,-603.5403 399.4616,-555.7935 377.9636,-529.7367"/>
</g>
<!-- 23&#45;&#45;17 -->
<g id="edge36" class="edge">
<title>23&#45;&#45;17</title>
<path fill="none" stroke="#000000" d="M502.3521,-643.0293C547.0424,-635.4714 635.6406,-620.4881 680.4529,-612.9096"/>
</g>
</g>
</svg>
