<?xml version="1.0" encoding="UTF-8" standalone="no"?>
<!DOCTYPE svg PUBLIC "-//W3C//DTD SVG 1.1//EN"
 "http://www.w3.org/Graphics/SVG/1.1/DTD/svg11.dtd">
<!-- Generated by graphviz version 2.40.1 (20161225.0304)
 -->
<!-- Title: g Pages: 1 -->
<svg width="570pt" height="551pt"
 viewBox="0.00 0.00 569.68 551.18" xmlns="http://www.w3.org/2000/svg" xmlns:xlink="http://www.w3.org/1999/xlink">
<g id="graph0" class="graph" transform="scale(1 1) rotate(0) translate(4 547.176)">
<title>g</title>
<polygon fill="#ffffff" stroke="transparent" points="-4,4 -4,-547.176 565.6783,-547.176 565.6783,4 -4,4"/>
<!-- 0 -->
<g id="node1" class="node">
<title>0</title>
<text text-anchor="middle" x="224.3322" y="-253.1869" font-family="century schoolbook" font-size="10.00" fill="#000000">136</text>
</g>
<!-- 1 -->
<g id="node2" class="node">
<title>1</title>
<text text-anchor="middle" x="411.5078" y="-343.6545" font-family="century schoolbook" font-size="10.00" fill="#000000">137</text>
</g>
<!-- 0&#45;&#45;1 -->
<g id="edge1" class="edge">
<title>0&#45;&#45;1</title>
<path fill="none" stroke="#000000" d="M251.5491,-268.8417C287.0363,-285.9937 348.7546,-315.824 384.258,-332.9839"/>
</g>
<!-- 2 -->
<g id="node3" class="node">
<title>2</title>
<text text-anchor="middle" x="199.3703" y="-94.006" font-family="century schoolbook" font-size="10.00" fill="#000000">146</text>
</g>
<!-- 0&#45;&#45;2 -->
<g id="edge2" class="edge">
<title>0&#45;&#45;2</title>
<path fill="none" stroke="#000000" d="M221.4687,-237.4268C216.6537,-206.7214 206.9929,-145.115 202.2004,-114.5531"/>
</g>
<!-- 3 -->
<g id="node4" class="node">
<title>3</title>
<text text-anchor="middle" x="145.3158" y="-324.0212" font-family="century schoolbook" font-size="10.00" fill="#000000">236</text>
</g>
<!-- 0&#45;&#45;3 -->
<g id="edge3" class="edge">
<title>0&#45;&#45;3</title>
<path fill="none" stroke="#000000" d="M203.9835,-273.9285C192.186,-284.5043 177.3812,-297.7761 165.5955,-308.3414"/>
</g>
<!-- 4 -->
<g id="node5" class="node">
<title>4</title>
<text text-anchor="middle" x="150.3809" y="-166.2626" font-family="century schoolbook" font-size="10.00" fill="#000000">346</text>
</g>
<!-- 0&#45;&#45;4 -->
<g id="edge4" class="edge">
<title>0&#45;&#45;4</title>
<path fill="none" stroke="#000000" d="M209.0094,-237.6761C196.4022,-222.8572 178.6095,-201.9433 165.9384,-187.0494"/>
</g>
<!-- 5 -->
<g id="node6" class="node">
<title>5</title>
<text text-anchor="middle" x="81.1245" y="-294.2359" font-family="century schoolbook" font-size="10.00" fill="#000000">356</text>
</g>
<!-- 0&#45;&#45;5 -->
<g id="edge5" class="edge">
<title>0&#45;&#45;5</title>
<path fill="none" stroke="#000000" d="M197.0588,-263.5045C171.5768,-270.8087 133.7455,-281.6526 108.2963,-288.9474"/>
</g>
<!-- 6 -->
<g id="node7" class="node">
<title>6</title>
<text text-anchor="middle" x="534.6783" y="-231.6626" font-family="century schoolbook" font-size="10.00" fill="#000000">157</text>
</g>
<!-- 1&#45;&#45;6 -->
<g id="edge6" class="edge">
<title>1&#45;&#45;6</title>
<path fill="none" stroke="#000000" d="M431.5714,-327.9118C454.4757,-307.0862 491.7225,-273.2198 514.6233,-252.3975"/>
</g>
<!-- 7 -->
<g id="node8" class="node">
<title>7</title>
<text text-anchor="middle" x="301.9435" y="-388.5567" font-family="century schoolbook" font-size="10.00" fill="#000000">237</text>
</g>
<!-- 1&#45;&#45;7 -->
<g id="edge7" class="edge">
<title>1&#45;&#45;7</title>
<path fill="none" stroke="#000000" d="M384.4245,-357.2539C367.5682,-364.1621 345.964,-373.016 329.0949,-379.9294"/>
</g>
<!-- 8 -->
<g id="node9" class="node">
<title>8</title>
<text text-anchor="middle" x="399.7049" y="-275.4554" font-family="century schoolbook" font-size="10.00" fill="#000000">378</text>
</g>
<!-- 1&#45;&#45;8 -->
<g id="edge8" class="edge">
<title>1&#45;&#45;8</title>
<path fill="none" stroke="#000000" d="M408.3448,-327.8784C406.6514,-318.0934 404.5713,-306.0747 402.8766,-296.282"/>
</g>
<!-- 9 -->
<g id="node10" class="node">
<title>9</title>
<text text-anchor="middle" x="366.1316" y="-420.594" font-family="century schoolbook" font-size="10.00" fill="#000000">379</text>
</g>
<!-- 1&#45;&#45;9 -->
<g id="edge9" class="edge">
<title>1&#45;&#45;9</title>
<path fill="none" stroke="#000000" d="M400.7543,-364.3881C393.5209,-376.6529 384.0251,-392.754 376.8079,-404.9913"/>
</g>
<!-- 2&#45;&#45;4 -->
<g id="edge10" class="edge">
<title>2&#45;&#45;4</title>
<path fill="none" stroke="#000000" d="M187.0082,-114.7394C179.5818,-125.6929 170.1648,-139.5825 162.739,-150.535"/>
</g>
<!-- 10 -->
<g id="node11" class="node">
<title>10</title>
<text text-anchor="middle" x="339.5934" y="-15.5" font-family="century schoolbook" font-size="10.00" fill="#000000">148</text>
</g>
<!-- 2&#45;&#45;10 -->
<g id="edge11" class="edge">
<title>2&#45;&#45;10</title>
<path fill="none" stroke="#000000" d="M226.4067,-81.3692C251.0779,-67.5567 287.3672,-47.2396 312.1616,-33.3581"/>
</g>
<!-- 11 -->
<g id="node12" class="node">
<title>11</title>
<text text-anchor="middle" x="264.6759" y="-197.835" font-family="century schoolbook" font-size="10.00" fill="#000000">467</text>
</g>
<!-- 2&#45;&#45;11 -->
<g id="edge12" class="edge">
<title>2&#45;&#45;11</title>
<path fill="none" stroke="#000000" d="M210.7457,-114.5916C222.659,-133.5325 241.2653,-163.1147 253.2118,-182.1083"/>
</g>
<!-- 12 -->
<g id="node13" class="node">
<title>12</title>
<text text-anchor="middle" x="153.0313" y="-228.104" font-family="century schoolbook" font-size="10.00" fill="#000000">469</text>
</g>
<!-- 2&#45;&#45;12 -->
<g id="edge13" class="edge">
<title>2&#45;&#45;12</title>
<path fill="none" stroke="#000000" d="M193.1208,-114.591C184.2767,-140.1846 168.2005,-186.7067 159.3297,-212.3772"/>
</g>
<!-- 3&#45;&#45;4 -->
<g id="edge14" class="edge">
<title>3&#45;&#45;4</title>
<path fill="none" stroke="#000000" d="M145.8968,-308.4242C146.8687,-278.155 148.8133,-217.5859 149.791,-187.1344"/>
</g>
<!-- 3&#45;&#45;5 -->
<g id="edge15" class="edge">
<title>3&#45;&#45;5</title>
<path fill="none" stroke="#000000" d="M118.0929,-313.8895C114.8125,-312.3674 111.4626,-310.813 108.1846,-309.292"/>
</g>
<!-- 3&#45;&#45;7 -->
<g id="edge16" class="edge">
<title>3&#45;&#45;7</title>
<path fill="none" stroke="#000000" d="M172.5982,-337.7624C201.2586,-349.5714 246.0699,-368.0351 274.7113,-379.8362"/>
</g>
<!-- 18 -->
<g id="node19" class="node">
<title>18</title>
<text text-anchor="middle" x="27" y="-391.849" font-family="century schoolbook" font-size="10.00" fill="#000000">256</text>
</g>
<!-- 3&#45;&#45;18 -->
<g id="edge17" class="edge">
<title>3&#45;&#45;18</title>
<path fill="none" stroke="#000000" d="M118.1717,-342.0822C98.9325,-353.1117 73.2286,-367.8471 54.0177,-378.8603"/>
</g>
<!-- 19 -->
<g id="node20" class="node">
<title>19</title>
<text text-anchor="middle" x="199.8225" y="-376.7799" font-family="century schoolbook" font-size="10.00" fill="#000000">267</text>
</g>
<!-- 3&#45;&#45;19 -->
<g id="edge18" class="edge">
<title>3&#45;&#45;19</title>
<path fill="none" stroke="#000000" d="M164.0739,-344.6777C169.6169,-350.043 175.6809,-355.9125 181.2145,-361.2686"/>
</g>
<!-- 20 -->
<g id="node21" class="node">
<title>20</title>
<text text-anchor="middle" x="93.5312" y="-398.1671" font-family="century schoolbook" font-size="10.00" fill="#000000">269</text>
</g>
<!-- 3&#45;&#45;20 -->
<g id="edge19" class="edge">
<title>3&#45;&#45;20</title>
<path fill="none" stroke="#000000" d="M132.5151,-344.8494C124.4882,-356.3424 114.1834,-371.097 106.1847,-382.5497"/>
</g>
<!-- 4&#45;&#45;5 -->
<g id="edge20" class="edge">
<title>4&#45;&#45;5</title>
<path fill="none" stroke="#000000" d="M140.605,-186.8266C127.4803,-211.0788 104.2882,-253.9336 91.0749,-278.3494"/>
</g>
<!-- 4&#45;&#45;11 -->
<g id="edge21" class="edge">
<title>4&#45;&#45;11</title>
<path fill="none" stroke="#000000" d="M177.4672,-176.2448C195.5547,-181.2413 219.2588,-187.7892 237.3879,-192.7971"/>
</g>
<!-- 4&#45;&#45;12 -->
<g id="edge22" class="edge">
<title>4&#45;&#45;12</title>
<path fill="none" stroke="#000000" d="M151.1617,-186.9826C151.5038,-194.9633 151.9044,-204.3103 152.2468,-212.3006"/>
</g>
<!-- 14 -->
<g id="node15" class="node">
<title>14</title>
<text text-anchor="middle" x="299.2347" y="-105.8502" font-family="century schoolbook" font-size="10.00" fill="#000000">348</text>
</g>
<!-- 4&#45;&#45;14 -->
<g id="edge23" class="edge">
<title>4&#45;&#45;14</title>
<path fill="none" stroke="#000000" d="M177.683,-157.682C204.541,-146.7817 245.3076,-130.2365 272.1057,-119.3605"/>
</g>
<!-- 22 -->
<g id="node23" class="node">
<title>22</title>
<text text-anchor="middle" x="207.6341" y="-481.1979" font-family="century schoolbook" font-size="10.00" fill="#000000">359</text>
</g>
<!-- 5&#45;&#45;22 -->
<g id="edge24" class="edge">
<title>5&#45;&#45;22</title>
<path fill="none" stroke="#000000" d="M93.4851,-315.003C117.733,-350.8377 171.2718,-429.9599 195.4096,-465.6319"/>
</g>
<!-- 13 -->
<g id="node14" class="node">
<title>13</title>
<text text-anchor="middle" x="524.0604" y="-58.1266" font-family="century schoolbook" font-size="10.00" fill="#000000">158</text>
</g>
<!-- 6&#45;&#45;13 -->
<g id="edge25" class="edge">
<title>6&#45;&#45;13</title>
<path fill="none" stroke="#000000" d="M533.5621,-215.9192C531.5228,-182.5902 527.2176,-112.2268 525.1776,-78.886"/>
</g>
<!-- 17 -->
<g id="node18" class="node">
<title>17</title>
<text text-anchor="middle" x="436.6884" y="-178.4029" font-family="century schoolbook" font-size="10.00" fill="#000000">457</text>
</g>
<!-- 6&#45;&#45;17 -->
<g id="edge26" class="edge">
<title>6&#45;&#45;17</title>
<path fill="none" stroke="#000000" d="M507.6427,-219.4682C494.0469,-212.0786 477.6066,-203.1429 463.9759,-195.7343"/>
</g>
<!-- 7&#45;&#45;8 -->
<g id="edge27" class="edge">
<title>7&#45;&#45;8</title>
<path fill="none" stroke="#000000" d="M317.6505,-372.8851C335.8939,-351.7791 365.8101,-317.1687 384.0368,-296.082"/>
</g>
<!-- 7&#45;&#45;9 -->
<g id="edge28" class="edge">
<title>7&#45;&#45;9</title>
<path fill="none" stroke="#000000" d="M329.165,-404.6434C332.4452,-406.2806 335.795,-407.9525 339.0729,-409.5886"/>
</g>
<!-- 7&#45;&#45;19 -->
<g id="edge29" class="edge">
<title>7&#45;&#45;19</title>
<path fill="none" stroke="#000000" d="M274.845,-387.9317C260.0727,-386.2281 241.8397,-384.1254 227.0476,-382.4196"/>
</g>
<!-- 8&#45;&#45;9 -->
<g id="edge30" class="edge">
<title>8&#45;&#45;9</title>
<path fill="none" stroke="#000000" d="M395.5207,-296.0439C389.0872,-323.8563 376.8337,-376.8285 370.3685,-404.7776"/>
</g>
<!-- 16 -->
<g id="node17" class="node">
<title>16</title>
<text text-anchor="middle" x="374.8189" y="-140.9005" font-family="century schoolbook" font-size="10.00" fill="#000000">478</text>
</g>
<!-- 8&#45;&#45;16 -->
<g id="edge31" class="edge">
<title>8&#45;&#45;16</title>
<path fill="none" stroke="#000000" d="M396.3486,-259.8087C391.599,-234.128 382.9654,-187.4474 378.2015,-161.6894"/>
</g>
<!-- 23 -->
<g id="node24" class="node">
<title>23</title>
<text text-anchor="middle" x="333.0923" y="-264.4524" font-family="century schoolbook" font-size="10.00" fill="#000000">479</text>
</g>
<!-- 9&#45;&#45;23 -->
<g id="edge32" class="edge">
<title>9&#45;&#45;23</title>
<path fill="none" stroke="#000000" d="M362.2769,-404.877C355.9106,-374.7902 343.2726,-315.0639 336.9224,-285.0534"/>
</g>
<!-- 10&#45;&#45;13 -->
<g id="edge33" class="edge">
<title>10&#45;&#45;13</title>
<path fill="none" stroke="#000000" d="M366.8122,-24.2897C401.7889,-32.3721 462.1454,-46.3193 497.0305,-54.3805"/>
</g>
<!-- 10&#45;&#45;14 -->
<g id="edge34" class="edge">
<title>10&#45;&#45;14</title>
<path fill="none" stroke="#000000" d="M331.4262,-36.2837C324.4242,-51.959 314.3883,-74.4262 307.3898,-90.0936"/>
</g>
<!-- 15 -->
<g id="node16" class="node">
<title>15</title>
<text text-anchor="middle" x="424.9067" y="-36.125" font-family="century schoolbook" font-size="10.00" fill="#000000">458</text>
</g>
<!-- 10&#45;&#45;15 -->
<g id="edge35" class="edge">
<title>10&#45;&#45;15</title>
<path fill="none" stroke="#000000" d="M367.0567,-24.6394C376.8962,-27.0182 387.9764,-29.6969 397.7866,-32.0686"/>
</g>
<!-- 10&#45;&#45;16 -->
<g id="edge36" class="edge">
<title>10&#45;&#45;16</title>
<path fill="none" stroke="#000000" d="M344.7155,-36.2343C351.394,-60.0094 363.0091,-101.3583 369.6907,-125.1442"/>
</g>
<!-- 11&#45;&#45;12 -->
<g id="edge37" class="edge">
<title>11&#45;&#45;12</title>
<path fill="none" stroke="#000000" d="M237.6499,-207.6623C220.2256,-212.3863 197.6468,-218.5079 180.1954,-223.2393"/>
</g>
<!-- 11&#45;&#45;16 -->
<g id="edge38" class="edge">
<title>11&#45;&#45;16</title>
<path fill="none" stroke="#000000" d="M291.9023,-186.2613C308.8476,-177.5021 330.5659,-166.2755 347.5241,-157.5096"/>
</g>
<!-- 11&#45;&#45;23 -->
<g id="edge39" class="edge">
<title>11&#45;&#45;23</title>
<path fill="none" stroke="#000000" d="M283.371,-218.5385C293.0246,-227.9383 304.7694,-239.3743 314.4198,-248.7709"/>
</g>
<!-- 12&#45;&#45;23 -->
<g id="edge40" class="edge">
<title>12&#45;&#45;23</title>
<path fill="none" stroke="#000000" d="M180.3786,-236.1246C214.4188,-242.9961 272.1928,-254.6588 306.0775,-261.499"/>
</g>
<!-- 13&#45;&#45;15 -->
<g id="edge41" class="edge">
<title>13&#45;&#45;15</title>
<path fill="none" stroke="#000000" d="M496.9662,-54.6146C482.9755,-51.5101 465.9541,-47.7332 451.9681,-44.6298"/>
</g>
<!-- 14&#45;&#45;8 -->
<g id="edge42" class="edge">
<title>14&#45;&#45;8</title>
<path fill="none" stroke="#000000" d="M309.9868,-126.5009C329.3245,-159.1451 369.7488,-227.3861 389.0301,-259.9352"/>
</g>
<!-- 14&#45;&#45;15 -->
<g id="edge43" class="edge">
<title>14&#45;&#45;15</title>
<path fill="none" stroke="#000000" d="M326.5037,-93.2208C347.5831,-81.5256 376.625,-65.4126 397.691,-53.7248"/>
</g>
<!-- 14&#45;&#45;16 -->
<g id="edge44" class="edge">
<title>14&#45;&#45;16</title>
<path fill="none" stroke="#000000" d="M326.5224,-121.0041C333.3726,-124.1808 340.7231,-127.5894 347.5714,-130.7651"/>
</g>
<!-- 15&#45;&#45;16 -->
<g id="edge45" class="edge">
<title>15&#45;&#45;16</title>
<path fill="none" stroke="#000000" d="M416.1821,-56.8755C406.9888,-76.1064 392.599,-106.2076 383.4436,-125.3592"/>
</g>
<!-- 16&#45;&#45;23 -->
<g id="edge46" class="edge">
<title>16&#45;&#45;23</title>
<path fill="none" stroke="#000000" d="M368.662,-161.631C360.7729,-184.9906 347.1757,-225.2516 339.2744,-248.6471"/>
</g>
<!-- 17&#45;&#45;11 -->
<g id="edge47" class="edge">
<title>17&#45;&#45;11</title>
<path fill="none" stroke="#000000" d="M409.4325,-183.982C377.2236,-187.6206 323.9575,-193.638 291.8043,-197.2703"/>
</g>
<!-- 17&#45;&#45;15 -->
<g id="edge48" class="edge">
<title>17&#45;&#45;15</title>
<path fill="none" stroke="#000000" d="M435.1962,-162.8833C432.9424,-135.6651 428.6925,-84.3437 426.4239,-56.9477"/>
</g>
<!-- 17&#45;&#45;16 -->
<g id="edge49" class="edge">
<title>17&#45;&#45;16</title>
<path fill="none" stroke="#000000" d="M409.3715,-164.3447C406.9113,-162.8534 404.4201,-161.3434 401.9614,-159.853"/>
</g>
<!-- 17&#45;&#45;23 -->
<g id="edge50" class="edge">
<title>17&#45;&#45;23</title>
<path fill="none" stroke="#000000" d="M414.9713,-198.9417C397.2905,-213.6278 372.4539,-234.2577 354.7808,-248.9374"/>
</g>
<!-- 18&#45;&#45;5 -->
<g id="edge51" class="edge">
<title>18&#45;&#45;5</title>
<path fill="none" stroke="#000000" d="M37.1804,-375.9887C46.857,-358.537 61.3283,-332.4383 70.9898,-315.0139"/>
</g>
<!-- 18&#45;&#45;19 -->
<g id="edge52" class="edge">
<title>18&#45;&#45;19</title>
<path fill="none" stroke="#000000" d="M54.0035,-391.9944C86.3761,-389.1717 140.3093,-384.4691 172.724,-381.6427"/>
</g>
<!-- 18&#45;&#45;20 -->
<g id="edge53" class="edge">
<title>18&#45;&#45;20</title>
<path fill="none" stroke="#000000" d="M54.0608,-396.9188C58.0901,-397.3014 62.2453,-397.696 66.2785,-398.0791"/>
</g>
<!-- 21 -->
<g id="node22" class="node">
<title>21</title>
<text text-anchor="middle" x="76.1596" y="-522.676" font-family="century schoolbook" font-size="10.00" fill="#000000">259</text>
</g>
<!-- 18&#45;&#45;21 -->
<g id="edge54" class="edge">
<title>18&#45;&#45;21</title>
<path fill="none" stroke="#000000" d="M33.8354,-412.5399C43.2275,-437.5348 60.0208,-482.2262 69.3822,-507.1396"/>
</g>
<!-- 19&#45;&#45;11 -->
<g id="edge55" class="edge">
<title>19&#45;&#45;11</title>
<path fill="none" stroke="#000000" d="M206.3979,-361.1369C218.828,-326.8395 245.6396,-252.8604 258.0831,-218.526"/>
</g>
<!-- 19&#45;&#45;20 -->
<g id="edge56" class="edge">
<title>19&#45;&#45;20</title>
<path fill="none" stroke="#000000" d="M172.7257,-384.7321C156.734,-387.9499 136.5617,-392.0088 120.5786,-395.2248"/>
</g>
<!-- 20&#45;&#45;12 -->
<g id="edge57" class="edge">
<title>20&#45;&#45;12</title>
<path fill="none" stroke="#000000" d="M99.8988,-382.4674C111.3509,-349.735 135.2908,-281.3099 146.7095,-248.6729"/>
</g>
<!-- 21&#45;&#45;20 -->
<g id="edge58" class="edge">
<title>21&#45;&#45;20</title>
<path fill="none" stroke="#000000" d="M78.6856,-507.0713C81.9791,-483.4653 87.7072,-442.4104 91.0022,-418.7936"/>
</g>
<!-- 21&#45;&#45;22 -->
<g id="edge59" class="edge">
<title>21&#45;&#45;22</title>
<path fill="none" stroke="#000000" d="M103.4012,-516.5817C125.9655,-509.4631 157.8728,-499.3968 180.4274,-492.2812"/>
</g>
<!-- 22&#45;&#45;9 -->
<g id="edge60" class="edge">
<title>22&#45;&#45;9</title>
<path fill="none" stroke="#000000" d="M234.8808,-473.2797C264.0004,-462.1454 309.8911,-444.5984 338.9757,-433.4775"/>
</g>
</g>
</svg>
