<?xml version="1.0" encoding="UTF-8" standalone="no"?>
<!DOCTYPE svg PUBLIC "-//W3C//DTD SVG 1.1//EN"
 "http://www.w3.org/Graphics/SVG/1.1/DTD/svg11.dtd">
<!-- Generated by graphviz version 2.40.1 (20161225.0304)
 -->
<!-- Title: g Pages: 1 -->
<svg width="330pt" height="308pt"
 viewBox="0.00 0.00 329.83 307.83" xmlns="http://www.w3.org/2000/svg" xmlns:xlink="http://www.w3.org/1999/xlink">
<g id="graph0" class="graph" transform="scale(1 1) rotate(0) translate(4 303.8307)">
<title>g</title>
<polygon fill="#ffffff" stroke="transparent" points="-4,4 -4,-303.8307 325.8317,-303.8307 325.8317,4 -4,4"/>
<!-- 0 -->
<g id="node1" class="node">
<title>0</title>
<text text-anchor="middle" x="221.6841" y="-79.9651" font-family="century schoolbook" font-size="10.00" fill="#000000">0,6</text>
</g>
<!-- 1 -->
<g id="node2" class="node">
<title>1</title>
<text text-anchor="middle" x="230.7614" y="-172.9413" font-family="century schoolbook" font-size="10.00" fill="#000000">1,4</text>
</g>
<!-- 0&#45;&#45;1 -->
<g id="edge1" class="edge">
<title>0&#45;&#45;1</title>
<path fill="none" stroke="#000000" d="M223.4775,-100.8342C225.0792,-117.24 227.4116,-141.1298 229.0026,-157.4267"/>
</g>
<!-- 3 -->
<g id="node4" class="node">
<title>3</title>
<text text-anchor="middle" x="114.0827" y="-43.299" font-family="century schoolbook" font-size="10.00" fill="#000000">2,5</text>
</g>
<!-- 0&#45;&#45;3 -->
<g id="edge2" class="edge">
<title>0&#45;&#45;3</title>
<path fill="none" stroke="#000000" d="M194.5317,-73.2127C178.2202,-67.6544 157.5364,-60.6062 141.2264,-55.0484"/>
</g>
<!-- 7 -->
<g id="node8" class="node">
<title>7</title>
<text text-anchor="middle" x="294.8317" y="-185.7071" font-family="century schoolbook" font-size="10.00" fill="#000000">4,7</text>
</g>
<!-- 0&#45;&#45;7 -->
<g id="edge3" class="edge">
<title>0&#45;&#45;7</title>
<path fill="none" stroke="#000000" d="M234.4254,-100.8839C247.8512,-120.2922 268.8659,-150.6711 282.2363,-169.9993"/>
</g>
<!-- 9 -->
<g id="node10" class="node">
<title>9</title>
<text text-anchor="middle" x="79.4427" y="-34.817" font-family="century schoolbook" font-size="10.00" fill="#000000">5,8</text>
</g>
<!-- 0&#45;&#45;9 -->
<g id="edge4" class="edge">
<title>0&#45;&#45;9</title>
<path fill="none" stroke="#000000" d="M194.5948,-73.8668C169.4458,-65.8844 132.1868,-54.0582 106.9157,-46.037"/>
</g>
<!-- 12 -->
<g id="node13" class="node">
<title>12</title>
<text text-anchor="middle" x="274.4821" y="-215.0258" font-family="century schoolbook" font-size="10.00" fill="#000000">7,10</text>
</g>
<!-- 0&#45;&#45;12 -->
<g id="edge5" class="edge">
<title>0&#45;&#45;12</title>
<path fill="none" stroke="#000000" d="M228.8046,-100.6799C238.8815,-126.4572 257.1985,-173.3133 267.3057,-199.1681"/>
</g>
<!-- 13 -->
<g id="node14" class="node">
<title>13</title>
<text text-anchor="middle" x="129.6355" y="-88.3889" font-family="century schoolbook" font-size="10.00" fill="#000000">8,11</text>
</g>
<!-- 0&#45;&#45;13 -->
<g id="edge6" class="edge">
<title>0&#45;&#45;13</title>
<path fill="none" stroke="#000000" d="M194.5643,-84.9469C182.6853,-86.0341 168.7726,-87.3073 156.8795,-88.3957"/>
</g>
<!-- 15 -->
<g id="node16" class="node">
<title>15</title>
<text text-anchor="middle" x="286.8727" y="-150.9839" font-family="century schoolbook" font-size="10.00" fill="#000000">1,10</text>
</g>
<!-- 0&#45;&#45;15 -->
<g id="edge7" class="edge">
<title>0&#45;&#45;15</title>
<path fill="none" stroke="#000000" d="M238.4718,-100.7542C248.1292,-111.2754 260.2295,-124.4578 269.9153,-135.01"/>
</g>
<!-- 16 -->
<g id="node17" class="node">
<title>16</title>
<text text-anchor="middle" x="136.827" y="-15.5" font-family="century schoolbook" font-size="10.00" fill="#000000">2,11</text>
</g>
<!-- 0&#45;&#45;16 -->
<g id="edge8" class="edge">
<title>0&#45;&#45;16</title>
<path fill="none" stroke="#000000" d="M197.5944,-64.1644C186.0307,-55.3795 172.2164,-44.885 160.6832,-36.1233"/>
</g>
<!-- 2 -->
<g id="node3" class="node">
<title>2</title>
<text text-anchor="middle" x="27" y="-132.9142" font-family="century schoolbook" font-size="10.00" fill="#000000">1,7</text>
</g>
<!-- 2&#45;&#45;3 -->
<g id="edge9" class="edge">
<title>2&#45;&#45;3</title>
<path fill="none" stroke="#000000" d="M44.6225,-117.2792C59.731,-101.7314 81.3856,-79.447 96.4865,-63.907"/>
</g>
<!-- 5 -->
<g id="node6" class="node">
<title>5</title>
<text text-anchor="middle" x="101.1811" y="-217.0535" font-family="century schoolbook" font-size="10.00" fill="#000000">3,6</text>
</g>
<!-- 2&#45;&#45;5 -->
<g id="edge10" class="edge">
<title>2&#45;&#45;5</title>
<path fill="none" stroke="#000000" d="M43.0962,-153.6711C55.5388,-167.7841 72.6816,-187.2281 85.1163,-201.3322"/>
</g>
<!-- 2&#45;&#45;9 -->
<g id="edge11" class="edge">
<title>2&#45;&#45;9</title>
<path fill="none" stroke="#000000" d="M36.8641,-116.9628C46.2993,-99.3136 60.4393,-72.864 69.8001,-55.3541"/>
</g>
<!-- 11 -->
<g id="node12" class="node">
<title>11</title>
<text text-anchor="middle" x="43.3238" y="-234.1398" font-family="century schoolbook" font-size="10.00" fill="#000000">6,9</text>
</g>
<!-- 2&#45;&#45;11 -->
<g id="edge12" class="edge">
<title>2&#45;&#45;11</title>
<path fill="none" stroke="#000000" d="M29.9184,-153.5113C32.8713,-171.8225 37.4122,-199.9809 40.3757,-218.358"/>
</g>
<!-- 2&#45;&#45;13 -->
<g id="edge13" class="edge">
<title>2&#45;&#45;13</title>
<path fill="none" stroke="#000000" d="M54.235,-123.5991C69.2005,-117.1068 87.7,-109.0813 102.6294,-102.6047"/>
</g>
<!-- 14 -->
<g id="node15" class="node">
<title>14</title>
<text text-anchor="middle" x="92.472" y="-276.9952" font-family="century schoolbook" font-size="10.00" fill="#000000">0,9</text>
</g>
<!-- 2&#45;&#45;14 -->
<g id="edge14" class="edge">
<title>2&#45;&#45;14</title>
<path fill="none" stroke="#000000" d="M35.2921,-153.6621C47.8859,-181.3768 71.6935,-233.769 84.2473,-261.3954"/>
</g>
<!-- 2&#45;&#45;16 -->
<g id="edge15" class="edge">
<title>2&#45;&#45;16</title>
<path fill="none" stroke="#000000" d="M43.9198,-117.3255C64.4981,-95.3255 99.0386,-58.3989 119.707,-36.3026"/>
</g>
<!-- 17 -->
<g id="node18" class="node">
<title>17</title>
<text text-anchor="middle" x="58.4408" y="-266.4902" font-family="century schoolbook" font-size="10.00" fill="#000000">0,3</text>
</g>
<!-- 2&#45;&#45;17 -->
<g id="edge16" class="edge">
<title>2&#45;&#45;17</title>
<path fill="none" stroke="#000000" d="M31.2402,-153.4288C37.2409,-178.9227 48.1486,-225.2637 54.1673,-250.8343"/>
</g>
<!-- 4 -->
<g id="node5" class="node">
<title>4</title>
<text text-anchor="middle" x="194.7717" y="-279.3307" font-family="century schoolbook" font-size="10.00" fill="#000000">2,8</text>
</g>
<!-- 4&#45;&#45;1 -->
<g id="edge17" class="edge">
<title>4&#45;&#45;1</title>
<path fill="none" stroke="#000000" d="M200.8769,-263.7832C207.4949,-244.2195 217.9966,-213.1756 224.6263,-193.5774"/>
</g>
<!-- 4&#45;&#45;5 -->
<g id="edge18" class="edge">
<title>4&#45;&#45;5</title>
<path fill="none" stroke="#000000" d="M167.7014,-263.8176C155.2846,-255.5552 140.5999,-245.7836 128.1905,-237.5262"/>
</g>
<!-- 4&#45;&#45;7 -->
<g id="edge19" class="edge">
<title>4&#45;&#45;7</title>
<path fill="none" stroke="#000000" d="M214.0643,-263.7791C231.669,-247.3068 257.5642,-223.0773 275.2569,-206.5227"/>
</g>
<!-- 4&#45;&#45;11 -->
<g id="edge20" class="edge">
<title>4&#45;&#45;11</title>
<path fill="none" stroke="#000000" d="M167.6959,-273.7515C140.2145,-265.5512 97.9089,-252.9275 70.4202,-244.7251"/>
</g>
<!-- 4&#45;&#45;12 -->
<g id="edge21" class="edge">
<title>4&#45;&#45;12</title>
<path fill="none" stroke="#000000" d="M217.4003,-263.5755C228.2627,-254.8125 241.2391,-244.344 252.0728,-235.6041"/>
</g>
<!-- 4&#45;&#45;14 -->
<g id="edge22" class="edge">
<title>4&#45;&#45;14</title>
<path fill="none" stroke="#000000" d="M167.6258,-281.211C152.8276,-280.8731 134.5627,-280.4562 119.7447,-280.1179"/>
</g>
<!-- 4&#45;&#45;15 -->
<g id="edge23" class="edge">
<title>4&#45;&#45;15</title>
<path fill="none" stroke="#000000" d="M207.7722,-263.714C225.3254,-239.2528 256.4192,-195.9222 273.9384,-171.5085"/>
</g>
<!-- 4&#45;&#45;17 -->
<g id="edge24" class="edge">
<title>4&#45;&#45;17</title>
<path fill="none" stroke="#000000" d="M167.5108,-279.2631C143.7331,-277.0236 109.4182,-273.7916 85.6545,-271.5533"/>
</g>
<!-- 6 -->
<g id="node7" class="node">
<title>6</title>
<text text-anchor="middle" x="238.0741" y="-60.9062" font-family="century schoolbook" font-size="10.00" fill="#000000">3,9</text>
</g>
<!-- 6&#45;&#45;1 -->
<g id="edge25" class="edge">
<title>6&#45;&#45;1</title>
<path fill="none" stroke="#000000" d="M236.8992,-81.4066C235.5426,-102.1898 233.3232,-136.1924 231.9577,-157.1134"/>
</g>
<!-- 6&#45;&#45;3 -->
<g id="edge26" class="edge">
<title>6&#45;&#45;3</title>
<path fill="none" stroke="#000000" d="M210.8637,-59.5422C190.1905,-56.6066 161.8872,-52.5874 141.2297,-49.654"/>
</g>
<!-- 6&#45;&#45;7 -->
<g id="edge27" class="edge">
<title>6&#45;&#45;7</title>
<path fill="none" stroke="#000000" d="M246.3271,-81.5533C257.088,-105.2147 275.8029,-146.3659 286.5687,-170.0381"/>
</g>
<!-- 6&#45;&#45;9 -->
<g id="edge28" class="edge">
<title>6&#45;&#45;9</title>
<path fill="none" stroke="#000000" d="M210.8044,-58.9213C181.6602,-54.1281 135.7308,-46.5743 106.6215,-41.7869"/>
</g>
<!-- 6&#45;&#45;12 -->
<g id="edge29" class="edge">
<title>6&#45;&#45;12</title>
<path fill="none" stroke="#000000" d="M242.3935,-81.6909C249.4006,-111.3526 263.1648,-169.6184 270.1683,-199.2648"/>
</g>
<!-- 6&#45;&#45;13 -->
<g id="edge30" class="edge">
<title>6&#45;&#45;13</title>
<path fill="none" stroke="#000000" d="M210.9902,-70.2704C194.4289,-74.4676 173.3168,-79.8183 156.7499,-84.017"/>
</g>
<!-- 6&#45;&#45;15 -->
<g id="edge31" class="edge">
<title>6&#45;&#45;15</title>
<path fill="none" stroke="#000000" d="M247.9492,-81.6348C256.4156,-97.2628 268.5502,-119.6622 277.0123,-135.2825"/>
</g>
<!-- 6&#45;&#45;16 -->
<g id="edge32" class="edge">
<title>6&#45;&#45;16</title>
<path fill="none" stroke="#000000" d="M210.9417,-51.2382C196.415,-44.7234 178.5723,-36.7215 164.0342,-30.2016"/>
</g>
<!-- 8 -->
<g id="node9" class="node">
<title>8</title>
<text text-anchor="middle" x="51.6063" y="-137.9817" font-family="century schoolbook" font-size="10.00" fill="#000000">4,10</text>
</g>
<!-- 8&#45;&#45;3 -->
<g id="edge33" class="edge">
<title>8&#45;&#45;3</title>
<path fill="none" stroke="#000000" d="M63.6524,-122.226C74.7156,-105.4598 91.0222,-80.7472 102.0736,-63.9988"/>
</g>
<!-- 8&#45;&#45;5 -->
<g id="edge34" class="edge">
<title>8&#45;&#45;5</title>
<path fill="none" stroke="#000000" d="M63.1044,-158.8211C71.1133,-171.5954 81.7502,-188.5612 89.7454,-201.3136"/>
</g>
<!-- 8&#45;&#45;9 -->
<g id="edge35" class="edge">
<title>8&#45;&#45;9</title>
<path fill="none" stroke="#000000" d="M56.5829,-122.0379C61.6497,-103.26 69.4581,-74.3212 74.5092,-55.6011"/>
</g>
<!-- 8&#45;&#45;11 -->
<g id="edge36" class="edge">
<title>8&#45;&#45;11</title>
<path fill="none" stroke="#000000" d="M50.0485,-158.5683C48.5677,-175.7599 46.3532,-201.4696 44.8747,-218.6343"/>
</g>
<!-- 8&#45;&#45;13 -->
<g id="edge37" class="edge">
<title>8&#45;&#45;13</title>
<path fill="none" stroke="#000000" d="M78.8971,-123.1366C86.5441,-118.2764 94.8535,-112.9953 102.4918,-108.1406"/>
</g>
<!-- 8&#45;&#45;14 -->
<g id="edge38" class="edge">
<title>8&#45;&#45;14</title>
<path fill="none" stroke="#000000" d="M56.9488,-158.6553C64.7807,-185.2972 79.2956,-234.6728 87.1282,-261.3172"/>
</g>
<!-- 8&#45;&#45;16 -->
<g id="edge39" class="edge">
<title>8&#45;&#45;16</title>
<path fill="none" stroke="#000000" d="M64.1809,-122.4091C80.2933,-99.2519 108.0636,-59.3396 124.2008,-36.1467"/>
</g>
<!-- 8&#45;&#45;17 -->
<g id="edge40" class="edge">
<title>8&#45;&#45;17</title>
<path fill="none" stroke="#000000" d="M52.5711,-158.6213C53.8736,-183.1133 56.181,-226.4985 57.481,-250.9429"/>
</g>
<!-- 10 -->
<g id="node11" class="node">
<title>10</title>
<text text-anchor="middle" x="186.3616" y="-254.6662" font-family="century schoolbook" font-size="10.00" fill="#000000">5,11</text>
</g>
<!-- 10&#45;&#45;1 -->
<g id="edge41" class="edge">
<title>10&#45;&#45;1</title>
<path fill="none" stroke="#000000" d="M196.2154,-239.0288C203.5732,-225.4856 213.584,-207.059 220.9352,-193.528"/>
</g>
<!-- 10&#45;&#45;5 -->
<g id="edge42" class="edge">
<title>10&#45;&#45;5</title>
<path fill="none" stroke="#000000" d="M158.9411,-245.0582C149.1169,-240.7202 138.0539,-235.8352 128.2589,-231.5101"/>
</g>
<!-- 10&#45;&#45;7 -->
<g id="edge43" class="edge">
<title>10&#45;&#45;7</title>
<path fill="none" stroke="#000000" d="M213.4534,-239.9428C230.0194,-229.411 251.1377,-215.9852 267.7093,-205.4499"/>
</g>
<!-- 10&#45;&#45;11 -->
<g id="edge44" class="edge">
<title>10&#45;&#45;11</title>
<path fill="none" stroke="#000000" d="M159.1206,-253.257C133.6688,-249.6046 95.8824,-244.1821 70.4634,-240.5344"/>
</g>
<!-- 10&#45;&#45;12 -->
<g id="edge45" class="edge">
<title>10&#45;&#45;12</title>
<path fill="none" stroke="#000000" d="M213.7604,-244.841C224.4714,-240.0227 236.7229,-234.5115 247.4029,-229.7072"/>
</g>
<!-- 10&#45;&#45;14 -->
<g id="edge46" class="edge">
<title>10&#45;&#45;14</title>
<path fill="none" stroke="#000000" d="M159.2048,-263.6247C146.7484,-266.5871 132.0167,-270.0906 119.5677,-273.0513"/>
</g>
<!-- 10&#45;&#45;15 -->
<g id="edge47" class="edge">
<title>10&#45;&#45;15</title>
<path fill="none" stroke="#000000" d="M203.8693,-239.1061C222.205,-220.192 250.8418,-190.6516 269.2284,-171.6849"/>
</g>
<!-- 10&#45;&#45;17 -->
<g id="edge48" class="edge">
<title>10&#45;&#45;17</title>
<path fill="none" stroke="#000000" d="M159.2329,-259.6737C137.5243,-261.6803 107.2287,-264.4806 85.5304,-266.4862"/>
</g>
</g>
</svg>
