<?xml version="1.0" encoding="UTF-8" standalone="no"?>
<!DOCTYPE svg PUBLIC "-//W3C//DTD SVG 1.1//EN"
 "http://www.w3.org/Graphics/SVG/1.1/DTD/svg11.dtd">
<!-- Generated by graphviz version 2.40.1 (20161225.0304)
 -->
<!-- Title: g Pages: 1 -->
<svg width="550pt" height="521pt"
 viewBox="0.00 0.00 550.06 520.90" xmlns="http://www.w3.org/2000/svg" xmlns:xlink="http://www.w3.org/1999/xlink">
<g id="graph0" class="graph" transform="scale(1 1) rotate(0) translate(4 516.8996)">
<title>g</title>
<polygon fill="#ffffff" stroke="transparent" points="-4,4 -4,-516.8996 546.0644,-516.8996 546.0644,4 -4,4"/>
<!-- 0 -->
<g id="node1" class="node">
<title>0</title>
<polygon fill="none" stroke="#000000" points="189.9287,-218.4507 135.9287,-218.4507 135.9287,-182.4507 189.9287,-182.4507 189.9287,-218.4507"/>
<text text-anchor="middle" x="162.9287" y="-197.9507" font-family="century schoolbook" font-size="10.00" fill="#000000">1</text>
</g>
<!-- 1 -->
<g id="node2" class="node">
<title>1</title>
<polygon fill="none" stroke="#000000" points="81.9474,-122.1738 27.9474,-122.1738 27.9474,-86.1738 81.9474,-86.1738 81.9474,-122.1738"/>
<text text-anchor="middle" x="54.9474" y="-101.6738" font-family="century schoolbook" font-size="10.00" fill="#000000">0,2</text>
</g>
<!-- 0&#45;&#45;1 -->
<g id="edge1" class="edge">
<title>0&#45;&#45;1</title>
<path fill="none" stroke="#000000" d="M149.8623,-182.0893C133.0701,-164.3403 103.7675,-137.917 82.0998,-120.7811"/>
</g>
<!-- 0&#45;&#45;1 -->
<g id="edge2" class="edge">
<title>0&#45;&#45;1</title>
<path fill="none" stroke="#000000" d="M135.7194,-183.7984C113.9136,-166.5476 84.4027,-139.9181 67.6815,-122.1834"/>
</g>
<!-- 2 -->
<g id="node3" class="node">
<title>2</title>
<polygon fill="none" stroke="#000000" points="304.5354,-92.6637 250.5354,-92.6637 250.5354,-56.6637 304.5354,-56.6637 304.5354,-92.6637"/>
<text text-anchor="middle" x="277.5354" y="-72.1637" font-family="century schoolbook" font-size="10.00" fill="#000000">3,5</text>
</g>
<!-- 0&#45;&#45;2 -->
<g id="edge3" class="edge">
<title>0&#45;&#45;2</title>
<path fill="none" stroke="#000000" d="M179.349,-182.4285C201.0119,-158.6523 238.9401,-117.0241 260.7728,-93.0615"/>
</g>
<!-- 3 -->
<g id="node4" class="node">
<title>3</title>
<polygon fill="none" stroke="#000000" points="250.7692,-377.2546 196.7692,-377.2546 196.7692,-341.2546 250.7692,-341.2546 250.7692,-377.2546"/>
<text text-anchor="middle" x="223.7692" y="-356.7546" font-family="century schoolbook" font-size="10.00" fill="#000000">3,8</text>
</g>
<!-- 0&#45;&#45;3 -->
<g id="edge4" class="edge">
<title>0&#45;&#45;3</title>
<path fill="none" stroke="#000000" d="M169.9078,-218.6675C181.6438,-249.3003 205.1903,-310.7607 216.8714,-341.2502"/>
</g>
<!-- 4 -->
<g id="node5" class="node">
<title>4</title>
<polygon fill="none" stroke="#000000" points="266.8553,-326.2519 212.8553,-326.2519 212.8553,-290.2519 266.8553,-290.2519 266.8553,-326.2519"/>
<text text-anchor="middle" x="239.8553" y="-305.7519" font-family="century schoolbook" font-size="10.00" fill="#000000">4,5</text>
</g>
<!-- 0&#45;&#45;4 -->
<g id="edge5" class="edge">
<title>0&#45;&#45;4</title>
<path fill="none" stroke="#000000" d="M175.9782,-218.7377C190.2098,-238.6812 212.8433,-270.3986 226.9985,-290.235"/>
</g>
<!-- 5 -->
<g id="node6" class="node">
<title>5</title>
<polygon fill="none" stroke="#000000" points="300.5064,-146.1072 246.5064,-146.1072 246.5064,-110.1072 300.5064,-110.1072 300.5064,-146.1072"/>
<text text-anchor="middle" x="273.5064" y="-125.6072" font-family="century schoolbook" font-size="10.00" fill="#000000">4,8</text>
</g>
<!-- 0&#45;&#45;5 -->
<g id="edge6" class="edge">
<title>0&#45;&#45;5</title>
<path fill="none" stroke="#000000" d="M189.979,-182.7535C207.1145,-171.5429 229.1966,-157.096 246.3521,-145.8724"/>
</g>
<!-- 6 -->
<g id="node7" class="node">
<title>6</title>
<polygon fill="none" stroke="#000000" points="54,-267.498 0,-267.498 0,-231.498 54,-231.498 54,-267.498"/>
<text text-anchor="middle" x="27" y="-246.998" font-family="century schoolbook" font-size="10.00" fill="#000000">6,7</text>
</g>
<!-- 0&#45;&#45;6 -->
<g id="edge7" class="edge">
<title>0&#45;&#45;6</title>
<path fill="none" stroke="#000000" d="M135.8514,-204.4932C112.2358,-211.1895 78.1637,-223.3837 54.4418,-233.568"/>
</g>
<!-- 0&#45;&#45;6 -->
<g id="edge8" class="edge">
<title>0&#45;&#45;6</title>
<path fill="none" stroke="#000000" d="M135.6887,-216.2941C112.0279,-226.466 77.9596,-238.6687 54.2851,-245.3966"/>
</g>
<!-- 7 -->
<g id="node8" class="node">
<title>7</title>
<polygon fill="none" stroke="#000000" points="449.7506,-152.6493 395.7506,-152.6493 395.7506,-116.6493 449.7506,-116.6493 449.7506,-152.6493"/>
<text text-anchor="middle" x="422.7506" y="-132.1493" font-family="century schoolbook" font-size="10.00" fill="#000000">6</text>
</g>
<!-- 7&#45;&#45;2 -->
<g id="edge9" class="edge">
<title>7&#45;&#45;2</title>
<path fill="none" stroke="#000000" d="M395.4367,-123.3665C369.4745,-112.642 330.6484,-96.6037 304.7268,-85.896"/>
</g>
<!-- 7&#45;&#45;5 -->
<g id="edge10" class="edge">
<title>7&#45;&#45;5</title>
<path fill="none" stroke="#000000" d="M395.7236,-133.4646C368.7596,-132.2826 327.5659,-130.4769 300.5841,-129.2941"/>
</g>
<!-- 8 -->
<g id="node9" class="node">
<title>8</title>
<polygon fill="none" stroke="#000000" points="482.5275,-274.1208 428.5275,-274.1208 428.5275,-238.1208 482.5275,-238.1208 482.5275,-274.1208"/>
<text text-anchor="middle" x="455.5275" y="-253.6208" font-family="century schoolbook" font-size="10.00" fill="#000000">0,5</text>
</g>
<!-- 7&#45;&#45;8 -->
<g id="edge11" class="edge">
<title>7&#45;&#45;8</title>
<path fill="none" stroke="#000000" d="M427.6576,-152.8349C433.8368,-175.7347 444.3921,-214.8526 450.587,-237.811"/>
</g>
<!-- 9 -->
<g id="node10" class="node">
<title>9</title>
<polygon fill="none" stroke="#000000" points="542.0644,-242.7518 488.0644,-242.7518 488.0644,-206.7518 542.0644,-206.7518 542.0644,-242.7518"/>
<text text-anchor="middle" x="515.0644" y="-222.2518" font-family="century schoolbook" font-size="10.00" fill="#000000">0,8</text>
</g>
<!-- 7&#45;&#45;9 -->
<g id="edge12" class="edge">
<title>7&#45;&#45;9</title>
<path fill="none" stroke="#000000" d="M441.4317,-152.8829C457.4477,-168.5153 480.4031,-190.9208 496.4111,-206.5454"/>
</g>
<!-- 10 -->
<g id="node11" class="node">
<title>10</title>
<polygon fill="none" stroke="#000000" points="532.6889,-36 478.6889,-36 478.6889,0 532.6889,0 532.6889,-36"/>
<text text-anchor="middle" x="505.6889" y="-15.5" font-family="century schoolbook" font-size="10.00" fill="#000000">1,7</text>
</g>
<!-- 7&#45;&#45;10 -->
<g id="edge13" class="edge">
<title>7&#45;&#45;10</title>
<path fill="none" stroke="#000000" d="M442.1222,-116.6194C460.2329,-94.7028 486.0123,-58.1042 498.6194,-36.1358"/>
</g>
<!-- 7&#45;&#45;10 -->
<g id="edge14" class="edge">
<title>7&#45;&#45;10</title>
<path fill="none" stroke="#000000" d="M429.8848,-116.401C442.4456,-94.5413 467.9545,-58.3109 486.0178,-36.3928"/>
</g>
<!-- 11 -->
<g id="node12" class="node">
<title>11</title>
<polygon fill="none" stroke="#000000" points="400.0258,-258.189 346.0258,-258.189 346.0258,-222.189 400.0258,-222.189 400.0258,-258.189"/>
<text text-anchor="middle" x="373.0258" y="-237.689" font-family="century schoolbook" font-size="10.00" fill="#000000">2,3</text>
</g>
<!-- 7&#45;&#45;11 -->
<g id="edge15" class="edge">
<title>7&#45;&#45;11</title>
<path fill="none" stroke="#000000" d="M414.0892,-153.033C404.9626,-172.4041 390.677,-202.7248 381.588,-222.0161"/>
</g>
<!-- 12 -->
<g id="node13" class="node">
<title>12</title>
<polygon fill="none" stroke="#000000" points="527.8249,-323.0148 473.8249,-323.0148 473.8249,-287.0148 527.8249,-287.0148 527.8249,-323.0148"/>
<text text-anchor="middle" x="500.8249" y="-302.5148" font-family="century schoolbook" font-size="10.00" fill="#000000">2,4</text>
</g>
<!-- 7&#45;&#45;12 -->
<g id="edge16" class="edge">
<title>7&#45;&#45;12</title>
<path fill="none" stroke="#000000" d="M431.1059,-152.8814C446.133,-185.672 477.5464,-254.2188 492.5297,-286.9138"/>
</g>
<!-- 13 -->
<g id="node14" class="node">
<title>13</title>
<polygon fill="none" stroke="#000000" points="408.2375,-374.3302 354.2375,-374.3302 354.2375,-338.3302 408.2375,-338.3302 408.2375,-374.3302"/>
<text text-anchor="middle" x="381.2375" y="-353.8302" font-family="century schoolbook" font-size="10.00" fill="#000000">7</text>
</g>
<!-- 13&#45;&#45;3 -->
<g id="edge17" class="edge">
<title>13&#45;&#45;3</title>
<path fill="none" stroke="#000000" d="M354.1678,-356.8329C325.3252,-357.3685 279.9216,-358.2117 251.0127,-358.7486"/>
</g>
<!-- 13&#45;&#45;4 -->
<g id="edge18" class="edge">
<title>13&#45;&#45;4</title>
<path fill="none" stroke="#000000" d="M353.9776,-347.0602C328.942,-338.5466 292.0406,-325.998 267.0315,-317.4934"/>
</g>
<!-- 13&#45;&#45;8 -->
<g id="edge19" class="edge">
<title>13&#45;&#45;8</title>
<path fill="none" stroke="#000000" d="M394.8635,-337.9502C408.2678,-319.8692 428.6136,-292.4249 441.988,-274.3842"/>
</g>
<!-- 13&#45;&#45;9 -->
<g id="edge20" class="edge">
<title>13&#45;&#45;9</title>
<path fill="none" stroke="#000000" d="M399.565,-338.3106C425.0495,-313.2544 470.9339,-268.1409 496.5288,-242.9759"/>
</g>
<!-- 13&#45;&#45;11 -->
<g id="edge21" class="edge">
<title>13&#45;&#45;11</title>
<path fill="none" stroke="#000000" d="M379.9545,-338.1831C378.4118,-316.3641 375.8386,-279.9707 374.2999,-258.2086"/>
</g>
<!-- 13&#45;&#45;12 -->
<g id="edge22" class="edge">
<title>13&#45;&#45;12</title>
<path fill="none" stroke="#000000" d="M408.3738,-344.6859C427.945,-336.2878 454.2496,-325.0004 473.7961,-316.6129"/>
</g>
<!-- 14 -->
<g id="node15" class="node">
<title>14</title>
<polygon fill="none" stroke="#000000" points="443.7783,-512.8996 389.7783,-512.8996 389.7783,-476.8996 443.7783,-476.8996 443.7783,-512.8996"/>
<text text-anchor="middle" x="416.7783" y="-492.3996" font-family="century schoolbook" font-size="10.00" fill="#000000">1,6</text>
</g>
<!-- 13&#45;&#45;14 -->
<g id="edge23" class="edge">
<title>13&#45;&#45;14</title>
<path fill="none" stroke="#000000" d="M381.126,-374.4679C385.0831,-401.0274 397.6072,-450.1791 407.1116,-476.7469"/>
</g>
<!-- 13&#45;&#45;14 -->
<g id="edge24" class="edge">
<title>13&#45;&#45;14</title>
<path fill="none" stroke="#000000" d="M390.8724,-374.394C400.388,-400.9616 412.948,-450.2496 416.8992,-476.8242"/>
</g>
</g>
</svg>
