<?xml version="1.0" encoding="UTF-8" standalone="no"?>
<!DOCTYPE svg PUBLIC "-//W3C//DTD SVG 1.1//EN"
 "http://www.w3.org/Graphics/SVG/1.1/DTD/svg11.dtd">
<!-- Generated by graphviz version 2.40.1 (20161225.0304)
 -->
<!-- Title: g Pages: 1 -->
<svg width="769pt" height="764pt"
 viewBox="0.00 0.00 769.00 764.22" xmlns="http://www.w3.org/2000/svg" xmlns:xlink="http://www.w3.org/1999/xlink">
<g id="graph0" class="graph" transform="scale(1 1) rotate(0) translate(4 760.2214)">
<title>g</title>
<polygon fill="#ffffff" stroke="transparent" points="-4,4 -4,-760.2214 764.9995,-760.2214 764.9995,4 -4,4"/>
<!-- 0 -->
<g id="node1" class="node">
<title>0</title>
<polygon fill="none" stroke="#000000" points="709.826,-328.4332 655.826,-328.4332 655.826,-292.4332 709.826,-292.4332 709.826,-328.4332"/>
<text text-anchor="middle" x="682.826" y="-307.9332" font-family="century schoolbook" font-size="10.00" fill="#000000">0,6</text>
</g>
<!-- 1 -->
<g id="node2" class="node">
<title>1</title>
<polygon fill="none" stroke="#000000" points="693.1046,-170.3737 639.1046,-170.3737 639.1046,-134.3737 693.1046,-134.3737 693.1046,-170.3737"/>
<text text-anchor="middle" x="666.1046" y="-149.8737" font-family="century schoolbook" font-size="10.00" fill="#000000">2,5</text>
</g>
<!-- 0&#45;&#45;1 -->
<g id="edge1" class="edge">
<title>0&#45;&#45;1</title>
<path fill="none" stroke="#000000" d="M680.9079,-292.3017C677.6995,-261.9748 671.2796,-201.2902 668.0519,-170.7806"/>
</g>
<!-- 2 -->
<g id="node3" class="node">
<title>2</title>
<polygon fill="none" stroke="#000000" points="654.3618,-130.2472 600.3618,-130.2472 600.3618,-94.2472 654.3618,-94.2472 654.3618,-130.2472"/>
<text text-anchor="middle" x="627.3618" y="-109.7472" font-family="century schoolbook" font-size="10.00" fill="#000000">8,11</text>
</g>
<!-- 0&#45;&#45;2 -->
<g id="edge2" class="edge">
<title>0&#45;&#45;2</title>
<path fill="none" stroke="#000000" d="M677.7075,-292.1435C667.1413,-254.3883 643.0235,-168.21 632.468,-130.4926"/>
</g>
<!-- 3 -->
<g id="node4" class="node">
<title>3</title>
<polygon fill="none" stroke="#000000" points="572.1126,-243.8045 518.1126,-243.8045 518.1126,-207.8045 572.1126,-207.8045 572.1126,-243.8045"/>
<text text-anchor="middle" x="545.1126" y="-223.3045" font-family="century schoolbook" font-size="10.00" fill="#000000">2,11</text>
</g>
<!-- 0&#45;&#45;3 -->
<g id="edge3" class="edge">
<title>0&#45;&#45;3</title>
<path fill="none" stroke="#000000" d="M655.6183,-293.7133C631.4752,-278.8767 596.3898,-257.3157 572.2638,-242.4897"/>
</g>
<!-- 4 -->
<g id="node5" class="node">
<title>4</title>
<polygon fill="none" stroke="#000000" points="624.7715,-196.6692 570.7715,-196.6692 570.7715,-160.6692 624.7715,-160.6692 624.7715,-196.6692"/>
<text text-anchor="middle" x="597.7715" y="-176.1692" font-family="century schoolbook" font-size="10.00" fill="#000000">5,8</text>
</g>
<!-- 0&#45;&#45;4 -->
<g id="edge4" class="edge">
<title>0&#45;&#45;4</title>
<path fill="none" stroke="#000000" d="M671.1779,-292.3882C654.9811,-267.2966 625.819,-222.1195 609.5519,-196.919"/>
</g>
<!-- 5 -->
<g id="node6" class="node">
<title>5</title>
<polygon fill="none" stroke="#000000" points="499.783,-99.5514 445.783,-99.5514 445.783,-63.5514 499.783,-63.5514 499.783,-99.5514"/>
<text text-anchor="middle" x="472.783" y="-79.0514" font-family="century schoolbook" font-size="10.00" fill="#000000">1,7</text>
</g>
<!-- 1&#45;&#45;5 -->
<g id="edge5" class="edge">
<title>1&#45;&#45;5</title>
<path fill="none" stroke="#000000" d="M638.8164,-142.3768C601.9719,-128.879 536.7054,-104.969 499.9324,-91.4974"/>
</g>
<!-- 2&#45;&#45;5 -->
<g id="edge6" class="edge">
<title>2&#45;&#45;5</title>
<path fill="none" stroke="#000000" d="M600.0821,-106.83C571.8267,-101.2192 527.9443,-92.5051 499.79,-86.9144"/>
</g>
<!-- 3&#45;&#45;5 -->
<g id="edge7" class="edge">
<title>3&#45;&#45;5</title>
<path fill="none" stroke="#000000" d="M535.952,-207.5347C522.0391,-179.787 495.7378,-127.3322 481.8692,-99.6728"/>
</g>
<!-- 4&#45;&#45;5 -->
<g id="edge8" class="edge">
<title>4&#45;&#45;5</title>
<path fill="none" stroke="#000000" d="M574.5551,-160.6297C552.2464,-143.2955 518.7079,-117.2357 496.2992,-99.8238"/>
</g>
<!-- 6 -->
<g id="node7" class="node">
<title>6</title>
<polygon fill="none" stroke="#000000" points="341.8998,-107.5288 287.8998,-107.5288 287.8998,-71.5288 341.8998,-71.5288 341.8998,-107.5288"/>
<text text-anchor="middle" x="314.8998" y="-87.0288" font-family="century schoolbook" font-size="10.00" fill="#000000">0,9</text>
</g>
<!-- 5&#45;&#45;6 -->
<g id="edge9" class="edge">
<title>5&#45;&#45;6</title>
<path fill="none" stroke="#000000" d="M445.6419,-82.9227C416.6352,-84.3884 370.9223,-86.6981 341.9504,-88.162"/>
</g>
<!-- 7 -->
<g id="node8" class="node">
<title>7</title>
<polygon fill="none" stroke="#000000" points="357.8238,-176.3648 303.8238,-176.3648 303.8238,-140.3648 357.8238,-140.3648 357.8238,-176.3648"/>
<text text-anchor="middle" x="330.8238" y="-155.8648" font-family="century schoolbook" font-size="10.00" fill="#000000">3,6</text>
</g>
<!-- 5&#45;&#45;7 -->
<g id="edge10" class="edge">
<title>5&#45;&#45;7</title>
<path fill="none" stroke="#000000" d="M445.7474,-96.1802C420.6483,-109.7612 383.4633,-129.8819 358.2422,-143.5288"/>
</g>
<!-- 8 -->
<g id="node9" class="node">
<title>8</title>
<polygon fill="none" stroke="#000000" points="300.702,-47.0998 246.702,-47.0998 246.702,-11.0998 300.702,-11.0998 300.702,-47.0998"/>
<text text-anchor="middle" x="273.702" y="-26.5998" font-family="century schoolbook" font-size="10.00" fill="#000000">0,3</text>
</g>
<!-- 5&#45;&#45;8 -->
<g id="edge11" class="edge">
<title>5&#45;&#45;8</title>
<path fill="none" stroke="#000000" d="M445.519,-74.3682C407.5018,-64.3519 338.9669,-46.2951 300.9553,-36.2802"/>
</g>
<!-- 9 -->
<g id="node10" class="node">
<title>9</title>
<polygon fill="none" stroke="#000000" points="355.3712,-36 301.3712,-36 301.3712,0 355.3712,0 355.3712,-36"/>
<text text-anchor="middle" x="328.3712" y="-15.5" font-family="century schoolbook" font-size="10.00" fill="#000000">6,9</text>
</g>
<!-- 5&#45;&#45;9 -->
<g id="edge12" class="edge">
<title>5&#45;&#45;9</title>
<path fill="none" stroke="#000000" d="M445.6202,-69.5978C419.8017,-58.2359 381.1904,-41.2442 355.4122,-29.8999"/>
</g>
<!-- 10 -->
<g id="node11" class="node">
<title>10</title>
<polygon fill="none" stroke="#000000" points="196.4748,-166.8429 142.4748,-166.8429 142.4748,-130.8429 196.4748,-130.8429 196.4748,-166.8429"/>
<text text-anchor="middle" x="169.4748" y="-146.3429" font-family="century schoolbook" font-size="10.00" fill="#000000">2,8</text>
</g>
<!-- 6&#45;&#45;10 -->
<g id="edge13" class="edge">
<title>6&#45;&#45;10</title>
<path fill="none" stroke="#000000" d="M287.8873,-100.5463C261.9309,-111.133 222.9087,-127.0489 196.8361,-137.6831"/>
</g>
<!-- 7&#45;&#45;10 -->
<g id="edge14" class="edge">
<title>7&#45;&#45;10</title>
<path fill="none" stroke="#000000" d="M303.8176,-156.7711C274.0335,-155.0134 226.3883,-152.2017 196.5691,-150.4419"/>
</g>
<!-- 8&#45;&#45;10 -->
<g id="edge15" class="edge">
<title>8&#45;&#45;10</title>
<path fill="none" stroke="#000000" d="M257.8721,-47.2862C238.2821,-69.7925 205.1122,-107.9003 185.4536,-130.4854"/>
</g>
<!-- 9&#45;&#45;10 -->
<g id="edge16" class="edge">
<title>9&#45;&#45;10</title>
<path fill="none" stroke="#000000" d="M306.2774,-36.1931C275.9197,-61.1911 221.6397,-105.8879 191.381,-130.8043"/>
</g>
<!-- 11 -->
<g id="node12" class="node">
<title>11</title>
<polygon fill="none" stroke="#000000" points="66.3146,-260.7264 12.3146,-260.7264 12.3146,-224.7264 66.3146,-224.7264 66.3146,-260.7264"/>
<text text-anchor="middle" x="39.3146" y="-240.2264" font-family="century schoolbook" font-size="10.00" fill="#000000">1,10</text>
</g>
<!-- 10&#45;&#45;11 -->
<g id="edge17" class="edge">
<title>10&#45;&#45;11</title>
<path fill="none" stroke="#000000" d="M144.3786,-166.9446C121.3302,-183.5692 87.3578,-208.0733 64.3337,-224.6803"/>
</g>
<!-- 12 -->
<g id="node13" class="node">
<title>12</title>
<polygon fill="none" stroke="#000000" points="125.3559,-304.8634 71.3559,-304.8634 71.3559,-268.8634 125.3559,-268.8634 125.3559,-304.8634"/>
<text text-anchor="middle" x="98.3559" y="-284.3634" font-family="century schoolbook" font-size="10.00" fill="#000000">4,7</text>
</g>
<!-- 10&#45;&#45;12 -->
<g id="edge18" class="edge">
<title>10&#45;&#45;12</title>
<path fill="none" stroke="#000000" d="M160.1772,-166.8867C146.5473,-193.3382 121.2869,-242.3612 107.6558,-268.8152"/>
</g>
<!-- 13 -->
<g id="node14" class="node">
<title>13</title>
<polygon fill="none" stroke="#000000" points="191.9888,-328.6916 137.9888,-328.6916 137.9888,-292.6916 191.9888,-292.6916 191.9888,-328.6916"/>
<text text-anchor="middle" x="164.9888" y="-308.1916" font-family="century schoolbook" font-size="10.00" fill="#000000">1,4</text>
</g>
<!-- 10&#45;&#45;13 -->
<g id="edge19" class="edge">
<title>10&#45;&#45;13</title>
<path fill="none" stroke="#000000" d="M168.9689,-167.0944C168.1073,-198.1787 166.3647,-261.0508 165.4997,-292.2585"/>
</g>
<!-- 14 -->
<g id="node15" class="node">
<title>14</title>
<polygon fill="none" stroke="#000000" points="54,-315.1156 0,-315.1156 0,-279.1156 54,-279.1156 54,-315.1156"/>
<text text-anchor="middle" x="27" y="-294.6156" font-family="century schoolbook" font-size="10.00" fill="#000000">7,10</text>
</g>
<!-- 10&#45;&#45;14 -->
<g id="edge20" class="edge">
<title>10&#45;&#45;14</title>
<path fill="none" stroke="#000000" d="M152.0046,-167.0241C124.6598,-195.4816 72.0456,-250.2369 44.6131,-278.7857"/>
</g>
<!-- 15 -->
<g id="node16" class="node">
<title>15</title>
<polygon fill="none" stroke="#000000" points="103.3981,-463.2559 49.3981,-463.2559 49.3981,-427.2559 103.3981,-427.2559 103.3981,-463.2559"/>
<text text-anchor="middle" x="76.3981" y="-442.7559" font-family="century schoolbook" font-size="10.00" fill="#000000">3,9</text>
</g>
<!-- 11&#45;&#45;15 -->
<g id="edge21" class="edge">
<title>11&#45;&#45;15</title>
<path fill="none" stroke="#000000" d="M42.6709,-261.0568C49.7312,-299.6161 66.0459,-388.7179 73.0761,-427.1129"/>
</g>
<!-- 12&#45;&#45;15 -->
<g id="edge22" class="edge">
<title>12&#45;&#45;15</title>
<path fill="none" stroke="#000000" d="M95.8371,-305.033C91.624,-335.4239 83.1936,-396.2364 78.9552,-426.8103"/>
</g>
<!-- 13&#45;&#45;15 -->
<g id="edge23" class="edge">
<title>13&#45;&#45;15</title>
<path fill="none" stroke="#000000" d="M153.041,-328.8395C136.1329,-354.522 105.3985,-401.206 88.4394,-426.9658"/>
</g>
<!-- 14&#45;&#45;15 -->
<g id="edge24" class="edge">
<title>14&#45;&#45;15</title>
<path fill="none" stroke="#000000" d="M33.0572,-315.2805C42.538,-343.7126 60.7801,-398.4191 70.2914,-426.9425"/>
</g>
<!-- 16 -->
<g id="node17" class="node">
<title>16</title>
<polygon fill="none" stroke="#000000" points="240.9508,-547.7913 186.9508,-547.7913 186.9508,-511.7913 240.9508,-511.7913 240.9508,-547.7913"/>
<text text-anchor="middle" x="213.9508" y="-527.2913" font-family="century schoolbook" font-size="10.00" fill="#000000">2,11</text>
</g>
<!-- 15&#45;&#45;16 -->
<g id="edge25" class="edge">
<title>15&#45;&#45;16</title>
<path fill="none" stroke="#000000" d="M103.5741,-461.9574C127.6889,-476.7776 162.7335,-498.3149 186.8313,-513.1246"/>
</g>
<!-- 17 -->
<g id="node18" class="node">
<title>17</title>
<polygon fill="none" stroke="#000000" points="157.9008,-661.7525 103.9008,-661.7525 103.9008,-625.7525 157.9008,-625.7525 157.9008,-661.7525"/>
<text text-anchor="middle" x="130.9008" y="-641.2525" font-family="century schoolbook" font-size="10.00" fill="#000000">5,8</text>
</g>
<!-- 15&#45;&#45;17 -->
<g id="edge26" class="edge">
<title>15&#45;&#45;17</title>
<path fill="none" stroke="#000000" d="M81.4279,-463.5742C91.8108,-501.3886 115.5106,-587.702 125.8831,-625.4785"/>
</g>
<!-- 18 -->
<g id="node19" class="node">
<title>18</title>
<polygon fill="none" stroke="#000000" points="120.3811,-620.478 66.3811,-620.478 66.3811,-584.478 120.3811,-584.478 120.3811,-620.478"/>
<text text-anchor="middle" x="93.3811" y="-599.978" font-family="century schoolbook" font-size="10.00" fill="#000000">2,5</text>
</g>
<!-- 15&#45;&#45;18 -->
<g id="edge27" class="edge">
<title>15&#45;&#45;18</title>
<path fill="none" stroke="#000000" d="M78.3462,-463.2913C81.6048,-493.4576 88.1251,-553.8207 91.4033,-584.1687"/>
</g>
<!-- 19 -->
<g id="node20" class="node">
<title>19</title>
<polygon fill="none" stroke="#000000" points="188.9723,-595.6782 134.9723,-595.6782 134.9723,-559.6782 188.9723,-559.6782 188.9723,-595.6782"/>
<text text-anchor="middle" x="161.9723" y="-575.1782" font-family="century schoolbook" font-size="10.00" fill="#000000">8,11</text>
</g>
<!-- 15&#45;&#45;19 -->
<g id="edge28" class="edge">
<title>15&#45;&#45;19</title>
<path fill="none" stroke="#000000" d="M88.1174,-463.391C104.4132,-488.608 133.7535,-534.0108 150.1199,-559.3372"/>
</g>
<!-- 20 -->
<g id="node21" class="node">
<title>20</title>
<polygon fill="none" stroke="#000000" points="313.3316,-692.1961 259.3316,-692.1961 259.3316,-656.1961 313.3316,-656.1961 313.3316,-692.1961"/>
<text text-anchor="middle" x="286.3316" y="-671.6961" font-family="century schoolbook" font-size="10.00" fill="#000000">4,10</text>
</g>
<!-- 16&#45;&#45;20 -->
<g id="edge29" class="edge">
<title>16&#45;&#45;20</title>
<path fill="none" stroke="#000000" d="M223.1179,-548.0803C237.0406,-575.8572 263.3605,-628.3672 277.2389,-656.0556"/>
</g>
<!-- 17&#45;&#45;20 -->
<g id="edge30" class="edge">
<title>17&#45;&#45;20</title>
<path fill="none" stroke="#000000" d="M157.9748,-649.0553C186.4161,-654.626 230.885,-663.336 259.3075,-668.903"/>
</g>
<!-- 18&#45;&#45;20 -->
<g id="edge31" class="edge">
<title>18&#45;&#45;20</title>
<path fill="none" stroke="#000000" d="M120.6169,-612.6013C157.3907,-626.2698 222.5319,-650.4823 259.2343,-664.1242"/>
</g>
<!-- 19&#45;&#45;20 -->
<g id="edge32" class="edge">
<title>19&#45;&#45;20</title>
<path fill="none" stroke="#000000" d="M185.3633,-595.8325C207.5968,-613.0883 240.8467,-638.8943 263.0454,-656.1232"/>
</g>
<!-- 21 -->
<g id="node22" class="node">
<title>21</title>
<polygon fill="none" stroke="#000000" points="455.3762,-615.3054 401.3762,-615.3054 401.3762,-579.3054 455.3762,-579.3054 455.3762,-615.3054"/>
<text text-anchor="middle" x="428.3762" y="-594.8054" font-family="century schoolbook" font-size="10.00" fill="#000000">0,3</text>
</g>
<!-- 20&#45;&#45;21 -->
<g id="edge33" class="edge">
<title>20&#45;&#45;21</title>
<path fill="none" stroke="#000000" d="M313.3834,-659.5525C338.4976,-645.9579 375.705,-625.817 400.9413,-612.1563"/>
</g>
<!-- 22 -->
<g id="node23" class="node">
<title>22</title>
<polygon fill="none" stroke="#000000" points="470.6073,-684.2996 416.6073,-684.2996 416.6073,-648.2996 470.6073,-648.2996 470.6073,-684.2996"/>
<text text-anchor="middle" x="443.6073" y="-663.7996" font-family="century schoolbook" font-size="10.00" fill="#000000">6,9</text>
</g>
<!-- 20&#45;&#45;22 -->
<g id="edge34" class="edge">
<title>20&#45;&#45;22</title>
<path fill="none" stroke="#000000" d="M313.3682,-672.8386C342.1755,-671.3923 387.5236,-669.1155 416.3971,-667.6658"/>
</g>
<!-- 23 -->
<g id="node24" class="node">
<title>23</title>
<polygon fill="none" stroke="#000000" points="512.5699,-743.9518 458.5699,-743.9518 458.5699,-707.9518 512.5699,-707.9518 512.5699,-743.9518"/>
<text text-anchor="middle" x="485.5699" y="-723.4518" font-family="century schoolbook" font-size="10.00" fill="#000000">0,9</text>
</g>
<!-- 20&#45;&#45;23 -->
<g id="edge35" class="edge">
<title>20&#45;&#45;23</title>
<path fill="none" stroke="#000000" d="M313.6171,-681.284C351.6643,-691.1674 420.2534,-708.9847 458.295,-718.8667"/>
</g>
<!-- 24 -->
<g id="node25" class="node">
<title>24</title>
<polygon fill="none" stroke="#000000" points="458.1462,-756.2214 404.1462,-756.2214 404.1462,-720.2214 458.1462,-720.2214 458.1462,-756.2214"/>
<text text-anchor="middle" x="431.1462" y="-735.7214" font-family="century schoolbook" font-size="10.00" fill="#000000">3,6</text>
</g>
<!-- 20&#45;&#45;24 -->
<g id="edge36" class="edge">
<title>20&#45;&#45;24</title>
<path fill="none" stroke="#000000" d="M313.5701,-686.2388C339.4607,-697.6855 378.1797,-714.8039 404.0298,-726.2328"/>
</g>
<!-- 25 -->
<g id="node26" class="node">
<title>25</title>
<polygon fill="none" stroke="#000000" points="616.5837,-624.7768 562.5837,-624.7768 562.5837,-588.7768 616.5837,-588.7768 616.5837,-624.7768"/>
<text text-anchor="middle" x="589.5837" y="-604.2768" font-family="century schoolbook" font-size="10.00" fill="#000000">5,11</text>
</g>
<!-- 21&#45;&#45;25 -->
<g id="edge37" class="edge">
<title>21&#45;&#45;25</title>
<path fill="none" stroke="#000000" d="M455.7229,-598.9121C485.4567,-600.659 532.6917,-603.4342 562.3723,-605.1781"/>
</g>
<!-- 22&#45;&#45;25 -->
<g id="edge38" class="edge">
<title>22&#45;&#45;25</title>
<path fill="none" stroke="#000000" d="M470.7222,-655.2433C496.777,-644.6193 535.9471,-628.6475 562.1186,-617.9759"/>
</g>
<!-- 23&#45;&#45;25 -->
<g id="edge39" class="edge">
<title>23&#45;&#45;25</title>
<path fill="none" stroke="#000000" d="M501.3673,-707.8517C520.9172,-685.4522 554.0192,-647.5252 573.6375,-625.0473"/>
</g>
<!-- 24&#45;&#45;25 -->
<g id="edge40" class="edge">
<title>24&#45;&#45;25</title>
<path fill="none" stroke="#000000" d="M452.844,-720.2202C483.0151,-695.1894 537.3376,-650.1218 567.6394,-624.9824"/>
</g>
<!-- 26 -->
<g id="node27" class="node">
<title>26</title>
<polygon fill="none" stroke="#000000" points="744.4575,-531.363 690.4575,-531.363 690.4575,-495.363 744.4575,-495.363 744.4575,-531.363"/>
<text text-anchor="middle" x="717.4575" y="-510.863" font-family="century schoolbook" font-size="10.00" fill="#000000">1,4</text>
</g>
<!-- 25&#45;&#45;26 -->
<g id="edge41" class="edge">
<title>25&#45;&#45;26</title>
<path fill="none" stroke="#000000" d="M614.239,-588.7657C636.7374,-572.3303 669.8307,-548.155 692.4415,-531.6376"/>
</g>
<!-- 27 -->
<g id="node28" class="node">
<title>27</title>
<polygon fill="none" stroke="#000000" points="688.3613,-484.6367 634.3613,-484.6367 634.3613,-448.6367 688.3613,-448.6367 688.3613,-484.6367"/>
<text text-anchor="middle" x="661.3613" y="-464.1367" font-family="century schoolbook" font-size="10.00" fill="#000000">7,10</text>
</g>
<!-- 25&#45;&#45;27 -->
<g id="edge42" class="edge">
<title>25&#45;&#45;27</title>
<path fill="none" stroke="#000000" d="M598.8204,-588.7428C612.5269,-561.982 638.1153,-512.0226 651.9321,-485.0464"/>
</g>
<!-- 28 -->
<g id="node29" class="node">
<title>28</title>
<polygon fill="none" stroke="#000000" points="621.0009,-463.3105 567.0009,-463.3105 567.0009,-427.3105 621.0009,-427.3105 621.0009,-463.3105"/>
<text text-anchor="middle" x="594.0009" y="-442.8105" font-family="century schoolbook" font-size="10.00" fill="#000000">1,10</text>
</g>
<!-- 25&#45;&#45;28 -->
<g id="edge43" class="edge">
<title>25&#45;&#45;28</title>
<path fill="none" stroke="#000000" d="M590.0818,-588.5684C590.9301,-557.5576 592.6461,-494.8339 593.4978,-463.7"/>
</g>
<!-- 29 -->
<g id="node30" class="node">
<title>29</title>
<polygon fill="none" stroke="#000000" points="760.9995,-478.091 706.9995,-478.091 706.9995,-442.091 760.9995,-442.091 760.9995,-478.091"/>
<text text-anchor="middle" x="733.9995" y="-457.591" font-family="century schoolbook" font-size="10.00" fill="#000000">4,7</text>
</g>
<!-- 25&#45;&#45;29 -->
<g id="edge44" class="edge">
<title>25&#45;&#45;29</title>
<path fill="none" stroke="#000000" d="M607.582,-588.4955C635.4071,-560.2331 688.5411,-506.2639 716.228,-478.1419"/>
</g>
<!-- 26&#45;&#45;0 -->
<g id="edge45" class="edge">
<title>26&#45;&#45;0</title>
<path fill="none" stroke="#000000" d="M714.3841,-495.3543C707.8288,-456.9419 692.5355,-367.3278 685.9422,-328.6932"/>
</g>
<!-- 27&#45;&#45;0 -->
<g id="edge46" class="edge">
<title>27&#45;&#45;0</title>
<path fill="none" stroke="#000000" d="M663.8656,-448.4124C668.0016,-418.3136 676.2122,-358.5637 680.3377,-328.5413"/>
</g>
<!-- 28&#45;&#45;0 -->
<g id="edge47" class="edge">
<title>28&#45;&#45;0</title>
<path fill="none" stroke="#000000" d="M605.9802,-427.1203C622.9331,-401.3781 653.7489,-354.5856 670.7528,-328.7659"/>
</g>
<!-- 29&#45;&#45;0 -->
<g id="edge48" class="edge">
<title>29&#45;&#45;0</title>
<path fill="none" stroke="#000000" d="M727.8268,-442.0388C717.991,-413.2739 698.8702,-357.3546 689.0206,-328.5494"/>
</g>
</g>
</svg>
