<?xml version="1.0" encoding="UTF-8" standalone="no"?>
<!DOCTYPE svg PUBLIC "-//W3C//DTD SVG 1.1//EN"
 "http://www.w3.org/Graphics/SVG/1.1/DTD/svg11.dtd">
<!-- Generated by graphviz version 2.40.1 (20161225.0304)
 -->
<!-- Title: g Pages: 1 -->
<svg width="387pt" height="792pt"
 viewBox="0.00 0.00 386.61 792.23" xmlns="http://www.w3.org/2000/svg" xmlns:xlink="http://www.w3.org/1999/xlink">
<g id="graph0" class="graph" transform="scale(1 1) rotate(0) translate(4 788.2343)">
<title>g</title>
<polygon fill="#ffffff" stroke="transparent" points="-4,4 -4,-788.2343 382.6114,-788.2343 382.6114,4 -4,4"/>
<!-- 0 -->
<g id="node1" class="node">
<title>0</title>
<text text-anchor="middle" x="137.9347" y="-15.5" font-family="century schoolbook" font-size="10.00" fill="#000000">1,2,3</text>
</g>
<!-- 1 -->
<g id="node2" class="node">
<title>1</title>
<text text-anchor="middle" x="151.9275" y="-110.6216" font-family="century schoolbook" font-size="10.00" fill="#000000">1,2,4</text>
</g>
<!-- 0&#45;&#45;1 -->
<g id="edge1" class="edge">
<title>0&#45;&#45;1</title>
<path fill="none" stroke="#000000" d="M140.6326,-36.3404C143.1105,-53.1843 146.7626,-78.0114 149.2378,-94.8375"/>
</g>
<!-- 2 -->
<g id="node3" class="node">
<title>2</title>
<text text-anchor="middle" x="98.3235" y="-198.7156" font-family="century schoolbook" font-size="10.00" fill="#000000">1,2,5</text>
</g>
<!-- 1&#45;&#45;2 -->
<g id="edge2" class="edge">
<title>1&#45;&#45;2</title>
<path fill="none" stroke="#000000" d="M140.8207,-131.3747C131.621,-146.4938 118.6119,-167.8732 109.4161,-182.9858"/>
</g>
<!-- 3 -->
<g id="node4" class="node">
<title>3</title>
<text text-anchor="middle" x="227.1102" y="-181.2378" font-family="century schoolbook" font-size="10.00" fill="#000000">1,3,4</text>
</g>
<!-- 1&#45;&#45;3 -->
<g id="edge3" class="edge">
<title>1&#45;&#45;3</title>
<path fill="none" stroke="#000000" d="M171.2889,-131.307C182.514,-141.8503 196.6005,-155.0812 207.8144,-165.614"/>
</g>
<!-- 4 -->
<g id="node5" class="node">
<title>4</title>
<text text-anchor="middle" x="27" y="-273.4222" font-family="century schoolbook" font-size="10.00" fill="#000000">1,2,6</text>
</g>
<!-- 2&#45;&#45;4 -->
<g id="edge4" class="edge">
<title>2&#45;&#45;4</title>
<path fill="none" stroke="#000000" d="M81.0581,-219.3C69.9267,-230.9593 55.5024,-246.0679 44.3536,-257.7454"/>
</g>
<!-- 5 -->
<g id="node6" class="node">
<title>5</title>
<text text-anchor="middle" x="174.0494" y="-273.4624" font-family="century schoolbook" font-size="10.00" fill="#000000">1,3,5</text>
</g>
<!-- 2&#45;&#45;5 -->
<g id="edge5" class="edge">
<title>2&#45;&#45;5</title>
<path fill="none" stroke="#000000" d="M116.6546,-219.3097C128.4731,-230.9753 143.7878,-246.092 155.6246,-257.7758"/>
</g>
<!-- 3&#45;&#45;5 -->
<g id="edge6" class="edge">
<title>3&#45;&#45;5</title>
<path fill="none" stroke="#000000" d="M216.6271,-201.9584C207.3248,-218.1266 193.8064,-241.6228 184.5107,-257.7796"/>
</g>
<!-- 7 -->
<g id="node8" class="node">
<title>7</title>
<text text-anchor="middle" x="315.5718" y="-234.626" font-family="century schoolbook" font-size="10.00" fill="#000000">2,3,4</text>
</g>
<!-- 3&#45;&#45;7 -->
<g id="edge7" class="edge">
<title>3&#45;&#45;7</title>
<path fill="none" stroke="#000000" d="M254.1323,-200.0461C265.0057,-206.6084 277.523,-214.1628 288.4104,-220.7336"/>
</g>
<!-- 6 -->
<g id="node7" class="node">
<title>6</title>
<text text-anchor="middle" x="94.832" y="-350.5452" font-family="century schoolbook" font-size="10.00" fill="#000000">1,3,6</text>
</g>
<!-- 4&#45;&#45;6 -->
<g id="edge8" class="edge">
<title>4&#45;&#45;6</title>
<path fill="none" stroke="#000000" d="M43.0752,-294.1993C53.8882,-306.4933 68.0833,-322.6328 78.8721,-334.8993"/>
</g>
<!-- 5&#45;&#45;6 -->
<g id="edge9" class="edge">
<title>5&#45;&#45;6</title>
<path fill="none" stroke="#000000" d="M155.276,-294.2299C142.6481,-306.5175 126.0703,-322.6486 113.4706,-334.9088"/>
</g>
<!-- 8 -->
<g id="node9" class="node">
<title>8</title>
<text text-anchor="middle" x="187.2023" y="-371.0812" font-family="century schoolbook" font-size="10.00" fill="#000000">1,4,5</text>
</g>
<!-- 5&#45;&#45;8 -->
<g id="edge10" class="edge">
<title>5&#45;&#45;8</title>
<path fill="none" stroke="#000000" d="M176.5234,-294.3237C178.8749,-311.7764 182.3916,-337.8767 184.7395,-355.3022"/>
</g>
<!-- 9 -->
<g id="node10" class="node">
<title>9</title>
<text text-anchor="middle" x="270.7458" y="-327.1059" font-family="century schoolbook" font-size="10.00" fill="#000000">2,3,5</text>
</g>
<!-- 5&#45;&#45;9 -->
<g id="edge11" class="edge">
<title>5&#45;&#45;9</title>
<path fill="none" stroke="#000000" d="M201.2421,-291.0478C214.4251,-298.3613 230.222,-307.1248 243.4222,-314.4478"/>
</g>
<!-- 10 -->
<g id="node11" class="node">
<title>10</title>
<text text-anchor="middle" x="108.2784" y="-451.4893" font-family="century schoolbook" font-size="10.00" fill="#000000">1,4,6</text>
</g>
<!-- 6&#45;&#45;10 -->
<g id="edge12" class="edge">
<title>6&#45;&#45;10</title>
<path fill="none" stroke="#000000" d="M97.2359,-371.092C99.6683,-389.3523 103.4088,-417.4324 105.8499,-435.7584"/>
</g>
<!-- 11 -->
<g id="node12" class="node">
<title>11</title>
<text text-anchor="middle" x="191.9409" y="-407.5651" font-family="century schoolbook" font-size="10.00" fill="#000000">2,3,6</text>
</g>
<!-- 6&#45;&#45;11 -->
<g id="edge13" class="edge">
<title>6&#45;&#45;11</title>
<path fill="none" stroke="#000000" d="M121.8822,-368.9284C135.2389,-376.7711 151.3163,-386.2114 164.6989,-394.0693"/>
</g>
<!-- 7&#45;&#45;9 -->
<g id="edge14" class="edge">
<title>7&#45;&#45;9</title>
<path fill="none" stroke="#000000" d="M306.7156,-255.3971C298.857,-271.61 287.4366,-295.1713 279.5836,-311.3728"/>
</g>
<!-- 8&#45;&#45;10 -->
<g id="edge15" class="edge">
<title>8&#45;&#45;10</title>
<path fill="none" stroke="#000000" d="M169.2933,-391.8271C156.3769,-404.9863 139.0167,-422.673 126.1166,-435.8157"/>
</g>
<!-- 12 -->
<g id="node13" class="node">
<title>12</title>
<text text-anchor="middle" x="284.2048" y="-428.1899" font-family="century schoolbook" font-size="10.00" fill="#000000">2,4,5</text>
</g>
<!-- 8&#45;&#45;12 -->
<g id="edge16" class="edge">
<title>8&#45;&#45;12</title>
<path fill="none" stroke="#000000" d="M214.2229,-389.4892C227.565,-397.3441 243.6247,-406.799 256.9926,-414.6692"/>
</g>
<!-- 9&#45;&#45;11 -->
<g id="edge17" class="edge">
<title>9&#45;&#45;11</title>
<path fill="none" stroke="#000000" d="M252.8638,-347.8633C239.9669,-361.031 222.6328,-378.7289 209.7522,-391.8799"/>
</g>
<!-- 9&#45;&#45;12 -->
<g id="edge18" class="edge">
<title>9&#45;&#45;12</title>
<path fill="none" stroke="#000000" d="M273.152,-347.6777C275.5867,-365.9633 279.3306,-394.0823 281.774,-412.4337"/>
</g>
<!-- 13 -->
<g id="node14" class="node">
<title>13</title>
<text text-anchor="middle" x="62.9593" y="-543.6668" font-family="century schoolbook" font-size="10.00" fill="#000000">1,5,6</text>
</g>
<!-- 10&#45;&#45;13 -->
<g id="edge19" class="edge">
<title>10&#45;&#45;13</title>
<path fill="none" stroke="#000000" d="M99.3248,-472.2006C91.3797,-488.3606 79.8337,-511.8448 71.8943,-527.9934"/>
</g>
<!-- 14 -->
<g id="node15" class="node">
<title>14</title>
<text text-anchor="middle" x="204.8636" y="-505.2201" font-family="century schoolbook" font-size="10.00" fill="#000000">2,4,6</text>
</g>
<!-- 10&#45;&#45;14 -->
<g id="edge20" class="edge">
<title>10&#45;&#45;14</title>
<path fill="none" stroke="#000000" d="M135.4398,-469.0993C148.6076,-476.4246 164.3864,-485.2024 177.5714,-492.5373"/>
</g>
<!-- 11&#45;&#45;14 -->
<g id="edge21" class="edge">
<title>11&#45;&#45;14</title>
<path fill="none" stroke="#000000" d="M194.3716,-428.4332C196.6819,-445.8924 200.1371,-472.0024 202.4438,-489.4343"/>
</g>
<!-- 12&#45;&#45;14 -->
<g id="edge22" class="edge">
<title>12&#45;&#45;14</title>
<path fill="none" stroke="#000000" d="M265.402,-448.9449C252.7544,-461.2242 236.1507,-477.3442 223.5314,-489.596"/>
</g>
<!-- 16 -->
<g id="node17" class="node">
<title>16</title>
<text text-anchor="middle" x="351.6114" y="-505.7667" font-family="century schoolbook" font-size="10.00" fill="#000000">3,4,5</text>
</g>
<!-- 12&#45;&#45;16 -->
<g id="edge23" class="edge">
<title>12&#45;&#45;16</title>
<path fill="none" stroke="#000000" d="M300.1792,-449.0745C310.9243,-461.4408 325.0305,-477.6753 335.7516,-490.014"/>
</g>
<!-- 15 -->
<g id="node16" class="node">
<title>15</title>
<text text-anchor="middle" x="151.3065" y="-597.1711" font-family="century schoolbook" font-size="10.00" fill="#000000">2,5,6</text>
</g>
<!-- 13&#45;&#45;15 -->
<g id="edge24" class="edge">
<title>13&#45;&#45;15</title>
<path fill="none" stroke="#000000" d="M90.4286,-562.8027C101.1671,-569.306 113.4502,-576.7448 124.1576,-583.2294"/>
</g>
<!-- 14&#45;&#45;15 -->
<g id="edge25" class="edge">
<title>14&#45;&#45;15</title>
<path fill="none" stroke="#000000" d="M194.2824,-525.8867C184.8931,-542.0069 171.2483,-565.4334 161.8657,-581.5423"/>
</g>
<!-- 17 -->
<g id="node18" class="node">
<title>17</title>
<text text-anchor="middle" x="280.1548" y="-580.3991" font-family="century schoolbook" font-size="10.00" fill="#000000">3,4,6</text>
</g>
<!-- 14&#45;&#45;17 -->
<g id="edge26" class="edge">
<title>14&#45;&#45;17</title>
<path fill="none" stroke="#000000" d="M223.0895,-525.9188C234.9271,-537.7388 250.2926,-553.0814 262.0967,-564.8679"/>
</g>
<!-- 18 -->
<g id="node19" class="node">
<title>18</title>
<text text-anchor="middle" x="226.0522" y="-668.2277" font-family="century schoolbook" font-size="10.00" fill="#000000">3,5,6</text>
</g>
<!-- 15&#45;&#45;18 -->
<g id="edge27" class="edge">
<title>15&#45;&#45;18</title>
<path fill="none" stroke="#000000" d="M170.5554,-617.97C181.7152,-628.579 195.7198,-641.8924 206.8685,-652.4909"/>
</g>
<!-- 16&#45;&#45;17 -->
<g id="edge28" class="edge">
<title>16&#45;&#45;17</title>
<path fill="none" stroke="#000000" d="M334.3137,-526.3331C323.1616,-537.9809 308.7103,-553.0744 297.5408,-564.7403"/>
</g>
<!-- 17&#45;&#45;18 -->
<g id="edge29" class="edge">
<title>17&#45;&#45;18</title>
<path fill="none" stroke="#000000" d="M268.9447,-601.0972C259.6593,-616.1708 246.5293,-637.4857 237.2479,-652.5529"/>
</g>
<!-- 19 -->
<g id="node20" class="node">
<title>19</title>
<text text-anchor="middle" x="237.4823" y="-763.7343" font-family="century schoolbook" font-size="10.00" fill="#000000">4,5,6</text>
</g>
<!-- 18&#45;&#45;19 -->
<g id="edge30" class="edge">
<title>18&#45;&#45;19</title>
<path fill="none" stroke="#000000" d="M228.256,-689.1423C230.293,-706.1628 233.3016,-731.3019 235.324,-748.2001"/>
</g>
</g>
</svg>
