<?xml version="1.0" encoding="UTF-8" standalone="no"?>
<!DOCTYPE svg PUBLIC "-//W3C//DTD SVG 1.1//EN"
 "http://www.w3.org/Graphics/SVG/1.1/DTD/svg11.dtd">
<!-- Generated by graphviz version 2.40.1 (20161225.0304)
 -->
<!-- Title: g Pages: 1 -->
<svg width="746pt" height="553pt"
 viewBox="0.00 0.00 745.87 553.07" xmlns="http://www.w3.org/2000/svg" xmlns:xlink="http://www.w3.org/1999/xlink">
<g id="graph0" class="graph" transform="scale(1 1) rotate(0) translate(4 549.0652)">
<title>g</title>
<polygon fill="#ffffff" stroke="transparent" points="-4,4 -4,-549.0652 741.866,-549.0652 741.866,4 -4,4"/>
<!-- 0 -->
<g id="node1" class="node">
<title>0</title>
<text text-anchor="middle" x="27" y="-315.95" font-family="century schoolbook" font-size="10.00" fill="#000000">0,4,11</text>
</g>
<!-- 1 -->
<g id="node2" class="node">
<title>1</title>
<text text-anchor="middle" x="57.549" y="-237.6355" font-family="century schoolbook" font-size="10.00" fill="#000000">0,5,11</text>
</g>
<!-- 0&#45;&#45;1 -->
<g id="edge1" class="edge">
<title>0&#45;&#45;1</title>
<path fill="none" stroke="#000000" d="M34.0853,-300.2863C39.0206,-287.6344 45.5752,-270.8311 50.5021,-258.2008"/>
</g>
<!-- 2 -->
<g id="node3" class="node">
<title>2</title>
<text text-anchor="middle" x="79.9453" y="-382.5518" font-family="century schoolbook" font-size="10.00" fill="#000000">1,4,11</text>
</g>
<!-- 0&#45;&#45;2 -->
<g id="edge2" class="edge">
<title>0&#45;&#45;2</title>
<path fill="none" stroke="#000000" d="M41.4675,-336.6492C48.9382,-346.0468 58.0271,-357.4801 65.4953,-366.8745"/>
</g>
<!-- 3 -->
<g id="node4" class="node">
<title>3</title>
<text text-anchor="middle" x="139.1721" y="-217.685" font-family="century schoolbook" font-size="10.00" fill="#000000">0,5,10</text>
</g>
<!-- 3&#45;&#45;1 -->
<g id="edge3" class="edge">
<title>3&#45;&#45;1</title>
<path fill="none" stroke="#000000" d="M111.9928,-226.8282C103.1814,-228.9819 93.4123,-231.3697 84.6096,-233.5213"/>
</g>
<!-- 4 -->
<g id="node5" class="node">
<title>4</title>
<text text-anchor="middle" x="167.83" y="-138.0494" font-family="century schoolbook" font-size="10.00" fill="#000000">0,6,10</text>
</g>
<!-- 3&#45;&#45;4 -->
<g id="edge4" class="edge">
<title>3&#45;&#45;4</title>
<path fill="none" stroke="#000000" d="M145.675,-202.1144C150.332,-189.1734 156.58,-171.8113 161.2536,-158.8241"/>
</g>
<!-- 5 -->
<g id="node6" class="node">
<title>5</title>
<text text-anchor="middle" x="196.5823" y="-284.6637" font-family="century schoolbook" font-size="10.00" fill="#000000">1,5,10</text>
</g>
<!-- 3&#45;&#45;5 -->
<g id="edge5" class="edge">
<title>3&#45;&#45;5</title>
<path fill="none" stroke="#000000" d="M154.8597,-238.4872C162.9603,-247.938 172.8158,-259.436 180.9137,-268.8836"/>
</g>
<!-- 6 -->
<g id="node7" class="node">
<title>6</title>
<text text-anchor="middle" x="250.2299" y="-116.21" font-family="century schoolbook" font-size="10.00" fill="#000000">0,6,9</text>
</g>
<!-- 6&#45;&#45;4 -->
<g id="edge6" class="edge">
<title>6&#45;&#45;4</title>
<path fill="none" stroke="#000000" d="M222.7919,-125.9822C213.8031,-128.3646 203.8269,-131.0087 194.8678,-133.3832"/>
</g>
<!-- 7 -->
<g id="node8" class="node">
<title>7</title>
<text text-anchor="middle" x="271.858" y="-35.1583" font-family="century schoolbook" font-size="10.00" fill="#000000">0,7,9</text>
</g>
<!-- 6&#45;&#45;7 -->
<g id="edge7" class="edge">
<title>6&#45;&#45;7</title>
<path fill="none" stroke="#000000" d="M255.1376,-100.3181C258.7021,-86.9601 263.5016,-68.9739 267.0442,-55.6982"/>
</g>
<!-- 8 -->
<g id="node9" class="node">
<title>8</title>
<text text-anchor="middle" x="308.7922" y="-181.6701" font-family="century schoolbook" font-size="10.00" fill="#000000">1,6,9</text>
</g>
<!-- 6&#45;&#45;8 -->
<g id="edge8" class="edge">
<title>6&#45;&#45;8</title>
<path fill="none" stroke="#000000" d="M266.5427,-136.9443C274.6653,-146.0235 284.4563,-156.9678 292.5668,-166.0336"/>
</g>
<!-- 9 -->
<g id="node10" class="node">
<title>9</title>
<text text-anchor="middle" x="353.5746" y="-15.5" font-family="century schoolbook" font-size="10.00" fill="#000000">0,7,8</text>
</g>
<!-- 9&#45;&#45;7 -->
<g id="edge9" class="edge">
<title>9&#45;&#45;7</title>
<path fill="none" stroke="#000000" d="M326.3641,-24.5459C317.5427,-26.6681 307.7624,-29.0209 298.9496,-31.1409"/>
</g>
<!-- 10 -->
<g id="node11" class="node">
<title>10</title>
<text text-anchor="middle" x="408.2935" y="-78.0568" font-family="century schoolbook" font-size="10.00" fill="#000000">1,7,8</text>
</g>
<!-- 9&#45;&#45;10 -->
<g id="edge10" class="edge">
<title>9&#45;&#45;10</title>
<path fill="none" stroke="#000000" d="M369.4015,-36.094C376.598,-44.3213 385.0976,-54.0383 392.3125,-62.2867"/>
</g>
<!-- 11 -->
<g id="node12" class="node">
<title>11</title>
<text text-anchor="middle" x="47.9101" y="-460.0485" font-family="century schoolbook" font-size="10.00" fill="#000000">1,3,11</text>
</g>
<!-- 11&#45;&#45;2 -->
<g id="edge11" class="edge">
<title>11&#45;&#45;2</title>
<path fill="none" stroke="#000000" d="M55.502,-444.1829C60.6087,-431.8293 67.3127,-415.6116 72.4079,-403.2856"/>
</g>
<!-- 12 -->
<g id="node13" class="node">
<title>12</title>
<text text-anchor="middle" x="101.9978" y="-524.5652" font-family="century schoolbook" font-size="10.00" fill="#000000">2,3,11</text>
</g>
<!-- 11&#45;&#45;12 -->
<g id="edge12" class="edge">
<title>11&#45;&#45;12</title>
<path fill="none" stroke="#000000" d="M63.2648,-480.8638C70.6355,-489.6557 79.4407,-500.1587 86.792,-508.9274"/>
</g>
<!-- 13 -->
<g id="node14" class="node">
<title>13</title>
<text text-anchor="middle" x="165.4372" y="-366.2242" font-family="century schoolbook" font-size="10.00" fill="#000000">1,4,10</text>
</g>
<!-- 13&#45;&#45;2 -->
<g id="edge13" class="edge">
<title>13&#45;&#45;2</title>
<path fill="none" stroke="#000000" d="M138.387,-373.8904C128.4076,-375.7963 117.1027,-377.9553 107.1129,-379.8632"/>
</g>
<!-- 13&#45;&#45;5 -->
<g id="edge14" class="edge">
<title>13&#45;&#45;5</title>
<path fill="none" stroke="#000000" d="M172.3493,-350.6233C177.5106,-337.1073 184.5329,-318.7178 189.6895,-305.214"/>
</g>
<!-- 14 -->
<g id="node15" class="node">
<title>14</title>
<text text-anchor="middle" x="223.6325" y="-433.3334" font-family="century schoolbook" font-size="10.00" fill="#000000">2,4,10</text>
</g>
<!-- 13&#45;&#45;14 -->
<g id="edge15" class="edge">
<title>13&#45;&#45;14</title>
<path fill="none" stroke="#000000" d="M181.3393,-387.0621C189.5508,-396.5313 199.541,-408.0517 207.7496,-417.5177"/>
</g>
<!-- 15 -->
<g id="node16" class="node">
<title>15</title>
<text text-anchor="middle" x="282.2584" y="-265.5313" font-family="century schoolbook" font-size="10.00" fill="#000000">1,5,9</text>
</g>
<!-- 15&#45;&#45;5 -->
<g id="edge16" class="edge">
<title>15&#45;&#45;5</title>
<path fill="none" stroke="#000000" d="M255.15,-274.0849C245.149,-276.3182 233.8198,-278.8482 223.8085,-281.0838"/>
</g>
<!-- 15&#45;&#45;8 -->
<g id="edge17" class="edge">
<title>15&#45;&#45;8</title>
<path fill="none" stroke="#000000" d="M288.0158,-249.8347C292.4664,-235.7684 298.5982,-216.3886 303.046,-202.3312"/>
</g>
<!-- 16 -->
<g id="node17" class="node">
<title>16</title>
<text text-anchor="middle" x="341.034" y="-331.6744" font-family="century schoolbook" font-size="10.00" fill="#000000">2,5,9</text>
</g>
<!-- 15&#45;&#45;16 -->
<g id="edge18" class="edge">
<title>15&#45;&#45;16</title>
<path fill="none" stroke="#000000" d="M298.3191,-286.1052C306.6124,-295.4381 316.7022,-306.7926 324.9928,-316.1223"/>
</g>
<!-- 17 -->
<g id="node18" class="node">
<title>17</title>
<text text-anchor="middle" x="394.7121" y="-162.1802" font-family="century schoolbook" font-size="10.00" fill="#000000">1,6,8</text>
</g>
<!-- 17&#45;&#45;8 -->
<g id="edge19" class="edge">
<title>17&#45;&#45;8</title>
<path fill="none" stroke="#000000" d="M367.5265,-170.8469C357.3988,-173.1443 345.9127,-175.7498 335.8009,-178.0435"/>
</g>
<!-- 17&#45;&#45;10 -->
<g id="edge20" class="edge">
<title>17&#45;&#45;10</title>
<path fill="none" stroke="#000000" d="M397.6591,-146.4267C399.9371,-132.3164 403.0757,-112.876 405.3523,-98.7747"/>
</g>
<!-- 18 -->
<g id="node19" class="node">
<title>18</title>
<text text-anchor="middle" x="452.2488" y="-226.7437" font-family="century schoolbook" font-size="10.00" fill="#000000">2,6,8</text>
</g>
<!-- 17&#45;&#45;18 -->
<g id="edge21" class="edge">
<title>17&#45;&#45;18</title>
<path fill="none" stroke="#000000" d="M411.0459,-183.0088C418.8866,-191.8071 428.2533,-202.3177 436.0733,-211.0927"/>
</g>
<!-- 19 -->
<g id="node20" class="node">
<title>19</title>
<text text-anchor="middle" x="183.1851" y="-507.7125" font-family="century schoolbook" font-size="10.00" fill="#000000">2,3,10</text>
</g>
<!-- 19&#45;&#45;12 -->
<g id="edge22" class="edge">
<title>19&#45;&#45;12</title>
<path fill="none" stroke="#000000" d="M156.1509,-515.8242C147.4789,-517.6243 137.8741,-519.6181 129.1908,-521.4205"/>
</g>
<!-- 19&#45;&#45;14 -->
<g id="edge23" class="edge">
<title>19&#45;&#45;14</title>
<path fill="none" stroke="#000000" d="M192.9763,-492.2074C199.2889,-480.5991 207.4689,-465.5568 213.7913,-453.9305"/>
</g>
<!-- 20 -->
<g id="node21" class="node">
<title>20</title>
<text text-anchor="middle" x="308.0768" y="-414.5621" font-family="century schoolbook" font-size="10.00" fill="#000000">2,4,9</text>
</g>
<!-- 20&#45;&#45;14 -->
<g id="edge24" class="edge">
<title>20&#45;&#45;14</title>
<path fill="none" stroke="#000000" d="M280.8933,-423.1048C271.2504,-425.2483 260.4037,-427.6594 250.7651,-429.802"/>
</g>
<!-- 20&#45;&#45;16 -->
<g id="edge25" class="edge">
<title>20&#45;&#45;16</title>
<path fill="none" stroke="#000000" d="M315.3911,-398.6666C320.8906,-384.8353 328.3869,-365.9821 333.8536,-352.2332"/>
</g>
<!-- 21 -->
<g id="node22" class="node">
<title>21</title>
<text text-anchor="middle" x="372.6642" y="-470.028" font-family="century schoolbook" font-size="10.00" fill="#000000">3,4,9</text>
</g>
<!-- 20&#45;&#45;21 -->
<g id="edge26" class="edge">
<title>20&#45;&#45;21</title>
<path fill="none" stroke="#000000" d="M329.2251,-435.2237C336.4359,-441.4162 344.4918,-448.3343 351.689,-454.515"/>
</g>
<!-- 22 -->
<g id="node23" class="node">
<title>22</title>
<text text-anchor="middle" x="426.9496" y="-312.5862" font-family="century schoolbook" font-size="10.00" fill="#000000">2,5,8</text>
</g>
<!-- 22&#45;&#45;16 -->
<g id="edge27" class="edge">
<title>22&#45;&#45;16</title>
<path fill="none" stroke="#000000" d="M399.7654,-321.1258C389.6381,-323.3758 378.1527,-325.9276 368.0414,-328.174"/>
</g>
<!-- 22&#45;&#45;18 -->
<g id="edge28" class="edge">
<title>22&#45;&#45;18</title>
<path fill="none" stroke="#000000" d="M432.3149,-296.8812C436.6083,-282.3134 442.5999,-261.9833 446.8912,-247.4225"/>
</g>
<!-- 23 -->
<g id="node24" class="node">
<title>23</title>
<text text-anchor="middle" x="489.6517" y="-374.4675" font-family="century schoolbook" font-size="10.00" fill="#000000">3,5,8</text>
</g>
<!-- 22&#45;&#45;23 -->
<g id="edge29" class="edge">
<title>22&#45;&#45;23</title>
<path fill="none" stroke="#000000" d="M445.4231,-333.3179C453.515,-341.3038 462.992,-350.6569 471.0935,-358.6522"/>
</g>
<!-- 24 -->
<g id="node25" class="node">
<title>24</title>
<text text-anchor="middle" x="536.4752" y="-220.1292" font-family="century schoolbook" font-size="10.00" fill="#000000">2,6,7</text>
</g>
<!-- 24&#45;&#45;18 -->
<g id="edge30" class="edge">
<title>24&#45;&#45;18</title>
<path fill="none" stroke="#000000" d="M509.3618,-224.7585C499.7438,-225.5138 488.9251,-226.3634 479.3114,-227.1184"/>
</g>
<!-- 25 -->
<g id="node26" class="node">
<title>25</title>
<text text-anchor="middle" x="595.297" y="-277.3752" font-family="century schoolbook" font-size="10.00" fill="#000000">3,6,7</text>
</g>
<!-- 24&#45;&#45;25 -->
<g id="edge31" class="edge">
<title>24&#45;&#45;25</title>
<path fill="none" stroke="#000000" d="M555.0868,-240.7422C561.953,-247.4245 569.7312,-254.9943 576.6046,-261.6835"/>
</g>
<!-- 26 -->
<g id="node27" class="node">
<title>26</title>
<text text-anchor="middle" x="453.7726" y="-452.7066" font-family="century schoolbook" font-size="10.00" fill="#000000">3,4,8</text>
</g>
<!-- 26&#45;&#45;21 -->
<g id="edge32" class="edge">
<title>26&#45;&#45;21</title>
<path fill="none" stroke="#000000" d="M426.7647,-460.9744C418.1011,-462.8246 408.5056,-464.8738 399.8307,-466.7264"/>
</g>
<!-- 26&#45;&#45;23 -->
<g id="edge33" class="edge">
<title>26&#45;&#45;23</title>
<path fill="none" stroke="#000000" d="M462.0942,-437.0603C467.8905,-424.4206 475.5888,-407.6335 481.3752,-395.0154"/>
</g>
<!-- 27 -->
<g id="node28" class="node">
<title>27</title>
<text text-anchor="middle" x="574.1634" y="-361.5357" font-family="century schoolbook" font-size="10.00" fill="#000000">3,5,7</text>
</g>
<!-- 27&#45;&#45;23 -->
<g id="edge34" class="edge">
<title>27&#45;&#45;23</title>
<path fill="none" stroke="#000000" d="M546.9582,-368.1986C537.3076,-369.6753 526.4523,-371.3364 516.8059,-372.8124"/>
</g>
<!-- 27&#45;&#45;25 -->
<g id="edge35" class="edge">
<title>27&#45;&#45;25</title>
<path fill="none" stroke="#000000" d="M578.749,-345.7741C582.2939,-331.6576 587.1777,-312.2087 590.7202,-298.1011"/>
</g>
<!-- 28 -->
<g id="node29" class="node">
<title>28</title>
<text text-anchor="middle" x="641.9085" y="-404.5555" font-family="century schoolbook" font-size="10.00" fill="#000000">4,5,7</text>
</g>
<!-- 27&#45;&#45;28 -->
<g id="edge36" class="edge">
<title>27&#45;&#45;28</title>
<path fill="none" stroke="#000000" d="M601.3276,-381.2856C605.7449,-384.0907 610.3208,-386.9965 614.7382,-389.8017"/>
</g>
<!-- 29 -->
<g id="node30" class="node">
<title>29</title>
<text text-anchor="middle" x="710.866" y="-435.29" font-family="century schoolbook" font-size="10.00" fill="#000000">4,5,6</text>
</g>
<!-- 29&#45;&#45;28 -->
<g id="edge37" class="edge">
<title>29&#45;&#45;28</title>
<path fill="none" stroke="#000000" d="M683.6121,-425.6429C678.7934,-423.4952 673.7776,-421.2596 668.9644,-419.1143"/>
</g>
</g>
</svg>
