<?xml version="1.0" encoding="UTF-8" standalone="no"?>
<!DOCTYPE svg PUBLIC "-//W3C//DTD SVG 1.1//EN"
 "http://www.w3.org/Graphics/SVG/1.1/DTD/svg11.dtd">
<!-- Generated by graphviz version 2.40.1 (20161225.0304)
 -->
<!-- Title: g Pages: 1 -->
<svg width="705pt" height="645pt"
 viewBox="0.00 0.00 704.55 645.47" xmlns="http://www.w3.org/2000/svg" xmlns:xlink="http://www.w3.org/1999/xlink">
<g id="graph0" class="graph" transform="scale(1 1) rotate(0) translate(4 641.4653)">
<title>g</title>
<polygon fill="#ffffff" stroke="transparent" points="-4,4 -4,-641.4653 700.5481,-641.4653 700.5481,4 -4,4"/>
<!-- 0 -->
<g id="node1" class="node">
<title>0</title>
<text text-anchor="middle" x="338.1435" y="-194.0524" font-family="century schoolbook" font-size="10.00" fill="#000000">0,2,4,7</text>
</g>
<!-- 1 -->
<g id="node2" class="node">
<title>1</title>
<text text-anchor="middle" x="328.8653" y="-113.1249" font-family="century schoolbook" font-size="10.00" fill="#000000">0,2,7,10</text>
</g>
<!-- 0&#45;&#45;1 -->
<g id="edge1" class="edge">
<title>0&#45;&#45;1</title>
<path fill="none" stroke="#000000" d="M336.0381,-178.1887C334.509,-164.8511 332.4501,-146.8926 330.9304,-133.6372"/>
</g>
<!-- 2 -->
<g id="node3" class="node">
<title>2</title>
<text text-anchor="middle" x="305.9768" y="-268.8954" font-family="century schoolbook" font-size="10.00" fill="#000000">0,2,4,9</text>
</g>
<!-- 0&#45;&#45;2 -->
<g id="edge2" class="edge">
<title>0&#45;&#45;2</title>
<path fill="none" stroke="#000000" d="M330.3568,-214.6698C325.3366,-226.3505 318.8313,-241.4866 313.8032,-253.1854"/>
</g>
<!-- 6 -->
<g id="node7" class="node">
<title>6</title>
<text text-anchor="middle" x="240.6487" y="-317.539" font-family="century schoolbook" font-size="10.00" fill="#000000">2,4,6,9</text>
</g>
<!-- 2&#45;&#45;6 -->
<g id="edge3" class="edge">
<title>2&#45;&#45;6</title>
<path fill="none" stroke="#000000" d="M281.651,-289.5085C276.282,-293.5062 270.591,-297.7438 265.2126,-301.7486"/>
</g>
<!-- 3 -->
<g id="node4" class="node">
<title>3</title>
<text text-anchor="middle" x="428.6969" y="-326.496" font-family="century schoolbook" font-size="10.00" fill="#000000">1,3,5,8</text>
</g>
<!-- 4 -->
<g id="node5" class="node">
<title>4</title>
<text text-anchor="middle" x="506.531" y="-302.5" font-family="century schoolbook" font-size="10.00" fill="#000000">1,3,8,11</text>
</g>
<!-- 3&#45;&#45;4 -->
<g id="edge4" class="edge">
<title>3&#45;&#45;4</title>
<path fill="none" stroke="#000000" d="M455.9195,-320.6033C463.5473,-318.2517 471.8359,-315.6964 479.4552,-313.3474"/>
</g>
<!-- 5 -->
<g id="node6" class="node">
<title>5</title>
<text text-anchor="middle" x="373.2038" y="-386.1224" font-family="century schoolbook" font-size="10.00" fill="#000000">1,3,5,10</text>
</g>
<!-- 3&#45;&#45;5 -->
<g id="edge5" class="edge">
<title>3&#45;&#45;5</title>
<path fill="none" stroke="#000000" d="M411.7456,-347.2099C404.8608,-354.6075 396.9254,-363.1339 390.0513,-370.5201"/>
</g>
<!-- 20 -->
<g id="node21" class="node">
<title>20</title>
<text text-anchor="middle" x="355" y="-465.5162" font-family="century schoolbook" font-size="10.00" fill="#000000">3,5,7,10</text>
</g>
<!-- 5&#45;&#45;20 -->
<g id="edge6" class="edge">
<title>5&#45;&#45;20</title>
<path fill="none" stroke="#000000" d="M369.0731,-406.6381C366.1149,-419.5399 362.1461,-436.8492 359.1774,-449.797"/>
</g>
<!-- 7 -->
<g id="node8" class="node">
<title>7</title>
<text text-anchor="middle" x="159.7554" y="-327.1083" font-family="century schoolbook" font-size="10.00" fill="#000000">2,4,6,11</text>
</g>
<!-- 6&#45;&#45;7 -->
<g id="edge7" class="edge">
<title>6&#45;&#45;7</title>
<path fill="none" stroke="#000000" d="M213.2619,-323.2787C204.7365,-324.2872 195.3439,-325.3984 186.8393,-326.4044"/>
</g>
<!-- 21 -->
<g id="node22" class="node">
<title>21</title>
<text text-anchor="middle" x="84.9761" y="-294.8022" font-family="century schoolbook" font-size="10.00" fill="#000000">4,6,8,11</text>
</g>
<!-- 7&#45;&#45;21 -->
<g id="edge8" class="edge">
<title>7&#45;&#45;21</title>
<path fill="none" stroke="#000000" d="M132.335,-317.7622C125.749,-314.9169 118.7178,-311.8793 112.1433,-309.039"/>
</g>
<!-- 8 -->
<g id="node9" class="node">
<title>8</title>
<text text-anchor="middle" x="438.547" y="-598.8367" font-family="century schoolbook" font-size="10.00" fill="#000000">0,5,7,9</text>
</g>
<!-- 9 -->
<g id="node10" class="node">
<title>9</title>
<text text-anchor="middle" x="517.9593" y="-616.9653" font-family="century schoolbook" font-size="10.00" fill="#000000">2,5,7,9</text>
</g>
<!-- 8&#45;&#45;9 -->
<g id="edge9" class="edge">
<title>8&#45;&#45;9</title>
<path fill="none" stroke="#000000" d="M465.8762,-607.5756C473.952,-609.4191 482.7867,-611.436 490.8487,-613.2764"/>
</g>
<!-- 12 -->
<g id="node13" class="node">
<title>12</title>
<text text-anchor="middle" x="595.7721" y="-592.8859" font-family="century schoolbook" font-size="10.00" fill="#000000">2,7,9,11</text>
</g>
<!-- 9&#45;&#45;12 -->
<g id="edge10" class="edge">
<title>9&#45;&#45;12</title>
<path fill="none" stroke="#000000" d="M545.1744,-611.0435C552.8002,-608.6837 561.0865,-606.1194 568.7037,-603.7623"/>
</g>
<!-- 10 -->
<g id="node11" class="node">
<title>10</title>
<text text-anchor="middle" x="27" y="-148.5185" font-family="century schoolbook" font-size="10.00" fill="#000000">1,6,8,10</text>
</g>
<!-- 11 -->
<g id="node12" class="node">
<title>11</title>
<text text-anchor="middle" x="59.258" y="-73.724" font-family="century schoolbook" font-size="10.00" fill="#000000">3,6,8,10</text>
</g>
<!-- 10&#45;&#45;11 -->
<g id="edge11" class="edge">
<title>10&#45;&#45;11</title>
<path fill="none" stroke="#000000" d="M34.8088,-132.9129C39.8432,-121.2398 46.367,-106.1135 51.4093,-94.4222"/>
</g>
<!-- 13 -->
<g id="node14" class="node">
<title>13</title>
<text text-anchor="middle" x="651.1848" y="-533.1932" font-family="century schoolbook" font-size="10.00" fill="#000000">4,7,9,11</text>
</g>
<!-- 12&#45;&#45;13 -->
<g id="edge12" class="edge">
<title>12&#45;&#45;13</title>
<path fill="none" stroke="#000000" d="M612.6988,-577.1517C619.5736,-569.7459 627.4975,-561.2101 634.3617,-553.8157"/>
</g>
<!-- 14 -->
<g id="node15" class="node">
<title>14</title>
<text text-anchor="middle" x="124.5763" y="-25.0646" font-family="century schoolbook" font-size="10.00" fill="#000000">0,3,8,10</text>
</g>
<!-- 14&#45;&#45;11 -->
<g id="edge13" class="edge">
<title>14&#45;&#45;11</title>
<path fill="none" stroke="#000000" d="M100.2542,-45.6836C94.886,-49.6826 89.1958,-53.9216 83.8183,-57.9276"/>
</g>
<!-- 15 -->
<g id="node16" class="node">
<title>15</title>
<text text-anchor="middle" x="205.468" y="-15.5" font-family="century schoolbook" font-size="10.00" fill="#000000">0,5,8,10</text>
</g>
<!-- 14&#45;&#45;15 -->
<g id="edge14" class="edge">
<title>14&#45;&#45;15</title>
<path fill="none" stroke="#000000" d="M151.9626,-24.3265C160.4878,-23.3184 169.8802,-22.2079 178.3846,-21.2023"/>
</g>
<!-- 16 -->
<g id="node17" class="node">
<title>16</title>
<text text-anchor="middle" x="669.5481" y="-453.837" font-family="century schoolbook" font-size="10.00" fill="#000000">1,4,9,11</text>
</g>
<!-- 16&#45;&#45;13 -->
<g id="edge15" class="edge">
<title>16&#45;&#45;13</title>
<path fill="none" stroke="#000000" d="M665.3812,-474.3441C662.3971,-487.2398 658.3936,-504.541 655.3988,-517.4826"/>
</g>
<!-- 17 -->
<g id="node18" class="node">
<title>17</title>
<text text-anchor="middle" x="645.5999" y="-375.9821" font-family="century schoolbook" font-size="10.00" fill="#000000">1,6,9,11</text>
</g>
<!-- 16&#45;&#45;17 -->
<g id="edge16" class="edge">
<title>16&#45;&#45;17</title>
<path fill="none" stroke="#000000" d="M663.9937,-438.2798C660.1525,-425.792 655.0598,-409.2359 651.2071,-396.711"/>
</g>
<!-- 18 -->
<g id="node19" class="node">
<title>18</title>
<text text-anchor="middle" x="280.2643" y="-47.7563" font-family="century schoolbook" font-size="10.00" fill="#000000">0,2,5,10</text>
</g>
<!-- 18&#45;&#45;1 -->
<g id="edge17" class="edge">
<title>18&#45;&#45;1</title>
<path fill="none" stroke="#000000" d="M293.8024,-68.4651C300.5433,-77.5317 308.6689,-88.4606 315.3998,-97.5138"/>
</g>
<!-- 18&#45;&#45;15 -->
<g id="edge18" class="edge">
<title>18&#45;&#45;15</title>
<path fill="none" stroke="#000000" d="M253.2611,-38.611C246.566,-35.7237 239.388,-32.6282 232.6828,-29.7365"/>
</g>
<!-- 19 -->
<g id="node20" class="node">
<title>19</title>
<text text-anchor="middle" x="585.9756" y="-320.4853" font-family="century schoolbook" font-size="10.00" fill="#000000">1,3,6,11</text>
</g>
<!-- 19&#45;&#45;4 -->
<g id="edge19" class="edge">
<title>19&#45;&#45;4</title>
<path fill="none" stroke="#000000" d="M558.6353,-316.7958C550.5562,-314.9668 541.7178,-312.9659 533.6526,-311.14"/>
</g>
<!-- 19&#45;&#45;17 -->
<g id="edge20" class="edge">
<title>19&#45;&#45;17</title>
<path fill="none" stroke="#000000" d="M605.4988,-341.157C612.1555,-347.3529 619.5923,-354.2749 626.2365,-360.4591"/>
</g>
<!-- 22 -->
<g id="node23" class="node">
<title>22</title>
<text text-anchor="middle" x="378.8776" y="-543.3901" font-family="century schoolbook" font-size="10.00" fill="#000000">0,3,5,7</text>
</g>
<!-- 22&#45;&#45;8 -->
<g id="edge21" class="edge">
<title>22&#45;&#45;8</title>
<path fill="none" stroke="#000000" d="M398.4156,-564.0454C405.0773,-570.2357 412.5197,-577.1514 419.1689,-583.33"/>
</g>
<!-- 22&#45;&#45;20 -->
<g id="edge22" class="edge">
<title>22&#45;&#45;20</title>
<path fill="none" stroke="#000000" d="M373.3396,-527.8285C369.5097,-515.3377 364.432,-498.7775 360.5907,-486.2496"/>
</g>
<!-- 23 -->
<g id="node24" class="node">
<title>23</title>
<text text-anchor="middle" x="36.3804" y="-229.4311" font-family="century schoolbook" font-size="10.00" fill="#000000">1,4,6,8</text>
</g>
<!-- 23&#45;&#45;10 -->
<g id="edge23" class="edge">
<title>23&#45;&#45;10</title>
<path fill="none" stroke="#000000" d="M34.2518,-213.5708C32.7059,-200.2357 30.6243,-182.2804 29.0878,-169.0275"/>
</g>
<!-- 23&#45;&#45;21 -->
<g id="edge24" class="edge">
<title>23&#45;&#45;21</title>
<path fill="none" stroke="#000000" d="M49.917,-250.1406C56.6572,-259.2075 64.7818,-270.1369 71.5121,-279.1904"/>
</g>
</g>
</svg>
