<?xml version="1.0" encoding="UTF-8" standalone="no"?>
<!DOCTYPE svg PUBLIC "-//W3C//DTD SVG 1.1//EN"
 "http://www.w3.org/Graphics/SVG/1.1/DTD/svg11.dtd">
<!-- Generated by graphviz version 2.40.1 (20161225.0304)
 -->
<!-- Title: g Pages: 1 -->
<svg width="505pt" height="420pt"
 viewBox="0.00 0.00 504.81 419.96" xmlns="http://www.w3.org/2000/svg" xmlns:xlink="http://www.w3.org/1999/xlink">
<g id="graph0" class="graph" transform="scale(1 1) rotate(0) translate(4 415.9587)">
<title>g</title>
<polygon fill="#ffffff" stroke="transparent" points="-4,4 -4,-415.9587 500.8144,-415.9587 500.8144,4 -4,4"/>
<!-- 0 -->
<g id="node1" class="node">
<title>0</title>
<polygon fill="none" stroke="#000000" points="150,-195.9587 96,-195.9587 96,-159.9587 150,-159.9587 150,-195.9587"/>
<text text-anchor="middle" x="123" y="-175.4587" font-family="century schoolbook" font-size="10.00" fill="#000000">0,7,10</text>
</g>
<!-- 1 -->
<g id="node2" class="node">
<title>1</title>
<polygon fill="none" stroke="#000000" points="256.8144,-180 202.8144,-180 202.8144,-144 256.8144,-144 256.8144,-180"/>
<text text-anchor="middle" x="229.8144" y="-159.5" font-family="century schoolbook" font-size="10.00" fill="#000000">1,8,10</text>
</g>
<!-- 0&#45;&#45;1 -->
<g id="edge1" class="edge">
<title>0&#45;&#45;1</title>
<path fill="none" stroke="#000000" d="M150.2302,-173.8903C166.3006,-171.4893 186.5722,-168.4606 202.634,-166.0609"/>
</g>
<!-- 2 -->
<g id="node3" class="node">
<title>2</title>
<polygon fill="none" stroke="#000000" points="246,-243.9587 192,-243.9587 192,-207.9587 246,-207.9587 246,-243.9587"/>
<text text-anchor="middle" x="219" y="-223.4587" font-family="century schoolbook" font-size="10.00" fill="#000000">1,8,11</text>
</g>
<!-- 3 -->
<g id="node4" class="node">
<title>3</title>
<polygon fill="none" stroke="#000000" points="352.8144,-228 298.8144,-228 298.8144,-192 352.8144,-192 352.8144,-228"/>
<text text-anchor="middle" x="325.8144" y="-207.5" font-family="century schoolbook" font-size="10.00" fill="#000000">2,9,11</text>
</g>
<!-- 2&#45;&#45;3 -->
<g id="edge2" class="edge">
<title>2&#45;&#45;3</title>
<path fill="none" stroke="#000000" d="M246.2302,-221.8903C262.3006,-219.4893 282.5722,-216.4606 298.634,-214.0609"/>
</g>
<!-- 4 -->
<g id="node5" class="node">
<title>4</title>
<polygon fill="none" stroke="#000000" points="318,-315.9587 264,-315.9587 264,-279.9587 318,-279.9587 318,-315.9587"/>
<text text-anchor="middle" x="291" y="-295.4587" font-family="century schoolbook" font-size="10.00" fill="#000000">0,2,9</text>
</g>
<!-- 5 -->
<g id="node6" class="node">
<title>5</title>
<polygon fill="none" stroke="#000000" points="424.8144,-300 370.8144,-300 370.8144,-264 424.8144,-264 424.8144,-300"/>
<text text-anchor="middle" x="397.8144" y="-279.5" font-family="century schoolbook" font-size="10.00" fill="#000000">0,3,10</text>
</g>
<!-- 4&#45;&#45;5 -->
<g id="edge3" class="edge">
<title>4&#45;&#45;5</title>
<path fill="none" stroke="#000000" d="M318.2302,-293.8903C334.3006,-291.4893 354.5722,-288.4606 370.634,-286.0609"/>
</g>
<!-- 6 -->
<g id="node7" class="node">
<title>6</title>
<polygon fill="none" stroke="#000000" points="342,-123.9587 288,-123.9587 288,-87.9587 342,-87.9587 342,-123.9587"/>
<text text-anchor="middle" x="315" y="-103.4587" font-family="century schoolbook" font-size="10.00" fill="#000000">1,3,10</text>
</g>
<!-- 7 -->
<g id="node8" class="node">
<title>7</title>
<polygon fill="none" stroke="#000000" points="448.8144,-108 394.8144,-108 394.8144,-72 448.8144,-72 448.8144,-108"/>
<text text-anchor="middle" x="421.8144" y="-87.5" font-family="century schoolbook" font-size="10.00" fill="#000000">1,4,11</text>
</g>
<!-- 6&#45;&#45;7 -->
<g id="edge4" class="edge">
<title>6&#45;&#45;7</title>
<path fill="none" stroke="#000000" d="M342.2302,-101.8903C358.3006,-99.4893 378.5722,-96.4606 394.634,-94.0609"/>
</g>
<!-- 8 -->
<g id="node9" class="node">
<title>8</title>
<polygon fill="none" stroke="#000000" points="126,-339.9587 72,-339.9587 72,-303.9587 126,-303.9587 126,-339.9587"/>
<text text-anchor="middle" x="99" y="-319.4587" font-family="century schoolbook" font-size="10.00" fill="#000000">0,3,5</text>
</g>
<!-- 9 -->
<g id="node10" class="node">
<title>9</title>
<polygon fill="none" stroke="#000000" points="232.8144,-324 178.8144,-324 178.8144,-288 232.8144,-288 232.8144,-324"/>
<text text-anchor="middle" x="205.8144" y="-303.5" font-family="century schoolbook" font-size="10.00" fill="#000000">1,3,6</text>
</g>
<!-- 8&#45;&#45;9 -->
<g id="edge5" class="edge">
<title>8&#45;&#45;9</title>
<path fill="none" stroke="#000000" d="M126.2302,-317.8903C142.3006,-315.4893 162.5722,-312.4606 178.634,-310.0609"/>
</g>
<!-- 10 -->
<g id="node11" class="node">
<title>10</title>
<polygon fill="none" stroke="#000000" points="126,-123.9587 72,-123.9587 72,-87.9587 126,-87.9587 126,-123.9587"/>
<text text-anchor="middle" x="99" y="-103.4587" font-family="century schoolbook" font-size="10.00" fill="#000000">1,4,6</text>
</g>
<!-- 11 -->
<g id="node12" class="node">
<title>11</title>
<polygon fill="none" stroke="#000000" points="232.8144,-108 178.8144,-108 178.8144,-72 232.8144,-72 232.8144,-108"/>
<text text-anchor="middle" x="205.8144" y="-87.5" font-family="century schoolbook" font-size="10.00" fill="#000000">2,4,7</text>
</g>
<!-- 10&#45;&#45;11 -->
<g id="edge6" class="edge">
<title>10&#45;&#45;11</title>
<path fill="none" stroke="#000000" d="M126.2302,-101.8903C142.3006,-99.4893 162.5722,-96.4606 178.634,-94.0609"/>
</g>
<!-- 12 -->
<g id="node13" class="node">
<title>12</title>
<polygon fill="none" stroke="#000000" points="390,-387.9587 336,-387.9587 336,-351.9587 390,-351.9587 390,-387.9587"/>
<text text-anchor="middle" x="363" y="-367.4587" font-family="century schoolbook" font-size="10.00" fill="#000000">2,5,7</text>
</g>
<!-- 13 -->
<g id="node14" class="node">
<title>13</title>
<polygon fill="none" stroke="#000000" points="496.8144,-372 442.8144,-372 442.8144,-336 496.8144,-336 496.8144,-372"/>
<text text-anchor="middle" x="469.8144" y="-351.5" font-family="century schoolbook" font-size="10.00" fill="#000000">3,5,8</text>
</g>
<!-- 12&#45;&#45;13 -->
<g id="edge7" class="edge">
<title>12&#45;&#45;13</title>
<path fill="none" stroke="#000000" d="M390.2302,-365.8903C406.3006,-363.4893 426.5722,-360.4606 442.634,-358.0609"/>
</g>
<!-- 14 -->
<g id="node15" class="node">
<title>14</title>
<polygon fill="none" stroke="#000000" points="318,-51.9587 264,-51.9587 264,-15.9587 318,-15.9587 318,-51.9587"/>
<text text-anchor="middle" x="291" y="-31.4587" font-family="century schoolbook" font-size="10.00" fill="#000000">3,6,8</text>
</g>
<!-- 15 -->
<g id="node16" class="node">
<title>15</title>
<polygon fill="none" stroke="#000000" points="424.8144,-36 370.8144,-36 370.8144,0 424.8144,0 424.8144,-36"/>
<text text-anchor="middle" x="397.8144" y="-15.5" font-family="century schoolbook" font-size="10.00" fill="#000000">4,6,9</text>
</g>
<!-- 14&#45;&#45;15 -->
<g id="edge8" class="edge">
<title>14&#45;&#45;15</title>
<path fill="none" stroke="#000000" d="M318.2302,-29.8903C334.3006,-27.4893 354.5722,-24.4606 370.634,-22.0609"/>
</g>
<!-- 16 -->
<g id="node17" class="node">
<title>16</title>
<polygon fill="none" stroke="#000000" points="198,-411.9587 144,-411.9587 144,-375.9587 198,-375.9587 198,-411.9587"/>
<text text-anchor="middle" x="171" y="-391.4587" font-family="century schoolbook" font-size="10.00" fill="#000000">4,7,9</text>
</g>
<!-- 17 -->
<g id="node18" class="node">
<title>17</title>
<polygon fill="none" stroke="#000000" points="304.8144,-396 250.8144,-396 250.8144,-360 304.8144,-360 304.8144,-396"/>
<text text-anchor="middle" x="277.8144" y="-375.5" font-family="century schoolbook" font-size="10.00" fill="#000000">5,7,10</text>
</g>
<!-- 16&#45;&#45;17 -->
<g id="edge9" class="edge">
<title>16&#45;&#45;17</title>
<path fill="none" stroke="#000000" d="M198.2302,-389.8903C214.3006,-387.4893 234.5722,-384.4606 250.634,-382.0609"/>
</g>
<!-- 18 -->
<g id="node19" class="node">
<title>18</title>
<polygon fill="none" stroke="#000000" points="54,-51.9587 0,-51.9587 0,-15.9587 54,-15.9587 54,-51.9587"/>
<text text-anchor="middle" x="27" y="-31.4587" font-family="century schoolbook" font-size="10.00" fill="#000000">5,8,10</text>
</g>
<!-- 19 -->
<g id="node20" class="node">
<title>19</title>
<polygon fill="none" stroke="#000000" points="160.8144,-36 106.8144,-36 106.8144,0 160.8144,0 160.8144,-36"/>
<text text-anchor="middle" x="133.8144" y="-15.5" font-family="century schoolbook" font-size="10.00" fill="#000000">6,8,11</text>
</g>
<!-- 18&#45;&#45;19 -->
<g id="edge10" class="edge">
<title>18&#45;&#45;19</title>
<path fill="none" stroke="#000000" d="M54.2302,-29.8903C70.3006,-27.4893 90.5722,-24.4606 106.634,-22.0609"/>
</g>
</g>
</svg>
