<?xml version="1.0" encoding="UTF-8" standalone="no"?>
<!DOCTYPE svg PUBLIC "-//W3C//DTD SVG 1.1//EN"
 "http://www.w3.org/Graphics/SVG/1.1/DTD/svg11.dtd">
<!-- Generated by graphviz version 2.40.1 (20161225.0304)
 -->
<!-- Title: g Pages: 1 -->
<svg width="1444pt" height="577pt"
 viewBox="0.00 0.00 1444.45 577.34" xmlns="http://www.w3.org/2000/svg" xmlns:xlink="http://www.w3.org/1999/xlink">
<g id="graph0" class="graph" transform="scale(1 1) rotate(0) translate(4 573.3403)">
<title>g</title>
<polygon fill="#ffffff" stroke="transparent" points="-4,4 -4,-573.3403 1440.4484,-573.3403 1440.4484,4 -4,4"/>
<!-- 0 -->
<g id="node1" class="node">
<title>0</title>
<polygon fill="none" stroke="#000000" points="54,-199.3665 0,-199.3665 0,-163.3665 54,-163.3665 54,-199.3665"/>
<text text-anchor="middle" x="27" y="-178.8665" font-family="century schoolbook" font-size="10.00" fill="#000000">0,2,5</text>
</g>
<!-- 1 -->
<g id="node2" class="node">
<title>1</title>
<polygon fill="none" stroke="#000000" points="159.9837,-177.8439 105.9837,-177.8439 105.9837,-141.8439 159.9837,-141.8439 159.9837,-177.8439"/>
<text text-anchor="middle" x="132.9837" y="-157.3439" font-family="century schoolbook" font-size="10.00" fill="#000000">0,3,5</text>
</g>
<!-- 0&#45;&#45;1 -->
<g id="edge1" class="edge">
<title>0&#45;&#45;1</title>
<path fill="none" stroke="#000000" d="M54.0184,-175.8798C69.8412,-172.6665 89.7686,-168.6198 105.6462,-165.3954"/>
</g>
<!-- 2 -->
<g id="node3" class="node">
<title>2</title>
<polygon fill="none" stroke="#000000" points="262.9305,-144.2821 208.9305,-144.2821 208.9305,-108.2821 262.9305,-108.2821 262.9305,-144.2821"/>
<text text-anchor="middle" x="235.9305" y="-123.7821" font-family="century schoolbook" font-size="10.00" fill="#000000">1,3,6</text>
</g>
<!-- 1&#45;&#45;2 -->
<g id="edge2" class="edge">
<title>1&#45;&#45;2</title>
<path fill="none" stroke="#000000" d="M160.0318,-151.0259C175.0442,-146.1317 193.6651,-140.0611 208.7057,-135.1577"/>
</g>
<!-- 3 -->
<g id="node4" class="node">
<title>3</title>
<polygon fill="none" stroke="#000000" points="369.6477,-125.8047 315.6477,-125.8047 315.6477,-89.8047 369.6477,-89.8047 369.6477,-125.8047"/>
<text text-anchor="middle" x="342.6477" y="-105.3047" font-family="century schoolbook" font-size="10.00" fill="#000000">1,4,6</text>
</g>
<!-- 2&#45;&#45;3 -->
<g id="edge3" class="edge">
<title>2&#45;&#45;3</title>
<path fill="none" stroke="#000000" d="M263.1359,-121.5717C279.1917,-118.7917 299.4449,-115.285 315.492,-112.5065"/>
</g>
<!-- 4 -->
<g id="node5" class="node">
<title>4</title>
<polygon fill="none" stroke="#000000" points="474.5241,-98.9249 420.5241,-98.9249 420.5241,-62.9249 474.5241,-62.9249 474.5241,-98.9249"/>
<text text-anchor="middle" x="447.5241" y="-78.4249" font-family="century schoolbook" font-size="10.00" fill="#000000">2,4,7</text>
</g>
<!-- 3&#45;&#45;4 -->
<g id="edge4" class="edge">
<title>3&#45;&#45;4</title>
<path fill="none" stroke="#000000" d="M369.656,-100.8825C385.1931,-96.9003 404.6601,-91.9109 420.2429,-87.917"/>
</g>
<!-- 5 -->
<g id="node6" class="node">
<title>5</title>
<polygon fill="none" stroke="#000000" points="579.3737,-71.4671 525.3737,-71.4671 525.3737,-35.4671 579.3737,-35.4671 579.3737,-71.4671"/>
<text text-anchor="middle" x="552.3737" y="-50.9671" font-family="century schoolbook" font-size="10.00" fill="#000000">2,5,7</text>
</g>
<!-- 4&#45;&#45;5 -->
<g id="edge5" class="edge">
<title>4&#45;&#45;5</title>
<path fill="none" stroke="#000000" d="M474.5255,-73.8538C490.0586,-69.7861 509.5206,-64.6894 525.0994,-60.6097"/>
</g>
<!-- 6 -->
<g id="node7" class="node">
<title>6</title>
<polygon fill="none" stroke="#000000" points="686.1003,-52.2242 632.1003,-52.2242 632.1003,-16.2242 686.1003,-16.2242 686.1003,-52.2242"/>
<text text-anchor="middle" x="659.1003" y="-31.7242" font-family="century schoolbook" font-size="10.00" fill="#000000">3,5,8</text>
</g>
<!-- 5&#45;&#45;6 -->
<g id="edge6" class="edge">
<title>5&#45;&#45;6</title>
<path fill="none" stroke="#000000" d="M579.5815,-48.5616C595.6387,-45.6664 615.8936,-42.0144 631.9422,-39.1209"/>
</g>
<!-- 7 -->
<g id="node8" class="node">
<title>7</title>
<polygon fill="none" stroke="#000000" points="794.0965,-41.2879 740.0965,-41.2879 740.0965,-5.2879 794.0965,-5.2879 794.0965,-41.2879"/>
<text text-anchor="middle" x="767.0965" y="-20.7879" font-family="century schoolbook" font-size="10.00" fill="#000000">3,6,8</text>
</g>
<!-- 6&#45;&#45;7 -->
<g id="edge7" class="edge">
<title>6&#45;&#45;7</title>
<path fill="none" stroke="#000000" d="M686.3523,-31.4646C702.7237,-29.8067 723.4834,-27.7044 739.8532,-26.0467"/>
</g>
<!-- 8 -->
<g id="node9" class="node">
<title>8</title>
<polygon fill="none" stroke="#000000" points="902.4658,-36 848.4658,-36 848.4658,0 902.4658,0 902.4658,-36"/>
<text text-anchor="middle" x="875.4658" y="-15.5" font-family="century schoolbook" font-size="10.00" fill="#000000">4,6,9</text>
</g>
<!-- 7&#45;&#45;8 -->
<g id="edge8" class="edge">
<title>7&#45;&#45;8</title>
<path fill="none" stroke="#000000" d="M794.1631,-21.9672C810.7138,-21.1596 831.8124,-20.1301 848.3687,-19.3222"/>
</g>
<!-- 9 -->
<g id="node10" class="node">
<title>9</title>
<polygon fill="none" stroke="#000000" points="1011.0295,-38.1831 957.0295,-38.1831 957.0295,-2.1831 1011.0295,-2.1831 1011.0295,-38.1831"/>
<text text-anchor="middle" x="984.0295" y="-17.6831" font-family="century schoolbook" font-size="10.00" fill="#000000">4,7,9</text>
</g>
<!-- 8&#45;&#45;9 -->
<g id="edge9" class="edge">
<title>8&#45;&#45;9</title>
<path fill="none" stroke="#000000" d="M902.581,-18.5453C919.1613,-18.8787 940.2978,-19.3037 956.8838,-19.6373"/>
</g>
<!-- 10 -->
<g id="node11" class="node">
<title>10</title>
<polygon fill="none" stroke="#000000" points="1119.1727,-47.1039 1065.1727,-47.1039 1065.1727,-11.1039 1119.1727,-11.1039 1119.1727,-47.1039"/>
<text text-anchor="middle" x="1092.1727" y="-26.6039" font-family="century schoolbook" font-size="10.00" fill="#000000">5,7,10</text>
</g>
<!-- 9&#45;&#45;10 -->
<g id="edge10" class="edge">
<title>9&#45;&#45;10</title>
<path fill="none" stroke="#000000" d="M1011.0397,-22.4112C1027.5558,-23.7736 1048.6104,-25.5104 1065.1321,-26.8733"/>
</g>
<!-- 11 -->
<g id="node12" class="node">
<title>11</title>
<polygon fill="none" stroke="#000000" points="1226.3603,-63.9328 1172.3603,-63.9328 1172.3603,-27.9328 1226.3603,-27.9328 1226.3603,-63.9328"/>
<text text-anchor="middle" x="1199.3603" y="-43.4328" font-family="century schoolbook" font-size="10.00" fill="#000000">5,8,10</text>
</g>
<!-- 10&#45;&#45;11 -->
<g id="edge11" class="edge">
<title>10&#45;&#45;11</title>
<path fill="none" stroke="#000000" d="M1119.2207,-33.3505C1135.4695,-35.9017 1156.0737,-39.1366 1172.321,-41.6875"/>
</g>
<!-- 12 -->
<g id="node13" class="node">
<title>12</title>
<polygon fill="none" stroke="#000000" points="1332.6971,-85.094 1278.6971,-85.094 1278.6971,-49.094 1332.6971,-49.094 1332.6971,-85.094"/>
<text text-anchor="middle" x="1305.6971" y="-64.594" font-family="century schoolbook" font-size="10.00" fill="#000000">6,8,11</text>
</g>
<!-- 11&#45;&#45;12 -->
<g id="edge12" class="edge">
<title>11&#45;&#45;12</title>
<path fill="none" stroke="#000000" d="M1226.4687,-51.3274C1242.4673,-54.5112 1262.6482,-58.5272 1278.6382,-61.7092"/>
</g>
<!-- 13 -->
<g id="node14" class="node">
<title>13</title>
<polygon fill="none" stroke="#000000" points="1436.4484,-116.3732 1382.4484,-116.3732 1382.4484,-80.3732 1436.4484,-80.3732 1436.4484,-116.3732"/>
<text text-anchor="middle" x="1409.4484" y="-95.8732" font-family="century schoolbook" font-size="10.00" fill="#000000">6,9,11</text>
</g>
<!-- 12&#45;&#45;13 -->
<g id="edge13" class="edge">
<title>12&#45;&#45;13</title>
<path fill="none" stroke="#000000" d="M1332.9565,-75.3123C1348.2063,-79.9098 1367.1508,-85.6212 1382.371,-90.2098"/>
</g>
<!-- 14 -->
<g id="node15" class="node">
<title>14</title>
<polygon fill="none" stroke="#000000" points="822,-180 768,-180 768,-144 822,-144 822,-180"/>
<text text-anchor="middle" x="795" y="-159.5" font-family="century schoolbook" font-size="10.00" fill="#000000">0,7,9</text>
</g>
<!-- 15 -->
<g id="node16" class="node">
<title>15</title>
<polygon fill="none" stroke="#000000" points="878.7819,-272.4797 824.7819,-272.4797 824.7819,-236.4797 878.7819,-236.4797 878.7819,-272.4797"/>
<text text-anchor="middle" x="851.7819" y="-251.9797" font-family="century schoolbook" font-size="10.00" fill="#000000">0,7,10</text>
</g>
<!-- 14&#45;&#45;15 -->
<g id="edge14" class="edge">
<title>14&#45;&#45;15</title>
<path fill="none" stroke="#000000" d="M806.2183,-180.271C816.1729,-196.484 830.6394,-220.0452 840.587,-236.2467"/>
</g>
<!-- 16 -->
<g id="node17" class="node">
<title>16</title>
<polygon fill="none" stroke="#000000" points="905.2982,-377.7969 851.2982,-377.7969 851.2982,-341.7969 905.2982,-341.7969 905.2982,-377.7969"/>
<text text-anchor="middle" x="878.2982" y="-357.2969" font-family="century schoolbook" font-size="10.00" fill="#000000">1,8,10</text>
</g>
<!-- 15&#45;&#45;16 -->
<g id="edge15" class="edge">
<title>15&#45;&#45;16</title>
<path fill="none" stroke="#000000" d="M856.4007,-272.8246C861.2676,-292.1548 868.8855,-322.4117 873.7323,-341.6623"/>
</g>
<!-- 17 -->
<g id="node18" class="node">
<title>17</title>
<polygon fill="none" stroke="#000000" points="940.7268,-480.356 886.7268,-480.356 886.7268,-444.356 940.7268,-444.356 940.7268,-480.356"/>
<text text-anchor="middle" x="913.7268" y="-459.856" font-family="century schoolbook" font-size="10.00" fill="#000000">1,8,11</text>
</g>
<!-- 16&#45;&#45;17 -->
<g id="edge16" class="edge">
<title>16&#45;&#45;17</title>
<path fill="none" stroke="#000000" d="M884.6321,-378.1324C891.0808,-396.8001 901.0189,-425.569 907.4477,-444.1792"/>
</g>
<!-- 22 -->
<g id="node23" class="node">
<title>22</title>
<polygon fill="none" stroke="#000000" points="1002.8972,-569.3403 948.8972,-569.3403 948.8972,-533.3403 1002.8972,-533.3403 1002.8972,-569.3403"/>
<text text-anchor="middle" x="975.8972" y="-548.8403" font-family="century schoolbook" font-size="10.00" fill="#000000">2,9,11</text>
</g>
<!-- 17&#45;&#45;22 -->
<g id="edge17" class="edge">
<title>17&#45;&#45;22</title>
<path fill="none" stroke="#000000" d="M926.3079,-480.3633C937.0233,-495.7001 952.3507,-517.6383 963.1214,-533.0543"/>
</g>
<!-- 18 -->
<g id="node19" class="node">
<title>18</title>
<polygon fill="none" stroke="#000000" points="1229.344,-315.6472 1175.344,-315.6472 1175.344,-279.6472 1229.344,-279.6472 1229.344,-315.6472"/>
<text text-anchor="middle" x="1202.344" y="-295.1472" font-family="century schoolbook" font-size="10.00" fill="#000000">0,3,10</text>
</g>
<!-- 19 -->
<g id="node20" class="node">
<title>19</title>
<polygon fill="none" stroke="#000000" points="1155.5076,-236.0653 1101.5076,-236.0653 1101.5076,-200.0653 1155.5076,-200.0653 1155.5076,-236.0653"/>
<text text-anchor="middle" x="1128.5076" y="-215.5653" font-family="century schoolbook" font-size="10.00" fill="#000000">1,3,10</text>
</g>
<!-- 18&#45;&#45;19 -->
<g id="edge18" class="edge">
<title>18&#45;&#45;19</title>
<path fill="none" stroke="#000000" d="M1185.5894,-279.5889C1173.5907,-266.6565 1157.493,-249.3062 1145.4515,-236.3277"/>
</g>
<!-- 20 -->
<g id="node21" class="node">
<title>20</title>
<polygon fill="none" stroke="#000000" points="1066.1665,-174.0909 1012.1665,-174.0909 1012.1665,-138.0909 1066.1665,-138.0909 1066.1665,-174.0909"/>
<text text-anchor="middle" x="1039.1665" y="-153.5909" font-family="century schoolbook" font-size="10.00" fill="#000000">1,4,11</text>
</g>
<!-- 19&#45;&#45;20 -->
<g id="edge19" class="edge">
<title>19&#45;&#45;20</title>
<path fill="none" stroke="#000000" d="M1102.1855,-199.8061C1090.553,-191.7368 1076.9112,-182.2738 1065.3004,-174.2196"/>
</g>
<!-- 21 -->
<g id="node22" class="node">
<title>21</title>
<polygon fill="none" stroke="#000000" points="966,-132 912,-132 912,-96 966,-96 966,-132"/>
<text text-anchor="middle" x="939" y="-111.5" font-family="century schoolbook" font-size="10.00" fill="#000000">2,4,11</text>
</g>
<!-- 20&#45;&#45;21 -->
<g id="edge20" class="edge">
<title>20&#45;&#45;21</title>
<path fill="none" stroke="#000000" d="M1012.06,-144.7005C997.807,-138.7113 980.3843,-131.3901 966.1282,-125.3995"/>
</g>
<!-- 23 -->
<g id="node24" class="node">
<title>23</title>
<polygon fill="none" stroke="#000000" points="1295.8956,-401.0838 1241.8956,-401.0838 1241.8956,-365.0838 1295.8956,-365.0838 1295.8956,-401.0838"/>
<text text-anchor="middle" x="1268.8956" y="-380.5838" font-family="century schoolbook" font-size="10.00" fill="#000000">0,2,9</text>
</g>
<!-- 23&#45;&#45;18 -->
<g id="edge21" class="edge">
<title>23&#45;&#45;18</title>
<path fill="none" stroke="#000000" d="M1254.7817,-364.9649C1243.4877,-350.466 1227.7262,-330.232 1216.4375,-315.74"/>
</g>
</g>
</svg>
