<?xml version="1.0" encoding="UTF-8" standalone="no"?>
<!DOCTYPE svg PUBLIC "-//W3C//DTD SVG 1.1//EN"
 "http://www.w3.org/Graphics/SVG/1.1/DTD/svg11.dtd">
<!-- Generated by graphviz version 2.40.1 (20161225.0304)
 -->
<!-- Title: g Pages: 1 -->
<svg width="747pt" height="800pt"
 viewBox="0.00 0.00 747.23 800.34" xmlns="http://www.w3.org/2000/svg" xmlns:xlink="http://www.w3.org/1999/xlink">
<g id="graph0" class="graph" transform="scale(1 1) rotate(0) translate(4 796.3413)">
<title>g</title>
<polygon fill="#ffffff" stroke="transparent" points="-4,4 -4,-796.3413 743.2339,-796.3413 743.2339,4 -4,4"/>
<!-- 0 -->
<g id="node1" class="node">
<title>0</title>
<polygon fill="none" stroke="#000000" points="141.8103,-139.4997 87.8103,-139.4997 87.8103,-103.4997 141.8103,-103.4997 141.8103,-139.4997"/>
<text text-anchor="middle" x="114.8103" y="-118.9997" font-family="century schoolbook" font-size="10.00" fill="#000000">0,2,5</text>
</g>
<!-- 1 -->
<g id="node2" class="node">
<title>1</title>
<polygon fill="none" stroke="#000000" points="271.5152,-192.523 217.5152,-192.523 217.5152,-156.523 271.5152,-156.523 271.5152,-192.523"/>
<text text-anchor="middle" x="244.5152" y="-172.023" font-family="century schoolbook" font-size="10.00" fill="#000000">1,3,6</text>
</g>
<!-- 0&#45;&#45;1 -->
<g id="edge1" class="edge">
<title>0&#45;&#45;1</title>
<path fill="none" stroke="#000000" d="M142.0007,-132.6151C164.1374,-141.6646 195.2335,-154.3767 217.3606,-163.4222"/>
</g>
<!-- 2 -->
<g id="node3" class="node">
<title>2</title>
<polygon fill="none" stroke="#000000" points="54,-301.3045 0,-301.3045 0,-265.3045 54,-265.3045 54,-301.3045"/>
<text text-anchor="middle" x="27" y="-280.8045" font-family="century schoolbook" font-size="10.00" fill="#000000">0,2,9</text>
</g>
<!-- 0&#45;&#45;2 -->
<g id="edge2" class="edge">
<title>0&#45;&#45;2</title>
<path fill="none" stroke="#000000" d="M104.908,-139.7462C88.0434,-170.8221 53.9324,-233.6772 37.0008,-264.8764"/>
</g>
<!-- 3 -->
<g id="node4" class="node">
<title>3</title>
<polygon fill="none" stroke="#000000" points="212.5977,-36 158.5977,-36 158.5977,0 212.5977,0 212.5977,-36"/>
<text text-anchor="middle" x="185.5977" y="-15.5" font-family="century schoolbook" font-size="10.00" fill="#000000">0,3,5</text>
</g>
<!-- 0&#45;&#45;3 -->
<g id="edge3" class="edge">
<title>0&#45;&#45;3</title>
<path fill="none" stroke="#000000" d="M127.1405,-103.4714C140.0538,-84.5906 160.222,-55.1023 173.1712,-36.1689"/>
</g>
<!-- 4 -->
<g id="node5" class="node">
<title>4</title>
<polygon fill="none" stroke="#000000" points="327.6716,-102.3274 273.6716,-102.3274 273.6716,-66.3274 327.6716,-66.3274 327.6716,-102.3274"/>
<text text-anchor="middle" x="300.6716" y="-81.8274" font-family="century schoolbook" font-size="10.00" fill="#000000">1,4,6</text>
</g>
<!-- 0&#45;&#45;4 -->
<g id="edge4" class="edge">
<title>0&#45;&#45;4</title>
<path fill="none" stroke="#000000" d="M141.8361,-116.0945C177.0741,-109.0469 238.359,-96.7899 273.6131,-89.7391"/>
</g>
<!-- 1&#45;&#45;4 -->
<g id="edge5" class="edge">
<title>1&#45;&#45;4</title>
<path fill="none" stroke="#000000" d="M255.8793,-156.2706C265.6222,-140.6221 279.5864,-118.1934 289.3244,-102.5527"/>
</g>
<!-- 5 -->
<g id="node6" class="node">
<title>5</title>
<polygon fill="none" stroke="#000000" points="395.4188,-257.8933 341.4188,-257.8933 341.4188,-221.8933 395.4188,-221.8933 395.4188,-257.8933"/>
<text text-anchor="middle" x="368.4188" y="-237.3933" font-family="century schoolbook" font-size="10.00" fill="#000000">2,4,7</text>
</g>
<!-- 1&#45;&#45;5 -->
<g id="edge6" class="edge">
<title>1&#45;&#45;5</title>
<path fill="none" stroke="#000000" d="M271.7064,-188.8688C292.3649,-199.7681 320.6481,-214.69 341.291,-225.581"/>
</g>
<!-- 6 -->
<g id="node7" class="node">
<title>6</title>
<polygon fill="none" stroke="#000000" points="167.6298,-339.5355 113.6298,-339.5355 113.6298,-303.5355 167.6298,-303.5355 167.6298,-339.5355"/>
<text text-anchor="middle" x="140.6298" y="-319.0355" font-family="century schoolbook" font-size="10.00" fill="#000000">1,3,10</text>
</g>
<!-- 1&#45;&#45;6 -->
<g id="edge7" class="edge">
<title>1&#45;&#45;6</title>
<path fill="none" stroke="#000000" d="M231.7768,-192.5496C211.8384,-220.7653 173.4748,-275.0552 153.4724,-303.3614"/>
</g>
<!-- 7 -->
<g id="node8" class="node">
<title>7</title>
<polygon fill="none" stroke="#000000" points="458.7579,-174.9436 404.7579,-174.9436 404.7579,-138.9436 458.7579,-138.9436 458.7579,-174.9436"/>
<text text-anchor="middle" x="431.7579" y="-154.4436" font-family="century schoolbook" font-size="10.00" fill="#000000">2,5,7</text>
</g>
<!-- 1&#45;&#45;7 -->
<g id="edge8" class="edge">
<title>1&#45;&#45;7</title>
<path fill="none" stroke="#000000" d="M271.7419,-171.9668C307.2418,-168.6339 368.9823,-162.8374 404.4984,-159.5029"/>
</g>
<!-- 2&#45;&#45;6 -->
<g id="edge9" class="edge">
<title>2&#45;&#45;6</title>
<path fill="none" stroke="#000000" d="M54.2172,-292.4618C72.0759,-298.4704 95.3477,-306.3002 113.2409,-312.3204"/>
</g>
<!-- 22 -->
<g id="node23" class="node">
<title>22</title>
<polygon fill="none" stroke="#000000" points="142.2814,-454.3594 88.2814,-454.3594 88.2814,-418.3594 142.2814,-418.3594 142.2814,-454.3594"/>
<text text-anchor="middle" x="115.2814" y="-433.8594" font-family="century schoolbook" font-size="10.00" fill="#000000">0,3,10</text>
</g>
<!-- 2&#45;&#45;22 -->
<g id="edge10" class="edge">
<title>2&#45;&#45;22</title>
<path fill="none" stroke="#000000" d="M37.4737,-301.463C54.4642,-330.9197 87.8395,-388.783 104.8213,-418.2246"/>
</g>
<!-- 3&#45;&#45;1 -->
<g id="edge11" class="edge">
<title>3&#45;&#45;1</title>
<path fill="none" stroke="#000000" d="M192.4716,-36.2615C203.8244,-66.4219 226.3611,-126.294 237.6851,-156.3778"/>
</g>
<!-- 3&#45;&#45;4 -->
<g id="edge12" class="edge">
<title>3&#45;&#45;4</title>
<path fill="none" stroke="#000000" d="M212.8686,-33.7187C231.2123,-44.2918 255.2937,-58.1721 273.5964,-68.7216"/>
</g>
<!-- 4&#45;&#45;5 -->
<g id="edge13" class="edge">
<title>4&#45;&#45;5</title>
<path fill="none" stroke="#000000" d="M308.5756,-102.4773C321.6298,-132.4532 347.544,-191.9593 360.5651,-221.8591"/>
</g>
<!-- 4&#45;&#45;7 -->
<g id="edge14" class="edge">
<title>4&#45;&#45;7</title>
<path fill="none" stroke="#000000" d="M327.8328,-99.3735C350.3304,-111.8363 382.1435,-129.4594 404.6316,-141.9168"/>
</g>
<!-- 5&#45;&#45;7 -->
<g id="edge15" class="edge">
<title>5&#45;&#45;7</title>
<path fill="none" stroke="#000000" d="M382.4758,-221.4841C393.0451,-207.6425 407.4518,-188.7752 417.9581,-175.016"/>
</g>
<!-- 8 -->
<g id="node9" class="node">
<title>8</title>
<polygon fill="none" stroke="#000000" points="521.0492,-330.5 467.0492,-330.5 467.0492,-294.5 521.0492,-294.5 521.0492,-330.5"/>
<text text-anchor="middle" x="494.0492" y="-310" font-family="century schoolbook" font-size="10.00" fill="#000000">3,5,8</text>
</g>
<!-- 5&#45;&#45;8 -->
<g id="edge16" class="edge">
<title>5&#45;&#45;8</title>
<path fill="none" stroke="#000000" d="M395.6787,-255.6479C416.7511,-267.8265 445.7834,-284.6054 466.8424,-296.7762"/>
</g>
<!-- 9 -->
<g id="node10" class="node">
<title>9</title>
<polygon fill="none" stroke="#000000" points="273.066,-376.9694 219.066,-376.9694 219.066,-340.9694 273.066,-340.9694 273.066,-376.9694"/>
<text text-anchor="middle" x="246.066" y="-356.4694" font-family="century schoolbook" font-size="10.00" fill="#000000">2,4,11</text>
</g>
<!-- 5&#45;&#45;9 -->
<g id="edge17" class="edge">
<title>5&#45;&#45;9</title>
<path fill="none" stroke="#000000" d="M349.836,-257.9784C326.8392,-280.3593 287.9009,-318.2548 264.8236,-340.7141"/>
</g>
<!-- 10 -->
<g id="node11" class="node">
<title>10</title>
<polygon fill="none" stroke="#000000" points="574.0981,-288.3384 520.0981,-288.3384 520.0981,-252.3384 574.0981,-252.3384 574.0981,-288.3384"/>
<text text-anchor="middle" x="547.0981" y="-267.8384" font-family="century schoolbook" font-size="10.00" fill="#000000">3,6,8</text>
</g>
<!-- 5&#45;&#45;10 -->
<g id="edge18" class="edge">
<title>5&#45;&#45;10</title>
<path fill="none" stroke="#000000" d="M395.5563,-244.5173C429.2376,-250.2562 486.3348,-259.9849 519.9985,-265.7209"/>
</g>
<!-- 6&#45;&#45;9 -->
<g id="edge19" class="edge">
<title>6&#45;&#45;9</title>
<path fill="none" stroke="#000000" d="M167.7823,-331.1756C183.5243,-336.7647 203.2792,-343.7784 219.0056,-349.3619"/>
</g>
<!-- 23 -->
<g id="node24" class="node">
<title>23</title>
<polygon fill="none" stroke="#000000" points="212.2638,-513.8158 158.2638,-513.8158 158.2638,-477.8158 212.2638,-477.8158 212.2638,-513.8158"/>
<text text-anchor="middle" x="185.2638" y="-493.3158" font-family="century schoolbook" font-size="10.00" fill="#000000">1,4,11</text>
</g>
<!-- 6&#45;&#45;23 -->
<g id="edge20" class="edge">
<title>6&#45;&#45;23</title>
<path fill="none" stroke="#000000" d="M145.3221,-339.8571C153.9168,-373.4165 172.0866,-444.3636 180.6344,-477.7397"/>
</g>
<!-- 7&#45;&#45;8 -->
<g id="edge21" class="edge">
<title>7&#45;&#45;8</title>
<path fill="none" stroke="#000000" d="M439.0254,-175.0924C451.0283,-205.0665 474.8556,-264.5689 486.8279,-294.4669"/>
</g>
<!-- 7&#45;&#45;10 -->
<g id="edge22" class="edge">
<title>7&#45;&#45;10</title>
<path fill="none" stroke="#000000" d="M450.2893,-175.1625C471.8131,-196.3232 507.1086,-231.0234 528.6127,-252.1648"/>
</g>
<!-- 8&#45;&#45;10 -->
<g id="edge23" class="edge">
<title>8&#45;&#45;10</title>
<path fill="none" stroke="#000000" d="M516.8546,-294.375C519.3258,-292.4109 521.841,-290.412 524.312,-288.4481"/>
</g>
<!-- 11 -->
<g id="node12" class="node">
<title>11</title>
<polygon fill="none" stroke="#000000" points="658.4668,-426.2104 604.4668,-426.2104 604.4668,-390.2104 658.4668,-390.2104 658.4668,-426.2104"/>
<text text-anchor="middle" x="631.4668" y="-405.7104" font-family="century schoolbook" font-size="10.00" fill="#000000">4,6,9</text>
</g>
<!-- 8&#45;&#45;11 -->
<g id="edge24" class="edge">
<title>8&#45;&#45;11</title>
<path fill="none" stroke="#000000" d="M519.8964,-330.5024C544.309,-347.5056 580.7412,-372.8804 605.2683,-389.9634"/>
</g>
<!-- 12 -->
<g id="node13" class="node">
<title>12</title>
<polygon fill="none" stroke="#000000" points="563.2691,-469.4037 509.2691,-469.4037 509.2691,-433.4037 563.2691,-433.4037 563.2691,-469.4037"/>
<text text-anchor="middle" x="536.2691" y="-448.9037" font-family="century schoolbook" font-size="10.00" fill="#000000">4,7,9</text>
</g>
<!-- 8&#45;&#45;12 -->
<g id="edge25" class="edge">
<title>8&#45;&#45;12</title>
<path fill="none" stroke="#000000" d="M499.5687,-330.6593C507.6601,-357.2801 522.656,-406.6167 530.7482,-433.2401"/>
</g>
<!-- 10&#45;&#45;11 -->
<g id="edge26" class="edge">
<title>10&#45;&#45;11</title>
<path fill="none" stroke="#000000" d="M558.1278,-288.3627C574.297,-314.7858 604.2636,-363.7561 620.4343,-390.1816"/>
</g>
<!-- 10&#45;&#45;12 -->
<g id="edge27" class="edge">
<title>10&#45;&#45;12</title>
<path fill="none" stroke="#000000" d="M546.0202,-288.3616C543.9498,-322.9787 539.4382,-398.4143 537.3587,-433.1847"/>
</g>
<!-- 11&#45;&#45;12 -->
<g id="edge28" class="edge">
<title>11&#45;&#45;12</title>
<path fill="none" stroke="#000000" d="M604.4416,-420.4724C591.5786,-426.3086 576.2335,-433.271 563.3619,-439.1112"/>
</g>
<!-- 13 -->
<g id="node14" class="node">
<title>13</title>
<polygon fill="none" stroke="#000000" points="699.9614,-570.0148 645.9614,-570.0148 645.9614,-534.0148 699.9614,-534.0148 699.9614,-570.0148"/>
<text text-anchor="middle" x="672.9614" y="-549.5148" font-family="century schoolbook" font-size="10.00" fill="#000000">5,7,10</text>
</g>
<!-- 11&#45;&#45;13 -->
<g id="edge29" class="edge">
<title>11&#45;&#45;13</title>
<path fill="none" stroke="#000000" d="M636.7221,-426.4234C644.7038,-454.0848 659.7925,-506.3764 667.7487,-533.9498"/>
</g>
<!-- 14 -->
<g id="node15" class="node">
<title>14</title>
<polygon fill="none" stroke="#000000" points="599.4665,-604.735 545.4665,-604.735 545.4665,-568.735 599.4665,-568.735 599.4665,-604.735"/>
<text text-anchor="middle" x="572.4665" y="-584.235" font-family="century schoolbook" font-size="10.00" fill="#000000">5,8,10</text>
</g>
<!-- 11&#45;&#45;14 -->
<g id="edge30" class="edge">
<title>11&#45;&#45;14</title>
<path fill="none" stroke="#000000" d="M625.4848,-426.3108C614.1766,-460.5277 589.7848,-534.333 578.4643,-568.5868"/>
</g>
<!-- 12&#45;&#45;13 -->
<g id="edge31" class="edge">
<title>12&#45;&#45;13</title>
<path fill="none" stroke="#000000" d="M561.023,-469.6236C585.7963,-487.8577 623.6836,-515.7444 648.3916,-533.9305"/>
</g>
<!-- 12&#45;&#45;14 -->
<g id="edge32" class="edge">
<title>12&#45;&#45;14</title>
<path fill="none" stroke="#000000" d="M541.1508,-469.6551C548.0594,-495.484 560.6172,-542.434 567.5465,-568.3406"/>
</g>
<!-- 13&#45;&#45;14 -->
<g id="edge33" class="edge">
<title>13&#45;&#45;14</title>
<path fill="none" stroke="#000000" d="M645.766,-561.4106C631.4663,-566.351 613.9865,-572.3902 599.6836,-577.3317"/>
</g>
<!-- 15 -->
<g id="node16" class="node">
<title>15</title>
<polygon fill="none" stroke="#000000" points="739.2339,-696.7787 685.2339,-696.7787 685.2339,-660.7787 739.2339,-660.7787 739.2339,-696.7787"/>
<text text-anchor="middle" x="712.2339" y="-676.2787" font-family="century schoolbook" font-size="10.00" fill="#000000">6,8,11</text>
</g>
<!-- 13&#45;&#45;15 -->
<g id="edge34" class="edge">
<title>13&#45;&#45;15</title>
<path fill="none" stroke="#000000" d="M678.5882,-570.177C686.0539,-594.2748 699.1571,-636.5694 706.6176,-660.6502"/>
</g>
<!-- 16 -->
<g id="node17" class="node">
<title>16</title>
<polygon fill="none" stroke="#000000" points="622.7009,-742.86 568.7009,-742.86 568.7009,-706.86 622.7009,-706.86 622.7009,-742.86"/>
<text text-anchor="middle" x="595.7009" y="-722.36" font-family="century schoolbook" font-size="10.00" fill="#000000">6,9,11</text>
</g>
<!-- 13&#45;&#45;16 -->
<g id="edge35" class="edge">
<title>13&#45;&#45;16</title>
<path fill="none" stroke="#000000" d="M664.8392,-570.1856C650.0007,-603.3819 618.674,-673.4652 603.8302,-706.6733"/>
</g>
<!-- 14&#45;&#45;15 -->
<g id="edge36" class="edge">
<title>14&#45;&#45;15</title>
<path fill="none" stroke="#000000" d="M599.7469,-604.7005C624.3742,-620.9188 660.4163,-644.6543 685.0224,-660.8586"/>
</g>
<!-- 14&#45;&#45;16 -->
<g id="edge37" class="edge">
<title>14&#45;&#45;16</title>
<path fill="none" stroke="#000000" d="M575.504,-604.7924C579.9569,-631.264 588.2094,-680.3241 592.6627,-706.7981"/>
</g>
<!-- 15&#45;&#45;16 -->
<g id="edge38" class="edge">
<title>15&#45;&#45;16</title>
<path fill="none" stroke="#000000" d="M685.206,-689.4665C666.5143,-696.8579 641.7332,-706.6572 622.9859,-714.0705"/>
</g>
<!-- 17 -->
<g id="node18" class="node">
<title>17</title>
<polygon fill="none" stroke="#000000" points="419.5624,-562.0793 365.5624,-562.0793 365.5624,-526.0793 419.5624,-526.0793 419.5624,-562.0793"/>
<text text-anchor="middle" x="392.5624" y="-541.5793" font-family="century schoolbook" font-size="10.00" fill="#000000">0,7,9</text>
</g>
<!-- 17&#45;&#45;12 -->
<g id="edge39" class="edge">
<title>17&#45;&#45;12</title>
<path fill="none" stroke="#000000" d="M419.5925,-526.6477C445.1224,-510.1837 483.222,-485.6135 508.8716,-469.0722"/>
</g>
<!-- 18 -->
<g id="node19" class="node">
<title>18</title>
<polygon fill="none" stroke="#000000" points="432.9656,-673.2741 378.9656,-673.2741 378.9656,-637.2741 432.9656,-637.2741 432.9656,-673.2741"/>
<text text-anchor="middle" x="405.9656" y="-652.7741" font-family="century schoolbook" font-size="10.00" fill="#000000">1,8,10</text>
</g>
<!-- 17&#45;&#45;18 -->
<g id="edge40" class="edge">
<title>17&#45;&#45;18</title>
<path fill="none" stroke="#000000" d="M394.7756,-562.4408C397.2739,-583.1668 401.3123,-616.6699 403.7935,-637.2542"/>
</g>
<!-- 19 -->
<g id="node20" class="node">
<title>19</title>
<polygon fill="none" stroke="#000000" points="271.2578,-592.367 217.2578,-592.367 217.2578,-556.367 271.2578,-556.367 271.2578,-592.367"/>
<text text-anchor="middle" x="244.2578" y="-571.867" font-family="century schoolbook" font-size="10.00" fill="#000000">0,7,10</text>
</g>
<!-- 17&#45;&#45;19 -->
<g id="edge41" class="edge">
<title>17&#45;&#45;19</title>
<path fill="none" stroke="#000000" d="M365.361,-549.6345C338.6021,-555.0994 297.9859,-563.3943 271.2867,-568.847"/>
</g>
<!-- 20 -->
<g id="node21" class="node">
<title>20</title>
<polygon fill="none" stroke="#000000" points="316.2464,-671.8309 262.2464,-671.8309 262.2464,-635.8309 316.2464,-635.8309 316.2464,-671.8309"/>
<text text-anchor="middle" x="289.2464" y="-651.3309" font-family="century schoolbook" font-size="10.00" fill="#000000">1,8,11</text>
</g>
<!-- 17&#45;&#45;20 -->
<g id="edge42" class="edge">
<title>17&#45;&#45;20</title>
<path fill="none" stroke="#000000" d="M375.5018,-562.2025C356.3591,-582.5377 325.4854,-615.3345 306.3323,-635.6807"/>
</g>
<!-- 18&#45;&#45;14 -->
<g id="edge43" class="edge">
<title>18&#45;&#45;14</title>
<path fill="none" stroke="#000000" d="M433.0874,-644.1096C464.0493,-631.3643 514.3993,-610.638 545.3563,-597.8948"/>
</g>
<!-- 18&#45;&#45;20 -->
<g id="edge44" class="edge">
<title>18&#45;&#45;20</title>
<path fill="none" stroke="#000000" d="M378.8945,-654.9394C360.1729,-654.7079 335.3522,-654.401 316.575,-654.1688"/>
</g>
<!-- 21 -->
<g id="node22" class="node">
<title>21</title>
<polygon fill="none" stroke="#000000" points="445.5854,-792.3413 391.5854,-792.3413 391.5854,-756.3413 445.5854,-756.3413 445.5854,-792.3413"/>
<text text-anchor="middle" x="418.5854" y="-771.8413" font-family="century schoolbook" font-size="10.00" fill="#000000">2,9,11</text>
</g>
<!-- 18&#45;&#45;21 -->
<g id="edge45" class="edge">
<title>18&#45;&#45;21</title>
<path fill="none" stroke="#000000" d="M407.8823,-673.3579C410.2542,-695.7371 414.2704,-733.6298 416.6507,-756.0874"/>
</g>
<!-- 19&#45;&#45;18 -->
<g id="edge46" class="edge">
<title>19&#45;&#45;18</title>
<path fill="none" stroke="#000000" d="M271.3241,-587.9091C301.1744,-602.844 348.9255,-626.7353 378.811,-641.6879"/>
</g>
<!-- 19&#45;&#45;20 -->
<g id="edge47" class="edge">
<title>19&#45;&#45;20</title>
<path fill="none" stroke="#000000" d="M254.4664,-592.3986C261.7772,-605.3118 271.5856,-622.6364 278.9225,-635.5956"/>
</g>
<!-- 20&#45;&#45;21 -->
<g id="edge48" class="edge">
<title>20&#45;&#45;21</title>
<path fill="none" stroke="#000000" d="M308.6097,-671.8725C332.9928,-694.5912 374.6443,-733.3996 399.0897,-756.1763"/>
</g>
<!-- 21&#45;&#45;16 -->
<g id="edge49" class="edge">
<title>21&#45;&#45;16</title>
<path fill="none" stroke="#000000" d="M445.8715,-766.7183C479.2518,-757.3927 535.4127,-741.7029 568.6744,-732.4105"/>
</g>
<!-- 22&#45;&#45;6 -->
<g id="edge50" class="edge">
<title>22&#45;&#45;6</title>
<path fill="none" stroke="#000000" d="M119.2979,-418.1652C124.0444,-396.6647 131.8939,-361.1079 136.6321,-339.6445"/>
</g>
<!-- 22&#45;&#45;9 -->
<g id="edge51" class="edge">
<title>22&#45;&#45;9</title>
<path fill="none" stroke="#000000" d="M142.38,-420.3241C164.8259,-407.0421 196.5658,-388.2605 219.0021,-374.9841"/>
</g>
<!-- 22&#45;&#45;19 -->
<g id="edge52" class="edge">
<title>22&#45;&#45;19</title>
<path fill="none" stroke="#000000" d="M132.1428,-454.4015C156.861,-480.8505 202.6717,-529.8689 227.3923,-556.3205"/>
</g>
<!-- 22&#45;&#45;23 -->
<g id="edge53" class="edge">
<title>22&#45;&#45;23</title>
<path fill="none" stroke="#000000" d="M136.6587,-454.5214C145.3411,-461.8979 155.3484,-470.4 164.0174,-477.7651"/>
</g>
<!-- 23&#45;&#45;9 -->
<g id="edge54" class="edge">
<title>23&#45;&#45;9</title>
<path fill="none" stroke="#000000" d="M193.3379,-477.6437C204.9671,-451.4699 226.3107,-403.4322 237.9585,-377.2167"/>
</g>
<!-- 23&#45;&#45;20 -->
<g id="edge55" class="edge">
<title>23&#45;&#45;20</title>
<path fill="none" stroke="#000000" d="M197.1919,-513.9422C217.1431,-544.2606 257.0657,-604.9282 277.1371,-635.4292"/>
</g>
</g>
</svg>
