<?xml version="1.0" encoding="UTF-8" standalone="no"?>
<!DOCTYPE svg PUBLIC "-//W3C//DTD SVG 1.1//EN"
 "http://www.w3.org/Graphics/SVG/1.1/DTD/svg11.dtd">
<!-- Generated by graphviz version 2.40.1 (20161225.0304)
 -->
<!-- Title: g Pages: 1 -->
<svg width="472pt" height="502pt"
 viewBox="0.00 0.00 471.91 502.31" xmlns="http://www.w3.org/2000/svg" xmlns:xlink="http://www.w3.org/1999/xlink">
<g id="graph0" class="graph" transform="scale(1 1) rotate(0) translate(4 498.3097)">
<title>g</title>
<polygon fill="#ffffff" stroke="transparent" points="-4,4 -4,-498.3097 467.911,-498.3097 467.911,4 -4,4"/>
<!-- 0 -->
<g id="node1" class="node">
<title>0</title>
<ellipse fill="none" stroke="#000000" cx="231.9547" cy="-247.1428" rx="18" ry="18"/>
<text text-anchor="middle" x="231.9547" y="-244.6428" font-family="century schoolbook" font-size="10.00" fill="#000000">C♮</text>
</g>
<!-- 1 -->
<g id="node2" class="node">
<title>1</title>
<ellipse fill="none" stroke="#000000" cx="242.4075" cy="-169.8393" rx="18" ry="18"/>
<text text-anchor="middle" x="242.4075" y="-167.3393" font-family="century schoolbook" font-size="10.00" fill="#000000">G♮</text>
</g>
<!-- 0&#45;&#45;1 -->
<g id="edge1" class="edge">
<title>0&#45;&#45;1</title>
<path fill="none" stroke="#000000" d="M234.379,-229.2135C236.0556,-216.8142 238.2785,-200.3753 239.96,-187.9391"/>
</g>
<!-- 2 -->
<g id="node3" class="node">
<title>2</title>
<ellipse fill="none" stroke="#000000" cx="293.664" cy="-294.8607" rx="18" ry="18"/>
<text text-anchor="middle" x="293.664" y="-292.3607" font-family="century schoolbook" font-size="10.00" fill="#000000">A♮</text>
</g>
<!-- 0&#45;&#45;2 -->
<g id="edge2" class="edge">
<title>0&#45;&#45;2</title>
<path fill="none" stroke="#000000" d="M246.2671,-258.2102C256.094,-265.809 269.0993,-275.8656 279.0007,-283.522"/>
</g>
<!-- 3 -->
<g id="node4" class="node">
<title>3</title>
<ellipse fill="none" stroke="#000000" cx="304.13" cy="-217.5541" rx="18" ry="18"/>
<text text-anchor="middle" x="304.13" y="-215.0541" font-family="century schoolbook" font-size="10.00" fill="#000000">E♮</text>
</g>
<!-- 0&#45;&#45;3 -->
<g id="edge3" class="edge">
<title>0&#45;&#45;3</title>
<path fill="none" stroke="#000000" d="M248.6946,-240.2802C260.2714,-235.5342 275.6197,-229.2421 287.2309,-224.482"/>
</g>
<!-- 1&#45;&#45;3 -->
<g id="edge4" class="edge">
<title>1&#45;&#45;3</title>
<path fill="none" stroke="#000000" d="M256.723,-180.9059C266.552,-188.5043 279.56,-198.5602 289.4635,-206.2161"/>
</g>
<!-- 7 -->
<g id="node8" class="node">
<title>7</title>
<ellipse fill="none" stroke="#000000" cx="252.8008" cy="-92.899" rx="18" ry="18"/>
<text text-anchor="middle" x="252.8008" y="-90.399" font-family="century schoolbook" font-size="10.00" fill="#000000">D♮</text>
</g>
<!-- 1&#45;&#45;7 -->
<g id="edge5" class="edge">
<title>1&#45;&#45;7</title>
<path fill="none" stroke="#000000" d="M244.818,-151.9942C246.4851,-139.6531 248.6953,-123.2915 250.3673,-110.9138"/>
</g>
<!-- 8 -->
<g id="node9" class="node">
<title>8</title>
<ellipse fill="none" stroke="#000000" cx="314.3291" cy="-140.5824" rx="18" ry="18"/>
<text text-anchor="middle" x="314.3291" y="-138.0824" font-family="century schoolbook" font-size="10.00" fill="#000000">B♮</text>
</g>
<!-- 1&#45;&#45;8 -->
<g id="edge6" class="edge">
<title>1&#45;&#45;8</title>
<path fill="none" stroke="#000000" d="M259.0885,-163.0536C270.5416,-158.3946 285.6991,-152.2287 297.2391,-147.5344"/>
</g>
<!-- 2&#45;&#45;3 -->
<g id="edge7" class="edge">
<title>2&#45;&#45;3</title>
<path fill="none" stroke="#000000" d="M296.0915,-276.9307C297.7702,-264.5309 299.9958,-248.0914 301.6795,-235.6547"/>
</g>
<!-- 10 -->
<g id="node11" class="node">
<title>10</title>
<ellipse fill="none" stroke="#000000" cx="355.074" cy="-342.3704" rx="18" ry="18"/>
<text text-anchor="middle" x="355.074" y="-339.8704" font-family="century schoolbook" font-size="10.00" fill="#000000">F♯</text>
</g>
<!-- 2&#45;&#45;10 -->
<g id="edge8" class="edge">
<title>2&#45;&#45;10</title>
<path fill="none" stroke="#000000" d="M307.9071,-305.8798C317.6863,-313.4455 330.6284,-323.4582 340.4818,-331.0812"/>
</g>
<!-- 11 -->
<g id="node12" class="node">
<title>11</title>
<ellipse fill="none" stroke="#000000" cx="365.4222" cy="-265.2271" rx="18" ry="18"/>
<text text-anchor="middle" x="365.4222" y="-262.7271" font-family="century schoolbook" font-size="10.00" fill="#000000">C♯</text>
</g>
<!-- 2&#45;&#45;11 -->
<g id="edge9" class="edge">
<title>2&#45;&#45;11</title>
<path fill="none" stroke="#000000" d="M310.3072,-287.9877C321.7343,-283.2687 336.8573,-277.0234 348.371,-272.2686"/>
</g>
<!-- 3&#45;&#45;8 -->
<g id="edge10" class="edge">
<title>3&#45;&#45;8</title>
<path fill="none" stroke="#000000" d="M306.4955,-199.7018C308.1315,-187.3556 310.3003,-170.9874 311.9411,-158.6046"/>
</g>
<!-- 3&#45;&#45;11 -->
<g id="edge11" class="edge">
<title>3&#45;&#45;11</title>
<path fill="none" stroke="#000000" d="M318.3457,-228.6111C328.1062,-236.2027 341.0235,-246.2498 350.858,-253.899"/>
</g>
<!-- 13 -->
<g id="node14" class="node">
<title>13</title>
<ellipse fill="none" stroke="#000000" cx="375.9707" cy="-188.1137" rx="18" ry="18"/>
<text text-anchor="middle" x="375.9707" y="-185.6137" font-family="century schoolbook" font-size="10.00" fill="#000000">A♭</text>
</g>
<!-- 3&#45;&#45;13 -->
<g id="edge12" class="edge">
<title>3&#45;&#45;13</title>
<path fill="none" stroke="#000000" d="M320.7923,-210.7259C332.2325,-206.0377 347.373,-199.8331 358.8999,-195.1094"/>
</g>
<!-- 4 -->
<g id="node5" class="node">
<title>4</title>
<ellipse fill="none" stroke="#000000" cx="221.4902" cy="-324.4485" rx="18" ry="18"/>
<text text-anchor="middle" x="221.4902" y="-321.9485" font-family="century schoolbook" font-size="10.00" fill="#000000">F♮</text>
</g>
<!-- 4&#45;&#45;0 -->
<g id="edge13" class="edge">
<title>4&#45;&#45;0</title>
<path fill="none" stroke="#000000" d="M223.9172,-306.5187C225.5957,-294.119 227.821,-277.6797 229.5045,-265.2432"/>
</g>
<!-- 4&#45;&#45;2 -->
<g id="edge14" class="edge">
<title>4&#45;&#45;2</title>
<path fill="none" stroke="#000000" d="M238.2297,-317.5861C249.8063,-312.8403 265.1543,-306.5483 276.7653,-301.7884"/>
</g>
<!-- 12 -->
<g id="node13" class="node">
<title>12</title>
<ellipse fill="none" stroke="#000000" cx="283.0264" cy="-371.78" rx="18" ry="18"/>
<text text-anchor="middle" x="283.0264" y="-369.28" font-family="century schoolbook" font-size="10.00" fill="#000000">D♮</text>
</g>
<!-- 4&#45;&#45;12 -->
<g id="edge15" class="edge">
<title>4&#45;&#45;12</title>
<path fill="none" stroke="#000000" d="M235.7625,-335.4263C245.5618,-342.9636 258.5305,-352.9387 268.4041,-360.5331"/>
</g>
<!-- 5 -->
<g id="node6" class="node">
<title>5</title>
<ellipse fill="none" stroke="#000000" cx="170.2313" cy="-199.4395" rx="18" ry="18"/>
<text text-anchor="middle" x="170.2313" y="-196.9395" font-family="century schoolbook" font-size="10.00" fill="#000000">E♭</text>
</g>
<!-- 5&#45;&#45;0 -->
<g id="edge16" class="edge">
<title>5&#45;&#45;0</title>
<path fill="none" stroke="#000000" d="M184.547,-210.5035C194.3761,-218.1 207.3843,-228.1535 217.288,-235.8076"/>
</g>
<!-- 5&#45;&#45;1 -->
<g id="edge17" class="edge">
<title>5&#45;&#45;1</title>
<path fill="none" stroke="#000000" d="M186.9713,-192.5742C198.5483,-187.8264 213.8968,-181.5318 225.5081,-176.7699"/>
</g>
<!-- 9 -->
<g id="node10" class="node">
<title>9</title>
<ellipse fill="none" stroke="#000000" cx="180.8281" cy="-122.5285" rx="18" ry="18"/>
<text text-anchor="middle" x="180.8281" y="-120.0285" font-family="century schoolbook" font-size="10.00" fill="#000000">B♭</text>
</g>
<!-- 5&#45;&#45;9 -->
<g id="edge18" class="edge">
<title>5&#45;&#45;9</title>
<path fill="none" stroke="#000000" d="M172.689,-181.6013C174.3887,-169.2649 176.6422,-152.9095 178.347,-140.5365"/>
</g>
<!-- 6 -->
<g id="node7" class="node">
<title>6</title>
<ellipse fill="none" stroke="#000000" cx="159.7802" cy="-276.742" rx="18" ry="18"/>
<text text-anchor="middle" x="159.7802" y="-274.242" font-family="century schoolbook" font-size="10.00" fill="#000000">A♭</text>
</g>
<!-- 6&#45;&#45;0 -->
<g id="edge19" class="edge">
<title>6&#45;&#45;0</title>
<path fill="none" stroke="#000000" d="M176.5199,-269.8769C188.0965,-265.1293 203.4447,-258.8349 215.0557,-254.0732"/>
</g>
<!-- 6&#45;&#45;4 -->
<g id="edge20" class="edge">
<title>6&#45;&#45;4</title>
<path fill="none" stroke="#000000" d="M174.0928,-287.8067C183.9198,-295.4037 196.9252,-305.4579 206.8266,-313.1125"/>
</g>
<!-- 6&#45;&#45;5 -->
<g id="edge21" class="edge">
<title>6&#45;&#45;5</title>
<path fill="none" stroke="#000000" d="M162.2041,-258.8129C163.8805,-246.4138 166.1029,-229.9751 167.7842,-217.5391"/>
</g>
<!-- 7&#45;&#45;8 -->
<g id="edge22" class="edge">
<title>7&#45;&#45;8</title>
<path fill="none" stroke="#000000" d="M267.0713,-103.9584C276.8694,-111.5517 289.8365,-121.601 299.7088,-129.2519"/>
</g>
<!-- 19 -->
<g id="node20" class="node">
<title>19</title>
<ellipse fill="none" stroke="#000000" cx="262.909" cy="-18" rx="18" ry="18"/>
<text text-anchor="middle" x="262.909" y="-15.5" font-family="century schoolbook" font-size="10.00" fill="#000000">A♮</text>
</g>
<!-- 7&#45;&#45;19 -->
<g id="edge23" class="edge">
<title>7&#45;&#45;19</title>
<path fill="none" stroke="#000000" d="M255.2477,-74.768C256.837,-62.992 258.8999,-47.7066 260.4846,-35.964"/>
</g>
<!-- 20 -->
<g id="node21" class="node">
<title>20</title>
<ellipse fill="none" stroke="#000000" cx="324.1285" cy="-64.7356" rx="18" ry="18"/>
<text text-anchor="middle" x="324.1285" y="-62.2356" font-family="century schoolbook" font-size="10.00" fill="#000000">F♯</text>
</g>
<!-- 7&#45;&#45;20 -->
<g id="edge24" class="edge">
<title>7&#45;&#45;20</title>
<path fill="none" stroke="#000000" d="M269.7045,-86.2246C281.0747,-81.7352 296.0014,-75.8414 307.3462,-71.362"/>
</g>
<!-- 8&#45;&#45;13 -->
<g id="edge25" class="edge">
<title>8&#45;&#45;13</title>
<path fill="none" stroke="#000000" d="M328.6259,-151.6065C338.442,-159.1756 351.4329,-169.1929 361.3234,-176.8193"/>
</g>
<!-- 8&#45;&#45;20 -->
<g id="edge26" class="edge">
<title>8&#45;&#45;20</title>
<path fill="none" stroke="#000000" d="M316.6514,-122.6078C318.2022,-110.6048 320.2346,-94.8746 321.7889,-82.844"/>
</g>
<!-- 22 -->
<g id="node23" class="node">
<title>22</title>
<ellipse fill="none" stroke="#000000" cx="385.2653" cy="-111.9959" rx="18" ry="18"/>
<text text-anchor="middle" x="385.2653" y="-109.4959" font-family="century schoolbook" font-size="10.00" fill="#000000">E♭</text>
</g>
<!-- 8&#45;&#45;22 -->
<g id="edge27" class="edge">
<title>8&#45;&#45;22</title>
<path fill="none" stroke="#000000" d="M331.14,-133.8078C342.2839,-129.3169 356.863,-123.4417 368.0823,-118.9204"/>
</g>
<!-- 9&#45;&#45;1 -->
<g id="edge28" class="edge">
<title>9&#45;&#45;1</title>
<path fill="none" stroke="#000000" d="M195.1104,-133.5015C204.9166,-141.0355 217.8945,-151.0062 227.775,-158.5973"/>
</g>
<!-- 9&#45;&#45;7 -->
<g id="edge29" class="edge">
<title>9&#45;&#45;7</title>
<path fill="none" stroke="#000000" d="M197.521,-115.6564C208.9823,-110.9381 224.1505,-104.6937 235.6987,-99.9395"/>
</g>
<!-- 21 -->
<g id="node22" class="node">
<title>21</title>
<ellipse fill="none" stroke="#000000" cx="191.4944" cy="-46.8059" rx="18" ry="18"/>
<text text-anchor="middle" x="191.4944" y="-44.3059" font-family="century schoolbook" font-size="10.00" fill="#000000">F♮</text>
</g>
<!-- 9&#45;&#45;21 -->
<g id="edge30" class="edge">
<title>9&#45;&#45;21</title>
<path fill="none" stroke="#000000" d="M183.3559,-104.5833C185.0438,-92.6 187.256,-76.8955 188.9478,-64.8847"/>
</g>
<!-- 10&#45;&#45;11 -->
<g id="edge31" class="edge">
<title>10&#45;&#45;11</title>
<path fill="none" stroke="#000000" d="M357.4741,-324.4783C359.134,-312.1046 361.3345,-295.6998 362.9993,-283.2894"/>
</g>
<!-- 24 -->
<g id="node25" class="node">
<title>24</title>
<ellipse fill="none" stroke="#000000" cx="414.8449" cy="-388.6348" rx="18" ry="18"/>
<text text-anchor="middle" x="414.8449" y="-386.1348" font-family="century schoolbook" font-size="10.00" fill="#000000">E♭</text>
</g>
<!-- 10&#45;&#45;24 -->
<g id="edge32" class="edge">
<title>10&#45;&#45;24</title>
<path fill="none" stroke="#000000" d="M369.5429,-353.5698C378.9404,-360.8437 391.1384,-370.2853 400.5093,-377.5386"/>
</g>
<!-- 25 -->
<g id="node26" class="node">
<title>25</title>
<ellipse fill="none" stroke="#000000" cx="425.6392" cy="-312.3859" rx="18" ry="18"/>
<text text-anchor="middle" x="425.6392" y="-309.8859" font-family="century schoolbook" font-size="10.00" fill="#000000">B♭</text>
</g>
<!-- 10&#45;&#45;25 -->
<g id="edge33" class="edge">
<title>10&#45;&#45;25</title>
<path fill="none" stroke="#000000" d="M371.797,-335.2645C383.0456,-330.4847 397.8127,-324.2099 409.0363,-319.4408"/>
</g>
<!-- 11&#45;&#45;13 -->
<g id="edge34" class="edge">
<title>11&#45;&#45;13</title>
<path fill="none" stroke="#000000" d="M367.8688,-247.3419C369.5607,-234.973 371.8039,-218.5746 373.5009,-206.169"/>
</g>
<!-- 11&#45;&#45;25 -->
<g id="edge35" class="edge">
<title>11&#45;&#45;25</title>
<path fill="none" stroke="#000000" d="M379.6928,-276.4031C389.1527,-283.8116 401.5288,-293.5039 411.0527,-300.9625"/>
</g>
<!-- 27 -->
<g id="node28" class="node">
<title>27</title>
<ellipse fill="none" stroke="#000000" cx="436.0153" cy="-235.8257" rx="18" ry="18"/>
<text text-anchor="middle" x="436.0153" y="-233.3257" font-family="century schoolbook" font-size="10.00" fill="#000000">F♮</text>
</g>
<!-- 11&#45;&#45;27 -->
<g id="edge36" class="edge">
<title>11&#45;&#45;27</title>
<path fill="none" stroke="#000000" d="M382.1518,-258.2594C393.2418,-253.6405 407.7504,-247.5978 418.9154,-242.9476"/>
</g>
<!-- 12&#45;&#45;2 -->
<g id="edge37" class="edge">
<title>12&#45;&#45;2</title>
<path fill="none" stroke="#000000" d="M285.4936,-353.9398C287.1999,-341.6021 289.462,-325.245 291.1733,-312.8706"/>
</g>
<!-- 12&#45;&#45;10 -->
<g id="edge38" class="edge">
<title>12&#45;&#45;10</title>
<path fill="none" stroke="#000000" d="M299.7366,-364.9589C311.293,-360.2417 326.6141,-353.9876 338.2048,-349.2564"/>
</g>
<!-- 26 -->
<g id="node27" class="node">
<title>26</title>
<ellipse fill="none" stroke="#000000" cx="343.7752" cy="-418.2265" rx="18" ry="18"/>
<text text-anchor="middle" x="343.7752" y="-415.7265" font-family="century schoolbook" font-size="10.00" fill="#000000">B♮</text>
</g>
<!-- 12&#45;&#45;26 -->
<g id="edge39" class="edge">
<title>12&#45;&#45;26</title>
<path fill="none" stroke="#000000" d="M297.423,-382.7872C306.9665,-390.0838 319.4519,-399.6297 329.0599,-406.9757"/>
</g>
<!-- 13&#45;&#45;22 -->
<g id="edge40" class="edge">
<title>13&#45;&#45;22</title>
<path fill="none" stroke="#000000" d="M378.1734,-170.0749C379.655,-157.9411 381.6001,-142.0119 383.0784,-129.9053"/>
</g>
<!-- 13&#45;&#45;27 -->
<g id="edge41" class="edge">
<title>13&#45;&#45;27</title>
<path fill="none" stroke="#000000" d="M390.2004,-199.4208C399.772,-207.0265 412.3375,-217.0111 421.8877,-224.5998"/>
</g>
<!-- 29 -->
<g id="node30" class="node">
<title>29</title>
<ellipse fill="none" stroke="#000000" cx="445.911" cy="-159.4645" rx="18" ry="18"/>
<text text-anchor="middle" x="445.911" y="-156.9645" font-family="century schoolbook" font-size="10.00" fill="#000000">C♮</text>
</g>
<!-- 13&#45;&#45;29 -->
<g id="edge42" class="edge">
<title>13&#45;&#45;29</title>
<path fill="none" stroke="#000000" d="M392.9013,-181.1785C403.8977,-176.6742 418.1711,-170.8274 429.1363,-166.3358"/>
</g>
<!-- 14 -->
<g id="node15" class="node">
<title>14</title>
<ellipse fill="none" stroke="#000000" cx="211.0617" cy="-401.3975" rx="18" ry="18"/>
<text text-anchor="middle" x="211.0617" y="-398.8975" font-family="century schoolbook" font-size="10.00" fill="#000000">B♭</text>
</g>
<!-- 14&#45;&#45;4 -->
<g id="edge43" class="edge">
<title>14&#45;&#45;4</title>
<path fill="none" stroke="#000000" d="M213.4804,-383.5504C215.1531,-371.2079 217.3708,-354.8445 219.0484,-342.4653"/>
</g>
<!-- 14&#45;&#45;12 -->
<g id="edge44" class="edge">
<title>14&#45;&#45;12</title>
<path fill="none" stroke="#000000" d="M227.7527,-394.5282C239.2127,-389.8118 254.3793,-383.5699 265.9261,-378.8177"/>
</g>
<!-- 28 -->
<g id="node29" class="node">
<title>28</title>
<ellipse fill="none" stroke="#000000" cx="272.3026" cy="-447.5175" rx="18" ry="18"/>
<text text-anchor="middle" x="272.3026" y="-445.0175" font-family="century schoolbook" font-size="10.00" fill="#000000">G♮</text>
</g>
<!-- 14&#45;&#45;28 -->
<g id="edge45" class="edge">
<title>14&#45;&#45;28</title>
<path fill="none" stroke="#000000" d="M225.5749,-412.3273C235.3372,-419.6792 248.153,-429.3307 257.8935,-436.6661"/>
</g>
<!-- 15 -->
<g id="node16" class="node">
<title>15</title>
<ellipse fill="none" stroke="#000000" cx="149.574" cy="-353.7123" rx="18" ry="18"/>
<text text-anchor="middle" x="149.574" y="-351.2123" font-family="century schoolbook" font-size="10.00" fill="#000000">C♯</text>
</g>
<!-- 15&#45;&#45;4 -->
<g id="edge46" class="edge">
<title>15&#45;&#45;4</title>
<path fill="none" stroke="#000000" d="M166.2538,-346.9251C177.706,-342.265 192.8624,-336.0976 204.4015,-331.4022"/>
</g>
<!-- 15&#45;&#45;6 -->
<g id="edge47" class="edge">
<title>15&#45;&#45;6</title>
<path fill="none" stroke="#000000" d="M151.9412,-335.8603C153.5782,-323.5144 155.7486,-307.1464 157.3905,-294.7638"/>
</g>
<!-- 15&#45;&#45;14 -->
<g id="edge48" class="edge">
<title>15&#45;&#45;14</title>
<path fill="none" stroke="#000000" d="M163.8351,-364.7721C173.6266,-372.3657 186.5852,-382.4154 196.451,-390.0665"/>
</g>
<!-- 16 -->
<g id="node17" class="node">
<title>16</title>
<ellipse fill="none" stroke="#000000" cx="108.7789" cy="-151.9743" rx="18" ry="18"/>
<text text-anchor="middle" x="108.7789" y="-149.4743" font-family="century schoolbook" font-size="10.00" fill="#000000">F♯</text>
</g>
<!-- 16&#45;&#45;5 -->
<g id="edge49" class="edge">
<title>16&#45;&#45;5</title>
<path fill="none" stroke="#000000" d="M123.0318,-162.9831C132.8177,-170.5417 145.7688,-180.545 155.629,-188.1609"/>
</g>
<!-- 16&#45;&#45;9 -->
<g id="edge50" class="edge">
<title>16&#45;&#45;9</title>
<path fill="none" stroke="#000000" d="M125.4896,-145.1449C137.0461,-140.4218 152.3676,-134.1601 163.9585,-129.423"/>
</g>
<!-- 23 -->
<g id="node24" class="node">
<title>23</title>
<ellipse fill="none" stroke="#000000" cx="120.0097" cy="-76.131" rx="18" ry="18"/>
<text text-anchor="middle" x="120.0097" y="-73.631" font-family="century schoolbook" font-size="10.00" fill="#000000">C♯</text>
</g>
<!-- 16&#45;&#45;23 -->
<g id="edge51" class="edge">
<title>16&#45;&#45;23</title>
<path fill="none" stroke="#000000" d="M111.4405,-134.0005C113.2307,-121.9105 115.581,-106.0388 117.3673,-93.9758"/>
</g>
<!-- 17 -->
<g id="node18" class="node">
<title>17</title>
<ellipse fill="none" stroke="#000000" cx="98.4732" cy="-229.1084" rx="18" ry="18"/>
<text text-anchor="middle" x="98.4732" y="-226.6084" font-family="century schoolbook" font-size="10.00" fill="#000000">B♮</text>
</g>
<!-- 17&#45;&#45;5 -->
<g id="edge52" class="edge">
<title>17&#45;&#45;5</title>
<path fill="none" stroke="#000000" d="M115.1163,-222.2272C126.5434,-217.5026 141.6664,-211.2499 153.1801,-206.4895"/>
</g>
<!-- 17&#45;&#45;6 -->
<g id="edge53" class="edge">
<title>17&#45;&#45;6</title>
<path fill="none" stroke="#000000" d="M112.6924,-240.1563C122.4552,-247.7416 135.3756,-257.7804 145.2124,-265.4233"/>
</g>
<!-- 17&#45;&#45;16 -->
<g id="edge54" class="edge">
<title>17&#45;&#45;16</title>
<path fill="none" stroke="#000000" d="M100.8635,-211.2184C102.5165,-198.8463 104.708,-182.4434 106.366,-170.0345"/>
</g>
<!-- 18 -->
<g id="node19" class="node">
<title>18</title>
<ellipse fill="none" stroke="#000000" cx="87.9391" cy="-306.2143" rx="18" ry="18"/>
<text text-anchor="middle" x="87.9391" y="-303.7143" font-family="century schoolbook" font-size="10.00" fill="#000000">E♮</text>
</g>
<!-- 18&#45;&#45;6 -->
<g id="edge55" class="edge">
<title>18&#45;&#45;6</title>
<path fill="none" stroke="#000000" d="M104.6014,-299.3787C116.0417,-294.6854 131.1823,-288.4741 142.7093,-283.7452"/>
</g>
<!-- 18&#45;&#45;15 -->
<g id="edge56" class="edge">
<title>18&#45;&#45;15</title>
<path fill="none" stroke="#000000" d="M102.2343,-317.2307C112.0493,-324.7945 125.0389,-334.8047 134.9283,-342.4259"/>
</g>
<!-- 18&#45;&#45;17 -->
<g id="edge57" class="edge">
<title>18&#45;&#45;17</title>
<path fill="none" stroke="#000000" d="M90.3823,-288.3309C92.072,-275.9632 94.3121,-259.5664 96.0068,-247.162"/>
</g>
<!-- 19&#45;&#45;20 -->
<g id="edge58" class="edge">
<title>19&#45;&#45;20</title>
<path fill="none" stroke="#000000" d="M277.4172,-29.0757C287.1761,-36.5257 299.9874,-46.306 309.7245,-53.7394"/>
</g>
<!-- 20&#45;&#45;22 -->
<g id="edge59" class="edge">
<title>20&#45;&#45;22</title>
<path fill="none" stroke="#000000" d="M338.6171,-75.9356C348.3628,-83.4693 361.1568,-93.3594 370.8807,-100.8762"/>
</g>
<!-- 21&#45;&#45;7 -->
<g id="edge60" class="edge">
<title>21&#45;&#45;7</title>
<path fill="none" stroke="#000000" d="M206.0232,-57.7293C215.7959,-65.0769 228.6255,-74.7228 238.3764,-82.054"/>
</g>
<!-- 21&#45;&#45;19 -->
<g id="edge61" class="edge">
<title>21&#45;&#45;19</title>
<path fill="none" stroke="#000000" d="M208.4187,-39.9793C219.8027,-35.3874 234.7476,-29.3592 246.1062,-24.7776"/>
</g>
<!-- 22&#45;&#45;29 -->
<g id="edge62" class="edge">
<title>22&#45;&#45;29</title>
<path fill="none" stroke="#000000" d="M399.6375,-123.2453C409.3049,-130.8121 421.9962,-140.7459 431.642,-148.2958"/>
</g>
<!-- 23&#45;&#45;9 -->
<g id="edge63" class="edge">
<title>23&#45;&#45;9</title>
<path fill="none" stroke="#000000" d="M134.4228,-87.1266C143.9772,-94.4155 156.4769,-103.9513 166.096,-111.2896"/>
</g>
<!-- 23&#45;&#45;21 -->
<g id="edge64" class="edge">
<title>23&#45;&#45;21</title>
<path fill="none" stroke="#000000" d="M136.9506,-69.1814C148.3458,-64.5067 163.3054,-58.3698 174.6751,-53.7056"/>
</g>
<!-- 24&#45;&#45;25 -->
<g id="edge65" class="edge">
<title>24&#45;&#45;25</title>
<path fill="none" stroke="#000000" d="M417.403,-370.5649C419.1237,-358.4102 421.3826,-342.4536 423.0994,-330.3261"/>
</g>
<!-- 25&#45;&#45;27 -->
<g id="edge66" class="edge">
<title>25&#45;&#45;27</title>
<path fill="none" stroke="#000000" d="M428.0982,-294.2422C429.7522,-282.0379 431.9236,-266.0162 433.5739,-253.8392"/>
</g>
<!-- 26&#45;&#45;10 -->
<g id="edge67" class="edge">
<title>26&#45;&#45;10</title>
<path fill="none" stroke="#000000" d="M346.4529,-400.2497C348.254,-388.1576 350.6185,-372.2833 352.4156,-360.2182"/>
</g>
<!-- 26&#45;&#45;24 -->
<g id="edge68" class="edge">
<title>26&#45;&#45;24</title>
<path fill="none" stroke="#000000" d="M360.6177,-411.2137C371.9468,-406.4966 386.8195,-400.3039 398.1233,-395.5973"/>
</g>
<!-- 27&#45;&#45;29 -->
<g id="edge69" class="edge">
<title>27&#45;&#45;29</title>
<path fill="none" stroke="#000000" d="M438.3604,-217.7292C439.9379,-205.5566 442.0088,-189.5765 443.5827,-177.4311"/>
</g>
<!-- 28&#45;&#45;12 -->
<g id="edge70" class="edge">
<title>28&#45;&#45;12</title>
<path fill="none" stroke="#000000" d="M274.844,-429.5688C276.541,-417.5831 278.7651,-401.8756 280.4661,-389.8624"/>
</g>
<!-- 28&#45;&#45;26 -->
<g id="edge71" class="edge">
<title>28&#45;&#45;26</title>
<path fill="none" stroke="#000000" d="M289.2406,-440.5759C300.6339,-435.9067 315.5909,-429.777 326.9588,-425.1182"/>
</g>
<!-- 30 -->
<g id="node31" class="node">
<title>30</title>
<ellipse fill="none" stroke="#000000" cx="200.8957" cy="-476.3097" rx="18" ry="18"/>
<text text-anchor="middle" x="200.8957" y="-473.8097" font-family="century schoolbook" font-size="10.00" fill="#000000">E♭</text>
</g>
<!-- 30&#45;&#45;14 -->
<g id="edge72" class="edge">
<title>30&#45;&#45;14</title>
<path fill="none" stroke="#000000" d="M203.3566,-458.1755C204.955,-446.3975 207.0296,-431.1093 208.6234,-419.3646"/>
</g>
<!-- 30&#45;&#45;28 -->
<g id="edge73" class="edge">
<title>30&#45;&#45;28</title>
<path fill="none" stroke="#000000" d="M217.8182,-469.4863C229.201,-464.8966 244.1442,-458.8713 255.5016,-454.2919"/>
</g>
<!-- 31 -->
<g id="node32" class="node">
<title>31</title>
<ellipse fill="none" stroke="#000000" cx="139.7421" cy="-429.5638" rx="18" ry="18"/>
<text text-anchor="middle" x="139.7421" y="-427.0638" font-family="century schoolbook" font-size="10.00" fill="#000000">F♯</text>
</g>
<!-- 31&#45;&#45;14 -->
<g id="edge74" class="edge">
<title>31&#45;&#45;14</title>
<path fill="none" stroke="#000000" d="M156.6439,-422.8888C168.0128,-418.3988 182.9378,-412.5045 194.2813,-408.0246"/>
</g>
<!-- 31&#45;&#45;15 -->
<g id="edge75" class="edge">
<title>31&#45;&#45;15</title>
<path fill="none" stroke="#000000" d="M142.0721,-411.5881C143.6281,-399.5844 145.6671,-383.8532 147.2266,-371.8219"/>
</g>
<!-- 31&#45;&#45;30 -->
<g id="edge76" class="edge">
<title>31&#45;&#45;30</title>
<path fill="none" stroke="#000000" d="M154.2347,-440.6419C163.9831,-448.0936 176.7806,-457.8761 186.5072,-465.3111"/>
</g>
<!-- 32 -->
<g id="node33" class="node">
<title>32</title>
<ellipse fill="none" stroke="#000000" cx="78.6437" cy="-382.3288" rx="18" ry="18"/>
<text text-anchor="middle" x="78.6437" y="-379.8288" font-family="century schoolbook" font-size="10.00" fill="#000000">A♮</text>
</g>
<!-- 32&#45;&#45;15 -->
<g id="edge77" class="edge">
<title>32&#45;&#45;15</title>
<path fill="none" stroke="#000000" d="M95.4532,-375.5471C106.5962,-371.0515 121.1741,-365.1702 132.3925,-360.6442"/>
</g>
<!-- 32&#45;&#45;18 -->
<g id="edge78" class="edge">
<title>32&#45;&#45;18</title>
<path fill="none" stroke="#000000" d="M80.8466,-364.2908C82.3284,-352.1575 84.2736,-336.2291 85.752,-324.1229"/>
</g>
<!-- 32&#45;&#45;31 -->
<g id="edge79" class="edge">
<title>32&#45;&#45;31</title>
<path fill="none" stroke="#000000" d="M93.1232,-393.5229C102.8628,-401.0525 115.6488,-410.9373 125.3666,-418.4502"/>
</g>
<!-- 33 -->
<g id="node34" class="node">
<title>33</title>
<ellipse fill="none" stroke="#000000" cx="48.9343" cy="-105.7863" rx="18" ry="18"/>
<text text-anchor="middle" x="48.9343" y="-103.2863" font-family="century schoolbook" font-size="10.00" fill="#000000">A♮</text>
</g>
<!-- 33&#45;&#45;16 -->
<g id="edge80" class="edge">
<title>33&#45;&#45;16</title>
<path fill="none" stroke="#000000" d="M63.4211,-116.9671C72.8301,-124.229 85.0433,-133.6551 94.4256,-140.8965"/>
</g>
<!-- 33&#45;&#45;23 -->
<g id="edge81" class="edge">
<title>33&#45;&#45;23</title>
<path fill="none" stroke="#000000" d="M65.7782,-98.7584C77.1082,-94.0311 91.9821,-87.8252 103.2867,-83.1085"/>
</g>
<!-- 34 -->
<g id="node35" class="node">
<title>34</title>
<ellipse fill="none" stroke="#000000" cx="38.2143" cy="-182.0165" rx="18" ry="18"/>
<text text-anchor="middle" x="38.2143" y="-179.5165" font-family="century schoolbook" font-size="10.00" fill="#000000">D♮</text>
</g>
<!-- 34&#45;&#45;16 -->
<g id="edge82" class="edge">
<title>34&#45;&#45;16</title>
<path fill="none" stroke="#000000" d="M54.9371,-174.8969C66.1857,-170.108 80.9527,-163.8211 92.1761,-159.0428"/>
</g>
<!-- 34&#45;&#45;17 -->
<g id="edge83" class="edge">
<title>34&#45;&#45;17</title>
<path fill="none" stroke="#000000" d="M52.4948,-193.1767C61.9613,-200.5747 74.346,-210.2532 83.8766,-217.7013"/>
</g>
<!-- 34&#45;&#45;33 -->
<g id="edge84" class="edge">
<title>34&#45;&#45;33</title>
<path fill="none" stroke="#000000" d="M40.7548,-163.951C42.4636,-151.7993 44.707,-135.8467 46.4121,-123.7221"/>
</g>
<!-- 35 -->
<g id="node36" class="node">
<title>35</title>
<ellipse fill="none" stroke="#000000" cx="27.8771" cy="-258.5614" rx="18" ry="18"/>
<text text-anchor="middle" x="27.8771" y="-256.0614" font-family="century schoolbook" font-size="10.00" fill="#000000">G♮</text>
</g>
<!-- 35&#45;&#45;17 -->
<g id="edge85" class="edge">
<title>35&#45;&#45;17</title>
<path fill="none" stroke="#000000" d="M44.6074,-251.5815C55.6979,-246.9545 70.2071,-240.9012 81.3726,-236.2429"/>
</g>
<!-- 35&#45;&#45;18 -->
<g id="edge86" class="edge">
<title>35&#45;&#45;18</title>
<path fill="none" stroke="#000000" d="M42.111,-269.8545C51.6853,-277.4508 64.2544,-287.423 73.8074,-295.0023"/>
</g>
<!-- 35&#45;&#45;34 -->
<g id="edge87" class="edge">
<title>35&#45;&#45;34</title>
<path fill="none" stroke="#000000" d="M30.3269,-240.4214C31.9747,-228.2195 34.1379,-212.201 35.7821,-200.0264"/>
</g>
<!-- 36 -->
<g id="node37" class="node">
<title>36</title>
<ellipse fill="none" stroke="#000000" cx="18" cy="-334.9165" rx="18" ry="18"/>
<text text-anchor="middle" x="18" y="-332.4165" font-family="century schoolbook" font-size="10.00" fill="#000000">C♮</text>
</g>
<!-- 36&#45;&#45;18 -->
<g id="edge88" class="edge">
<title>36&#45;&#45;18</title>
<path fill="none" stroke="#000000" d="M34.9303,-327.9685C45.9265,-323.4558 60.1997,-317.5982 71.1647,-313.0983"/>
</g>
<!-- 36&#45;&#45;32 -->
<g id="edge89" class="edge">
<title>36&#45;&#45;32</title>
<path fill="none" stroke="#000000" d="M32.3717,-346.1526C42.0388,-353.7105 54.7297,-363.6324 64.3752,-371.1734"/>
</g>
<!-- 36&#45;&#45;35 -->
<g id="edge90" class="edge">
<title>36&#45;&#45;35</title>
<path fill="none" stroke="#000000" d="M20.3407,-316.8214C21.9152,-304.6498 23.9822,-288.671 25.5532,-276.5266"/>
</g>
</g>
</svg>
