<?xml version="1.0" encoding="UTF-8" standalone="no"?>
<!DOCTYPE svg PUBLIC "-//W3C//DTD SVG 1.1//EN"
 "http://www.w3.org/Graphics/SVG/1.1/DTD/svg11.dtd">
<!-- Generated by graphviz version 2.40.1 (20161225.0304)
 -->
<!-- Title: g Pages: 1 -->
<svg width="837pt" height="697pt"
 viewBox="0.00 0.00 836.59 696.99" xmlns="http://www.w3.org/2000/svg" xmlns:xlink="http://www.w3.org/1999/xlink">
<g id="graph0" class="graph" transform="scale(1 1) rotate(0) translate(4 692.9941)">
<title>g</title>
<polygon fill="#ffffff" stroke="transparent" points="-4,4 -4,-692.9941 832.5904,-692.9941 832.5904,4 -4,4"/>
<!-- 0 -->
<g id="node1" class="node">
<title>0</title>
<text text-anchor="middle" x="88.6873" y="-245.0599" font-family="century schoolbook" font-size="10.00" fill="#000000">T0</text>
</g>
<!-- 1 -->
<g id="node2" class="node">
<title>1</title>
<text text-anchor="middle" x="176.6903" y="-116.912" font-family="century schoolbook" font-size="10.00" fill="#000000">T11I</text>
</g>
<!-- 0&#45;&#45;1 -->
<g id="edge1" class="edge">
<title>0&#45;&#45;1</title>
<path fill="none" stroke="#000000" d="M101.1093,-229.4712C117.7868,-205.1859 147.2565,-162.2727 164.0465,-137.8236"/>
</g>
<!-- 2 -->
<g id="node3" class="node">
<title>2</title>
<text text-anchor="middle" x="47.7412" y="-68.5316" font-family="century schoolbook" font-size="10.00" fill="#000000">T5I</text>
</g>
<!-- 0&#45;&#45;2 -->
<g id="edge2" class="edge">
<title>0&#45;&#45;2</title>
<path fill="none" stroke="#000000" d="M84.4596,-229.3331C76.5929,-195.418 59.7952,-122.9991 51.9459,-89.1592"/>
</g>
<!-- 3 -->
<g id="node4" class="node">
<title>3</title>
<text text-anchor="middle" x="213.9312" y="-381.2978" font-family="century schoolbook" font-size="10.00" fill="#000000">T9I</text>
</g>
<!-- 0&#45;&#45;3 -->
<g id="edge3" class="edge">
<title>0&#45;&#45;3</title>
<path fill="none" stroke="#000000" d="M105.3187,-265.6512C129.2734,-291.7086 173.2382,-339.5326 197.231,-365.6316"/>
</g>
<!-- 17 -->
<g id="node18" class="node">
<title>17</title>
<text text-anchor="middle" x="392.9582" y="-73.0765" font-family="century schoolbook" font-size="10.00" fill="#000000">T2</text>
</g>
<!-- 1&#45;&#45;17 -->
<g id="edge4" class="edge">
<title>1&#45;&#45;17</title>
<path fill="none" stroke="#000000" d="M204.0808,-113.8602C245.6809,-105.4283 324.3225,-89.4883 365.7901,-81.0833"/>
</g>
<!-- 18 -->
<g id="node19" class="node">
<title>18</title>
<text text-anchor="middle" x="27" y="-190.7628" font-family="century schoolbook" font-size="10.00" fill="#000000">T6</text>
</g>
<!-- 1&#45;&#45;18 -->
<g id="edge5" class="edge">
<title>1&#45;&#45;18</title>
<path fill="none" stroke="#000000" d="M149.5825,-132.7858C122.5379,-146.1285 81.2211,-166.5124 54.1586,-179.8639"/>
</g>
<!-- 2&#45;&#45;18 -->
<g id="edge6" class="edge">
<title>2&#45;&#45;18</title>
<path fill="none" stroke="#000000" d="M44.6808,-89.0672C40.7593,-112.177 34.0005,-152.0077 30.073,-175.1531"/>
</g>
<!-- 21 -->
<g id="node22" class="node">
<title>21</title>
<text text-anchor="middle" x="214.3776" y="-15.5" font-family="century schoolbook" font-size="10.00" fill="#000000">T8</text>
</g>
<!-- 2&#45;&#45;21 -->
<g id="edge7" class="edge">
<title>2&#45;&#45;21</title>
<path fill="none" stroke="#000000" d="M74.8851,-62.3931C105.8721,-52.5316 156.2631,-36.4948 187.2453,-26.6348"/>
</g>
<!-- 4 -->
<g id="node5" class="node">
<title>4</title>
<text text-anchor="middle" x="450" y="-527.2304" font-family="century schoolbook" font-size="10.00" fill="#000000">T0I</text>
</g>
<!-- 5 -->
<g id="node6" class="node">
<title>5</title>
<text text-anchor="middle" x="651.0955" y="-650.4735" font-family="century schoolbook" font-size="10.00" fill="#000000">T1</text>
</g>
<!-- 4&#45;&#45;5 -->
<g id="edge8" class="edge">
<title>4&#45;&#45;5</title>
<path fill="none" stroke="#000000" d="M477.1206,-546.3515C515.6083,-569.939 585.6564,-612.8686 624.0842,-636.4194"/>
</g>
<!-- 6 -->
<g id="node7" class="node">
<title>6</title>
<text text-anchor="middle" x="454.8223" y="-351.1035" font-family="century schoolbook" font-size="10.00" fill="#000000">T3</text>
</g>
<!-- 4&#45;&#45;6 -->
<g id="edge9" class="edge">
<title>4&#45;&#45;6</title>
<path fill="none" stroke="#000000" d="M450.4979,-511.5451C451.4244,-477.7071 453.4027,-405.4528 454.3271,-371.6899"/>
</g>
<!-- 7 -->
<g id="node8" class="node">
<title>7</title>
<text text-anchor="middle" x="466.7044" y="-634.7548" font-family="century schoolbook" font-size="10.00" fill="#000000">T7</text>
</g>
<!-- 4&#45;&#45;7 -->
<g id="edge10" class="edge">
<title>4&#45;&#45;7</title>
<path fill="none" stroke="#000000" d="M452.8337,-547.9705C455.9054,-567.7429 460.7796,-599.1179 463.8568,-618.9253"/>
</g>
<!-- 8 -->
<g id="node9" class="node">
<title>8</title>
<text text-anchor="middle" x="801.5904" y="-561.3151" font-family="century schoolbook" font-size="10.00" fill="#000000">T10I</text>
</g>
<!-- 5&#45;&#45;8 -->
<g id="edge11" class="edge">
<title>5&#45;&#45;8</title>
<path fill="none" stroke="#000000" d="M678.349,-636.8276C705.6237,-620.6691 747.3368,-595.9568 774.5397,-579.8409"/>
</g>
<!-- 9 -->
<g id="node10" class="node">
<title>9</title>
<text text-anchor="middle" x="545.7832" y="-668.4941" font-family="century schoolbook" font-size="10.00" fill="#000000">T6I</text>
</g>
<!-- 5&#45;&#45;9 -->
<g id="edge12" class="edge">
<title>5&#45;&#45;9</title>
<path fill="none" stroke="#000000" d="M623.975,-657.6143C608.2514,-660.3048 588.5197,-663.6812 572.8118,-666.3691"/>
</g>
<!-- 16 -->
<g id="node17" class="node">
<title>16</title>
<text text-anchor="middle" x="567.0116" y="-297.5" font-family="century schoolbook" font-size="10.00" fill="#000000">T8I</text>
</g>
<!-- 6&#45;&#45;16 -->
<g id="edge13" class="edge">
<title>6&#45;&#45;16</title>
<path fill="none" stroke="#000000" d="M481.9802,-340.6276C499.4894,-332.2618 522.1784,-321.4211 539.7149,-313.0422"/>
</g>
<!-- 13 -->
<g id="node14" class="node">
<title>13</title>
<text text-anchor="middle" x="721.0816" y="-399.0228" font-family="century schoolbook" font-size="10.00" fill="#000000">T11</text>
</g>
<!-- 8&#45;&#45;13 -->
<g id="edge14" class="edge">
<title>8&#45;&#45;13</title>
<path fill="none" stroke="#000000" d="M792.5115,-545.5136C777.0492,-514.3441 745.7745,-451.2996 730.2509,-420.0065"/>
</g>
<!-- 14 -->
<g id="node15" class="node">
<title>14</title>
<text text-anchor="middle" x="794.2432" y="-437.0952" font-family="century schoolbook" font-size="10.00" fill="#000000">T5</text>
</g>
<!-- 8&#45;&#45;14 -->
<g id="edge15" class="edge">
<title>8&#45;&#45;14</title>
<path fill="none" stroke="#000000" d="M800.5221,-545.7524C799.1291,-522.2012 796.7064,-481.2416 795.3128,-457.6797"/>
</g>
<!-- 9&#45;&#45;7 -->
<g id="edge16" class="edge">
<title>9&#45;&#45;7</title>
<path fill="none" stroke="#000000" d="M518.5687,-659.3829C510.6162,-655.99 501.9246,-652.2817 493.969,-648.8874"/>
</g>
<!-- 23 -->
<g id="node24" class="node">
<title>23</title>
<text text-anchor="middle" x="531.8254" y="-455.4859" font-family="century schoolbook" font-size="10.00" fill="#000000">T9</text>
</g>
<!-- 9&#45;&#45;23 -->
<g id="edge17" class="edge">
<title>9&#45;&#45;23</title>
<path fill="none" stroke="#000000" d="M544.5931,-652.8331C541.9561,-612.5899 535.6466,-516.3014 533.0124,-476.1009"/>
</g>
<!-- 10 -->
<g id="node11" class="node">
<title>10</title>
<text text-anchor="middle" x="336.1052" y="-353.46" font-family="century schoolbook" font-size="10.00" fill="#000000">T10</text>
</g>
<!-- 10&#45;&#45;3 -->
<g id="edge18" class="edge">
<title>10&#45;&#45;3</title>
<path fill="none" stroke="#000000" d="M308.9908,-362.1381C288.7445,-366.7513 261.1979,-373.0279 240.9698,-377.6369"/>
</g>
<!-- 11 -->
<g id="node12" class="node">
<title>11</title>
<text text-anchor="middle" x="155.4348" y="-321.6463" font-family="century schoolbook" font-size="10.00" fill="#000000">T3I</text>
</g>
<!-- 10&#45;&#45;11 -->
<g id="edge19" class="edge">
<title>10&#45;&#45;11</title>
<path fill="none" stroke="#000000" d="M309.057,-351.1972C274.997,-345.1996 216.815,-334.9545 182.6679,-328.9417"/>
</g>
<!-- 12 -->
<g id="node13" class="node">
<title>12</title>
<text text-anchor="middle" x="381.1254" y="-182.3256" font-family="century schoolbook" font-size="10.00" fill="#000000">T7I</text>
</g>
<!-- 10&#45;&#45;12 -->
<g id="edge20" class="edge">
<title>10&#45;&#45;12</title>
<path fill="none" stroke="#000000" d="M340.9232,-337.6456C349.5883,-304.7071 367.7022,-235.8509 376.3421,-203.0083"/>
</g>
<!-- 11&#45;&#45;18 -->
<g id="edge21" class="edge">
<title>11&#45;&#45;18</title>
<path fill="none" stroke="#000000" d="M137.5765,-305.9475C113.0386,-280.9418 69.1645,-236.2312 44.7066,-211.307"/>
</g>
<!-- 20 -->
<g id="node21" class="node">
<title>20</title>
<text text-anchor="middle" x="285.947" y="-237.3841" font-family="century schoolbook" font-size="10.00" fill="#000000">T4</text>
</g>
<!-- 11&#45;&#45;20 -->
<g id="edge22" class="edge">
<title>11&#45;&#45;20</title>
<path fill="none" stroke="#000000" d="M182.477,-306.6871C204.8761,-292.2256 236.5499,-271.7762 258.9394,-257.3209"/>
</g>
<!-- 12&#45;&#45;21 -->
<g id="edge23" class="edge">
<title>12&#45;&#45;21</title>
<path fill="none" stroke="#000000" d="M362.963,-166.6548C330.8876,-134.5644 264.577,-68.2229 232.5176,-36.1484"/>
</g>
<!-- 15 -->
<g id="node16" class="node">
<title>15</title>
<text text-anchor="middle" x="666.2646" y="-543.9398" font-family="century schoolbook" font-size="10.00" fill="#000000">T4I</text>
</g>
<!-- 13&#45;&#45;15 -->
<g id="edge24" class="edge">
<title>13&#45;&#45;15</title>
<path fill="none" stroke="#000000" d="M714.2498,-419.5837C703.7454,-447.3536 683.7385,-500.2449 673.1824,-528.1514"/>
</g>
<!-- 13&#45;&#45;16 -->
<g id="edge25" class="edge">
<title>13&#45;&#45;16</title>
<path fill="none" stroke="#000000" d="M693.8917,-383.6063C665.8157,-365.1059 622.2596,-336.4051 594.1884,-317.9079"/>
</g>
<!-- 15&#45;&#45;7 -->
<g id="edge26" class="edge">
<title>15&#45;&#45;7</title>
<path fill="none" stroke="#000000" d="M638.935,-558.8768C600.8263,-576.2192 532.1264,-607.4828 494.0233,-624.8226"/>
</g>
<!-- 15&#45;&#45;14 -->
<g id="edge27" class="edge">
<title>15&#45;&#45;14</title>
<path fill="none" stroke="#000000" d="M687.9744,-528.3151C711.5081,-508.6677 748.8516,-477.491 772.4269,-457.8089"/>
</g>
<!-- 16&#45;&#45;23 -->
<g id="edge28" class="edge">
<title>16&#45;&#45;23</title>
<path fill="none" stroke="#000000" d="M562.9753,-318.123C556.2241,-348.4358 542.7149,-409.0922 535.923,-439.5876"/>
</g>
<!-- 17&#45;&#45;12 -->
<g id="edge29" class="edge">
<title>17&#45;&#45;12</title>
<path fill="none" stroke="#000000" d="M391.0042,-93.6168C388.8118,-113.8589 385.2758,-146.5055 383.0822,-166.7586"/>
</g>
<!-- 19 -->
<g id="node20" class="node">
<title>19</title>
<text text-anchor="middle" x="319.8511" y="-29.158" font-family="century schoolbook" font-size="10.00" fill="#000000">T1I</text>
</g>
<!-- 19&#45;&#45;17 -->
<g id="edge30" class="edge">
<title>19&#45;&#45;17</title>
<path fill="none" stroke="#000000" d="M347.0735,-48.0116C353.2441,-51.7186 359.795,-55.654 365.9565,-59.3555"/>
</g>
<!-- 19&#45;&#45;20 -->
<g id="edge31" class="edge">
<title>19&#45;&#45;20</title>
<path fill="none" stroke="#000000" d="M316.9016,-49.7724C310.4896,-89.1528 295.3415,-182.1865 288.9138,-221.6632"/>
</g>
<!-- 19&#45;&#45;21 -->
<g id="edge32" class="edge">
<title>19&#45;&#45;21</title>
<path fill="none" stroke="#000000" d="M292.689,-28.1407C276.9414,-26.1015 257.1795,-23.5425 241.4476,-21.5054"/>
</g>
<!-- 20&#45;&#45;3 -->
<g id="edge33" class="edge">
<title>20&#45;&#45;3</title>
<path fill="none" stroke="#000000" d="M276.8261,-258.1108C262.9736,-285.7933 236.7865,-338.1247 222.978,-365.719"/>
</g>
<!-- 22 -->
<g id="node23" class="node">
<title>22</title>
<text text-anchor="middle" x="637.9961" y="-340.989" font-family="century schoolbook" font-size="10.00" fill="#000000">T2I</text>
</g>
<!-- 22&#45;&#45;6 -->
<g id="edge34" class="edge">
<title>22&#45;&#45;6</title>
<path fill="none" stroke="#000000" d="M610.9682,-344.9814C576.3361,-346.8937 516.6465,-350.1897 481.9611,-352.105"/>
</g>
<!-- 22&#45;&#45;14 -->
<g id="edge35" class="edge">
<title>22&#45;&#45;14</title>
<path fill="none" stroke="#000000" d="M665.2123,-360.2294C693.803,-377.8153 738.5054,-405.3114 767.0772,-422.8857"/>
</g>
<!-- 22&#45;&#45;23 -->
<g id="edge36" class="edge">
<title>22&#45;&#45;23</title>
<path fill="none" stroke="#000000" d="M621.1731,-361.6313C601.2928,-383.0706 568.4156,-418.5262 548.5698,-439.9284"/>
</g>
</g>
</svg>
