<?xml version="1.0" encoding="UTF-8" standalone="no"?>
<!DOCTYPE svg PUBLIC "-//W3C//DTD SVG 1.1//EN"
 "http://www.w3.org/Graphics/SVG/1.1/DTD/svg11.dtd">
<!-- Generated by graphviz version 2.40.1 (20161225.0304)
 -->
<!-- Title: g Pages: 1 -->
<svg width="1095pt" height="800pt"
 viewBox="0.00 0.00 1094.50 800.17" xmlns="http://www.w3.org/2000/svg" xmlns:xlink="http://www.w3.org/1999/xlink">
<g id="graph0" class="graph" transform="scale(1 1) rotate(0) translate(4 796.1692)">
<title>g</title>
<polygon fill="#ffffff" stroke="transparent" points="-4,4 -4,-796.1692 1090.5006,-796.1692 1090.5006,4 -4,4"/>
<!-- 0 -->
<g id="node1" class="node">
<title>0</title>
<polygon fill="none" stroke="#000000" points="692.3336,-36 638.3336,-36 638.3336,0 692.3336,0 692.3336,-36"/>
<text text-anchor="middle" x="665.3336" y="-15.5" font-family="century schoolbook" font-size="10.00" fill="#000000">0,2,5</text>
</g>
<!-- 1 -->
<g id="node2" class="node">
<title>1</title>
<polygon fill="none" stroke="#000000" points="813.6694,-52.8209 759.6694,-52.8209 759.6694,-16.8209 813.6694,-16.8209 813.6694,-52.8209"/>
<text text-anchor="middle" x="786.6694" y="-32.3209" font-family="century schoolbook" font-size="10.00" fill="#000000">0,2,9</text>
</g>
<!-- 0&#45;&#45;1 -->
<g id="edge1" class="edge">
<title>0&#45;&#45;1</title>
<path fill="none" stroke="#000000" d="M692.5637,-21.7749C712.5468,-24.5452 739.5685,-28.2913 759.5302,-31.0586"/>
</g>
<!-- 2 -->
<g id="node3" class="node">
<title>2</title>
<polygon fill="none" stroke="#000000" points="615.941,-130.7331 561.941,-130.7331 561.941,-94.7331 615.941,-94.7331 615.941,-130.7331"/>
<text text-anchor="middle" x="588.941" y="-110.2331" font-family="century schoolbook" font-size="10.00" fill="#000000">0,3,5</text>
</g>
<!-- 0&#45;&#45;2 -->
<g id="edge2" class="edge">
<title>0&#45;&#45;2</title>
<path fill="none" stroke="#000000" d="M650.6044,-36.2655C637.077,-53.0406 617.1381,-77.7663 603.625,-94.5237"/>
</g>
<!-- 17 -->
<g id="node18" class="node">
<title>17</title>
<polygon fill="none" stroke="#000000" points="856.9814,-174.3087 802.9814,-174.3087 802.9814,-138.3087 856.9814,-138.3087 856.9814,-174.3087"/>
<text text-anchor="middle" x="829.9814" y="-153.8087" font-family="century schoolbook" font-size="10.00" fill="#000000">0,7,9</text>
</g>
<!-- 1&#45;&#45;17 -->
<g id="edge3" class="edge">
<title>1&#45;&#45;17</title>
<path fill="none" stroke="#000000" d="M793.1536,-53.0089C801.3188,-75.9118 815.2668,-115.035 823.4528,-137.9964"/>
</g>
<!-- 22 -->
<g id="node23" class="node">
<title>22</title>
<polygon fill="none" stroke="#000000" points="643.4785,-254.1594 589.4785,-254.1594 589.4785,-218.1594 643.4785,-218.1594 643.4785,-254.1594"/>
<text text-anchor="middle" x="616.4785" y="-233.6594" font-family="century schoolbook" font-size="10.00" fill="#000000">0,3,10</text>
</g>
<!-- 2&#45;&#45;22 -->
<g id="edge4" class="edge">
<title>2&#45;&#45;22</title>
<path fill="none" stroke="#000000" d="M593.0042,-130.9451C598.2107,-154.2808 607.1841,-194.5009 612.3986,-217.8727"/>
</g>
<!-- 3 -->
<g id="node4" class="node">
<title>3</title>
<polygon fill="none" stroke="#000000" points="432.3462,-341.7458 378.3462,-341.7458 378.3462,-305.7458 432.3462,-305.7458 432.3462,-341.7458"/>
<text text-anchor="middle" x="405.3462" y="-321.2458" font-family="century schoolbook" font-size="10.00" fill="#000000">1,3,6</text>
</g>
<!-- 4 -->
<g id="node5" class="node">
<title>4</title>
<polygon fill="none" stroke="#000000" points="558.3029,-349.4188 504.3029,-349.4188 504.3029,-313.4188 558.3029,-313.4188 558.3029,-349.4188"/>
<text text-anchor="middle" x="531.3029" y="-328.9188" font-family="century schoolbook" font-size="10.00" fill="#000000">1,3,10</text>
</g>
<!-- 3&#45;&#45;4 -->
<g id="edge5" class="edge">
<title>3&#45;&#45;4</title>
<path fill="none" stroke="#000000" d="M432.3671,-325.3918C453.4745,-326.6777 482.6857,-328.4571 503.8921,-329.749"/>
</g>
<!-- 5 -->
<g id="node6" class="node">
<title>5</title>
<polygon fill="none" stroke="#000000" points="349.649,-432.2187 295.649,-432.2187 295.649,-396.2187 349.649,-396.2187 349.649,-432.2187"/>
<text text-anchor="middle" x="322.649" y="-411.7187" font-family="century schoolbook" font-size="10.00" fill="#000000">1,4,6</text>
</g>
<!-- 3&#45;&#45;5 -->
<g id="edge6" class="edge">
<title>3&#45;&#45;5</title>
<path fill="none" stroke="#000000" d="M388.6112,-342.0543C374.2636,-357.751 353.6995,-380.2486 339.3592,-395.9374"/>
</g>
<!-- 19 -->
<g id="node20" class="node">
<title>19</title>
<polygon fill="none" stroke="#000000" points="584.2829,-479.4535 530.2829,-479.4535 530.2829,-443.4535 584.2829,-443.4535 584.2829,-479.4535"/>
<text text-anchor="middle" x="557.2829" y="-458.9535" font-family="century schoolbook" font-size="10.00" fill="#000000">1,8,10</text>
</g>
<!-- 4&#45;&#45;19 -->
<g id="edge7" class="edge">
<title>4&#45;&#45;19</title>
<path fill="none" stroke="#000000" d="M534.9153,-349.4996C539.851,-374.2035 548.6542,-418.2653 553.6174,-443.1071"/>
</g>
<!-- 23 -->
<g id="node24" class="node">
<title>23</title>
<polygon fill="none" stroke="#000000" points="367.2996,-557.183 313.2996,-557.183 313.2996,-521.183 367.2996,-521.183 367.2996,-557.183"/>
<text text-anchor="middle" x="340.2996" y="-536.683" font-family="century schoolbook" font-size="10.00" fill="#000000">1,4,11</text>
</g>
<!-- 5&#45;&#45;23 -->
<g id="edge8" class="edge">
<title>5&#45;&#45;23</title>
<path fill="none" stroke="#000000" d="M325.2156,-432.3896C328.562,-456.082 334.382,-497.2871 337.73,-520.9902"/>
</g>
<!-- 6 -->
<g id="node7" class="node">
<title>6</title>
<polygon fill="none" stroke="#000000" points="164.2652,-663.058 110.2652,-663.058 110.2652,-627.058 164.2652,-627.058 164.2652,-663.058"/>
<text text-anchor="middle" x="137.2652" y="-642.558" font-family="century schoolbook" font-size="10.00" fill="#000000">2,4,7</text>
</g>
<!-- 7 -->
<g id="node8" class="node">
<title>7</title>
<polygon fill="none" stroke="#000000" points="284.352,-653.2305 230.352,-653.2305 230.352,-617.2305 284.352,-617.2305 284.352,-653.2305"/>
<text text-anchor="middle" x="257.352" y="-632.7305" font-family="century schoolbook" font-size="10.00" fill="#000000">2,4,11</text>
</g>
<!-- 6&#45;&#45;7 -->
<g id="edge9" class="edge">
<title>6&#45;&#45;7</title>
<path fill="none" stroke="#000000" d="M164.5147,-642.828C184.1677,-641.2197 210.5821,-639.058 230.2102,-637.4517"/>
</g>
<!-- 8 -->
<g id="node9" class="node">
<title>8</title>
<polygon fill="none" stroke="#000000" points="54,-688.2026 0,-688.2026 0,-652.2026 54,-652.2026 54,-688.2026"/>
<text text-anchor="middle" x="27" y="-667.7026" font-family="century schoolbook" font-size="10.00" fill="#000000">2,5,7</text>
</g>
<!-- 6&#45;&#45;8 -->
<g id="edge10" class="edge">
<title>6&#45;&#45;8</title>
<path fill="none" stroke="#000000" d="M110.0086,-651.2735C93.0445,-655.142 71.3021,-660.1 54.3252,-663.9714"/>
</g>
<!-- 21 -->
<g id="node22" class="node">
<title>21</title>
<polygon fill="none" stroke="#000000" points="326.9176,-774.9221 272.9176,-774.9221 272.9176,-738.9221 326.9176,-738.9221 326.9176,-774.9221"/>
<text text-anchor="middle" x="299.9176" y="-754.4221" font-family="century schoolbook" font-size="10.00" fill="#000000">2,9,11</text>
</g>
<!-- 7&#45;&#45;21 -->
<g id="edge11" class="edge">
<title>7&#45;&#45;21</title>
<path fill="none" stroke="#000000" d="M263.7245,-653.449C271.7489,-676.3903 285.4565,-715.5791 293.5015,-738.5791"/>
</g>
<!-- 9 -->
<g id="node10" class="node">
<title>9</title>
<polygon fill="none" stroke="#000000" points="774,-555.9587 720,-555.9587 720,-519.9587 774,-519.9587 774,-555.9587"/>
<text text-anchor="middle" x="747" y="-535.4587" font-family="century schoolbook" font-size="10.00" fill="#000000">3,5,8</text>
</g>
<!-- 10 -->
<g id="node11" class="node">
<title>10</title>
<polygon fill="none" stroke="#000000" points="880.8144,-540 826.8144,-540 826.8144,-504 880.8144,-504 880.8144,-540"/>
<text text-anchor="middle" x="853.8144" y="-519.5" font-family="century schoolbook" font-size="10.00" fill="#000000">3,6,8</text>
</g>
<!-- 9&#45;&#45;10 -->
<g id="edge12" class="edge">
<title>9&#45;&#45;10</title>
<path fill="none" stroke="#000000" d="M774.2302,-533.8903C790.3006,-531.4893 810.5722,-528.4606 826.634,-526.0609"/>
</g>
<!-- 11 -->
<g id="node12" class="node">
<title>11</title>
<polygon fill="none" stroke="#000000" points="1086.5006,-136.0338 1032.5006,-136.0338 1032.5006,-100.0338 1086.5006,-100.0338 1086.5006,-136.0338"/>
<text text-anchor="middle" x="1059.5006" y="-115.5338" font-family="century schoolbook" font-size="10.00" fill="#000000">4,6,9</text>
</g>
<!-- 12 -->
<g id="node13" class="node">
<title>12</title>
<polygon fill="none" stroke="#000000" points="976.9167,-163.617 922.9167,-163.617 922.9167,-127.617 976.9167,-127.617 976.9167,-163.617"/>
<text text-anchor="middle" x="949.9167" y="-143.117" font-family="century schoolbook" font-size="10.00" fill="#000000">4,7,9</text>
</g>
<!-- 11&#45;&#45;12 -->
<g id="edge13" class="edge">
<title>11&#45;&#45;12</title>
<path fill="none" stroke="#000000" d="M1032.4124,-124.8521C1015.5532,-129.0957 993.9451,-134.5347 977.073,-138.7815"/>
</g>
<!-- 13 -->
<g id="node14" class="node">
<title>13</title>
<polygon fill="none" stroke="#000000" points="792.8415,-396.04 738.8415,-396.04 738.8415,-360.04 792.8415,-360.04 792.8415,-396.04"/>
<text text-anchor="middle" x="765.8415" y="-375.54" font-family="century schoolbook" font-size="10.00" fill="#000000">5,7,10</text>
</g>
<!-- 14 -->
<g id="node15" class="node">
<title>14</title>
<polygon fill="none" stroke="#000000" points="710.299,-486.8376 656.299,-486.8376 656.299,-450.8376 710.299,-450.8376 710.299,-486.8376"/>
<text text-anchor="middle" x="683.299" y="-466.3376" font-family="century schoolbook" font-size="10.00" fill="#000000">5,8,10</text>
</g>
<!-- 13&#45;&#45;14 -->
<g id="edge14" class="edge">
<title>13&#45;&#45;14</title>
<path fill="none" stroke="#000000" d="M749.1378,-396.4142C734.7228,-412.2708 714.0211,-435.0429 699.6961,-450.8005"/>
</g>
<!-- 15 -->
<g id="node16" class="node">
<title>15</title>
<polygon fill="none" stroke="#000000" points="525.4891,-697.9999 471.4891,-697.9999 471.4891,-661.9999 525.4891,-661.9999 525.4891,-697.9999"/>
<text text-anchor="middle" x="498.4891" y="-677.4999" font-family="century schoolbook" font-size="10.00" fill="#000000">6,8,11</text>
</g>
<!-- 16 -->
<g id="node17" class="node">
<title>16</title>
<polygon fill="none" stroke="#000000" points="448.2453,-792.1692 394.2453,-792.1692 394.2453,-756.1692 448.2453,-756.1692 448.2453,-792.1692"/>
<text text-anchor="middle" x="421.2453" y="-771.6692" font-family="century schoolbook" font-size="10.00" fill="#000000">6,9,11</text>
</g>
<!-- 15&#45;&#45;16 -->
<g id="edge15" class="edge">
<title>15&#45;&#45;16</title>
<path fill="none" stroke="#000000" d="M483.5957,-698.1567C469.9176,-714.8319 449.7566,-739.4105 436.093,-756.0681"/>
</g>
<!-- 17&#45;&#45;12 -->
<g id="edge16" class="edge">
<title>17&#45;&#45;12</title>
<path fill="none" stroke="#000000" d="M857.1966,-153.8826C876.8247,-152.1328 903.2058,-149.7811 922.8092,-148.0335"/>
</g>
<!-- 18 -->
<g id="node19" class="node">
<title>18</title>
<polygon fill="none" stroke="#000000" points="774.8987,-271.067 720.8987,-271.067 720.8987,-235.067 774.8987,-235.067 774.8987,-271.067"/>
<text text-anchor="middle" x="747.8987" y="-250.567" font-family="century schoolbook" font-size="10.00" fill="#000000">0,7,10</text>
</g>
<!-- 17&#45;&#45;18 -->
<g id="edge17" class="edge">
<title>17&#45;&#45;18</title>
<path fill="none" stroke="#000000" d="M814.5423,-174.5082C799.8672,-191.8071 777.9207,-217.6773 763.2686,-234.9491"/>
</g>
<!-- 18&#45;&#45;13 -->
<g id="edge18" class="edge">
<title>18&#45;&#45;13</title>
<path fill="none" stroke="#000000" d="M750.5077,-271.2391C753.9095,-294.9331 759.8259,-336.1411 763.2293,-359.8459"/>
</g>
<!-- 19&#45;&#45;14 -->
<g id="edge19" class="edge">
<title>19&#45;&#45;14</title>
<path fill="none" stroke="#000000" d="M584.3165,-463.0376C605.4338,-464.275 634.6589,-465.9874 655.8752,-467.2306"/>
</g>
<!-- 20 -->
<g id="node21" class="node">
<title>20</title>
<polygon fill="none" stroke="#000000" points="498.7303,-574.4299 444.7303,-574.4299 444.7303,-538.4299 498.7303,-538.4299 498.7303,-574.4299"/>
<text text-anchor="middle" x="471.7303" y="-553.9299" font-family="century schoolbook" font-size="10.00" fill="#000000">1,8,11</text>
</g>
<!-- 19&#45;&#45;20 -->
<g id="edge20" class="edge">
<title>19&#45;&#45;20</title>
<path fill="none" stroke="#000000" d="M540.7875,-479.7659C525.6381,-496.5841 503.3085,-521.3734 488.1751,-538.1737"/>
</g>
<!-- 20&#45;&#45;15 -->
<g id="edge21" class="edge">
<title>20&#45;&#45;15</title>
<path fill="none" stroke="#000000" d="M475.6787,-574.6631C480.7379,-598.026 489.4575,-638.2929 494.5245,-661.6919"/>
</g>
<!-- 21&#45;&#45;16 -->
<g id="edge22" class="edge">
<title>21&#45;&#45;16</title>
<path fill="none" stroke="#000000" d="M327.1459,-760.7927C347.1276,-763.6331 374.1475,-767.4741 394.1079,-770.3115"/>
</g>
<!-- 22&#45;&#45;4 -->
<g id="edge23" class="edge">
<title>22&#45;&#45;4</title>
<path fill="none" stroke="#000000" d="M600.0558,-254.5264C584.9731,-271.3946 562.7419,-296.2578 547.6752,-313.1082"/>
</g>
<!-- 22&#45;&#45;18 -->
<g id="edge24" class="edge">
<title>22&#45;&#45;18</title>
<path fill="none" stroke="#000000" d="M643.7089,-239.6626C666.2638,-242.5644 698.1579,-246.6677 720.7032,-249.5682"/>
</g>
<!-- 23&#45;&#45;7 -->
<g id="edge25" class="edge">
<title>23&#45;&#45;7</title>
<path fill="none" stroke="#000000" d="M324.6978,-557.2488C309.9619,-574.3119 287.9708,-599.7761 273.1658,-616.9192"/>
</g>
<!-- 23&#45;&#45;20 -->
<g id="edge26" class="edge">
<title>23&#45;&#45;20</title>
<path fill="none" stroke="#000000" d="M367.5322,-542.7566C390.0889,-545.7166 421.9856,-549.9022 444.5327,-552.8609"/>
</g>
</g>
</svg>
