<?xml version="1.0" encoding="UTF-8" standalone="no"?>
<!DOCTYPE svg PUBLIC "-//W3C//DTD SVG 1.1//EN"
 "http://www.w3.org/Graphics/SVG/1.1/DTD/svg11.dtd">
<!-- Generated by graphviz version 2.40.1 (20161225.0304)
 -->
<!-- Title: g Pages: 1 -->
<svg width="784pt" height="755pt"
 viewBox="0.00 0.00 783.93 754.96" xmlns="http://www.w3.org/2000/svg" xmlns:xlink="http://www.w3.org/1999/xlink">
<g id="graph0" class="graph" transform="scale(1 1) rotate(0) translate(4 750.9591)">
<title>g</title>
<polygon fill="#ffffff" stroke="transparent" points="-4,4 -4,-750.9591 779.9268,-750.9591 779.9268,4 -4,4"/>
<!-- 0 -->
<g id="node1" class="node">
<title>0</title>
<text text-anchor="middle" x="111.4494" y="-138.9568" font-family="century schoolbook" font-size="10.00" fill="#000000">0,6</text>
</g>
<!-- 1 -->
<g id="node2" class="node">
<title>1</title>
<text text-anchor="middle" x="568.4451" y="-58.3761" font-family="century schoolbook" font-size="10.00" fill="#000000">1,4</text>
</g>
<!-- 0&#45;&#45;1 -->
<g id="edge1" class="edge">
<title>0&#45;&#45;1</title>
<path fill="none" stroke="#000000" d="M138.668,-136.6574C219.949,-122.3253 460.2745,-79.9495 541.3692,-65.6503"/>
</g>
<!-- 3 -->
<g id="node4" class="node">
<title>3</title>
<text text-anchor="middle" x="111.4494" y="-603.0024" font-family="century schoolbook" font-size="10.00" fill="#000000">2,5</text>
</g>
<!-- 0&#45;&#45;3 -->
<g id="edge2" class="edge">
<title>0&#45;&#45;3</title>
<path fill="none" stroke="#000000" d="M111.4494,-159.6479C111.4494,-233.881 111.4494,-513.4363 111.4494,-587.437"/>
</g>
<!-- 7 -->
<g id="node8" class="node">
<title>7</title>
<text text-anchor="middle" x="664.4774" y="-138.9568" font-family="century schoolbook" font-size="10.00" fill="#000000">4,7</text>
</g>
<!-- 0&#45;&#45;7 -->
<g id="edge3" class="edge">
<title>0&#45;&#45;7</title>
<path fill="none" stroke="#000000" d="M138.4975,-141.4568C232.2885,-141.4568 542.9438,-141.4568 637.1555,-141.4568"/>
</g>
<!-- 9 -->
<g id="node10" class="node">
<title>9</title>
<text text-anchor="middle" x="207.4817" y="-683.583" font-family="century schoolbook" font-size="10.00" fill="#000000">5,8</text>
</g>
<!-- 0&#45;&#45;9 -->
<g id="edge4" class="edge">
<title>0&#45;&#45;9</title>
<path fill="none" stroke="#000000" d="M114.6446,-159.5774C129.2573,-242.4504 189.6368,-584.8794 204.2745,-667.8943"/>
</g>
<!-- 12 -->
<g id="node13" class="node">
<title>12</title>
<text text-anchor="middle" x="450.644" y="-15.5" font-family="century schoolbook" font-size="10.00" fill="#000000">7,10</text>
</g>
<!-- 0&#45;&#45;12 -->
<g id="edge5" class="edge">
<title>0&#45;&#45;12</title>
<path fill="none" stroke="#000000" d="M138.6337,-131.5625C202.1451,-108.4462 359.6913,-51.1041 423.3302,-27.9414"/>
</g>
<!-- 13 -->
<g id="node14" class="node">
<title>13</title>
<text text-anchor="middle" x="48.7688" y="-494.4363" font-family="century schoolbook" font-size="10.00" fill="#000000">8,11</text>
</g>
<!-- 0&#45;&#45;13 -->
<g id="edge6" class="edge">
<title>0&#45;&#45;13</title>
<path fill="none" stroke="#000000" d="M108.2549,-159.5738C97.5025,-220.5534 62.6996,-417.9306 51.9568,-478.8558"/>
</g>
<!-- 15 -->
<g id="node16" class="node">
<title>15</title>
<text text-anchor="middle" x="207.4817" y="-58.3761" font-family="century schoolbook" font-size="10.00" fill="#000000">1,10</text>
</g>
<!-- 0&#45;&#45;15 -->
<g id="edge7" class="edge">
<title>0&#45;&#45;15</title>
<path fill="none" stroke="#000000" d="M133.2406,-123.1718C148.9569,-109.9842 170.0803,-92.2596 185.7767,-79.0887"/>
</g>
<!-- 16 -->
<g id="node17" class="node">
<title>16</title>
<text text-anchor="middle" x="568.4451" y="-683.583" font-family="century schoolbook" font-size="10.00" fill="#000000">2,11</text>
</g>
<!-- 0&#45;&#45;16 -->
<g id="edge8" class="edge">
<title>0&#45;&#45;16</title>
<path fill="none" stroke="#000000" d="M126.6545,-159.5774C196.1931,-242.4504 483.5252,-584.8794 553.1829,-667.8943"/>
</g>
<!-- 2 -->
<g id="node3" class="node">
<title>2</title>
<text text-anchor="middle" x="450.644" y="-726.4591" font-family="century schoolbook" font-size="10.00" fill="#000000">1,7</text>
</g>
<!-- 2&#45;&#45;3 -->
<g id="edge9" class="edge">
<title>2&#45;&#45;3</title>
<path fill="none" stroke="#000000" d="M423.4597,-719.0648C359.9484,-695.9486 202.4021,-638.6065 138.7632,-615.4438"/>
</g>
<!-- 5 -->
<g id="node6" class="node">
<title>5</title>
<text text-anchor="middle" x="748.9268" y="-370.9796" font-family="century schoolbook" font-size="10.00" fill="#000000">3,6</text>
</g>
<!-- 2&#45;&#45;5 -->
<g id="edge10" class="edge">
<title>2&#45;&#45;5</title>
<path fill="none" stroke="#000000" d="M465.846,-710.8421C517.014,-649.8625 682.6332,-452.4853 733.7555,-391.5601"/>
</g>
<!-- 2&#45;&#45;9 -->
<g id="edge11" class="edge">
<title>2&#45;&#45;9</title>
<path fill="none" stroke="#000000" d="M423.2229,-724.124C376.3975,-715.8675 281.5594,-699.145 234.8026,-690.9005"/>
</g>
<!-- 11 -->
<g id="node12" class="node">
<title>11</title>
<text text-anchor="middle" x="325.2828" y="-726.4591" font-family="century schoolbook" font-size="10.00" fill="#000000">6,9</text>
</g>
<!-- 2&#45;&#45;11 -->
<g id="edge12" class="edge">
<title>2&#45;&#45;11</title>
<path fill="none" stroke="#000000" d="M423.4425,-728.9591C402.4152,-728.9591 373.4451,-728.9591 352.4312,-728.9591"/>
</g>
<!-- 2&#45;&#45;13 -->
<g id="edge13" class="edge">
<title>2&#45;&#45;13</title>
<path fill="none" stroke="#000000" d="M423.3375,-713.1937C349.934,-670.8142 148.988,-554.7979 75.8483,-512.5707"/>
</g>
<!-- 14 -->
<g id="node15" class="node">
<title>14</title>
<text text-anchor="middle" x="27" y="-370.9796" font-family="century schoolbook" font-size="10.00" fill="#000000">0,9</text>
</g>
<!-- 2&#45;&#45;14 -->
<g id="edge14" class="edge">
<title>2&#45;&#45;14</title>
<path fill="none" stroke="#000000" d="M429.0531,-710.8421C356.3804,-649.8625 121.1553,-452.4853 48.5475,-391.5601"/>
</g>
<!-- 2&#45;&#45;16 -->
<g id="edge15" class="edge">
<title>2&#45;&#45;16</title>
<path fill="none" stroke="#000000" d="M477.67,-719.1225C496.6897,-712.1999 522.0549,-702.9677 541.137,-696.0224"/>
</g>
<!-- 17 -->
<g id="node18" class="node">
<title>17</title>
<text text-anchor="middle" x="664.4774" y="-603.0024" font-family="century schoolbook" font-size="10.00" fill="#000000">0,3</text>
</g>
<!-- 2&#45;&#45;17 -->
<g id="edge16" class="edge">
<title>2&#45;&#45;17</title>
<path fill="none" stroke="#000000" d="M477.7262,-713.3232C518.7456,-689.6407 596.1897,-644.9283 637.2783,-621.2058"/>
</g>
<!-- 4 -->
<g id="node5" class="node">
<title>4</title>
<text text-anchor="middle" x="325.2828" y="-15.5" font-family="century schoolbook" font-size="10.00" fill="#000000">2,8</text>
</g>
<!-- 4&#45;&#45;1 -->
<g id="edge17" class="edge">
<title>4&#45;&#45;1</title>
<path fill="none" stroke="#000000" d="M352.7039,-22.8351C399.5293,-31.0917 494.3674,-47.8142 541.1242,-56.0587"/>
</g>
<!-- 4&#45;&#45;5 -->
<g id="edge18" class="edge">
<title>4&#45;&#45;5</title>
<path fill="none" stroke="#000000" d="M346.8738,-36.117C419.5464,-97.0966 654.7715,-294.4739 727.3793,-355.399"/>
</g>
<!-- 4&#45;&#45;7 -->
<g id="edge19" class="edge">
<title>4&#45;&#45;7</title>
<path fill="none" stroke="#000000" d="M352.4671,-27.8943C415.9785,-51.0105 573.5247,-108.3527 637.1636,-131.5153"/>
</g>
<!-- 4&#45;&#45;11 -->
<g id="edge20" class="edge">
<title>4&#45;&#45;11</title>
<path fill="none" stroke="#000000" d="M325.2828,-36.2888C325.2828,-135.8336 325.2828,-611.5517 325.2828,-710.7912"/>
</g>
<!-- 4&#45;&#45;12 -->
<g id="edge21" class="edge">
<title>4&#45;&#45;12</title>
<path fill="none" stroke="#000000" d="M352.4843,-18C373.5116,-18 402.4817,-18 423.4956,-18"/>
</g>
<!-- 4&#45;&#45;14 -->
<g id="edge22" class="edge">
<title>4&#45;&#45;14</title>
<path fill="none" stroke="#000000" d="M310.0808,-36.117C258.9128,-97.0966 93.2937,-294.4739 42.1714,-355.399"/>
</g>
<!-- 4&#45;&#45;15 -->
<g id="edge23" class="edge">
<title>4&#45;&#45;15</title>
<path fill="none" stroke="#000000" d="M298.2568,-27.8366C279.2371,-34.7592 253.8719,-43.9914 234.7898,-50.9367"/>
</g>
<!-- 4&#45;&#45;17 -->
<g id="edge24" class="edge">
<title>4&#45;&#45;17</title>
<path fill="none" stroke="#000000" d="M335.8061,-36.227C386.3493,-123.7703 603.8048,-500.4142 654.0768,-587.4879"/>
</g>
<!-- 6 -->
<g id="node7" class="node">
<title>6</title>
<text text-anchor="middle" x="727.1581" y="-247.5228" font-family="century schoolbook" font-size="10.00" fill="#000000">3,9</text>
</g>
<!-- 6&#45;&#45;1 -->
<g id="edge25" class="edge">
<title>6&#45;&#45;1</title>
<path fill="none" stroke="#000000" d="M711.94,-231.8866C681.6035,-195.7329 613.9158,-115.0659 583.6171,-78.9574"/>
</g>
<!-- 6&#45;&#45;3 -->
<g id="edge26" class="edge">
<title>6&#45;&#45;3</title>
<path fill="none" stroke="#000000" d="M699.9074,-265.756C598.0877,-324.5416 240.6096,-530.9317 138.7337,-589.7498"/>
</g>
<!-- 6&#45;&#45;7 -->
<g id="edge27" class="edge">
<title>6&#45;&#45;7</title>
<path fill="none" stroke="#000000" d="M716.5251,-231.6061C704.9291,-211.5211 686.4871,-179.5786 674.9533,-159.6015"/>
</g>
<!-- 6&#45;&#45;9 -->
<g id="edge28" class="edge">
<title>6&#45;&#45;9</title>
<path fill="none" stroke="#000000" d="M705.4898,-268.2046C620.8719,-339.2075 313.2283,-597.3511 228.9546,-668.0652"/>
</g>
<!-- 6&#45;&#45;12 -->
<g id="edge29" class="edge">
<title>6&#45;&#45;12</title>
<path fill="none" stroke="#000000" d="M705.4605,-231.8164C653.7703,-188.4432 523.8291,-79.4095 472.2408,-36.1219"/>
</g>
<!-- 6&#45;&#45;13 -->
<g id="edge30" class="edge">
<title>6&#45;&#45;13</title>
<path fill="none" stroke="#000000" d="M700.1458,-259.8545C591.2236,-299.4989 184.9207,-447.3811 75.8582,-487.0766"/>
</g>
<!-- 6&#45;&#45;15 -->
<g id="edge31" class="edge">
<title>6&#45;&#45;15</title>
<path fill="none" stroke="#000000" d="M699.9497,-240.1198C610.2519,-207.4724 324.4944,-103.4652 234.7334,-70.7949"/>
</g>
<!-- 6&#45;&#45;16 -->
<g id="edge32" class="edge">
<title>6&#45;&#45;16</title>
<path fill="none" stroke="#000000" d="M720.5404,-268.2046C694.7268,-339.1269 600.9541,-596.7653 575.091,-667.8236"/>
</g>
<!-- 8 -->
<g id="node9" class="node">
<title>8</title>
<text text-anchor="middle" x="727.1581" y="-494.4363" font-family="century schoolbook" font-size="10.00" fill="#000000">4,10</text>
</g>
<!-- 8&#45;&#45;3 -->
<g id="edge33" class="edge">
<title>8&#45;&#45;3</title>
<path fill="none" stroke="#000000" d="M699.9074,-501.7414C598.0877,-519.6949 240.6096,-582.7279 138.7337,-600.6914"/>
</g>
<!-- 8&#45;&#45;5 -->
<g id="edge34" class="edge">
<title>8&#45;&#45;5</title>
<path fill="none" stroke="#000000" d="M730.3701,-478.7199C734.4859,-455.3783 741.5795,-415.1483 745.7016,-391.7708"/>
</g>
<!-- 8&#45;&#45;9 -->
<g id="edge35" class="edge">
<title>8&#45;&#45;9</title>
<path fill="none" stroke="#000000" d="M699.9497,-506.8394C610.2519,-539.4867 324.4944,-643.4939 234.7334,-676.1642"/>
</g>
<!-- 8&#45;&#45;11 -->
<g id="edge36" class="edge">
<title>8&#45;&#45;11</title>
<path fill="none" stroke="#000000" d="M699.8515,-512.7018C626.4481,-555.0813 425.502,-671.0975 352.3623,-713.3248"/>
</g>
<!-- 8&#45;&#45;13 -->
<g id="edge37" class="edge">
<title>8&#45;&#45;13</title>
<path fill="none" stroke="#000000" d="M700.1458,-496.9363C591.2236,-496.9363 184.9207,-496.9363 75.8582,-496.9363"/>
</g>
<!-- 8&#45;&#45;14 -->
<g id="edge38" class="edge">
<title>8&#45;&#45;14</title>
<path fill="none" stroke="#000000" d="M700.1401,-492.1723C588.8078,-472.5414 166.1994,-398.0242 54.3151,-378.296"/>
</g>
<!-- 8&#45;&#45;16 -->
<g id="edge39" class="edge">
<title>8&#45;&#45;16</title>
<path fill="none" stroke="#000000" d="M711.94,-515.0725C681.6035,-551.2262 613.9158,-631.8932 583.6171,-668.0018"/>
</g>
<!-- 8&#45;&#45;17 -->
<g id="edge40" class="edge">
<title>8&#45;&#45;17</title>
<path fill="none" stroke="#000000" d="M716.5251,-515.3531C704.9291,-535.438 686.4871,-567.3805 674.9533,-587.3576"/>
</g>
<!-- 10 -->
<g id="node11" class="node">
<title>10</title>
<text text-anchor="middle" x="48.7688" y="-247.5228" font-family="century schoolbook" font-size="10.00" fill="#000000">5,11</text>
</g>
<!-- 10&#45;&#45;1 -->
<g id="edge41" class="edge">
<title>10&#45;&#45;1</title>
<path fill="none" stroke="#000000" d="M75.9771,-240.1198C165.6749,-207.4724 451.4325,-103.4652 541.1934,-70.7949"/>
</g>
<!-- 10&#45;&#45;5 -->
<g id="edge42" class="edge">
<title>10&#45;&#45;5</title>
<path fill="none" stroke="#000000" d="M75.7868,-254.7868C187.119,-274.4177 609.7275,-348.935 721.6117,-368.6632"/>
</g>
<!-- 10&#45;&#45;7 -->
<g id="edge43" class="edge">
<title>10&#45;&#45;7</title>
<path fill="none" stroke="#000000" d="M76.0194,-245.2178C177.8392,-227.2642 535.3172,-164.2312 637.1932,-146.2677"/>
</g>
<!-- 10&#45;&#45;11 -->
<g id="edge44" class="edge">
<title>10&#45;&#45;11</title>
<path fill="none" stroke="#000000" d="M59.2708,-268.2128C103.0712,-344.0774 270.9501,-634.8521 314.7703,-710.7509"/>
</g>
<!-- 10&#45;&#45;12 -->
<g id="edge45" class="edge">
<title>10&#45;&#45;12</title>
<path fill="none" stroke="#000000" d="M76.0753,-234.2574C149.4788,-191.8779 350.4248,-75.8616 423.5645,-33.6344"/>
</g>
<!-- 10&#45;&#45;14 -->
<g id="edge46" class="edge">
<title>10&#45;&#45;14</title>
<path fill="none" stroke="#000000" d="M45.5567,-268.2393C41.441,-291.5808 34.3473,-331.8108 30.2252,-355.1884"/>
</g>
<!-- 10&#45;&#45;15 -->
<g id="edge47" class="edge">
<title>10&#45;&#45;15</title>
<path fill="none" stroke="#000000" d="M63.9868,-231.8866C94.3234,-195.7329 162.011,-115.0659 192.3097,-78.9574"/>
</g>
<!-- 10&#45;&#45;17 -->
<g id="edge48" class="edge">
<title>10&#45;&#45;17</title>
<path fill="none" stroke="#000000" d="M76.0194,-265.756C177.8392,-324.5416 535.3172,-530.9317 637.1932,-589.7498"/>
</g>
</g>
</svg>
