<?xml version="1.0" encoding="UTF-8" standalone="no"?>
<!DOCTYPE svg PUBLIC "-//W3C//DTD SVG 1.1//EN"
 "http://www.w3.org/Graphics/SVG/1.1/DTD/svg11.dtd">
<!-- Generated by graphviz version 2.40.1 (20161225.0304)
 -->
<!-- Title: g Pages: 1 -->
<svg width="703pt" height="603pt"
 viewBox="0.00 0.00 703.19 603.46" xmlns="http://www.w3.org/2000/svg" xmlns:xlink="http://www.w3.org/1999/xlink">
<g id="graph0" class="graph" transform="scale(1 1) rotate(0) translate(4 599.4624)">
<title>g</title>
<polygon fill="#ffffff" stroke="transparent" points="-4,4 -4,-599.4624 699.187,-599.4624 699.187,4 -4,4"/>
<!-- 0 -->
<g id="node1" class="node">
<title>0</title>
<text text-anchor="middle" x="28.5" y="-186.7596" font-family="century schoolbook" font-size="10.00" fill="#000000">4,8,10,11</text>
</g>
<!-- 1 -->
<g id="node2" class="node">
<title>1</title>
<text text-anchor="middle" x="56.8575" y="-263.1121" font-family="century schoolbook" font-size="10.00" fill="#000000">2,3,5,9</text>
</g>
<!-- 0&#45;&#45;1 -->
<g id="edge1" class="edge">
<title>0&#45;&#45;1</title>
<path fill="none" stroke="#000000" d="M35.2203,-207.3541C39.708,-219.4371 45.5891,-235.2722 50.0871,-247.3829"/>
</g>
<!-- 2 -->
<g id="node3" class="node">
<title>2</title>
<text text-anchor="middle" x="119.4699" y="-315.2414" font-family="century schoolbook" font-size="10.00" fill="#000000">0,1,6,10</text>
</g>
<!-- 1&#45;&#45;2 -->
<g id="edge2" class="edge">
<title>1&#45;&#45;2</title>
<path fill="none" stroke="#000000" d="M78.7563,-283.8444C84.8218,-288.8944 91.4068,-294.3769 97.4777,-299.4313"/>
</g>
<!-- 3 -->
<g id="node4" class="node">
<title>3</title>
<text text-anchor="middle" x="199.7615" y="-328.9624" font-family="century schoolbook" font-size="10.00" fill="#000000">3,8,9,11</text>
</g>
<!-- 2&#45;&#45;3 -->
<g id="edge3" class="edge">
<title>2&#45;&#45;3</title>
<path fill="none" stroke="#000000" d="M146.653,-322.3867C155.024,-323.8172 164.2373,-325.3917 172.6064,-326.8219"/>
</g>
<!-- 4 -->
<g id="node5" class="node">
<title>4</title>
<text text-anchor="middle" x="276.1355" y="-300.6415" font-family="century schoolbook" font-size="10.00" fill="#000000">0,4,6,7</text>
</g>
<!-- 3&#45;&#45;4 -->
<g id="edge4" class="edge">
<title>3&#45;&#45;4</title>
<path fill="none" stroke="#000000" d="M226.9031,-321.3978C234.1062,-318.7268 241.8829,-315.843 249.0812,-313.1737"/>
</g>
<!-- 5 -->
<g id="node6" class="node">
<title>5</title>
<text text-anchor="middle" x="328.0657" y="-237.8787" font-family="century schoolbook" font-size="10.00" fill="#000000">1,5,10,11</text>
</g>
<!-- 4&#45;&#45;5 -->
<g id="edge5" class="edge">
<title>4&#45;&#45;5</title>
<path fill="none" stroke="#000000" d="M291.1559,-284.9879C297.9856,-276.7335 306.052,-266.9845 312.8992,-258.7089"/>
</g>
<!-- 6 -->
<g id="node7" class="node">
<title>6</title>
<text text-anchor="middle" x="341.687" y="-157.5698" font-family="century schoolbook" font-size="10.00" fill="#000000">2,6,8,9</text>
</g>
<!-- 5&#45;&#45;6 -->
<g id="edge6" class="edge">
<title>5&#45;&#45;6</title>
<path fill="none" stroke="#000000" d="M331.1566,-222.1554C333.3858,-209.0123 336.382,-191.3475 338.6084,-178.221"/>
</g>
<!-- 7 -->
<g id="node8" class="node">
<title>7</title>
<text text-anchor="middle" x="313.4298" y="-81.1708" font-family="century schoolbook" font-size="10.00" fill="#000000">4,5,7,11</text>
</g>
<!-- 6&#45;&#45;7 -->
<g id="edge7" class="edge">
<title>6&#45;&#45;7</title>
<path fill="none" stroke="#000000" d="M334.9905,-141.9643C330.5187,-129.8739 324.6583,-114.0292 320.1763,-101.9111"/>
</g>
<!-- 8 -->
<g id="node9" class="node">
<title>8</title>
<text text-anchor="middle" x="250.7729" y="-29.1071" font-family="century schoolbook" font-size="10.00" fill="#000000">0,2,3,8</text>
</g>
<!-- 7&#45;&#45;8 -->
<g id="edge8" class="edge">
<title>7&#45;&#45;8</title>
<path fill="none" stroke="#000000" d="M291.5155,-65.4614C285.4456,-60.4178 278.856,-54.9422 272.7808,-49.8942"/>
</g>
<!-- 9 -->
<g id="node10" class="node">
<title>9</title>
<text text-anchor="middle" x="170.4704" y="-15.5" font-family="century schoolbook" font-size="10.00" fill="#000000">1,6,7,9</text>
</g>
<!-- 8&#45;&#45;9 -->
<g id="edge9" class="edge">
<title>8&#45;&#45;9</title>
<path fill="none" stroke="#000000" d="M223.5862,-27.0004C215.214,-25.5817 205.9994,-24.0203 197.6292,-22.602"/>
</g>
<!-- 10 -->
<g id="node11" class="node">
<title>10</title>
<text text-anchor="middle" x="94.0777" y="-43.7328" font-family="century schoolbook" font-size="10.00" fill="#000000">2,4,5,10</text>
</g>
<!-- 9&#45;&#45;10 -->
<g id="edge10" class="edge">
<title>9&#45;&#45;10</title>
<path fill="none" stroke="#000000" d="M143.3221,-28.0333C136.1173,-30.696 128.3387,-33.5708 121.1386,-36.2318"/>
</g>
<!-- 11 -->
<g id="node12" class="node">
<title>11</title>
<text text-anchor="middle" x="42.1035" y="-106.4508" font-family="century schoolbook" font-size="10.00" fill="#000000">0,1,3,7</text>
</g>
<!-- 10&#45;&#45;11 -->
<g id="edge11" class="edge">
<title>10&#45;&#45;11</title>
<path fill="none" stroke="#000000" d="M79.0446,-64.3735C72.2091,-72.622 64.1359,-82.364 57.2828,-90.6337"/>
</g>
<!-- 11&#45;&#45;0 -->
<g id="edge12" class="edge">
<title>11&#45;&#45;0</title>
<path fill="none" stroke="#000000" d="M39.0166,-127.1741C36.7903,-140.3171 33.7981,-157.982 31.5746,-171.1084"/>
</g>
<!-- 12 -->
<g id="node13" class="node">
<title>12</title>
<text text-anchor="middle" x="355" y="-432.7596" font-family="century schoolbook" font-size="10.00" fill="#000000">3,7,9,10</text>
</g>
<!-- 13 -->
<g id="node14" class="node">
<title>13</title>
<text text-anchor="middle" x="383.3575" y="-509.1121" font-family="century schoolbook" font-size="10.00" fill="#000000">0,2,6,11</text>
</g>
<!-- 12&#45;&#45;13 -->
<g id="edge13" class="edge">
<title>12&#45;&#45;13</title>
<path fill="none" stroke="#000000" d="M361.7203,-453.3541C366.208,-465.4371 372.0891,-481.2722 376.5871,-493.3829"/>
</g>
<!-- 14 -->
<g id="node15" class="node">
<title>14</title>
<text text-anchor="middle" x="445.9699" y="-561.2414" font-family="century schoolbook" font-size="10.00" fill="#000000">1,5,7,8</text>
</g>
<!-- 13&#45;&#45;14 -->
<g id="edge14" class="edge">
<title>13&#45;&#45;14</title>
<path fill="none" stroke="#000000" d="M405.2563,-529.8444C411.3218,-534.8944 417.9068,-540.3769 423.9777,-545.4313"/>
</g>
<!-- 15 -->
<g id="node16" class="node">
<title>15</title>
<text text-anchor="middle" x="526.2615" y="-574.9624" font-family="century schoolbook" font-size="10.00" fill="#000000">0,4,9,10</text>
</g>
<!-- 14&#45;&#45;15 -->
<g id="edge15" class="edge">
<title>14&#45;&#45;15</title>
<path fill="none" stroke="#000000" d="M473.153,-568.3867C481.524,-569.8172 490.7373,-571.3917 499.1064,-572.8219"/>
</g>
<!-- 16 -->
<g id="node17" class="node">
<title>16</title>
<text text-anchor="middle" x="602.6355" y="-546.6415" font-family="century schoolbook" font-size="10.00" fill="#000000">3,5,6,11</text>
</g>
<!-- 15&#45;&#45;16 -->
<g id="edge16" class="edge">
<title>15&#45;&#45;16</title>
<path fill="none" stroke="#000000" d="M553.4031,-567.3978C560.6062,-564.7268 568.3829,-561.843 575.5812,-559.1737"/>
</g>
<!-- 17 -->
<g id="node18" class="node">
<title>17</title>
<text text-anchor="middle" x="654.5657" y="-483.8787" font-family="century schoolbook" font-size="10.00" fill="#000000">2,7,8,10</text>
</g>
<!-- 16&#45;&#45;17 -->
<g id="edge17" class="edge">
<title>16&#45;&#45;17</title>
<path fill="none" stroke="#000000" d="M617.6559,-530.9879C624.4856,-522.7335 632.552,-512.9845 639.3992,-504.7089"/>
</g>
<!-- 18 -->
<g id="node19" class="node">
<title>18</title>
<text text-anchor="middle" x="668.187" y="-403.5698" font-family="century schoolbook" font-size="10.00" fill="#000000">1,3,4,9</text>
</g>
<!-- 17&#45;&#45;18 -->
<g id="edge18" class="edge">
<title>17&#45;&#45;18</title>
<path fill="none" stroke="#000000" d="M657.6566,-468.1554C659.8858,-455.0123 662.882,-437.3475 665.1084,-424.221"/>
</g>
<!-- 19 -->
<g id="node20" class="node">
<title>19</title>
<text text-anchor="middle" x="639.9298" y="-327.1708" font-family="century schoolbook" font-size="10.00" fill="#000000">0,5,6,8</text>
</g>
<!-- 18&#45;&#45;19 -->
<g id="edge19" class="edge">
<title>18&#45;&#45;19</title>
<path fill="none" stroke="#000000" d="M661.4905,-387.9643C657.0187,-375.8739 651.1583,-360.0292 646.6763,-347.9111"/>
</g>
<!-- 20 -->
<g id="node21" class="node">
<title>20</title>
<text text-anchor="middle" x="577.2729" y="-275.1071" font-family="century schoolbook" font-size="10.00" fill="#000000">1,2,7,11</text>
</g>
<!-- 19&#45;&#45;20 -->
<g id="edge20" class="edge">
<title>19&#45;&#45;20</title>
<path fill="none" stroke="#000000" d="M618.0155,-311.4614C611.9456,-306.4178 605.356,-300.9422 599.2808,-295.8942"/>
</g>
<!-- 21 -->
<g id="node22" class="node">
<title>21</title>
<text text-anchor="middle" x="496.9704" y="-261.5" font-family="century schoolbook" font-size="10.00" fill="#000000">3,4,6,10</text>
</g>
<!-- 20&#45;&#45;21 -->
<g id="edge21" class="edge">
<title>20&#45;&#45;21</title>
<path fill="none" stroke="#000000" d="M550.0862,-273.0004C541.714,-271.5817 532.4994,-270.0203 524.1292,-268.602"/>
</g>
<!-- 22 -->
<g id="node23" class="node">
<title>22</title>
<text text-anchor="middle" x="420.5777" y="-289.7328" font-family="century schoolbook" font-size="10.00" fill="#000000">0,5,9,11</text>
</g>
<!-- 21&#45;&#45;22 -->
<g id="edge22" class="edge">
<title>21&#45;&#45;22</title>
<path fill="none" stroke="#000000" d="M469.8221,-274.0333C462.6173,-276.696 454.8387,-279.5708 447.6386,-282.2318"/>
</g>
<!-- 23 -->
<g id="node24" class="node">
<title>23</title>
<text text-anchor="middle" x="368.6035" y="-352.4508" font-family="century schoolbook" font-size="10.00" fill="#000000">1,2,4,8</text>
</g>
<!-- 22&#45;&#45;23 -->
<g id="edge23" class="edge">
<title>22&#45;&#45;23</title>
<path fill="none" stroke="#000000" d="M405.5446,-310.3735C398.7091,-318.622 390.6359,-328.364 383.7828,-336.6337"/>
</g>
<!-- 23&#45;&#45;12 -->
<g id="edge24" class="edge">
<title>23&#45;&#45;12</title>
<path fill="none" stroke="#000000" d="M365.5166,-373.1741C363.2903,-386.3171 360.2981,-403.982 358.0746,-417.1084"/>
</g>
</g>
</svg>
