<?xml version="1.0" encoding="UTF-8" standalone="no"?>
<!DOCTYPE svg PUBLIC "-//W3C//DTD SVG 1.1//EN"
 "http://www.w3.org/Graphics/SVG/1.1/DTD/svg11.dtd">
<!-- Generated by graphviz version 2.40.1 (20161225.0304)
 -->
<!-- Title: g Pages: 1 -->
<svg width="716pt" height="657pt"
 viewBox="0.00 0.00 716.09 656.92" xmlns="http://www.w3.org/2000/svg" xmlns:xlink="http://www.w3.org/1999/xlink">
<g id="graph0" class="graph" transform="scale(1 1) rotate(0) translate(4 652.924)">
<title>g</title>
<polygon fill="#ffffff" stroke="transparent" points="-4,4 -4,-652.924 712.0912,-652.924 712.0912,4 -4,4"/>
<!-- 0 -->
<g id="node1" class="node">
<title>0</title>
<text text-anchor="middle" x="434.8494" y="-351.5" font-family="century schoolbook" font-size="10.00" fill="#000000">0,1,2,6</text>
</g>
<!-- 1 -->
<g id="node2" class="node">
<title>1</title>
<text text-anchor="middle" x="582.7557" y="-357.7028" font-family="century schoolbook" font-size="10.00" fill="#000000">0,2,5,6</text>
</g>
<!-- 0&#45;&#45;1 -->
<g id="edge1" class="edge">
<title>0&#45;&#45;1</title>
<path fill="none" stroke="#000000" d="M461.9777,-355.1377C488.5813,-356.2534 528.9189,-357.945 555.5493,-359.0618"/>
</g>
<!-- 2 -->
<g id="node3" class="node">
<title>2</title>
<text text-anchor="middle" x="507.6971" y="-432.827" font-family="century schoolbook" font-size="10.00" fill="#000000">1,2,4,6</text>
</g>
<!-- 0&#45;&#45;2 -->
<g id="edge2" class="edge">
<title>0&#45;&#45;2</title>
<path fill="none" stroke="#000000" d="M451.0167,-372.0491C463.0049,-385.4328 479.2859,-403.6088 491.3231,-417.0471"/>
</g>
<!-- 3 -->
<g id="node4" class="node">
<title>3</title>
<text text-anchor="middle" x="419" y="-497.004" font-family="century schoolbook" font-size="10.00" fill="#000000">1,2,6,8</text>
</g>
<!-- 0&#45;&#45;3 -->
<g id="edge3" class="edge">
<title>0&#45;&#45;3</title>
<path fill="none" stroke="#000000" d="M432.8741,-372.134C429.8369,-400.0164 424.0523,-453.122 421.0002,-481.1415"/>
</g>
<!-- 21 -->
<g id="node22" class="node">
<title>21</title>
<text text-anchor="middle" x="653.0912" y="-449.5799" font-family="century schoolbook" font-size="10.00" fill="#000000">2,4,5,6</text>
</g>
<!-- 1&#45;&#45;21 -->
<g id="edge4" class="edge">
<title>1&#45;&#45;21</title>
<path fill="none" stroke="#000000" d="M596.6517,-378.3547C608.9825,-394.4621 626.902,-417.8697 639.224,-433.9657"/>
</g>
<!-- 22 -->
<g id="node23" class="node">
<title>22</title>
<text text-anchor="middle" x="564.184" y="-523.7265" font-family="century schoolbook" font-size="10.00" fill="#000000">2,5,6,8</text>
</g>
<!-- 1&#45;&#45;22 -->
<g id="edge5" class="edge">
<title>1&#45;&#45;22</title>
<path fill="none" stroke="#000000" d="M580.7329,-378.2863C577.1604,-410.2224 569.775,-476.2451 566.2044,-508.1653"/>
</g>
<!-- 2&#45;&#45;3 -->
<g id="edge6" class="edge">
<title>2&#45;&#45;3</title>
<path fill="none" stroke="#000000" d="M482.5173,-453.5459C470.4303,-462.2915 455.9909,-472.7392 443.9357,-481.4617"/>
</g>
<!-- 2&#45;&#45;21 -->
<g id="edge7" class="edge">
<title>2&#45;&#45;21</title>
<path fill="none" stroke="#000000" d="M534.7039,-438.4388C560.6547,-441.429 599.6686,-445.9243 625.7357,-448.9279"/>
</g>
<!-- 3&#45;&#45;22 -->
<g id="edge8" class="edge">
<title>3&#45;&#45;22</title>
<path fill="none" stroke="#000000" d="M446.308,-504.5303C472.2646,-509.3079 511.0824,-516.4527 536.9985,-521.2228"/>
</g>
<!-- 4 -->
<g id="node5" class="node">
<title>4</title>
<text text-anchor="middle" x="462.8494" y="-71.5" font-family="century schoolbook" font-size="10.00" fill="#000000">0,1,3,5</text>
</g>
<!-- 5 -->
<g id="node6" class="node">
<title>5</title>
<text text-anchor="middle" x="610.7557" y="-77.7028" font-family="century schoolbook" font-size="10.00" fill="#000000">0,1,5,7</text>
</g>
<!-- 4&#45;&#45;5 -->
<g id="edge9" class="edge">
<title>4&#45;&#45;5</title>
<path fill="none" stroke="#000000" d="M489.9777,-75.1377C516.5813,-76.2534 556.9189,-77.945 583.5493,-79.0618"/>
</g>
<!-- 6 -->
<g id="node7" class="node">
<title>6</title>
<text text-anchor="middle" x="535.6971" y="-152.827" font-family="century schoolbook" font-size="10.00" fill="#000000">1,3,4,5</text>
</g>
<!-- 4&#45;&#45;6 -->
<g id="edge10" class="edge">
<title>4&#45;&#45;6</title>
<path fill="none" stroke="#000000" d="M479.0167,-92.0491C491.0049,-105.4328 507.2859,-123.6088 519.3231,-137.0471"/>
</g>
<!-- 7 -->
<g id="node8" class="node">
<title>7</title>
<text text-anchor="middle" x="447" y="-217.004" font-family="century schoolbook" font-size="10.00" fill="#000000">1,3,5,8</text>
</g>
<!-- 4&#45;&#45;7 -->
<g id="edge11" class="edge">
<title>4&#45;&#45;7</title>
<path fill="none" stroke="#000000" d="M460.8741,-92.134C457.8369,-120.0164 452.0523,-173.122 449.0002,-201.1415"/>
</g>
<!-- 10 -->
<g id="node11" class="node">
<title>10</title>
<text text-anchor="middle" x="681.0912" y="-169.5799" font-family="century schoolbook" font-size="10.00" fill="#000000">1,4,5,7</text>
</g>
<!-- 5&#45;&#45;10 -->
<g id="edge12" class="edge">
<title>5&#45;&#45;10</title>
<path fill="none" stroke="#000000" d="M624.6517,-98.3547C636.9825,-114.4621 654.902,-137.8697 667.224,-153.9657"/>
</g>
<!-- 11 -->
<g id="node12" class="node">
<title>11</title>
<text text-anchor="middle" x="592.184" y="-243.7265" font-family="century schoolbook" font-size="10.00" fill="#000000">1,5,7,8</text>
</g>
<!-- 5&#45;&#45;11 -->
<g id="edge13" class="edge">
<title>5&#45;&#45;11</title>
<path fill="none" stroke="#000000" d="M608.7329,-98.2863C605.1604,-130.2224 597.775,-196.2451 594.2044,-228.1653"/>
</g>
<!-- 6&#45;&#45;7 -->
<g id="edge14" class="edge">
<title>6&#45;&#45;7</title>
<path fill="none" stroke="#000000" d="M510.5173,-173.5459C498.4303,-182.2915 483.9909,-192.7392 471.9357,-201.4617"/>
</g>
<!-- 6&#45;&#45;10 -->
<g id="edge15" class="edge">
<title>6&#45;&#45;10</title>
<path fill="none" stroke="#000000" d="M562.7039,-158.4388C588.6547,-161.429 627.6686,-165.9243 653.7357,-168.9279"/>
</g>
<!-- 7&#45;&#45;11 -->
<g id="edge16" class="edge">
<title>7&#45;&#45;11</title>
<path fill="none" stroke="#000000" d="M474.308,-224.5303C500.2646,-229.3079 539.0824,-236.4527 564.9985,-241.2228"/>
</g>
<!-- 8 -->
<g id="node9" class="node">
<title>8</title>
<text text-anchor="middle" x="27" y="-34.1184" font-family="century schoolbook" font-size="10.00" fill="#000000">0,1,4,8</text>
</g>
<!-- 9 -->
<g id="node10" class="node">
<title>9</title>
<text text-anchor="middle" x="151.6168" y="-15.5" font-family="century schoolbook" font-size="10.00" fill="#000000">0,4,5,8</text>
</g>
<!-- 8&#45;&#45;9 -->
<g id="edge17" class="edge">
<title>8&#45;&#45;9</title>
<path fill="none" stroke="#000000" d="M54.04,-32.5785C74.7992,-29.477 103.3464,-25.2119 124.1993,-22.0963"/>
</g>
<!-- 10&#45;&#45;11 -->
<g id="edge18" class="edge">
<title>10&#45;&#45;11</title>
<path fill="none" stroke="#000000" d="M659.1141,-190.4083C645.3331,-201.9014 627.6411,-216.6561 613.9083,-228.109"/>
</g>
<!-- 12 -->
<g id="node13" class="node">
<title>12</title>
<text text-anchor="middle" x="93.6449" y="-316.3492" font-family="century schoolbook" font-size="10.00" fill="#000000">0,2,3,4</text>
</g>
<!-- 13 -->
<g id="node14" class="node">
<title>13</title>
<text text-anchor="middle" x="215.1958" y="-265.9451" font-family="century schoolbook" font-size="10.00" fill="#000000">0,2,3,8</text>
</g>
<!-- 12&#45;&#45;13 -->
<g id="edge19" class="edge">
<title>12&#45;&#45;13</title>
<path fill="none" stroke="#000000" d="M120.9233,-307.5375C140.9418,-299.2364 168.0114,-288.0113 188.0084,-279.719"/>
</g>
<!-- 14 -->
<g id="node15" class="node">
<title>14</title>
<text text-anchor="middle" x="83" y="-153.5874" font-family="century schoolbook" font-size="10.00" fill="#000000">0,2,4,7</text>
</g>
<!-- 12&#45;&#45;14 -->
<g id="edge20" class="edge">
<title>12&#45;&#45;14</title>
<path fill="none" stroke="#000000" d="M92.4651,-300.8089C90.4189,-269.5228 86.235,-205.5508 84.1851,-174.2085"/>
</g>
<!-- 15 -->
<g id="node16" class="node">
<title>15</title>
<text text-anchor="middle" x="259.9056" y="-329.248" font-family="century schoolbook" font-size="10.00" fill="#000000">0,3,4,6</text>
</g>
<!-- 12&#45;&#45;15 -->
<g id="edge21" class="edge">
<title>12&#45;&#45;15</title>
<path fill="none" stroke="#000000" d="M120.7276,-320.9503C151.6448,-323.3489 201.9221,-327.2495 232.8345,-329.6478"/>
</g>
<!-- 16 -->
<g id="node17" class="node">
<title>16</title>
<text text-anchor="middle" x="174.2084" y="-391.2792" font-family="century schoolbook" font-size="10.00" fill="#000000">2,3,4,8</text>
</g>
<!-- 12&#45;&#45;16 -->
<g id="edge22" class="edge">
<title>12&#45;&#45;16</title>
<path fill="none" stroke="#000000" d="M113.1471,-336.9877C125.7205,-348.6819 142.0135,-363.8356 154.6066,-375.5481"/>
</g>
<!-- 13&#45;&#45;16 -->
<g id="edge23" class="edge">
<title>13&#45;&#45;16</title>
<path fill="none" stroke="#000000" d="M209.2359,-286.6697C201.4649,-310.4322 187.95,-351.7593 180.1755,-375.5326"/>
</g>
<!-- 17 -->
<g id="node18" class="node">
<title>17</title>
<text text-anchor="middle" x="189.4349" y="-99.5" font-family="century schoolbook" font-size="10.00" fill="#000000">0,2,7,8</text>
</g>
<!-- 13&#45;&#45;17 -->
<g id="edge24" class="edge">
<title>13&#45;&#45;17</title>
<path fill="none" stroke="#000000" d="M212.3899,-250.3157C207.4346,-218.2985 197.1902,-152.1083 192.2373,-120.107"/>
</g>
<!-- 18 -->
<g id="node19" class="node">
<title>18</title>
<text text-anchor="middle" x="383.54" y="-278.4669" font-family="century schoolbook" font-size="10.00" fill="#000000">0,3,6,8</text>
</g>
<!-- 13&#45;&#45;18 -->
<g id="edge25" class="edge">
<title>13&#45;&#45;18</title>
<path fill="none" stroke="#000000" d="M242.2432,-270.4569C273.5651,-272.7867 324.8689,-276.6028 356.2806,-278.9393"/>
</g>
<!-- 14&#45;&#45;17 -->
<g id="edge26" class="edge">
<title>14&#45;&#45;17</title>
<path fill="none" stroke="#000000" d="M110.1334,-142.2989C126.1468,-134.1614 146.3463,-123.8965 162.351,-115.7633"/>
</g>
<!-- 19 -->
<g id="node20" class="node">
<title>19</title>
<text text-anchor="middle" x="248.3249" y="-149.9136" font-family="century schoolbook" font-size="10.00" fill="#000000">0,4,6,7</text>
</g>
<!-- 14&#45;&#45;19 -->
<g id="edge27" class="edge">
<title>14&#45;&#45;19</title>
<path fill="none" stroke="#000000" d="M110.3,-155.4808C141.0238,-154.798 190.6317,-153.6956 221.2591,-153.015"/>
</g>
<!-- 20 -->
<g id="node21" class="node">
<title>20</title>
<text text-anchor="middle" x="147.5098" y="-226.9307" font-family="century schoolbook" font-size="10.00" fill="#000000">2,4,7,8</text>
</g>
<!-- 14&#45;&#45;20 -->
<g id="edge28" class="edge">
<title>14&#45;&#45;20</title>
<path fill="none" stroke="#000000" d="M98.9462,-174.2172C108.871,-185.5009 121.5912,-199.963 131.5234,-211.2552"/>
</g>
<!-- 15&#45;&#45;18 -->
<g id="edge29" class="edge">
<title>15&#45;&#45;18</title>
<path fill="none" stroke="#000000" d="M287.0377,-320.6039C307.6514,-312.1371 335.8731,-300.5454 356.4712,-292.085"/>
</g>
<!-- 15&#45;&#45;19 -->
<g id="edge30" class="edge">
<title>15&#45;&#45;19</title>
<path fill="none" stroke="#000000" d="M258.7314,-313.5656C256.5118,-279.1935 251.7242,-205.0533 249.5021,-170.6441"/>
</g>
<!-- 24 -->
<g id="node25" class="node">
<title>24</title>
<text text-anchor="middle" x="337.0142" y="-389.1413" font-family="century schoolbook" font-size="10.00" fill="#000000">3,4,6,8</text>
</g>
<!-- 15&#45;&#45;24 -->
<g id="edge31" class="edge">
<title>15&#45;&#45;24</title>
<path fill="none" stroke="#000000" d="M283.4597,-350.0434C293.0262,-357.4741 304.0525,-366.0387 313.6043,-373.4579"/>
</g>
<!-- 16&#45;&#45;20 -->
<g id="edge32" class="edge">
<title>16&#45;&#45;20</title>
<path fill="none" stroke="#000000" d="M171.2492,-375.5631C166.1171,-343.9719 155.6235,-279.3763 150.4823,-247.7284"/>
</g>
<!-- 16&#45;&#45;24 -->
<g id="edge33" class="edge">
<title>16&#45;&#45;24</title>
<path fill="none" stroke="#000000" d="M201.4584,-393.4214C231.6019,-393.0255 279.8765,-392.3916 309.9466,-391.9967"/>
</g>
<!-- 17&#45;&#45;20 -->
<g id="edge34" class="edge">
<title>17&#45;&#45;20</title>
<path fill="none" stroke="#000000" d="M183.4281,-120.2577C175.4581,-144.4823 161.4698,-186.9993 153.5055,-211.2068"/>
</g>
<!-- 23 -->
<g id="node24" class="node">
<title>23</title>
<text text-anchor="middle" x="354.3845" y="-115.8148" font-family="century schoolbook" font-size="10.00" fill="#000000">0,6,7,8</text>
</g>
<!-- 17&#45;&#45;23 -->
<g id="edge35" class="edge">
<title>17&#45;&#45;23</title>
<path fill="none" stroke="#000000" d="M216.673,-104.6941C247.327,-107.726 296.8222,-112.6214 327.3801,-115.6438"/>
</g>
<!-- 18&#45;&#45;23 -->
<g id="edge36" class="edge">
<title>18&#45;&#45;23</title>
<path fill="none" stroke="#000000" d="M380.3085,-262.9388C374.7042,-231.6737 363.2449,-167.7448 357.6305,-136.4236"/>
</g>
<!-- 18&#45;&#45;24 -->
<g id="edge37" class="edge">
<title>18&#45;&#45;24</title>
<path fill="none" stroke="#000000" d="M375.8572,-299.2425C367.2367,-319.7487 353.3335,-352.8212 344.7084,-373.3385"/>
</g>
<!-- 19&#45;&#45;23 -->
<g id="edge38" class="edge">
<title>19&#45;&#45;23</title>
<path fill="none" stroke="#000000" d="M275.3626,-143.7208C291.1968,-138.63 311.1384,-132.2186 327.0273,-127.1103"/>
</g>
<!-- 25 -->
<g id="node26" class="node">
<title>25</title>
<text text-anchor="middle" x="327.0461" y="-224.2692" font-family="century schoolbook" font-size="10.00" fill="#000000">4,6,7,8</text>
</g>
<!-- 19&#45;&#45;25 -->
<g id="edge39" class="edge">
<title>19&#45;&#45;25</title>
<path fill="none" stroke="#000000" d="M267.7841,-170.7936C279.9863,-182.3191 295.6513,-197.1154 307.8108,-208.6005"/>
</g>
<!-- 20&#45;&#45;25 -->
<g id="edge40" class="edge">
<title>20&#45;&#45;25</title>
<path fill="none" stroke="#000000" d="M174.7775,-229.0264C208.6203,-228.5247 265.9914,-227.6743 299.8165,-227.1728"/>
</g>
<!-- 21&#45;&#45;22 -->
<g id="edge41" class="edge">
<title>21&#45;&#45;22</title>
<path fill="none" stroke="#000000" d="M631.1141,-470.4083C617.3331,-481.9014 599.6411,-496.6561 585.9083,-508.109"/>
</g>
<!-- 23&#45;&#45;25 -->
<g id="edge42" class="edge">
<title>23&#45;&#45;25</title>
<path fill="none" stroke="#000000" d="M349.7469,-136.7126C344.6893,-156.7769 336.6457,-188.6865 331.6152,-208.6431"/>
</g>
<!-- 24&#45;&#45;25 -->
<g id="edge43" class="edge">
<title>24&#45;&#45;25</title>
<path fill="none" stroke="#000000" d="M335.9093,-373.3671C333.9882,-341.5915 330.0547,-276.5308 328.1407,-244.8739"/>
</g>
<!-- 26 -->
<g id="node27" class="node">
<title>26</title>
<text text-anchor="middle" x="223" y="-525.7735" font-family="century schoolbook" font-size="10.00" fill="#000000">1,2,3,7</text>
</g>
<!-- 27 -->
<g id="node28" class="node">
<title>27</title>
<text text-anchor="middle" x="382.9018" y="-565.4037" font-family="century schoolbook" font-size="10.00" fill="#000000">1,3,6,7</text>
</g>
<!-- 26&#45;&#45;27 -->
<g id="edge44" class="edge">
<title>26&#45;&#45;27</title>
<path fill="none" stroke="#000000" d="M250.1252,-534.9962C279.5291,-542.2837 326.1877,-553.8476 355.6436,-561.148"/>
</g>
<!-- 28 -->
<g id="node29" class="node">
<title>28</title>
<text text-anchor="middle" x="303.8001" y="-463.5" font-family="century schoolbook" font-size="10.00" fill="#000000">2,3,5,7</text>
</g>
<!-- 26&#45;&#45;28 -->
<g id="edge45" class="edge">
<title>26&#45;&#45;28</title>
<path fill="none" stroke="#000000" d="M246.3707,-510.2614C256.9974,-502.0713 269.5481,-492.3984 280.2019,-484.1873"/>
</g>
<!-- 29 -->
<g id="node30" class="node">
<title>29</title>
<text text-anchor="middle" x="302.608" y="-628.424" font-family="century schoolbook" font-size="10.00" fill="#000000">3,5,6,7</text>
</g>
<!-- 27&#45;&#45;29 -->
<g id="edge46" class="edge">
<title>27&#45;&#45;29</title>
<path fill="none" stroke="#000000" d="M359.6775,-586.1318C349.0248,-594.4928 336.4264,-604.3809 325.7801,-612.7369"/>
</g>
<!-- 28&#45;&#45;29 -->
<g id="edge47" class="edge">
<title>28&#45;&#45;29</title>
<path fill="none" stroke="#000000" d="M303.668,-484.2799C303.4382,-516.0655 302.9678,-581.1467 302.7389,-612.8136"/>
</g>
</g>
</svg>
