<?xml version="1.0" encoding="UTF-8" standalone="no"?>
<!DOCTYPE svg PUBLIC "-//W3C//DTD SVG 1.1//EN"
 "http://www.w3.org/Graphics/SVG/1.1/DTD/svg11.dtd">
<!-- Generated by graphviz version 2.40.1 (20161225.0304)
 -->
<!-- Title: g Pages: 1 -->
<svg width="839pt" height="793pt"
 viewBox="0.00 0.00 838.57 792.85" xmlns="http://www.w3.org/2000/svg" xmlns:xlink="http://www.w3.org/1999/xlink">
<g id="graph0" class="graph" transform="scale(1 1) rotate(0) translate(4 788.8535)">
<title>g</title>
<polygon fill="#ffffff" stroke="transparent" points="-4,4 -4,-788.8535 834.5672,-788.8535 834.5672,4 -4,4"/>
<!-- 0 -->
<g id="node1" class="node">
<title>0</title>
<polygon fill="none" stroke="#000000" points="54,-386.6369 0,-386.6369 0,-350.6369 54,-350.6369 54,-386.6369"/>
<text text-anchor="middle" x="27" y="-366.1369" font-family="century schoolbook" font-size="10.00" fill="#000000">0,2,5</text>
</g>
<!-- 1 -->
<g id="node2" class="node">
<title>1</title>
<polygon fill="none" stroke="#000000" points="162.6231,-153.4286 108.6231,-153.4286 108.6231,-117.4286 162.6231,-117.4286 162.6231,-153.4286"/>
<text text-anchor="middle" x="135.6231" y="-132.9286" font-family="century schoolbook" font-size="10.00" fill="#000000">0,2,9</text>
</g>
<!-- 0&#45;&#45;1 -->
<g id="edge1" class="edge">
<title>0&#45;&#45;1</title>
<path fill="none" stroke="#000000" d="M35.5235,-350.3374C55.8289,-306.7427 106.8738,-197.1519 127.1392,-153.643"/>
</g>
<!-- 2 -->
<g id="node3" class="node">
<title>2</title>
<polygon fill="none" stroke="#000000" points="145.945,-640.1695 91.945,-640.1695 91.945,-604.1695 145.945,-604.1695 145.945,-640.1695"/>
<text text-anchor="middle" x="118.945" y="-619.6695" font-family="century schoolbook" font-size="10.00" fill="#000000">0,3,5</text>
</g>
<!-- 0&#45;&#45;2 -->
<g id="edge2" class="edge">
<title>0&#45;&#45;2</title>
<path fill="none" stroke="#000000" d="M33.6125,-386.8704C50.577,-433.649 95.4939,-557.5047 112.3925,-604.1013"/>
</g>
<!-- 3 -->
<g id="node4" class="node">
<title>3</title>
<polygon fill="none" stroke="#000000" points="181.4616,-315.161 127.4616,-315.161 127.4616,-279.161 181.4616,-279.161 181.4616,-315.161"/>
<text text-anchor="middle" x="154.4616" y="-294.661" font-family="century schoolbook" font-size="10.00" fill="#000000">2,5,7</text>
</g>
<!-- 0&#45;&#45;3 -->
<g id="edge3" class="edge">
<title>0&#45;&#45;3</title>
<path fill="none" stroke="#000000" d="M54.0313,-353.4787C75.5158,-341.431 105.4413,-324.6498 127.0298,-312.5438"/>
</g>
<!-- 17 -->
<g id="node18" class="node">
<title>17</title>
<polygon fill="none" stroke="#000000" points="252.6842,-302.468 198.6842,-302.468 198.6842,-266.468 252.6842,-266.468 252.6842,-302.468"/>
<text text-anchor="middle" x="225.6842" y="-281.968" font-family="century schoolbook" font-size="10.00" fill="#000000">0,7,9</text>
</g>
<!-- 1&#45;&#45;17 -->
<g id="edge4" class="edge">
<title>1&#45;&#45;17</title>
<path fill="none" stroke="#000000" d="M146.6663,-153.7037C163.9515,-182.3084 197.21,-237.3469 214.5506,-266.0434"/>
</g>
<!-- 21 -->
<g id="node22" class="node">
<title>21</title>
<polygon fill="none" stroke="#000000" points="405.0271,-36 351.0271,-36 351.0271,0 405.0271,0 405.0271,-36"/>
<text text-anchor="middle" x="378.0271" y="-15.5" font-family="century schoolbook" font-size="10.00" fill="#000000">2,9,11</text>
</g>
<!-- 1&#45;&#45;21 -->
<g id="edge5" class="edge">
<title>1&#45;&#45;21</title>
<path fill="none" stroke="#000000" d="M162.9587,-122.1863C209.6381,-99.5732 304.1804,-53.7738 350.7914,-31.1939"/>
</g>
<!-- 11 -->
<g id="node12" class="node">
<title>11</title>
<polygon fill="none" stroke="#000000" points="382.3371,-648.2981 328.3371,-648.2981 328.3371,-612.2981 382.3371,-612.2981 382.3371,-648.2981"/>
<text text-anchor="middle" x="355.3371" y="-627.7981" font-family="century schoolbook" font-size="10.00" fill="#000000">3,5,8</text>
</g>
<!-- 2&#45;&#45;11 -->
<g id="edge6" class="edge">
<title>2&#45;&#45;11</title>
<path fill="none" stroke="#000000" d="M146.0622,-623.102C191.5401,-624.6658 282.6638,-627.7992 328.1731,-629.364"/>
</g>
<!-- 22 -->
<g id="node23" class="node">
<title>22</title>
<polygon fill="none" stroke="#000000" points="280.1319,-751.5467 226.1319,-751.5467 226.1319,-715.5467 280.1319,-715.5467 280.1319,-751.5467"/>
<text text-anchor="middle" x="253.1319" y="-731.0467" font-family="century schoolbook" font-size="10.00" fill="#000000">0,3,10</text>
</g>
<!-- 2&#45;&#45;22 -->
<g id="edge7" class="edge">
<title>2&#45;&#45;22</title>
<path fill="none" stroke="#000000" d="M140.8031,-640.3121C165.756,-661.0234 206.3342,-694.7039 231.2832,-715.4119"/>
</g>
<!-- 15 -->
<g id="node16" class="node">
<title>15</title>
<polygon fill="none" stroke="#000000" points="276.7686,-539.2247 222.7686,-539.2247 222.7686,-503.2247 276.7686,-503.2247 276.7686,-539.2247"/>
<text text-anchor="middle" x="249.7686" y="-518.7247" font-family="century schoolbook" font-size="10.00" fill="#000000">5,7,10</text>
</g>
<!-- 3&#45;&#45;15 -->
<g id="edge8" class="edge">
<title>3&#45;&#45;15</title>
<path fill="none" stroke="#000000" d="M162.261,-315.4971C180.1773,-357.6176 224.104,-460.888 241.9952,-502.9495"/>
</g>
<!-- 4 -->
<g id="node5" class="node">
<title>4</title>
<polygon fill="none" stroke="#000000" points="757.8961,-610.8668 703.8961,-610.8668 703.8961,-574.8668 757.8961,-574.8668 757.8961,-610.8668"/>
<text text-anchor="middle" x="730.8961" y="-590.3668" font-family="century schoolbook" font-size="10.00" fill="#000000">1,3,6</text>
</g>
<!-- 5 -->
<g id="node6" class="node">
<title>5</title>
<polygon fill="none" stroke="#000000" points="556.4251,-784.8535 502.4251,-784.8535 502.4251,-748.8535 556.4251,-748.8535 556.4251,-784.8535"/>
<text text-anchor="middle" x="529.4251" y="-764.3535" font-family="century schoolbook" font-size="10.00" fill="#000000">1,3,10</text>
</g>
<!-- 4&#45;&#45;5 -->
<g id="edge9" class="edge">
<title>4&#45;&#45;5</title>
<path fill="none" stroke="#000000" d="M709.716,-611.1576C670.9208,-644.6604 588.9048,-715.488 550.3214,-748.8078"/>
</g>
<!-- 6 -->
<g id="node7" class="node">
<title>6</title>
<polygon fill="none" stroke="#000000" points="830.5672,-357.8719 776.5672,-357.8719 776.5672,-321.8719 830.5672,-321.8719 830.5672,-357.8719"/>
<text text-anchor="middle" x="803.5672" y="-337.3719" font-family="century schoolbook" font-size="10.00" fill="#000000">1,4,6</text>
</g>
<!-- 4&#45;&#45;6 -->
<g id="edge10" class="edge">
<title>4&#45;&#45;6</title>
<path fill="none" stroke="#000000" d="M736.1225,-574.672C749.5308,-527.9925 785.032,-404.3996 798.3882,-357.9018"/>
</g>
<!-- 7 -->
<g id="node8" class="node">
<title>7</title>
<polygon fill="none" stroke="#000000" points="589.1228,-574.6534 535.1228,-574.6534 535.1228,-538.6534 589.1228,-538.6534 589.1228,-574.6534"/>
<text text-anchor="middle" x="562.1228" y="-554.1534" font-family="century schoolbook" font-size="10.00" fill="#000000">3,6,8</text>
</g>
<!-- 4&#45;&#45;7 -->
<g id="edge11" class="edge">
<title>4&#45;&#45;7</title>
<path fill="none" stroke="#000000" d="M703.7798,-587.0485C672.2848,-580.2907 620.6381,-569.2089 589.1719,-562.4572"/>
</g>
<!-- 19 -->
<g id="node20" class="node">
<title>19</title>
<polygon fill="none" stroke="#000000" points="669.2057,-713.2537 615.2057,-713.2537 615.2057,-677.2537 669.2057,-677.2537 669.2057,-713.2537"/>
<text text-anchor="middle" x="642.2057" y="-692.7537" font-family="century schoolbook" font-size="10.00" fill="#000000">1,8,10</text>
</g>
<!-- 5&#45;&#45;19 -->
<g id="edge12" class="edge">
<title>5&#45;&#45;19</title>
<path fill="none" stroke="#000000" d="M556.4388,-749.7036C574.1641,-738.4506 597.2619,-723.7867 615.0214,-712.5119"/>
</g>
<!-- 13 -->
<g id="node14" class="node">
<title>13</title>
<polygon fill="none" stroke="#000000" points="694.2514,-148.2583 640.2514,-148.2583 640.2514,-112.2583 694.2514,-112.2583 694.2514,-148.2583"/>
<text text-anchor="middle" x="667.2514" y="-127.7583" font-family="century schoolbook" font-size="10.00" fill="#000000">4,6,9</text>
</g>
<!-- 6&#45;&#45;13 -->
<g id="edge13" class="edge">
<title>6&#45;&#45;13</title>
<path fill="none" stroke="#000000" d="M791.7085,-321.6367C765.8633,-281.8944 704.7171,-187.8694 678.9856,-148.302"/>
</g>
<!-- 23 -->
<g id="node24" class="node">
<title>23</title>
<polygon fill="none" stroke="#000000" points="786.3327,-229.4234 732.3327,-229.4234 732.3327,-193.4234 786.3327,-193.4234 786.3327,-229.4234"/>
<text text-anchor="middle" x="759.3327" y="-208.9234" font-family="century schoolbook" font-size="10.00" fill="#000000">1,4,11</text>
</g>
<!-- 6&#45;&#45;23 -->
<g id="edge14" class="edge">
<title>6&#45;&#45;23</title>
<path fill="none" stroke="#000000" d="M797.3233,-321.7408C788.8928,-297.2602 773.9589,-253.8953 765.5448,-229.4622"/>
</g>
<!-- 16 -->
<g id="node17" class="node">
<title>16</title>
<polygon fill="none" stroke="#000000" points="665.321,-394.4279 611.321,-394.4279 611.321,-358.4279 665.321,-358.4279 665.321,-394.4279"/>
<text text-anchor="middle" x="638.321" y="-373.9279" font-family="century schoolbook" font-size="10.00" fill="#000000">6,8,11</text>
</g>
<!-- 7&#45;&#45;16 -->
<g id="edge15" class="edge">
<title>7&#45;&#45;16</title>
<path fill="none" stroke="#000000" d="M569.8484,-538.3806C584.4908,-503.7482 616.118,-428.9429 630.6882,-394.4811"/>
</g>
<!-- 8 -->
<g id="node9" class="node">
<title>8</title>
<polygon fill="none" stroke="#000000" points="318.8196,-105.4799 264.8196,-105.4799 264.8196,-69.4799 318.8196,-69.4799 318.8196,-105.4799"/>
<text text-anchor="middle" x="291.8196" y="-84.9799" font-family="century schoolbook" font-size="10.00" fill="#000000">2,4,7</text>
</g>
<!-- 8&#45;&#45;3 -->
<g id="edge16" class="edge">
<title>8&#45;&#45;3</title>
<path fill="none" stroke="#000000" d="M279.8703,-105.7209C253.8275,-145.476 192.2137,-239.5313 166.2855,-279.1115"/>
</g>
<!-- 9 -->
<g id="node10" class="node">
<title>9</title>
<polygon fill="none" stroke="#000000" points="571.077,-48.9415 517.077,-48.9415 517.077,-12.9415 571.077,-12.9415 571.077,-48.9415"/>
<text text-anchor="middle" x="544.077" y="-28.4415" font-family="century schoolbook" font-size="10.00" fill="#000000">2,4,11</text>
</g>
<!-- 8&#45;&#45;9 -->
<g id="edge17" class="edge">
<title>8&#45;&#45;9</title>
<path fill="none" stroke="#000000" d="M319.2958,-81.3216C367.9474,-70.4174 468.6633,-47.8439 517.0165,-37.0065"/>
</g>
<!-- 10 -->
<g id="node11" class="node">
<title>10</title>
<polygon fill="none" stroke="#000000" points="437.7685,-185.2024 383.7685,-185.2024 383.7685,-149.2024 437.7685,-149.2024 437.7685,-185.2024"/>
<text text-anchor="middle" x="410.7685" y="-164.7024" font-family="century schoolbook" font-size="10.00" fill="#000000">4,7,9</text>
</g>
<!-- 8&#45;&#45;10 -->
<g id="edge18" class="edge">
<title>8&#45;&#45;10</title>
<path fill="none" stroke="#000000" d="M318.811,-105.5701C338.2777,-118.6172 364.4418,-136.1531 383.884,-149.1837"/>
</g>
<!-- 9&#45;&#45;21 -->
<g id="edge19" class="edge">
<title>9&#45;&#45;21</title>
<path fill="none" stroke="#000000" d="M517.0287,-28.8334C486.1506,-26.4269 435.9371,-22.5133 405.0639,-20.1072"/>
</g>
<!-- 11&#45;&#45;7 -->
<g id="edge20" class="edge">
<title>11&#45;&#45;7</title>
<path fill="none" stroke="#000000" d="M382.3707,-620.6703C422.001,-606.5564 495.4485,-580.3988 535.0826,-566.2835"/>
</g>
<!-- 12 -->
<g id="node13" class="node">
<title>12</title>
<polygon fill="none" stroke="#000000" points="426.793,-754.0437 372.793,-754.0437 372.793,-718.0437 426.793,-718.0437 426.793,-754.0437"/>
<text text-anchor="middle" x="399.793" y="-733.5437" font-family="century schoolbook" font-size="10.00" fill="#000000">5,8,10</text>
</g>
<!-- 11&#45;&#45;12 -->
<g id="edge21" class="edge">
<title>11&#45;&#45;12</title>
<path fill="none" stroke="#000000" d="M363.0807,-648.7176C371.2403,-668.1265 384.0122,-698.5064 392.1381,-717.8353"/>
</g>
<!-- 13&#45;&#45;10 -->
<g id="edge22" class="edge">
<title>13&#45;&#45;10</title>
<path fill="none" stroke="#000000" d="M639.8033,-134.2119C590.4375,-141.3226 487.2412,-156.1872 438.0193,-163.2771"/>
</g>
<!-- 14 -->
<g id="node15" class="node">
<title>14</title>
<polygon fill="none" stroke="#000000" points="584.3549,-192.6337 530.3549,-192.6337 530.3549,-156.6337 584.3549,-156.6337 584.3549,-192.6337"/>
<text text-anchor="middle" x="557.3549" y="-172.1337" font-family="century schoolbook" font-size="10.00" fill="#000000">6,9,11</text>
</g>
<!-- 13&#45;&#45;14 -->
<g id="edge23" class="edge">
<title>13&#45;&#45;14</title>
<path fill="none" stroke="#000000" d="M640.086,-141.2275C623.1786,-148.0545 601.5089,-156.8046 584.5887,-163.6369"/>
</g>
<!-- 15&#45;&#45;12 -->
<g id="edge24" class="edge">
<title>15&#45;&#45;12</title>
<path fill="none" stroke="#000000" d="M262.5596,-539.5401C290.9035,-580.1254 358.7207,-677.2324 387.0344,-717.7747"/>
</g>
<!-- 16&#45;&#45;14 -->
<g id="edge25" class="edge">
<title>16&#45;&#45;14</title>
<path fill="none" stroke="#000000" d="M630.993,-358.1641C615.578,-319.7447 579.9574,-230.9664 564.608,-192.7108"/>
</g>
<!-- 17&#45;&#45;10 -->
<g id="edge26" class="edge">
<title>17&#45;&#45;10</title>
<path fill="none" stroke="#000000" d="M252.994,-267.1651C288.0878,-244.9304 348.6462,-206.5618 383.6481,-184.3853"/>
</g>
<!-- 18 -->
<g id="node19" class="node">
<title>18</title>
<polygon fill="none" stroke="#000000" points="153.5747,-530.8303 99.5747,-530.8303 99.5747,-494.8303 153.5747,-494.8303 153.5747,-530.8303"/>
<text text-anchor="middle" x="126.5747" y="-510.3303" font-family="century schoolbook" font-size="10.00" fill="#000000">0,7,10</text>
</g>
<!-- 17&#45;&#45;18 -->
<g id="edge27" class="edge">
<title>17&#45;&#45;18</title>
<path fill="none" stroke="#000000" d="M217.7411,-302.7699C199.1378,-345.6346 152.9221,-452.122 134.4179,-494.7583"/>
</g>
<!-- 18&#45;&#45;15 -->
<g id="edge28" class="edge">
<title>18&#45;&#45;15</title>
<path fill="none" stroke="#000000" d="M153.6101,-514.6725C174.0087,-516.0625 201.884,-517.9619 222.3705,-519.3578"/>
</g>
<!-- 19&#45;&#45;12 -->
<g id="edge29" class="edge">
<title>19&#45;&#45;12</title>
<path fill="none" stroke="#000000" d="M614.8691,-699.8535C568.188,-707.7084 473.6424,-723.6173 427.0297,-731.4607"/>
</g>
<!-- 20 -->
<g id="node21" class="node">
<title>20</title>
<polygon fill="none" stroke="#000000" points="802.246,-491.1762 748.246,-491.1762 748.246,-455.1762 802.246,-455.1762 802.246,-491.1762"/>
<text text-anchor="middle" x="775.246" y="-470.6762" font-family="century schoolbook" font-size="10.00" fill="#000000">1,8,11</text>
</g>
<!-- 19&#45;&#45;20 -->
<g id="edge30" class="edge">
<title>19&#45;&#45;20</title>
<path fill="none" stroke="#000000" d="M653.0929,-677.0802C678.1024,-635.333 739.4203,-532.9781 764.3949,-491.2894"/>
</g>
<!-- 20&#45;&#45;16 -->
<g id="edge31" class="edge">
<title>20&#45;&#45;16</title>
<path fill="none" stroke="#000000" d="M749.4914,-454.9786C725.0114,-437.6815 688.4018,-411.8139 663.9601,-394.5439"/>
</g>
<!-- 21&#45;&#45;14 -->
<g id="edge32" class="edge">
<title>21&#45;&#45;14</title>
<path fill="none" stroke="#000000" d="M398.9492,-36.2744C433.5039,-66.4561 502.0992,-126.3706 536.566,-156.4756"/>
</g>
<!-- 22&#45;&#45;5 -->
<g id="edge33" class="edge">
<title>22&#45;&#45;5</title>
<path fill="none" stroke="#000000" d="M280.3801,-736.8314C333.3392,-743.2156 449.585,-757.2289 502.381,-763.5934"/>
</g>
<!-- 22&#45;&#45;18 -->
<g id="edge34" class="edge">
<title>22&#45;&#45;18</title>
<path fill="none" stroke="#000000" d="M242.7752,-715.4845C218.9844,-673.9932 160.6545,-572.2657 136.897,-530.8325"/>
</g>
<!-- 23&#45;&#45;9 -->
<g id="edge35" class="edge">
<title>23&#45;&#45;9</title>
<path fill="none" stroke="#000000" d="M737.5082,-193.1246C696.1444,-158.4429 606.7993,-83.5312 565.6392,-49.0204"/>
</g>
<!-- 23&#45;&#45;20 -->
<g id="edge36" class="edge">
<title>23&#45;&#45;20</title>
<path fill="none" stroke="#000000" d="M760.4517,-229.8293C763.3805,-278.0057 771.2457,-407.3778 774.1493,-455.1381"/>
</g>
</g>
</svg>
