<?xml version="1.0" encoding="UTF-8" standalone="no"?>
<!DOCTYPE svg PUBLIC "-//W3C//DTD SVG 1.1//EN"
 "http://www.w3.org/Graphics/SVG/1.1/DTD/svg11.dtd">
<!-- Generated by graphviz version 2.40.1 (20161225.0304)
 -->
<!-- Title: g Pages: 1 -->
<svg width="668pt" height="638pt"
 viewBox="0.00 0.00 668.13 638.35" xmlns="http://www.w3.org/2000/svg" xmlns:xlink="http://www.w3.org/1999/xlink">
<g id="graph0" class="graph" transform="scale(1 1) rotate(0) translate(4 634.3479)">
<title>g</title>
<polygon fill="#ffffff" stroke="transparent" points="-4,4 -4,-634.3479 664.1276,-634.3479 664.1276,4 -4,4"/>
<!-- 0 -->
<g id="node1" class="node">
<title>0</title>
<text text-anchor="middle" x="413.2082" y="-177.3544" font-family="century schoolbook" font-size="10.00" fill="#000000">136</text>
</g>
<!-- 1 -->
<g id="node2" class="node">
<title>1</title>
<text text-anchor="middle" x="273.7878" y="-270.6434" font-family="century schoolbook" font-size="10.00" fill="#000000">137</text>
</g>
<!-- 0&#45;&#45;1 -->
<g id="edge1" class="edge">
<title>0&#45;&#45;1</title>
<path fill="none" stroke="#000000" d="M385.9955,-198.0629C361.4293,-214.5007 325.4768,-238.5573 300.9318,-254.9808"/>
</g>
<!-- 2 -->
<g id="node3" class="node">
<title>2</title>
<text text-anchor="middle" x="409.643" y="-21.6857" font-family="century schoolbook" font-size="10.00" fill="#000000">146</text>
</g>
<!-- 0&#45;&#45;2 -->
<g id="edge2" class="edge">
<title>0&#45;&#45;2</title>
<path fill="none" stroke="#000000" d="M412.7922,-161.6925C412.1052,-131.6968 410.7415,-72.1514 410.0563,-42.2319"/>
</g>
<!-- 3 -->
<g id="node4" class="node">
<title>3</title>
<text text-anchor="middle" x="497.1725" y="-309.2217" font-family="century schoolbook" font-size="10.00" fill="#000000">236</text>
</g>
<!-- 0&#45;&#45;3 -->
<g id="edge3" class="edge">
<title>0&#45;&#45;3</title>
<path fill="none" stroke="#000000" d="M424.707,-197.9135C440.6962,-223.0248 469.4846,-268.2373 485.5431,-293.4575"/>
</g>
<!-- 4 -->
<g id="node5" class="node">
<title>4</title>
<text text-anchor="middle" x="112.3131" y="-244.927" font-family="century schoolbook" font-size="10.00" fill="#000000">157</text>
</g>
<!-- 1&#45;&#45;4 -->
<g id="edge4" class="edge">
<title>1&#45;&#45;4</title>
<path fill="none" stroke="#000000" d="M246.7606,-268.8391C216.9533,-264.092 169.271,-256.4981 139.4285,-251.7454"/>
</g>
<!-- 5 -->
<g id="node6" class="node">
<title>5</title>
<text text-anchor="middle" x="364.3539" y="-410.0267" font-family="century schoolbook" font-size="10.00" fill="#000000">237</text>
</g>
<!-- 1&#45;&#45;5 -->
<g id="edge5" class="edge">
<title>1&#45;&#45;5</title>
<path fill="none" stroke="#000000" d="M285.6277,-291.3654C302.9847,-318.0781 335.1525,-367.585 352.5111,-394.3003"/>
</g>
<!-- 6 -->
<g id="node7" class="node">
<title>6</title>
<text text-anchor="middle" x="240.6759" y="-15.5" font-family="century schoolbook" font-size="10.00" fill="#000000">148</text>
</g>
<!-- 2&#45;&#45;6 -->
<g id="edge6" class="edge">
<title>2&#45;&#45;6</title>
<path fill="none" stroke="#000000" d="M382.4955,-23.1919C350.9644,-22.0376 299.2584,-20.1446 267.756,-18.9914"/>
</g>
<!-- 7 -->
<g id="node8" class="node">
<title>7</title>
<text text-anchor="middle" x="526.987" y="-84.2636" font-family="century schoolbook" font-size="10.00" fill="#000000">346</text>
</g>
<!-- 2&#45;&#45;7 -->
<g id="edge7" class="edge">
<title>2&#45;&#45;7</title>
<path fill="none" stroke="#000000" d="M436.859,-38.6996C455.8162,-48.8092 480.9937,-62.236 499.9185,-72.3284"/>
</g>
<!-- 3&#45;&#45;5 -->
<g id="edge8" class="edge">
<title>3&#45;&#45;5</title>
<path fill="none" stroke="#000000" d="M473.4272,-329.7436C449.4009,-347.9788 412.4542,-376.0201 388.3415,-394.3209"/>
</g>
<!-- 12 -->
<g id="node13" class="node">
<title>12</title>
<text text-anchor="middle" x="633.1276" y="-369.9644" font-family="century schoolbook" font-size="10.00" fill="#000000">256</text>
</g>
<!-- 3&#45;&#45;12 -->
<g id="edge9" class="edge">
<title>3&#45;&#45;12</title>
<path fill="none" stroke="#000000" d="M524.3583,-323.8679C548.0704,-334.4621 582.2908,-349.7512 605.989,-360.3392"/>
</g>
<!-- 8 -->
<g id="node9" class="node">
<title>8</title>
<text text-anchor="middle" x="100.0892" y="-108.6438" font-family="century schoolbook" font-size="10.00" fill="#000000">158</text>
</g>
<!-- 4&#45;&#45;8 -->
<g id="edge10" class="edge">
<title>4&#45;&#45;8</title>
<path fill="none" stroke="#000000" d="M110.6899,-229.3296C108.3519,-203.2636 104.0609,-155.4236 101.7191,-129.316"/>
</g>
<!-- 10 -->
<g id="node11" class="node">
<title>10</title>
<text text-anchor="middle" x="41.9036" y="-397.3681" font-family="century schoolbook" font-size="10.00" fill="#000000">457</text>
</g>
<!-- 4&#45;&#45;10 -->
<g id="edge11" class="edge">
<title>4&#45;&#45;10</title>
<path fill="none" stroke="#000000" d="M103.9598,-265.5126C90.4088,-294.8512 63.7901,-352.4825 50.2461,-381.806"/>
</g>
<!-- 13 -->
<g id="node14" class="node">
<title>13</title>
<text text-anchor="middle" x="304.7992" y="-552.5656" font-family="century schoolbook" font-size="10.00" fill="#000000">267</text>
</g>
<!-- 5&#45;&#45;13 -->
<g id="edge12" class="edge">
<title>5&#45;&#45;13</title>
<path fill="none" stroke="#000000" d="M356.8113,-430.5793C345.4183,-457.8475 323.9361,-509.2631 312.4688,-536.7093"/>
</g>
<!-- 6&#45;&#45;8 -->
<g id="edge13" class="edge">
<title>6&#45;&#45;8</title>
<path fill="none" stroke="#000000" d="M213.5694,-35.9591C188.6747,-52.4527 151.9809,-76.7637 127.1125,-93.2399"/>
</g>
<!-- 9 -->
<g id="node10" class="node">
<title>9</title>
<text text-anchor="middle" x="355.3283" y="-72.7824" font-family="century schoolbook" font-size="10.00" fill="#000000">348</text>
</g>
<!-- 6&#45;&#45;9 -->
<g id="edge14" class="edge">
<title>6&#45;&#45;9</title>
<path fill="none" stroke="#000000" d="M267.8469,-31.5751C285.991,-40.6402 309.7692,-52.5203 327.955,-61.6062"/>
</g>
<!-- 7&#45;&#45;9 -->
<g id="edge15" class="edge">
<title>7&#45;&#45;9</title>
<path fill="none" stroke="#000000" d="M499.7871,-84.9443C467.6444,-82.7945 414.4879,-79.2392 382.4008,-77.0931"/>
</g>
<!-- 15 -->
<g id="node16" class="node">
<title>15</title>
<text text-anchor="middle" x="618.2239" y="-227.9797" font-family="century schoolbook" font-size="10.00" fill="#000000">356</text>
</g>
<!-- 7&#45;&#45;15 -->
<g id="edge16" class="edge">
<title>7&#45;&#45;15</title>
<path fill="none" stroke="#000000" d="M538.5422,-104.9653C556.092,-132.6097 589.2685,-184.8693 606.7625,-212.4257"/>
</g>
<!-- 11 -->
<g id="node12" class="node">
<title>11</title>
<text text-anchor="middle" x="27" y="-255.3833" font-family="century schoolbook" font-size="10.00" fill="#000000">458</text>
</g>
<!-- 8&#45;&#45;11 -->
<g id="edge17" class="edge">
<title>8&#45;&#45;11</title>
<path fill="none" stroke="#000000" d="M90.9801,-129.4318C76.8978,-157.7046 50.0066,-211.6935 35.9942,-239.8259"/>
</g>
<!-- 20 -->
<g id="node21" class="node">
<title>20</title>
<text text-anchor="middle" x="295.7736" y="-215.3212" font-family="century schoolbook" font-size="10.00" fill="#000000">378</text>
</g>
<!-- 9&#45;&#45;20 -->
<g id="edge18" class="edge">
<title>9&#45;&#45;20</title>
<path fill="none" stroke="#000000" d="M347.7856,-93.335C336.3926,-120.6032 314.9105,-172.0188 303.4431,-199.4649"/>
</g>
<!-- 10&#45;&#45;11 -->
<g id="edge19" class="edge">
<title>10&#45;&#45;11</title>
<path fill="none" stroke="#000000" d="M39.9857,-381.5967C37.124,-354.3338 31.7679,-303.3066 28.9105,-276.0846"/>
</g>
<!-- 18 -->
<g id="node19" class="node">
<title>18</title>
<text text-anchor="middle" x="133.1406" y="-541.0843" font-family="century schoolbook" font-size="10.00" fill="#000000">467</text>
</g>
<!-- 10&#45;&#45;18 -->
<g id="edge20" class="edge">
<title>10&#45;&#45;18</title>
<path fill="none" stroke="#000000" d="M53.4588,-418.0698C71.0087,-445.7143 104.1852,-497.9739 121.6792,-525.5303"/>
</g>
<!-- 22 -->
<g id="node23" class="node">
<title>22</title>
<text text-anchor="middle" x="162.9548" y="-316.1262" font-family="century schoolbook" font-size="10.00" fill="#000000">478</text>
</g>
<!-- 11&#45;&#45;22 -->
<g id="edge21" class="edge">
<title>11&#45;&#45;22</title>
<path fill="none" stroke="#000000" d="M54.1857,-270.0296C77.8978,-280.6238 112.1181,-295.913 135.8162,-306.501"/>
</g>
<!-- 14 -->
<g id="node15" class="node">
<title>14</title>
<text text-anchor="middle" x="560.0385" y="-516.704" font-family="century schoolbook" font-size="10.00" fill="#000000">259</text>
</g>
<!-- 12&#45;&#45;14 -->
<g id="edge22" class="edge">
<title>12&#45;&#45;14</title>
<path fill="none" stroke="#000000" d="M624.0186,-390.7524C609.9363,-419.0252 583.045,-473.0142 569.0327,-501.1465"/>
</g>
<!-- 12&#45;&#45;15 -->
<g id="edge23" class="edge">
<title>12&#45;&#45;15</title>
<path fill="none" stroke="#000000" d="M631.2097,-354.193C628.348,-326.9302 622.9919,-275.903 620.1344,-248.6809"/>
</g>
<!-- 16 -->
<g id="node17" class="node">
<title>16</title>
<text text-anchor="middle" x="419.4516" y="-609.8479" font-family="century schoolbook" font-size="10.00" fill="#000000">269</text>
</g>
<!-- 13&#45;&#45;16 -->
<g id="edge24" class="edge">
<title>13&#45;&#45;16</title>
<path fill="none" stroke="#000000" d="M331.9703,-568.6407C350.1143,-577.7058 373.8926,-589.5858 392.0783,-598.6717"/>
</g>
<!-- 13&#45;&#45;18 -->
<g id="edge25" class="edge">
<title>13&#45;&#45;18</title>
<path fill="none" stroke="#000000" d="M277.5994,-553.2463C245.4567,-551.0965 192.3002,-547.5412 160.2132,-545.395"/>
</g>
<!-- 14&#45;&#45;16 -->
<g id="edge26" class="edge">
<title>14&#45;&#45;16</title>
<path fill="none" stroke="#000000" d="M532.9319,-537.1631C508.0372,-553.6568 471.3434,-577.9677 446.475,-594.4439"/>
</g>
<!-- 17 -->
<g id="node18" class="node">
<title>17</title>
<text text-anchor="middle" x="547.8146" y="-380.4209" font-family="century schoolbook" font-size="10.00" fill="#000000">359</text>
</g>
<!-- 14&#45;&#45;17 -->
<g id="edge27" class="edge">
<title>14&#45;&#45;17</title>
<path fill="none" stroke="#000000" d="M558.4152,-501.1067C556.0772,-475.0406 551.7862,-427.2007 549.4445,-401.0931"/>
</g>
<!-- 15&#45;&#45;17 -->
<g id="edge28" class="edge">
<title>15&#45;&#45;17</title>
<path fill="none" stroke="#000000" d="M609.8705,-248.5653C596.3196,-277.904 569.701,-335.5353 556.1571,-364.8588"/>
</g>
<!-- 19 -->
<g id="node20" class="node">
<title>19</title>
<text text-anchor="middle" x="250.4846" y="-603.6622" font-family="century schoolbook" font-size="10.00" fill="#000000">469</text>
</g>
<!-- 16&#45;&#45;19 -->
<g id="edge29" class="edge">
<title>16&#45;&#45;19</title>
<path fill="none" stroke="#000000" d="M392.3042,-611.354C360.7731,-610.1997 309.067,-608.3068 277.5647,-607.1536"/>
</g>
<!-- 21 -->
<g id="node22" class="node">
<title>21</title>
<text text-anchor="middle" x="386.3397" y="-354.7045" font-family="century schoolbook" font-size="10.00" fill="#000000">379</text>
</g>
<!-- 17&#45;&#45;21 -->
<g id="edge30" class="edge">
<title>17&#45;&#45;21</title>
<path fill="none" stroke="#000000" d="M520.7873,-378.6165C490.98,-373.8694 443.2977,-366.2756 413.4551,-361.5229"/>
</g>
<!-- 18&#45;&#45;19 -->
<g id="edge31" class="edge">
<title>18&#45;&#45;19</title>
<path fill="none" stroke="#000000" d="M160.3566,-558.0982C179.3138,-568.2078 204.4913,-581.6347 223.4161,-591.727"/>
</g>
<!-- 23 -->
<g id="node24" class="node">
<title>23</title>
<text text-anchor="middle" x="246.9193" y="-447.9935" font-family="century schoolbook" font-size="10.00" fill="#000000">479</text>
</g>
<!-- 19&#45;&#45;23 -->
<g id="edge32" class="edge">
<title>19&#45;&#45;23</title>
<path fill="none" stroke="#000000" d="M250.0686,-588.0004C249.3816,-558.0046 248.0179,-498.4592 247.3326,-468.5396"/>
</g>
<!-- 20&#45;&#45;21 -->
<g id="edge33" class="edge">
<title>20&#45;&#45;21</title>
<path fill="none" stroke="#000000" d="M307.6135,-236.0432C324.9704,-262.7559 357.1383,-312.2629 374.4969,-338.9781"/>
</g>
<!-- 20&#45;&#45;22 -->
<g id="edge34" class="edge">
<title>20&#45;&#45;22</title>
<path fill="none" stroke="#000000" d="M272.0282,-235.8432C248.0019,-254.0783 211.0551,-282.1197 186.9424,-300.4205"/>
</g>
<!-- 21&#45;&#45;23 -->
<g id="edge35" class="edge">
<title>21&#45;&#45;23</title>
<path fill="none" stroke="#000000" d="M359.1271,-375.413C334.5609,-391.8508 298.6083,-415.9073 274.0633,-432.3309"/>
</g>
<!-- 22&#45;&#45;23 -->
<g id="edge36" class="edge">
<title>22&#45;&#45;23</title>
<path fill="none" stroke="#000000" d="M174.4536,-336.6853C190.4429,-361.7966 219.2313,-407.0091 235.2899,-432.2293"/>
</g>
</g>
</svg>
