<?xml version="1.0" encoding="UTF-8" standalone="no"?>
<!DOCTYPE svg PUBLIC "-//W3C//DTD SVG 1.1//EN"
 "http://www.w3.org/Graphics/SVG/1.1/DTD/svg11.dtd">
<!-- Generated by graphviz version 2.40.1 (20161225.0304)
 -->
<!-- Title: g Pages: 1 -->
<svg width="517pt" height="420pt"
 viewBox="0.00 0.00 516.81 419.96" xmlns="http://www.w3.org/2000/svg" xmlns:xlink="http://www.w3.org/1999/xlink">
<g id="graph0" class="graph" transform="scale(1 1) rotate(0) translate(4 415.9587)">
<title>g</title>
<polygon fill="#ffffff" stroke="transparent" points="-4,4 -4,-415.9587 512.8144,-415.9587 512.8144,4 -4,4"/>
<!-- 0 -->
<g id="node1" class="node">
<title>0</title>
<polygon fill="none" stroke="#000000" points="162,-195.9587 108,-195.9587 108,-159.9587 162,-159.9587 162,-195.9587"/>
<text text-anchor="middle" x="135" y="-175.4587" font-family="century schoolbook" font-size="10.00" fill="#000000">0,2,5</text>
</g>
<!-- 1 -->
<g id="node2" class="node">
<title>1</title>
<polygon fill="none" stroke="#000000" points="268.8144,-180 214.8144,-180 214.8144,-144 268.8144,-144 268.8144,-180"/>
<text text-anchor="middle" x="241.8144" y="-159.5" font-family="century schoolbook" font-size="10.00" fill="#000000">0,3,5</text>
</g>
<!-- 0&#45;&#45;1 -->
<g id="edge1" class="edge">
<title>0&#45;&#45;1</title>
<path fill="none" stroke="#000000" d="M162.2302,-173.8903C178.3006,-171.4893 198.5722,-168.4606 214.634,-166.0609"/>
</g>
<!-- 2 -->
<g id="node3" class="node">
<title>2</title>
<polygon fill="none" stroke="#000000" points="258,-243.9587 204,-243.9587 204,-207.9587 258,-207.9587 258,-243.9587"/>
<text text-anchor="middle" x="231" y="-223.4587" font-family="century schoolbook" font-size="10.00" fill="#000000">1,3,6</text>
</g>
<!-- 3 -->
<g id="node4" class="node">
<title>3</title>
<polygon fill="none" stroke="#000000" points="364.8144,-228 310.8144,-228 310.8144,-192 364.8144,-192 364.8144,-228"/>
<text text-anchor="middle" x="337.8144" y="-207.5" font-family="century schoolbook" font-size="10.00" fill="#000000">1,4,6</text>
</g>
<!-- 2&#45;&#45;3 -->
<g id="edge2" class="edge">
<title>2&#45;&#45;3</title>
<path fill="none" stroke="#000000" d="M258.2302,-221.8903C274.3006,-219.4893 294.5722,-216.4606 310.634,-214.0609"/>
</g>
<!-- 4 -->
<g id="node5" class="node">
<title>4</title>
<polygon fill="none" stroke="#000000" points="330,-315.9587 276,-315.9587 276,-279.9587 330,-279.9587 330,-315.9587"/>
<text text-anchor="middle" x="303" y="-295.4587" font-family="century schoolbook" font-size="10.00" fill="#000000">2,4,7</text>
</g>
<!-- 5 -->
<g id="node6" class="node">
<title>5</title>
<polygon fill="none" stroke="#000000" points="436.8144,-300 382.8144,-300 382.8144,-264 436.8144,-264 436.8144,-300"/>
<text text-anchor="middle" x="409.8144" y="-279.5" font-family="century schoolbook" font-size="10.00" fill="#000000">2,5,7</text>
</g>
<!-- 4&#45;&#45;5 -->
<g id="edge3" class="edge">
<title>4&#45;&#45;5</title>
<path fill="none" stroke="#000000" d="M330.2302,-293.8903C346.3006,-291.4893 366.5722,-288.4606 382.634,-286.0609"/>
</g>
<!-- 6 -->
<g id="node7" class="node">
<title>6</title>
<polygon fill="none" stroke="#000000" points="354,-123.9587 300,-123.9587 300,-87.9587 354,-87.9587 354,-123.9587"/>
<text text-anchor="middle" x="327" y="-103.4587" font-family="century schoolbook" font-size="10.00" fill="#000000">3,5,8</text>
</g>
<!-- 7 -->
<g id="node8" class="node">
<title>7</title>
<polygon fill="none" stroke="#000000" points="460.8144,-108 406.8144,-108 406.8144,-72 460.8144,-72 460.8144,-108"/>
<text text-anchor="middle" x="433.8144" y="-87.5" font-family="century schoolbook" font-size="10.00" fill="#000000">3,6,8</text>
</g>
<!-- 6&#45;&#45;7 -->
<g id="edge4" class="edge">
<title>6&#45;&#45;7</title>
<path fill="none" stroke="#000000" d="M354.2302,-101.8903C370.3006,-99.4893 390.5722,-96.4606 406.634,-94.0609"/>
</g>
<!-- 8 -->
<g id="node9" class="node">
<title>8</title>
<polygon fill="none" stroke="#000000" points="138,-339.9587 84,-339.9587 84,-303.9587 138,-303.9587 138,-339.9587"/>
<text text-anchor="middle" x="111" y="-319.4587" font-family="century schoolbook" font-size="10.00" fill="#000000">4,6,9</text>
</g>
<!-- 9 -->
<g id="node10" class="node">
<title>9</title>
<polygon fill="none" stroke="#000000" points="244.8144,-324 190.8144,-324 190.8144,-288 244.8144,-288 244.8144,-324"/>
<text text-anchor="middle" x="217.8144" y="-303.5" font-family="century schoolbook" font-size="10.00" fill="#000000">4,7,9</text>
</g>
<!-- 8&#45;&#45;9 -->
<g id="edge5" class="edge">
<title>8&#45;&#45;9</title>
<path fill="none" stroke="#000000" d="M138.2302,-317.8903C154.3006,-315.4893 174.5722,-312.4606 190.634,-310.0609"/>
</g>
<!-- 10 -->
<g id="node11" class="node">
<title>10</title>
<polygon fill="none" stroke="#000000" points="138,-123.9587 84,-123.9587 84,-87.9587 138,-87.9587 138,-123.9587"/>
<text text-anchor="middle" x="111" y="-103.4587" font-family="century schoolbook" font-size="10.00" fill="#000000">5,7,10</text>
</g>
<!-- 11 -->
<g id="node12" class="node">
<title>11</title>
<polygon fill="none" stroke="#000000" points="244.8144,-108 190.8144,-108 190.8144,-72 244.8144,-72 244.8144,-108"/>
<text text-anchor="middle" x="217.8144" y="-87.5" font-family="century schoolbook" font-size="10.00" fill="#000000">5,8,10</text>
</g>
<!-- 10&#45;&#45;11 -->
<g id="edge6" class="edge">
<title>10&#45;&#45;11</title>
<path fill="none" stroke="#000000" d="M138.2302,-101.8903C154.3006,-99.4893 174.5722,-96.4606 190.634,-94.0609"/>
</g>
<!-- 12 -->
<g id="node13" class="node">
<title>12</title>
<polygon fill="none" stroke="#000000" points="402,-387.9587 348,-387.9587 348,-351.9587 402,-351.9587 402,-387.9587"/>
<text text-anchor="middle" x="375" y="-367.4587" font-family="century schoolbook" font-size="10.00" fill="#000000">6,8,11</text>
</g>
<!-- 13 -->
<g id="node14" class="node">
<title>13</title>
<polygon fill="none" stroke="#000000" points="508.8144,-372 454.8144,-372 454.8144,-336 508.8144,-336 508.8144,-372"/>
<text text-anchor="middle" x="481.8144" y="-351.5" font-family="century schoolbook" font-size="10.00" fill="#000000">6,9,11</text>
</g>
<!-- 12&#45;&#45;13 -->
<g id="edge7" class="edge">
<title>12&#45;&#45;13</title>
<path fill="none" stroke="#000000" d="M402.2302,-365.8903C418.3006,-363.4893 438.5722,-360.4606 454.634,-358.0609"/>
</g>
<!-- 14 -->
<g id="node15" class="node">
<title>14</title>
<polygon fill="none" stroke="#000000" points="330,-51.9587 276,-51.9587 276,-15.9587 330,-15.9587 330,-51.9587"/>
<text text-anchor="middle" x="303" y="-31.4587" font-family="century schoolbook" font-size="10.00" fill="#000000">0,7,9</text>
</g>
<!-- 15 -->
<g id="node16" class="node">
<title>15</title>
<polygon fill="none" stroke="#000000" points="436.8144,-36 382.8144,-36 382.8144,0 436.8144,0 436.8144,-36"/>
<text text-anchor="middle" x="409.8144" y="-15.5" font-family="century schoolbook" font-size="10.00" fill="#000000">0,7,10</text>
</g>
<!-- 14&#45;&#45;15 -->
<g id="edge8" class="edge">
<title>14&#45;&#45;15</title>
<path fill="none" stroke="#000000" d="M330.2302,-29.8903C346.3006,-27.4893 366.5722,-24.4606 382.634,-22.0609"/>
</g>
<!-- 16 -->
<g id="node17" class="node">
<title>16</title>
<polygon fill="none" stroke="#000000" points="210,-411.9587 156,-411.9587 156,-375.9587 210,-375.9587 210,-411.9587"/>
<text text-anchor="middle" x="183" y="-391.4587" font-family="century schoolbook" font-size="10.00" fill="#000000">1,8,10</text>
</g>
<!-- 17 -->
<g id="node18" class="node">
<title>17</title>
<polygon fill="none" stroke="#000000" points="316.8144,-396 262.8144,-396 262.8144,-360 316.8144,-360 316.8144,-396"/>
<text text-anchor="middle" x="289.8144" y="-375.5" font-family="century schoolbook" font-size="10.00" fill="#000000">1,8,11</text>
</g>
<!-- 16&#45;&#45;17 -->
<g id="edge9" class="edge">
<title>16&#45;&#45;17</title>
<path fill="none" stroke="#000000" d="M210.2302,-389.8903C226.3006,-387.4893 246.5722,-384.4606 262.634,-382.0609"/>
</g>
<!-- 18 -->
<g id="node19" class="node">
<title>18</title>
<polygon fill="none" stroke="#000000" points="66,-51.9587 12,-51.9587 12,-15.9587 66,-15.9587 66,-51.9587"/>
<text text-anchor="middle" x="39" y="-31.4587" font-family="century schoolbook" font-size="10.00" fill="#000000">0,3,10</text>
</g>
<!-- 19 -->
<g id="node20" class="node">
<title>19</title>
<polygon fill="none" stroke="#000000" points="172.8144,-36 118.8144,-36 118.8144,0 172.8144,0 172.8144,-36"/>
<text text-anchor="middle" x="145.8144" y="-15.5" font-family="century schoolbook" font-size="10.00" fill="#000000">1,3,10</text>
</g>
<!-- 18&#45;&#45;19 -->
<g id="edge10" class="edge">
<title>18&#45;&#45;19</title>
<path fill="none" stroke="#000000" d="M66.2302,-29.8903C82.3006,-27.4893 102.5722,-24.4606 118.634,-22.0609"/>
</g>
<!-- 20 -->
<g id="node21" class="node">
<title>20</title>
<polygon fill="none" stroke="#000000" points="54,-291.9587 0,-291.9587 0,-255.9587 54,-255.9587 54,-291.9587"/>
<text text-anchor="middle" x="27" y="-271.4587" font-family="century schoolbook" font-size="10.00" fill="#000000">1,4,11</text>
</g>
<!-- 21 -->
<g id="node22" class="node">
<title>21</title>
<polygon fill="none" stroke="#000000" points="160.8144,-276 106.8144,-276 106.8144,-240 160.8144,-240 160.8144,-276"/>
<text text-anchor="middle" x="133.8144" y="-255.5" font-family="century schoolbook" font-size="10.00" fill="#000000">2,4,11</text>
</g>
<!-- 20&#45;&#45;21 -->
<g id="edge11" class="edge">
<title>20&#45;&#45;21</title>
<path fill="none" stroke="#000000" d="M54.2302,-269.8903C70.3006,-267.4893 90.5722,-264.4606 106.634,-262.0609"/>
</g>
</g>
</svg>
