<?xml version="1.0" encoding="UTF-8" standalone="no"?>
<!DOCTYPE svg PUBLIC "-//W3C//DTD SVG 1.1//EN"
 "http://www.w3.org/Graphics/SVG/1.1/DTD/svg11.dtd">
<!-- Generated by graphviz version 2.40.1 (20161225.0304)
 -->
<!-- Title: g Pages: 1 -->
<svg width="558pt" height="512pt"
 viewBox="0.00 0.00 557.55 512.28" xmlns="http://www.w3.org/2000/svg" xmlns:xlink="http://www.w3.org/1999/xlink">
<g id="graph0" class="graph" transform="scale(1 1) rotate(0) translate(4 508.2805)">
<title>g</title>
<polygon fill="#ffffff" stroke="transparent" points="-4,4 -4,-508.2805 553.5474,-508.2805 553.5474,4 -4,4"/>
<!-- 0 -->
<g id="node1" class="node">
<title>0</title>
<polygon fill="none" stroke="#000000" points="193.2475,-190.8141 139.2475,-190.8141 139.2475,-154.8141 193.2475,-154.8141 193.2475,-190.8141"/>
<text text-anchor="middle" x="166.2475" y="-170.3141" font-family="century schoolbook" font-size="10.00" fill="#000000">0</text>
</g>
<!-- 1 -->
<g id="node2" class="node">
<title>1</title>
<polygon fill="none" stroke="#000000" points="92.7812,-86.8083 38.7812,-86.8083 38.7812,-50.8083 92.7812,-50.8083 92.7812,-86.8083"/>
<text text-anchor="middle" x="65.7812" y="-66.3083" font-family="century schoolbook" font-size="10.00" fill="#000000">1,2</text>
</g>
<!-- 0&#45;&#45;1 -->
<g id="edge1" class="edge">
<title>0&#45;&#45;1</title>
<path fill="none" stroke="#000000" d="M155.3778,-154.5079C140.0222,-135.4639 111.9416,-106.0376 91.2309,-87.032"/>
</g>
<!-- 0&#45;&#45;1 -->
<g id="edge2" class="edge">
<title>0&#45;&#45;1</title>
<path fill="none" stroke="#000000" d="M140.8876,-154.6728C120.0758,-135.5851 91.7773,-105.9226 76.4457,-86.8598"/>
</g>
<!-- 2 -->
<g id="node3" class="node">
<title>2</title>
<polygon fill="none" stroke="#000000" points="54,-229.7137 0,-229.7137 0,-193.7137 54,-193.7137 54,-229.7137"/>
<text text-anchor="middle" x="27" y="-209.2137" font-family="century schoolbook" font-size="10.00" fill="#000000">3,4</text>
</g>
<!-- 0&#45;&#45;2 -->
<g id="edge3" class="edge">
<title>0&#45;&#45;2</title>
<path fill="none" stroke="#000000" d="M138.9328,-174.8505C114.3945,-179.8875 78.5788,-189.8274 54.1052,-198.3514"/>
</g>
<!-- 0&#45;&#45;2 -->
<g id="edge4" class="edge">
<title>0&#45;&#45;2</title>
<path fill="none" stroke="#000000" d="M139.2315,-186.1452C114.6873,-194.7 78.682,-204.6899 54.1087,-209.7195"/>
</g>
<!-- 3 -->
<g id="node4" class="node">
<title>3</title>
<polygon fill="none" stroke="#000000" points="309.1971,-127.3316 255.1971,-127.3316 255.1971,-91.3316 309.1971,-91.3316 309.1971,-127.3316"/>
<text text-anchor="middle" x="282.1971" y="-106.8316" font-family="century schoolbook" font-size="10.00" fill="#000000">5,6</text>
</g>
<!-- 0&#45;&#45;3 -->
<g id="edge5" class="edge">
<title>0&#45;&#45;3</title>
<path fill="none" stroke="#000000" d="M193.4326,-157.9303C212.0407,-147.7423 236.6107,-134.2902 255.1824,-124.1222"/>
</g>
<!-- 4 -->
<g id="node5" class="node">
<title>4</title>
<polygon fill="none" stroke="#000000" points="261.3524,-304.1595 207.3524,-304.1595 207.3524,-268.1595 261.3524,-268.1595 261.3524,-304.1595"/>
<text text-anchor="middle" x="234.3524" y="-283.6595" font-family="century schoolbook" font-size="10.00" fill="#000000">5,7</text>
</g>
<!-- 0&#45;&#45;4 -->
<g id="edge6" class="edge">
<title>0&#45;&#45;4</title>
<path fill="none" stroke="#000000" d="M177.1897,-191.025C189.8988,-212.1765 210.7398,-246.8616 223.4373,-267.9938"/>
</g>
<!-- 5 -->
<g id="node6" class="node">
<title>5</title>
<polygon fill="none" stroke="#000000" points="241.6503,-353.949 187.6503,-353.949 187.6503,-317.949 241.6503,-317.949 241.6503,-353.949"/>
<text text-anchor="middle" x="214.6503" y="-333.449" font-family="century schoolbook" font-size="10.00" fill="#000000">6,8</text>
</g>
<!-- 0&#45;&#45;5 -->
<g id="edge7" class="edge">
<title>0&#45;&#45;5</title>
<path fill="none" stroke="#000000" d="M171.6124,-190.8957C180.9164,-222.2536 199.9407,-286.3723 209.2614,-317.7865"/>
</g>
<!-- 6 -->
<g id="node7" class="node">
<title>6</title>
<polygon fill="none" stroke="#000000" points="317.3779,-74.4025 263.3779,-74.4025 263.3779,-38.4025 317.3779,-38.4025 317.3779,-74.4025"/>
<text text-anchor="middle" x="290.3779" y="-53.9025" font-family="century schoolbook" font-size="10.00" fill="#000000">7,8</text>
</g>
<!-- 0&#45;&#45;6 -->
<g id="edge8" class="edge">
<title>0&#45;&#45;6</title>
<path fill="none" stroke="#000000" d="M185.6429,-154.6248C208.9628,-132.755 247.8597,-96.2769 271.1187,-74.4641"/>
</g>
<!-- 7 -->
<g id="node8" class="node">
<title>7</title>
<polygon fill="none" stroke="#000000" points="457.4949,-145.6388 403.4949,-145.6388 403.4949,-109.6388 457.4949,-109.6388 457.4949,-145.6388"/>
<text text-anchor="middle" x="430.4949" y="-125.1388" font-family="century schoolbook" font-size="10.00" fill="#000000">3</text>
</g>
<!-- 7&#45;&#45;3 -->
<g id="edge9" class="edge">
<title>7&#45;&#45;3</title>
<path fill="none" stroke="#000000" d="M403.2948,-124.281C376.5371,-120.9778 335.9227,-115.964 309.2248,-112.6681"/>
</g>
<!-- 7&#45;&#45;6 -->
<g id="edge10" class="edge">
<title>7&#45;&#45;6</title>
<path fill="none" stroke="#000000" d="M403.4789,-113.9037C378.8264,-101.3703 342.5646,-82.9345 317.789,-70.3385"/>
</g>
<!-- 8 -->
<g id="node9" class="node">
<title>8</title>
<polygon fill="none" stroke="#000000" points="549.5474,-36 495.5474,-36 495.5474,0 549.5474,0 549.5474,-36"/>
<text text-anchor="middle" x="522.5474" y="-15.5" font-family="century schoolbook" font-size="10.00" fill="#000000">0,4</text>
</g>
<!-- 7&#45;&#45;8 -->
<g id="edge11" class="edge">
<title>7&#45;&#45;8</title>
<path fill="none" stroke="#000000" d="M452.8966,-109.5166C472.4565,-89.1253 499.6383,-56.3895 513.6873,-36.0292"/>
</g>
<!-- 7&#45;&#45;8 -->
<g id="edge12" class="edge">
<title>7&#45;&#45;8</title>
<path fill="none" stroke="#000000" d="M439.5839,-109.2786C453.6401,-88.9789 480.4723,-56.6673 499.9081,-36.3701"/>
</g>
<!-- 9 -->
<g id="node10" class="node">
<title>9</title>
<polygon fill="none" stroke="#000000" points="541.6101,-241.6321 487.6101,-241.6321 487.6101,-205.6321 541.6101,-205.6321 541.6101,-241.6321"/>
<text text-anchor="middle" x="514.6101" y="-221.1321" font-family="century schoolbook" font-size="10.00" fill="#000000">1,5</text>
</g>
<!-- 7&#45;&#45;9 -->
<g id="edge13" class="edge">
<title>7&#45;&#45;9</title>
<path fill="none" stroke="#000000" d="M446.3163,-145.6944C461.2596,-162.7478 483.5603,-188.1976 498.5736,-205.3311"/>
</g>
<!-- 10 -->
<g id="node11" class="node">
<title>10</title>
<polygon fill="none" stroke="#000000" points="480.1892,-271.266 426.1892,-271.266 426.1892,-235.266 480.1892,-235.266 480.1892,-271.266"/>
<text text-anchor="middle" x="453.1892" y="-250.766" font-family="century schoolbook" font-size="10.00" fill="#000000">1,8</text>
</g>
<!-- 7&#45;&#45;10 -->
<g id="edge14" class="edge">
<title>7&#45;&#45;10</title>
<path fill="none" stroke="#000000" d="M433.7948,-145.906C438.0975,-169.7241 445.5806,-211.1477 449.8852,-234.9767"/>
</g>
<!-- 11 -->
<g id="node12" class="node">
<title>11</title>
<polygon fill="none" stroke="#000000" points="399.8086,-246.4445 345.8086,-246.4445 345.8086,-210.4445 399.8086,-210.4445 399.8086,-246.4445"/>
<text text-anchor="middle" x="372.8086" y="-225.9445" font-family="century schoolbook" font-size="10.00" fill="#000000">2,6</text>
</g>
<!-- 7&#45;&#45;11 -->
<g id="edge15" class="edge">
<title>7&#45;&#45;11</title>
<path fill="none" stroke="#000000" d="M420.1817,-145.6608C409.7465,-163.8962 393.6997,-191.9377 383.227,-210.2386"/>
</g>
<!-- 12 -->
<g id="node13" class="node">
<title>12</title>
<polygon fill="none" stroke="#000000" points="523.0969,-321.0276 469.0969,-321.0276 469.0969,-285.0276 523.0969,-285.0276 523.0969,-321.0276"/>
<text text-anchor="middle" x="496.0969" y="-300.5276" font-family="century schoolbook" font-size="10.00" fill="#000000">2,7</text>
</g>
<!-- 7&#45;&#45;12 -->
<g id="edge16" class="edge">
<title>7&#45;&#45;12</title>
<path fill="none" stroke="#000000" d="M437.2684,-145.7479C449.872,-179.444 476.7846,-251.3955 489.3603,-285.017"/>
</g>
<!-- 13 -->
<g id="node14" class="node">
<title>13</title>
<polygon fill="none" stroke="#000000" points="398.6032,-363.31 344.6032,-363.31 344.6032,-327.31 398.6032,-327.31 398.6032,-363.31"/>
<text text-anchor="middle" x="371.6032" y="-342.81" font-family="century schoolbook" font-size="10.00" fill="#000000">4</text>
</g>
<!-- 13&#45;&#45;4 -->
<g id="edge17" class="edge">
<title>13&#45;&#45;4</title>
<path fill="none" stroke="#000000" d="M344.4869,-333.6238C320.4249,-323.2539 285.4573,-308.184 261.4124,-297.8215"/>
</g>
<!-- 13&#45;&#45;5 -->
<g id="edge18" class="edge">
<title>13&#45;&#45;5</title>
<path fill="none" stroke="#000000" d="M344.2641,-343.6795C315.4565,-341.9613 270.365,-339.272 241.6761,-337.5609"/>
</g>
<!-- 13&#45;&#45;9 -->
<g id="edge19" class="edge">
<title>13&#45;&#45;9</title>
<path fill="none" stroke="#000000" d="M393.0128,-327.0936C419.9725,-304.1548 466.0256,-264.9704 493.0542,-241.973"/>
</g>
<!-- 13&#45;&#45;10 -->
<g id="edge20" class="edge">
<title>13&#45;&#45;10</title>
<path fill="none" stroke="#000000" d="M387.722,-327.1251C402.0251,-310.9885 422.8109,-287.5383 437.1039,-271.4131"/>
</g>
<!-- 13&#45;&#45;11 -->
<g id="edge21" class="edge">
<title>13&#45;&#45;11</title>
<path fill="none" stroke="#000000" d="M371.7889,-327.3059C372.0148,-305.4087 372.3939,-268.6546 372.6207,-246.6616"/>
</g>
<!-- 13&#45;&#45;12 -->
<g id="edge22" class="edge">
<title>13&#45;&#45;12</title>
<path fill="none" stroke="#000000" d="M398.6165,-336.1354C419.3552,-329.0918 447.8742,-319.4057 468.7065,-312.3303"/>
</g>
<!-- 14 -->
<g id="node15" class="node">
<title>14</title>
<polygon fill="none" stroke="#000000" points="422.8805,-504.2805 368.8805,-504.2805 368.8805,-468.2805 422.8805,-468.2805 422.8805,-504.2805"/>
<text text-anchor="middle" x="395.8805" y="-483.7805" font-family="century schoolbook" font-size="10.00" fill="#000000">0,3</text>
</g>
<!-- 13&#45;&#45;14 -->
<g id="edge23" class="edge">
<title>13&#45;&#45;14</title>
<path fill="none" stroke="#000000" d="M370.0328,-363.3789C371.8504,-390.3187 380.465,-440.7251 387.8284,-467.8647"/>
</g>
<!-- 13&#45;&#45;14 -->
<g id="edge24" class="edge">
<title>13&#45;&#45;14</title>
<path fill="none" stroke="#000000" d="M379.5964,-363.5092C386.9636,-390.5627 395.6069,-441.0739 397.4441,-468.1105"/>
</g>
</g>
</svg>
