<?xml version="1.0" encoding="UTF-8" standalone="no"?>
<!DOCTYPE svg PUBLIC "-//W3C//DTD SVG 1.1//EN"
 "http://www.w3.org/Graphics/SVG/1.1/DTD/svg11.dtd">
<!-- Generated by graphviz version 2.40.1 (20161225.0304)
 -->
<!-- Title: g Pages: 1 -->
<svg width="548pt" height="1029pt"
 viewBox="0.00 0.00 547.56 1028.80" xmlns="http://www.w3.org/2000/svg" xmlns:xlink="http://www.w3.org/1999/xlink">
<g id="graph0" class="graph" transform="scale(1 1) rotate(0) translate(4 1024.804)">
<title>g</title>
<polygon fill="#ffffff" stroke="transparent" points="-4,4 -4,-1024.804 543.5614,-1024.804 543.5614,4 -4,4"/>
<!-- 0 -->
<g id="node1" class="node">
<title>0</title>
<text text-anchor="middle" x="385.4193" y="-202.1966" font-family="century schoolbook" font-size="10.00" fill="#000000">136</text>
</g>
<!-- 1 -->
<g id="node2" class="node">
<title>1</title>
<text text-anchor="middle" x="420.3145" y="-75.5364" font-family="century schoolbook" font-size="10.00" fill="#000000">137</text>
</g>
<!-- 0&#45;&#45;1 -->
<g id="edge1" class="edge">
<title>0&#45;&#45;1</title>
<path fill="none" stroke="#000000" d="M390.419,-186.5493C397.0525,-162.4712 408.6952,-120.2112 415.3241,-96.1501"/>
</g>
<!-- 2 -->
<g id="node3" class="node">
<title>2</title>
<text text-anchor="middle" x="244.6558" y="-218.3386" font-family="century schoolbook" font-size="10.00" fill="#000000">146</text>
</g>
<!-- 0&#45;&#45;2 -->
<g id="edge2" class="edge">
<title>0&#45;&#45;2</title>
<path fill="none" stroke="#000000" d="M358.2787,-207.8089C333.3527,-210.6673 296.6128,-214.8804 271.7131,-217.7358"/>
</g>
<!-- 3 -->
<g id="node4" class="node">
<title>3</title>
<text text-anchor="middle" x="440.0818" y="-335.9231" font-family="century schoolbook" font-size="10.00" fill="#000000">236</text>
</g>
<!-- 0&#45;&#45;3 -->
<g id="edge3" class="edge">
<title>0&#45;&#45;3</title>
<path fill="none" stroke="#000000" d="M392.7914,-222.7315C403.2241,-248.2541 422.1879,-294.6474 432.652,-320.2468"/>
</g>
<!-- 4 -->
<g id="node5" class="node">
<title>4</title>
<text text-anchor="middle" x="272.6581" y="-15.5" font-family="century schoolbook" font-size="10.00" fill="#000000">157</text>
</g>
<!-- 1&#45;&#45;4 -->
<g id="edge4" class="edge">
<title>1&#45;&#45;4</title>
<path fill="none" stroke="#000000" d="M393.232,-67.0248C366.6733,-56.2262 326.4039,-39.8528 299.8185,-29.0433"/>
</g>
<!-- 5 -->
<g id="node6" class="node">
<title>5</title>
<text text-anchor="middle" x="512.5614" y="-206.6407" font-family="century schoolbook" font-size="10.00" fill="#000000">237</text>
</g>
<!-- 1&#45;&#45;5 -->
<g id="edge5" class="edge">
<title>1&#45;&#45;5</title>
<path fill="none" stroke="#000000" d="M433.141,-96.2659C450.765,-121.3138 482.2772,-166.0998 499.8438,-191.0661"/>
</g>
<!-- 6 -->
<g id="node7" class="node">
<title>6</title>
<text text-anchor="middle" x="104.3824" y="-231.7963" font-family="century schoolbook" font-size="10.00" fill="#000000">148</text>
</g>
<!-- 2&#45;&#45;6 -->
<g id="edge6" class="edge">
<title>2&#45;&#45;6</title>
<path fill="none" stroke="#000000" d="M217.6097,-223.4333C192.9297,-225.8011 156.6274,-229.2839 131.8241,-231.6635"/>
</g>
<!-- 7 -->
<g id="node8" class="node">
<title>7</title>
<text text-anchor="middle" x="283.5497" y="-348.7105" font-family="century schoolbook" font-size="10.00" fill="#000000">346</text>
</g>
<!-- 2&#45;&#45;7 -->
<g id="edge7" class="edge">
<title>2&#45;&#45;7</title>
<path fill="none" stroke="#000000" d="M250.0638,-238.9662C257.4529,-263.7342 270.6319,-307.9102 278.0622,-332.8165"/>
</g>
<!-- 3&#45;&#45;5 -->
<g id="edge8" class="edge">
<title>3&#45;&#45;5</title>
<path fill="none" stroke="#000000" d="M450.3126,-320.1743C464.1262,-295.5348 488.5958,-251.8883 502.3826,-227.2967"/>
</g>
<!-- 3&#45;&#45;7 -->
<g id="edge9" class="edge">
<title>3&#45;&#45;7</title>
<path fill="none" stroke="#000000" d="M412.816,-340.6505C384.1731,-342.9903 339.3891,-346.6488 310.7652,-348.9872"/>
</g>
<!-- 10 -->
<g id="node11" class="node">
<title>10</title>
<text text-anchor="middle" x="475.8853" y="-494.8521" font-family="century schoolbook" font-size="10.00" fill="#000000">256</text>
</g>
<!-- 3&#45;&#45;10 -->
<g id="edge10" class="edge">
<title>3&#45;&#45;10</title>
<path fill="none" stroke="#000000" d="M444.1889,-356.6542C451.0953,-387.3111 464.952,-448.82 471.8261,-479.3336"/>
</g>
<!-- 8 -->
<g id="node9" class="node">
<title>8</title>
<text text-anchor="middle" x="127.3459" y="-83.7991" font-family="century schoolbook" font-size="10.00" fill="#000000">158</text>
</g>
<!-- 4&#45;&#45;8 -->
<g id="edge11" class="edge">
<title>4&#45;&#45;8</title>
<path fill="none" stroke="#000000" d="M245.326,-30.8465C219.3465,-43.0573 180.4944,-61.3185 154.5555,-73.5102"/>
</g>
<!-- 6&#45;&#45;8 -->
<g id="edge12" class="edge">
<title>6&#45;&#45;8</title>
<path fill="none" stroke="#000000" d="M107.1982,-216.1489C111.6055,-187.7443 120.0857,-133.0907 124.5071,-104.5949"/>
</g>
<!-- 9 -->
<g id="node10" class="node">
<title>9</title>
<text text-anchor="middle" x="128.9268" y="-378.1344" font-family="century schoolbook" font-size="10.00" fill="#000000">348</text>
</g>
<!-- 6&#45;&#45;9 -->
<g id="edge13" class="edge">
<title>6&#45;&#45;9</title>
<path fill="none" stroke="#000000" d="M107.4413,-252.5342C112.1704,-280.7297 121.2009,-334.5709 125.9064,-362.6263"/>
</g>
<!-- 7&#45;&#45;9 -->
<g id="edge14" class="edge">
<title>7&#45;&#45;9</title>
<path fill="none" stroke="#000000" d="M256.2622,-356.4031C227.9988,-361.7815 184.1039,-370.1345 155.9416,-375.4936"/>
</g>
<!-- 12 -->
<g id="node13" class="node">
<title>12</title>
<text text-anchor="middle" x="384.9611" y="-434.6163" font-family="century schoolbook" font-size="10.00" fill="#000000">356</text>
</g>
<!-- 7&#45;&#45;12 -->
<g id="edge15" class="edge">
<title>7&#45;&#45;12</title>
<path fill="none" stroke="#000000" d="M305.0565,-369.4289C322.2663,-384.0074 346.2837,-404.3526 363.4854,-418.9241"/>
</g>
<!-- 18 -->
<g id="node19" class="node">
<title>18</title>
<text text-anchor="middle" x="64.5879" y="-520.9619" font-family="century schoolbook" font-size="10.00" fill="#000000">458</text>
</g>
<!-- 9&#45;&#45;18 -->
<g id="edge16" class="edge">
<title>9&#45;&#45;18</title>
<path fill="none" stroke="#000000" d="M120.7782,-398.7236C108.47,-426.047 85.2621,-477.5667 72.8735,-505.0685"/>
</g>
<!-- 11 -->
<g id="node12" class="node">
<title>11</title>
<text text-anchor="middle" x="411.5271" y="-637.8149" font-family="century schoolbook" font-size="10.00" fill="#000000">267</text>
</g>
<!-- 10&#45;&#45;11 -->
<g id="edge17" class="edge">
<title>10&#45;&#45;11</title>
<path fill="none" stroke="#000000" d="M467.7343,-515.4585C455.4224,-542.8077 432.2075,-594.3762 419.8152,-621.904"/>
</g>
<!-- 10&#45;&#45;12 -->
<g id="edge18" class="edge">
<title>10&#45;&#45;12</title>
<path fill="none" stroke="#000000" d="M448.605,-479.2794C437.097,-471.6555 423.728,-462.7988 412.2221,-455.1763"/>
</g>
<!-- 14 -->
<g id="node15" class="node">
<title>14</title>
<text text-anchor="middle" x="435.5067" y="-784.3837" font-family="century schoolbook" font-size="10.00" fill="#000000">269</text>
</g>
<!-- 11&#45;&#45;14 -->
<g id="edge19" class="edge">
<title>11&#45;&#45;14</title>
<path fill="none" stroke="#000000" d="M414.5157,-658.5816C419.1359,-686.8215 427.9585,-740.7476 432.5558,-768.8472"/>
</g>
<!-- 16 -->
<g id="node17" class="node">
<title>16</title>
<text text-anchor="middle" x="256.9611" y="-667.1738" font-family="century schoolbook" font-size="10.00" fill="#000000">467</text>
</g>
<!-- 11&#45;&#45;16 -->
<g id="edge20" class="edge">
<title>11&#45;&#45;16</title>
<path fill="none" stroke="#000000" d="M384.2496,-645.4961C355.9966,-650.8626 312.1179,-659.1971 283.9659,-664.5444"/>
</g>
<!-- 13 -->
<g id="node14" class="node">
<title>13</title>
<text text-anchor="middle" x="411.7513" y="-932.4202" font-family="century schoolbook" font-size="10.00" fill="#000000">259</text>
</g>
<!-- 13&#45;&#45;14 -->
<g id="edge21" class="edge">
<title>13&#45;&#45;14</title>
<path fill="none" stroke="#000000" d="M414.6642,-916.768C419.2235,-888.3558 427.9961,-833.6877 432.57,-805.1843"/>
</g>
<!-- 15 -->
<g id="node16" class="node">
<title>15</title>
<text text-anchor="middle" x="266.149" y="-1000.304" font-family="century schoolbook" font-size="10.00" fill="#000000">359</text>
</g>
<!-- 13&#45;&#45;15 -->
<g id="edge22" class="edge">
<title>13&#45;&#45;15</title>
<path fill="none" stroke="#000000" d="M384.7059,-947.5295C358.7179,-959.6458 319.6481,-977.8612 293.5437,-990.0318"/>
</g>
<!-- 17 -->
<g id="node18" class="node">
<title>17</title>
<text text-anchor="middle" x="295.3039" y="-797.6538" font-family="century schoolbook" font-size="10.00" fill="#000000">469</text>
</g>
<!-- 14&#45;&#45;17 -->
<g id="edge23" class="edge">
<title>14&#45;&#45;17</title>
<path fill="none" stroke="#000000" d="M408.4742,-789.4423C383.8066,-791.7771 347.5225,-795.2114 322.7318,-797.5578"/>
</g>
<!-- 19 -->
<g id="node20" class="node">
<title>19</title>
<text text-anchor="middle" x="118.7014" y="-939.8182" font-family="century schoolbook" font-size="10.00" fill="#000000">379</text>
</g>
<!-- 15&#45;&#45;19 -->
<g id="edge24" class="edge">
<title>15&#45;&#45;19</title>
<path fill="none" stroke="#000000" d="M239.1048,-991.71C212.5837,-980.8305 172.3713,-964.3346 145.8234,-953.4441"/>
</g>
<!-- 16&#45;&#45;17 -->
<g id="edge25" class="edge">
<title>16&#45;&#45;17</title>
<path fill="none" stroke="#000000" d="M262.2925,-687.8165C269.5768,-712.605 282.5692,-756.8177 289.8942,-781.7446"/>
</g>
<!-- 21 -->
<g id="node22" class="node">
<title>21</title>
<text text-anchor="middle" x="100.2148" y="-679.6227" font-family="century schoolbook" font-size="10.00" fill="#000000">478</text>
</g>
<!-- 16&#45;&#45;21 -->
<g id="edge26" class="edge">
<title>16&#45;&#45;21</title>
<path fill="none" stroke="#000000" d="M229.658,-671.8422C200.9759,-674.1202 156.1306,-677.6818 127.4675,-679.9583"/>
</g>
<!-- 22 -->
<g id="node23" class="node">
<title>22</title>
<text text-anchor="middle" x="154.403" y="-813.4382" font-family="century schoolbook" font-size="10.00" fill="#000000">479</text>
</g>
<!-- 17&#45;&#45;22 -->
<g id="edge27" class="edge">
<title>17&#45;&#45;22</title>
<path fill="none" stroke="#000000" d="M268.1368,-803.1972C243.1864,-805.9923 206.4107,-810.1121 181.4867,-812.9042"/>
</g>
<!-- 18&#45;&#45;21 -->
<g id="edge28" class="edge">
<title>18&#45;&#45;21</title>
<path fill="none" stroke="#000000" d="M68.6747,-541.6624C75.5105,-572.1047 89.1889,-633.0202 96.0658,-663.6459"/>
</g>
<!-- 19&#45;&#45;22 -->
<g id="edge29" class="edge">
<title>19&#45;&#45;22</title>
<path fill="none" stroke="#000000" d="M123.8166,-924.211C130.6034,-900.1862 142.5152,-858.0197 149.2973,-834.0118"/>
</g>
<!-- 20 -->
<g id="node21" class="node">
<title>20</title>
<text text-anchor="middle" x="27" y="-808.4051" font-family="century schoolbook" font-size="10.00" fill="#000000">378</text>
</g>
<!-- 20&#45;&#45;19 -->
<g id="edge30" class="edge">
<title>20&#45;&#45;19</title>
<path fill="none" stroke="#000000" d="M39.7507,-829.1775C57.2705,-854.2844 88.5963,-899.1759 106.059,-924.2009"/>
</g>
<!-- 20&#45;&#45;21 -->
<g id="edge31" class="edge">
<title>20&#45;&#45;21</title>
<path fill="none" stroke="#000000" d="M37.3346,-792.7269C51.2884,-768.1827 76.0061,-724.705 89.9327,-700.2085"/>
</g>
<!-- 21&#45;&#45;22 -->
<g id="edge32" class="edge">
<title>21&#45;&#45;22</title>
<path fill="none" stroke="#000000" d="M107.5228,-700.1697C117.865,-725.7093 136.6644,-772.1334 147.0377,-797.7498"/>
</g>
<!-- 23 -->
<g id="node24" class="node">
<title>23</title>
<text text-anchor="middle" x="156.1003" y="-580.9472" font-family="century schoolbook" font-size="10.00" fill="#000000">457</text>
</g>
<!-- 23&#45;&#45;16 -->
<g id="edge33" class="edge">
<title>23&#45;&#45;16</title>
<path fill="none" stroke="#000000" d="M177.4903,-601.7336C194.6067,-616.3666 218.4937,-636.7877 235.602,-651.4137"/>
</g>
<!-- 23&#45;&#45;18 -->
<g id="edge34" class="edge">
<title>23&#45;&#45;18</title>
<path fill="none" stroke="#000000" d="M128.6436,-565.4496C116.9558,-557.7885 103.3608,-548.8771 91.7099,-541.2401"/>
</g>
</g>
</svg>
