<?xml version="1.0" encoding="UTF-8" standalone="no"?>
<!DOCTYPE svg PUBLIC "-//W3C//DTD SVG 1.1//EN"
 "http://www.w3.org/Graphics/SVG/1.1/DTD/svg11.dtd">
<!-- Generated by graphviz version 2.40.1 (20161225.0304)
 -->
<!-- Title: g Pages: 1 -->
<svg width="508pt" height="796pt"
 viewBox="0.00 0.00 507.58 796.04" xmlns="http://www.w3.org/2000/svg" xmlns:xlink="http://www.w3.org/1999/xlink">
<g id="graph0" class="graph" transform="scale(1 1) rotate(0) translate(4 792.0369)">
<title>g</title>
<polygon fill="#ffffff" stroke="transparent" points="-4,4 -4,-792.0369 503.585,-792.0369 503.585,4 -4,4"/>
<!-- 0 -->
<g id="node1" class="node">
<title>0</title>
<text text-anchor="middle" x="165.9609" y="-43.2863" font-family="century schoolbook" font-size="10.00" fill="#000000">136</text>
</g>
<!-- 1 -->
<g id="node2" class="node">
<title>1</title>
<text text-anchor="middle" x="142.3334" y="-142.0807" font-family="century schoolbook" font-size="10.00" fill="#000000">137</text>
</g>
<!-- 0&#45;&#45;1 -->
<g id="edge1" class="edge">
<title>0&#45;&#45;1</title>
<path fill="none" stroke="#000000" d="M161.6272,-63.9067C157.3641,-81.7324 150.8932,-108.7893 146.6395,-126.5752"/>
</g>
<!-- 2 -->
<g id="node3" class="node">
<title>2</title>
<text text-anchor="middle" x="218.1069" y="-180.8193" font-family="century schoolbook" font-size="10.00" fill="#000000">146</text>
</g>
<!-- 0&#45;&#45;2 -->
<g id="edge2" class="edge">
<title>0&#45;&#45;2</title>
<path fill="none" stroke="#000000" d="M172.8855,-64.0496C182.8591,-90.3547 201.1641,-138.6334 211.1536,-164.9804"/>
</g>
<!-- 3 -->
<g id="node4" class="node">
<title>3</title>
<text text-anchor="middle" x="289.7995" y="-123.6787" font-family="century schoolbook" font-size="10.00" fill="#000000">236</text>
</g>
<!-- 0&#45;&#45;3 -->
<g id="edge3" class="edge">
<title>0&#45;&#45;3</title>
<path fill="none" stroke="#000000" d="M193.1378,-63.4287C213.7855,-76.8326 242.0539,-95.1836 262.686,-108.5774"/>
</g>
<!-- 4 -->
<g id="node5" class="node">
<title>4</title>
<text text-anchor="middle" x="248.0893" y="-15.5" font-family="century schoolbook" font-size="10.00" fill="#000000">237</text>
</g>
<!-- 0&#45;&#45;4 -->
<g id="edge4" class="edge">
<title>0&#45;&#45;4</title>
<path fill="none" stroke="#000000" d="M193.3085,-36.5338C202.1743,-33.5343 212.004,-30.2086 220.8611,-27.212"/>
</g>
<!-- 1&#45;&#45;2 -->
<g id="edge5" class="edge">
<title>1&#45;&#45;2</title>
<path fill="none" stroke="#000000" d="M169.6893,-158.5663C176.6415,-162.1205 184.1076,-165.9375 191.0451,-169.4842"/>
</g>
<!-- 1&#45;&#45;3 -->
<g id="edge6" class="edge">
<title>1&#45;&#45;3</title>
<path fill="none" stroke="#000000" d="M169.3809,-141.2055C195.9054,-137.8956 236.1229,-132.8769 262.6741,-129.5636"/>
</g>
<!-- 1&#45;&#45;4 -->
<g id="edge7" class="edge">
<title>1&#45;&#45;4</title>
<path fill="none" stroke="#000000" d="M157.4856,-126.4448C177.5898,-102.3818 212.8751,-60.1483 232.9651,-36.1023"/>
</g>
<!-- 5 -->
<g id="node6" class="node">
<title>5</title>
<text text-anchor="middle" x="105.4752" y="-265.8832" font-family="century schoolbook" font-size="10.00" fill="#000000">148</text>
</g>
<!-- 1&#45;&#45;5 -->
<g id="edge8" class="edge">
<title>1&#45;&#45;5</title>
<path fill="none" stroke="#000000" d="M136.9739,-162.5827C129.9858,-186.0548 117.8324,-226.8767 110.8411,-250.3595"/>
</g>
<!-- 6 -->
<g id="node7" class="node">
<title>6</title>
<text text-anchor="middle" x="170.4755" y="-286.2361" font-family="century schoolbook" font-size="10.00" fill="#000000">157</text>
</g>
<!-- 1&#45;&#45;6 -->
<g id="edge9" class="edge">
<title>1&#45;&#45;6</title>
<path fill="none" stroke="#000000" d="M145.8976,-162.8381C151.3109,-190.567 161.5442,-242.9863 166.9402,-270.627"/>
</g>
<!-- 2&#45;&#45;3 -->
<g id="edge10" class="edge">
<title>2&#45;&#45;3</title>
<path fill="none" stroke="#000000" d="M240.7909,-165.2397C249.1595,-158.5697 258.6397,-151.0138 267.017,-144.3369"/>
</g>
<!-- 2&#45;&#45;5 -->
<g id="edge11" class="edge">
<title>2&#45;&#45;5</title>
<path fill="none" stroke="#000000" d="M194.2206,-201.3592C175.1066,-215.7948 148.4319,-235.9406 129.327,-250.3693"/>
</g>
<!-- 2&#45;&#45;6 -->
<g id="edge12" class="edge">
<title>2&#45;&#45;6</title>
<path fill="none" stroke="#000000" d="M209.8101,-201.6815C201.0677,-221.0301 187.3836,-251.3155 178.6772,-270.5843"/>
</g>
<!-- 7 -->
<g id="node8" class="node">
<title>7</title>
<text text-anchor="middle" x="298.9166" y="-268.8172" font-family="century schoolbook" font-size="10.00" fill="#000000">256</text>
</g>
<!-- 2&#45;&#45;7 -->
<g id="edge13" class="edge">
<title>2&#45;&#45;7</title>
<path fill="none" stroke="#000000" d="M234.8507,-201.5525C248.7196,-216.6551 268.3312,-238.0112 282.1942,-253.1073"/>
</g>
<!-- 8 -->
<g id="node9" class="node">
<title>8</title>
<text text-anchor="middle" x="354.1353" y="-233.2473" font-family="century schoolbook" font-size="10.00" fill="#000000">346</text>
</g>
<!-- 2&#45;&#45;8 -->
<g id="edge14" class="edge">
<title>2&#45;&#45;8</title>
<path fill="none" stroke="#000000" d="M245.3073,-193.8029C269.0322,-202.9469 303.271,-216.1432 326.982,-225.2819"/>
</g>
<!-- 3&#45;&#45;4 -->
<g id="edge15" class="edge">
<title>3&#45;&#45;4</title>
<path fill="none" stroke="#000000" d="M282.724,-107.8277C275.0075,-87.8144 262.7354,-55.9859 255.0604,-36.08"/>
</g>
<!-- 3&#45;&#45;7 -->
<g id="edge16" class="edge">
<title>3&#45;&#45;7</title>
<path fill="none" stroke="#000000" d="M290.9358,-144.2671C292.6829,-172.0795 296.0104,-225.0517 297.766,-253.0008"/>
</g>
<!-- 3&#45;&#45;8 -->
<g id="edge17" class="edge">
<title>3&#45;&#45;8</title>
<path fill="none" stroke="#000000" d="M300.4233,-144.2717C312.3437,-164.573 331.569,-197.3151 343.4958,-217.6274"/>
</g>
<!-- 5&#45;&#45;6 -->
<g id="edge18" class="edge">
<title>5&#45;&#45;6</title>
<path fill="none" stroke="#000000" d="M132.6645,-276.8967C136.1434,-277.986 139.7057,-279.1015 143.1862,-280.1913"/>
</g>
<!-- 9 -->
<g id="node10" class="node">
<title>9</title>
<text text-anchor="middle" x="27" y="-349.4822" font-family="century schoolbook" font-size="10.00" fill="#000000">158</text>
</g>
<!-- 5&#45;&#45;9 -->
<g id="edge19" class="edge">
<title>5&#45;&#45;9</title>
<path fill="none" stroke="#000000" d="M88.4472,-286.5229C75.2843,-300.5453 57.1492,-319.8645 43.9947,-333.8779"/>
</g>
<!-- 10 -->
<g id="node11" class="node">
<title>10</title>
<text text-anchor="middle" x="243.6576" y="-374.3617" font-family="century schoolbook" font-size="10.00" fill="#000000">348</text>
</g>
<!-- 5&#45;&#45;10 -->
<g id="edge20" class="edge">
<title>5&#45;&#45;10</title>
<path fill="none" stroke="#000000" d="M128.6038,-286.54C154.1115,-306.5646 194.9157,-338.5974 220.4535,-358.6456"/>
</g>
<!-- 6&#45;&#45;7 -->
<g id="edge21" class="edge">
<title>6&#45;&#45;7</title>
<path fill="none" stroke="#000000" d="M197.7146,-285.042C219.5114,-282.086 249.9303,-277.9606 271.7168,-275.006"/>
</g>
<!-- 6&#45;&#45;9 -->
<g id="edge22" class="edge">
<title>6&#45;&#45;9</title>
<path fill="none" stroke="#000000" d="M143.1512,-300.7811C117.6214,-312.035 79.7194,-328.7427 54.2226,-339.9821"/>
</g>
<!-- 11 -->
<g id="node12" class="node">
<title>11</title>
<text text-anchor="middle" x="255.8926" y="-408.6698" font-family="century schoolbook" font-size="10.00" fill="#000000">267</text>
</g>
<!-- 6&#45;&#45;11 -->
<g id="edge23" class="edge">
<title>6&#45;&#45;11</title>
<path fill="none" stroke="#000000" d="M183.0791,-306.8016C199.2286,-329.9497 227.0629,-369.8464 243.2373,-393.0302"/>
</g>
<!-- 7&#45;&#45;8 -->
<g id="edge24" class="edge">
<title>7&#45;&#45;8</title>
<path fill="none" stroke="#000000" d="M326.2024,-253.7407C326.4198,-253.6006 326.6372,-253.4606 326.8545,-253.3206"/>
</g>
<!-- 7&#45;&#45;11 -->
<g id="edge25" class="edge">
<title>7&#45;&#45;11</title>
<path fill="none" stroke="#000000" d="M293.292,-289.6005C285.0464,-316.4031 269.7649,-366.0768 261.5186,-392.882"/>
</g>
<!-- 13 -->
<g id="node14" class="node">
<title>13</title>
<text text-anchor="middle" x="453.4299" y="-292.2603" font-family="century schoolbook" font-size="10.00" fill="#000000">356</text>
</g>
<!-- 7&#45;&#45;13 -->
<g id="edge26" class="edge">
<title>7&#45;&#45;13</title>
<path fill="none" stroke="#000000" d="M326.1848,-275.4544C354.3415,-279.7264 398.023,-286.3539 426.1749,-290.6251"/>
</g>
<!-- 8&#45;&#45;10 -->
<g id="edge27" class="edge">
<title>8&#45;&#45;10</title>
<path fill="none" stroke="#000000" d="M339.9185,-253.9067C318.7053,-281.0024 279.0013,-331.7168 257.8199,-358.772"/>
</g>
<!-- 8&#45;&#45;13 -->
<g id="edge28" class="edge">
<title>8&#45;&#45;13</title>
<path fill="none" stroke="#000000" d="M381.268,-251.8729C395.2786,-260.1997 412.3242,-270.3303 426.33,-278.6543"/>
</g>
<!-- 12 -->
<g id="node13" class="node">
<title>12</title>
<text text-anchor="middle" x="46.1568" y="-490.7749" font-family="century schoolbook" font-size="10.00" fill="#000000">259</text>
</g>
<!-- 9&#45;&#45;12 -->
<g id="edge29" class="edge">
<title>9&#45;&#45;12</title>
<path fill="none" stroke="#000000" d="M29.4652,-370.1645C33.1435,-397.2945 40.0282,-448.073 43.701,-475.1624"/>
</g>
<!-- 15 -->
<g id="node16" class="node">
<title>15</title>
<text text-anchor="middle" x="200.6582" y="-514.2245" font-family="century schoolbook" font-size="10.00" fill="#000000">359</text>
</g>
<!-- 10&#45;&#45;15 -->
<g id="edge30" class="edge">
<title>10&#45;&#45;15</title>
<path fill="none" stroke="#000000" d="M238.0362,-395.1463C229.7954,-421.9509 214.5226,-471.6283 206.281,-498.4354"/>
</g>
<!-- 19 -->
<g id="node20" class="node">
<title>19</title>
<text text-anchor="middle" x="329.0965" y="-496.7779" font-family="century schoolbook" font-size="10.00" fill="#000000">458</text>
</g>
<!-- 10&#45;&#45;19 -->
<g id="edge31" class="edge">
<title>10&#45;&#45;19</title>
<path fill="none" stroke="#000000" d="M256.2644,-394.9246C272.418,-418.0694 300.2595,-457.9604 316.438,-481.1409"/>
</g>
<!-- 14 -->
<g id="node15" class="node">
<title>14</title>
<text text-anchor="middle" x="145.4542" y="-549.8148" font-family="century schoolbook" font-size="10.00" fill="#000000">269</text>
</g>
<!-- 11&#45;&#45;14 -->
<g id="edge32" class="edge">
<title>11&#45;&#45;14</title>
<path fill="none" stroke="#000000" d="M241.6808,-429.3331C220.4752,-456.4348 180.7853,-507.1601 159.6114,-534.2212"/>
</g>
<!-- 16 -->
<g id="node17" class="node">
<title>16</title>
<text text-anchor="middle" x="394.1062" y="-517.1081" font-family="century schoolbook" font-size="10.00" fill="#000000">467</text>
</g>
<!-- 11&#45;&#45;16 -->
<g id="edge33" class="edge">
<title>11&#45;&#45;16</title>
<path fill="none" stroke="#000000" d="M279.0264,-429.32C304.5399,-449.3371 345.3533,-481.3581 370.8968,-501.3988"/>
</g>
<!-- 12&#45;&#45;14 -->
<g id="edge34" class="edge">
<title>12&#45;&#45;14</title>
<path fill="none" stroke="#000000" d="M73.2902,-509.4078C87.3012,-517.7384 104.3473,-527.8736 118.3535,-536.2014"/>
</g>
<!-- 12&#45;&#45;15 -->
<g id="edge35" class="edge">
<title>12&#45;&#45;15</title>
<path fill="none" stroke="#000000" d="M73.4229,-497.4132C101.5775,-501.6864 145.2555,-508.3157 173.4053,-512.5882"/>
</g>
<!-- 20 -->
<g id="node21" class="node">
<title>20</title>
<text text-anchor="middle" x="472.585" y="-433.535" font-family="century schoolbook" font-size="10.00" fill="#000000">457</text>
</g>
<!-- 13&#45;&#45;20 -->
<g id="edge36" class="edge">
<title>13&#45;&#45;20</title>
<path fill="none" stroke="#000000" d="M455.8949,-312.9403C459.5729,-340.0669 466.4569,-390.8388 470.1295,-417.9248"/>
</g>
<!-- 14&#45;&#45;15 -->
<g id="edge37" class="edge">
<title>14&#45;&#45;15</title>
<path fill="none" stroke="#000000" d="M172.7327,-534.7282C172.9501,-534.5881 173.1674,-534.448 173.3847,-534.3079"/>
</g>
<!-- 17 -->
<g id="node18" class="node">
<title>17</title>
<text text-anchor="middle" x="209.8452" y="-659.3722" font-family="century schoolbook" font-size="10.00" fill="#000000">379</text>
</g>
<!-- 14&#45;&#45;17 -->
<g id="edge38" class="edge">
<title>14&#45;&#45;17</title>
<path fill="none" stroke="#000000" d="M156.087,-570.406C168.0177,-590.7052 187.2595,-623.444 199.1965,-643.7542"/>
</g>
<!-- 18 -->
<g id="node19" class="node">
<title>18</title>
<text text-anchor="middle" x="281.4934" y="-602.2041" font-family="century schoolbook" font-size="10.00" fill="#000000">469</text>
</g>
<!-- 14&#45;&#45;18 -->
<g id="edge39" class="edge">
<title>14&#45;&#45;18</title>
<path fill="none" stroke="#000000" d="M172.6568,-562.7906C196.3836,-571.9279 230.6251,-585.1145 254.338,-594.2464"/>
</g>
<!-- 15&#45;&#45;17 -->
<g id="edge40" class="edge">
<title>15&#45;&#45;17</title>
<path fill="none" stroke="#000000" d="M201.8032,-534.8141C203.5637,-562.6282 206.9167,-615.6038 208.6858,-643.5547"/>
</g>
<!-- 15&#45;&#45;18 -->
<g id="edge41" class="edge">
<title>15&#45;&#45;18</title>
<path fill="none" stroke="#000000" d="M217.4073,-534.954C231.2806,-550.0534 250.8984,-571.405 264.7658,-586.4981"/>
</g>
<!-- 15&#45;&#45;19 -->
<g id="edge42" class="edge">
<title>15&#45;&#45;19</title>
<path fill="none" stroke="#000000" d="M227.8967,-513.0245C249.6931,-510.0638 280.1113,-505.9319 301.8973,-502.9726"/>
</g>
<!-- 16&#45;&#45;18 -->
<g id="edge43" class="edge">
<title>16&#45;&#45;18</title>
<path fill="none" stroke="#000000" d="M370.2239,-537.6548C351.1131,-552.0959 324.4429,-572.2493 305.3413,-586.6835"/>
</g>
<!-- 22 -->
<g id="node23" class="node">
<title>22</title>
<text text-anchor="middle" x="357.3062" y="-640.9062" font-family="century schoolbook" font-size="10.00" fill="#000000">478</text>
</g>
<!-- 16&#45;&#45;22 -->
<g id="edge44" class="edge">
<title>16&#45;&#45;22</title>
<path fill="none" stroke="#000000" d="M388.7551,-537.6094C381.7781,-561.0807 369.6439,-601.9012 362.6637,-625.3832"/>
</g>
<!-- 17&#45;&#45;18 -->
<g id="edge45" class="edge">
<title>17&#45;&#45;18</title>
<path fill="none" stroke="#000000" d="M232.5151,-643.7839C240.8786,-637.1107 250.3529,-629.5512 258.725,-622.871"/>
</g>
<!-- 17&#45;&#45;22 -->
<g id="edge46" class="edge">
<title>17&#45;&#45;22</title>
<path fill="none" stroke="#000000" d="M236.8918,-658.4853C263.4154,-655.1638 303.6315,-650.1277 330.1818,-646.8029"/>
</g>
<!-- 23 -->
<g id="node24" class="node">
<title>23</title>
<text text-anchor="middle" x="333.7528" y="-739.6994" font-family="century schoolbook" font-size="10.00" fill="#000000">479</text>
</g>
<!-- 17&#45;&#45;23 -->
<g id="edge47" class="edge">
<title>17&#45;&#45;23</title>
<path fill="none" stroke="#000000" d="M237.0373,-679.5004C257.6965,-692.8934 285.9806,-711.2295 306.6242,-724.6124"/>
</g>
<!-- 18&#45;&#45;22 -->
<g id="edge48" class="edge">
<title>18&#45;&#45;22</title>
<path fill="none" stroke="#000000" d="M308.8636,-618.6765C315.8194,-622.2274 323.2893,-626.0408 330.2304,-629.5841"/>
</g>
<!-- 18&#45;&#45;23 -->
<g id="edge49" class="edge">
<title>18&#45;&#45;23</title>
<path fill="none" stroke="#000000" d="M288.4331,-622.9624C298.4284,-649.2603 316.7732,-697.5257 326.7845,-723.8656"/>
</g>
<!-- 19&#45;&#45;16 -->
<g id="edge50" class="edge">
<title>19&#45;&#45;16</title>
<path fill="none" stroke="#000000" d="M356.2898,-507.782C359.7691,-508.8701 363.332,-509.9842 366.8129,-511.0728"/>
</g>
<!-- 19&#45;&#45;18 -->
<g id="edge51" class="edge">
<title>19&#45;&#45;18</title>
<path fill="none" stroke="#000000" d="M320.8047,-517.6418C312.0675,-536.992 298.3914,-567.2802 289.6902,-586.5507"/>
</g>
<!-- 19&#45;&#45;22 -->
<g id="edge52" class="edge">
<title>19&#45;&#45;22</title>
<path fill="none" stroke="#000000" d="M332.6693,-517.5319C338.0956,-545.2556 348.3535,-597.665 353.7625,-625.3005"/>
</g>
<!-- 20&#45;&#45;16 -->
<g id="edge53" class="edge">
<title>20&#45;&#45;16</title>
<path fill="none" stroke="#000000" d="M455.5562,-454.1691C442.3927,-468.1871 424.2568,-487.5003 411.1017,-501.5094"/>
</g>
<!-- 20&#45;&#45;19 -->
<g id="edge54" class="edge">
<title>20&#45;&#45;19</title>
<path fill="none" stroke="#000000" d="M445.2581,-448.0794C419.7261,-459.3327 381.8207,-476.0396 356.3216,-487.2784"/>
</g>
<!-- 21 -->
<g id="node22" class="node">
<title>21</title>
<text text-anchor="middle" x="251.6526" y="-767.5369" font-family="century schoolbook" font-size="10.00" fill="#000000">378</text>
</g>
<!-- 21&#45;&#45;17 -->
<g id="edge55" class="edge">
<title>21&#45;&#45;17</title>
<path fill="none" stroke="#000000" d="M244.5605,-751.6882C236.8261,-731.6775 224.5255,-699.8532 216.8325,-679.9499"/>
</g>
<!-- 21&#45;&#45;22 -->
<g id="edge56" class="edge">
<title>21&#45;&#45;22</title>
<path fill="none" stroke="#000000" d="M266.7902,-751.8938C286.8749,-727.8213 322.1261,-685.5712 342.1967,-661.5157"/>
</g>
<!-- 21&#45;&#45;23 -->
<g id="edge57" class="edge">
<title>21&#45;&#45;23</title>
<path fill="none" stroke="#000000" d="M278.9908,-760.7674C287.8536,-757.7623 297.6799,-754.4306 306.534,-751.4284"/>
</g>
<!-- 22&#45;&#45;23 -->
<g id="edge58" class="edge">
<title>22&#45;&#45;23</title>
<path fill="none" stroke="#000000" d="M352.9862,-661.5264C348.7364,-679.3519 342.2858,-706.4084 338.0455,-724.1941"/>
</g>
</g>
</svg>
