<?xml version="1.0" encoding="UTF-8" standalone="no"?>
<!DOCTYPE svg PUBLIC "-//W3C//DTD SVG 1.1//EN"
 "http://www.w3.org/Graphics/SVG/1.1/DTD/svg11.dtd">
<!-- Generated by graphviz version 2.40.1 (20161225.0304)
 -->
<!-- Title: g Pages: 1 -->
<svg width="476pt" height="489pt"
 viewBox="0.00 0.00 476.20 488.75" xmlns="http://www.w3.org/2000/svg" xmlns:xlink="http://www.w3.org/1999/xlink">
<g id="graph0" class="graph" transform="scale(1 1) rotate(0) translate(4 484.75)">
<title>g</title>
<polygon fill="#ffffff" stroke="transparent" points="-4,4 -4,-484.75 472.2032,-484.75 472.2032,4 -4,4"/>
<!-- 0 -->
<g id="node1" class="node">
<title>0</title>
<polygon fill="none" stroke="#000000" points="59.8294,-363.4989 5.8294,-363.4989 5.8294,-327.4989 59.8294,-327.4989 59.8294,-363.4989"/>
<text text-anchor="middle" x="32.8294" y="-342.9989" font-family="century schoolbook" font-size="10.00" fill="#000000">C♮</text>
</g>
<!-- 1 -->
<g id="node2" class="node">
<title>1</title>
<polygon fill="none" stroke="#000000" points="205.5146,-480.75 151.5146,-480.75 151.5146,-444.75 205.5146,-444.75 205.5146,-480.75"/>
<text text-anchor="middle" x="178.5146" y="-460.25" font-family="century schoolbook" font-size="10.00" fill="#000000">c♮</text>
</g>
<!-- 0&#45;&#45;1 -->
<g id="edge1" class="edge">
<title>0&#45;&#45;1</title>
<path fill="none" stroke="#000000" d="M55.2734,-363.5624C82.5706,-385.5318 128.3885,-422.4072 155.8051,-444.4728"/>
</g>
<!-- 9 -->
<g id="node10" class="node">
<title>9</title>
<polygon fill="none" stroke="#000000" points="140.1411,-373.4095 86.1411,-373.4095 86.1411,-337.4095 140.1411,-337.4095 140.1411,-373.4095"/>
<text text-anchor="middle" x="113.1411" y="-352.9095" font-family="century schoolbook" font-size="10.00" fill="#000000">e♮</text>
</g>
<!-- 0&#45;&#45;9 -->
<g id="edge2" class="edge">
<title>0&#45;&#45;9</title>
<path fill="none" stroke="#000000" d="M60.0193,-348.8542C68.3924,-349.8874 77.608,-351.0247 85.9792,-352.0577"/>
</g>
<!-- 19 -->
<g id="node20" class="node">
<title>19</title>
<polygon fill="none" stroke="#000000" points="54,-191.2367 0,-191.2367 0,-155.2367 54,-155.2367 54,-191.2367"/>
<text text-anchor="middle" x="27" y="-170.7367" font-family="century schoolbook" font-size="10.00" fill="#000000">a♮</text>
</g>
<!-- 0&#45;&#45;19 -->
<g id="edge3" class="edge">
<title>0&#45;&#45;19</title>
<path fill="none" stroke="#000000" d="M32.2166,-327.3894C31.097,-294.305 28.7333,-224.4581 27.6134,-191.362"/>
</g>
<!-- 2 -->
<g id="node3" class="node">
<title>2</title>
<polygon fill="none" stroke="#000000" points="231.0747,-141.8177 177.0747,-141.8177 177.0747,-105.8177 231.0747,-105.8177 231.0747,-141.8177"/>
<text text-anchor="middle" x="204.0747" y="-121.3177" font-family="century schoolbook" font-size="10.00" fill="#000000">C♯</text>
</g>
<!-- 3 -->
<g id="node4" class="node">
<title>3</title>
<polygon fill="none" stroke="#000000" points="104.8992,-120.8557 50.8992,-120.8557 50.8992,-84.8557 104.8992,-84.8557 104.8992,-120.8557"/>
<text text-anchor="middle" x="77.8992" y="-100.3557" font-family="century schoolbook" font-size="10.00" fill="#000000">c♯</text>
</g>
<!-- 2&#45;&#45;3 -->
<g id="edge4" class="edge">
<title>2&#45;&#45;3</title>
<path fill="none" stroke="#000000" d="M177.0069,-119.3208C155.718,-115.784 126.1996,-110.88 104.9222,-107.3451"/>
</g>
<!-- 11 -->
<g id="node12" class="node">
<title>11</title>
<polygon fill="none" stroke="#000000" points="160.1619,-266.1354 106.1619,-266.1354 106.1619,-230.1354 160.1619,-230.1354 160.1619,-266.1354"/>
<text text-anchor="middle" x="133.1619" y="-245.6354" font-family="century schoolbook" font-size="10.00" fill="#000000">f♮</text>
</g>
<!-- 2&#45;&#45;11 -->
<g id="edge5" class="edge">
<title>2&#45;&#45;11</title>
<path fill="none" stroke="#000000" d="M193.7634,-141.8946C180.3188,-165.4643 156.9364,-206.4562 143.4857,-230.0367"/>
</g>
<!-- 21 -->
<g id="node22" class="node">
<title>21</title>
<polygon fill="none" stroke="#000000" points="382.5365,-142.9196 328.5365,-142.9196 328.5365,-106.9196 382.5365,-106.9196 382.5365,-142.9196"/>
<text text-anchor="middle" x="355.5365" y="-122.4196" font-family="century schoolbook" font-size="10.00" fill="#000000">b♭</text>
</g>
<!-- 2&#45;&#45;21 -->
<g id="edge6" class="edge">
<title>2&#45;&#45;21</title>
<path fill="none" stroke="#000000" d="M231.1531,-124.0147C258.6369,-124.2146 300.9465,-124.5224 328.4377,-124.7224"/>
</g>
<!-- 4 -->
<g id="node5" class="node">
<title>4</title>
<polygon fill="none" stroke="#000000" points="379.4666,-94.4315 325.4666,-94.4315 325.4666,-58.4315 379.4666,-58.4315 379.4666,-94.4315"/>
<text text-anchor="middle" x="352.4666" y="-73.9315" font-family="century schoolbook" font-size="10.00" fill="#000000">D♮</text>
</g>
<!-- 5 -->
<g id="node6" class="node">
<title>5</title>
<polygon fill="none" stroke="#000000" points="298.4215,-155.4573 244.4215,-155.4573 244.4215,-119.4573 298.4215,-119.4573 298.4215,-155.4573"/>
<text text-anchor="middle" x="271.4215" y="-134.9573" font-family="century schoolbook" font-size="10.00" fill="#000000">d♮</text>
</g>
<!-- 4&#45;&#45;5 -->
<g id="edge7" class="edge">
<title>4&#45;&#45;5</title>
<path fill="none" stroke="#000000" d="M328.1504,-94.7412C317.7995,-102.5353 305.7595,-111.6012 295.4413,-119.3707"/>
</g>
<!-- 13 -->
<g id="node14" class="node">
<title>13</title>
<polygon fill="none" stroke="#000000" points="316.5669,-36 262.5669,-36 262.5669,0 316.5669,0 316.5669,-36"/>
<text text-anchor="middle" x="289.5669" y="-15.5" font-family="century schoolbook" font-size="10.00" fill="#000000">f♯</text>
</g>
<!-- 4&#45;&#45;13 -->
<g id="edge8" class="edge">
<title>4&#45;&#45;13</title>
<path fill="none" stroke="#000000" d="M332.9095,-58.2637C325.4084,-51.2954 316.8487,-43.3438 309.3285,-36.3578"/>
</g>
<!-- 23 -->
<g id="node24" class="node">
<title>23</title>
<polygon fill="none" stroke="#000000" points="362.3914,-250.7942 308.3914,-250.7942 308.3914,-214.7942 362.3914,-214.7942 362.3914,-250.7942"/>
<text text-anchor="middle" x="335.3914" y="-230.2942" font-family="century schoolbook" font-size="10.00" fill="#000000">b♮</text>
</g>
<!-- 4&#45;&#45;23 -->
<g id="edge9" class="edge">
<title>4&#45;&#45;23</title>
<path fill="none" stroke="#000000" d="M350.4745,-94.6743C347.1842,-124.8038 340.6527,-184.6146 337.3708,-214.6676"/>
</g>
<!-- 6 -->
<g id="node7" class="node">
<title>6</title>
<polygon fill="none" stroke="#000000" points="364.072,-466.2415 310.072,-466.2415 310.072,-430.2415 364.072,-430.2415 364.072,-466.2415"/>
<text text-anchor="middle" x="337.072" y="-445.7415" font-family="century schoolbook" font-size="10.00" fill="#000000">E♭</text>
</g>
<!-- 6&#45;&#45;1 -->
<g id="edge10" class="edge">
<title>6&#45;&#45;1</title>
<path fill="none" stroke="#000000" d="M309.815,-450.7356C280.6844,-453.4011 234.7764,-457.6019 205.6808,-460.2642"/>
</g>
<!-- 7 -->
<g id="node8" class="node">
<title>7</title>
<polygon fill="none" stroke="#000000" points="468.2032,-325.4645 414.2032,-325.4645 414.2032,-289.4645 468.2032,-289.4645 468.2032,-325.4645"/>
<text text-anchor="middle" x="441.2032" y="-304.9645" font-family="century schoolbook" font-size="10.00" fill="#000000">e♭</text>
</g>
<!-- 6&#45;&#45;7 -->
<g id="edge11" class="edge">
<title>6&#45;&#45;7</title>
<path fill="none" stroke="#000000" d="M350.4721,-430.1255C370.4667,-403.0945 407.8899,-352.5014 427.8545,-325.5109"/>
</g>
<!-- 15 -->
<g id="node16" class="node">
<title>15</title>
<polygon fill="none" stroke="#000000" points="417.7238,-395.949 363.7238,-395.949 363.7238,-359.949 417.7238,-359.949 417.7238,-395.949"/>
<text text-anchor="middle" x="390.7238" y="-375.449" font-family="century schoolbook" font-size="10.00" fill="#000000">g♮</text>
</g>
<!-- 6&#45;&#45;15 -->
<g id="edge12" class="edge">
<title>6&#45;&#45;15</title>
<path fill="none" stroke="#000000" d="M350.8886,-430.1394C358.837,-419.7258 368.7958,-406.6782 376.7675,-396.234"/>
</g>
<!-- 8 -->
<g id="node9" class="node">
<title>8</title>
<polygon fill="none" stroke="#000000" points="98.1205,-270.5076 44.1205,-270.5076 44.1205,-234.5076 98.1205,-234.5076 98.1205,-270.5076"/>
<text text-anchor="middle" x="71.1205" y="-250.0076" font-family="century schoolbook" font-size="10.00" fill="#000000">E♮</text>
</g>
<!-- 8&#45;&#45;3 -->
<g id="edge13" class="edge">
<title>8&#45;&#45;3</title>
<path fill="none" stroke="#000000" d="M71.9382,-234.4561C73.2411,-205.6923 75.7739,-149.7752 77.0786,-120.9712"/>
</g>
<!-- 8&#45;&#45;9 -->
<g id="edge14" class="edge">
<title>8&#45;&#45;9</title>
<path fill="none" stroke="#000000" d="M78.633,-270.9044C86.2815,-289.6346 98.0687,-318.4996 105.6937,-337.172"/>
</g>
<!-- 17 -->
<g id="node18" class="node">
<title>17</title>
<polygon fill="none" stroke="#000000" points="223.9594,-362.4025 169.9594,-362.4025 169.9594,-326.4025 223.9594,-326.4025 223.9594,-362.4025"/>
<text text-anchor="middle" x="196.9594" y="-341.9025" font-family="century schoolbook" font-size="10.00" fill="#000000">a♭</text>
</g>
<!-- 8&#45;&#45;17 -->
<g id="edge15" class="edge">
<title>8&#45;&#45;17</title>
<path fill="none" stroke="#000000" d="M95.9822,-270.6631C118.0435,-286.7735 150.1037,-310.1857 172.1493,-326.2847"/>
</g>
<!-- 10 -->
<g id="node11" class="node">
<title>10</title>
<polygon fill="none" stroke="#000000" points="152.3628,-165.4566 98.3628,-165.4566 98.3628,-129.4566 152.3628,-129.4566 152.3628,-165.4566"/>
<text text-anchor="middle" x="125.3628" y="-144.9566" font-family="century schoolbook" font-size="10.00" fill="#000000">F♮</text>
</g>
<!-- 10&#45;&#45;5 -->
<g id="edge16" class="edge">
<title>10&#45;&#45;5</title>
<path fill="none" stroke="#000000" d="M152.493,-145.5993C178.5625,-143.8145 217.7547,-141.1314 243.9409,-139.3386"/>
</g>
<!-- 10&#45;&#45;11 -->
<g id="edge17" class="edge">
<title>10&#45;&#45;11</title>
<path fill="none" stroke="#000000" d="M126.7933,-165.9227C128.2093,-184.2019 130.3632,-212.0063 131.7668,-230.1251"/>
</g>
<!-- 10&#45;&#45;19 -->
<g id="edge18" class="edge">
<title>10&#45;&#45;19</title>
<path fill="none" stroke="#000000" d="M98.2244,-154.5694C84.4631,-158.1761 67.7987,-162.5437 54.0499,-166.1471"/>
</g>
<!-- 12 -->
<g id="node13" class="node">
<title>12</title>
<polygon fill="none" stroke="#000000" points="462.4504,-153.1193 408.4504,-153.1193 408.4504,-117.1193 462.4504,-117.1193 462.4504,-153.1193"/>
<text text-anchor="middle" x="435.4504" y="-132.6193" font-family="century schoolbook" font-size="10.00" fill="#000000">F♯</text>
</g>
<!-- 12&#45;&#45;7 -->
<g id="edge19" class="edge">
<title>12&#45;&#45;7</title>
<path fill="none" stroke="#000000" d="M436.0552,-153.2375C437.1601,-186.3378 439.4927,-256.2184 440.5979,-289.3304"/>
</g>
<!-- 12&#45;&#45;13 -->
<g id="edge20" class="edge">
<title>12&#45;&#45;13</title>
<path fill="none" stroke="#000000" d="M412.9758,-117.0761C385.6415,-95.1314 339.7613,-58.2974 312.3074,-36.2567"/>
</g>
<!-- 12&#45;&#45;21 -->
<g id="edge21" class="edge">
<title>12&#45;&#45;21</title>
<path fill="none" stroke="#000000" d="M408.3952,-131.6662C400.0636,-130.6028 390.8936,-129.4324 382.5639,-128.3692"/>
</g>
<!-- 14 -->
<g id="node15" class="node">
<title>14</title>
<polygon fill="none" stroke="#000000" points="291.4711,-374.4913 237.4711,-374.4913 237.4711,-338.4913 291.4711,-338.4913 291.4711,-374.4913"/>
<text text-anchor="middle" x="264.4711" y="-353.9913" font-family="century schoolbook" font-size="10.00" fill="#000000">G♮</text>
</g>
<!-- 14&#45;&#45;9 -->
<g id="edge22" class="edge">
<title>14&#45;&#45;9</title>
<path fill="none" stroke="#000000" d="M237.4163,-356.2979C209.9564,-356.1016 167.6837,-355.7994 140.2164,-355.6031"/>
</g>
<!-- 14&#45;&#45;15 -->
<g id="edge23" class="edge">
<title>14&#45;&#45;15</title>
<path fill="none" stroke="#000000" d="M291.5555,-361.0945C312.8574,-364.7149 342.3939,-369.7349 363.6842,-373.3534"/>
</g>
<!-- 14&#45;&#45;23 -->
<g id="edge24" class="edge">
<title>14&#45;&#45;23</title>
<path fill="none" stroke="#000000" d="M274.9356,-338.2394C288.3443,-314.8524 311.4546,-274.5441 324.8839,-251.1211"/>
</g>
<!-- 16 -->
<g id="node17" class="node">
<title>16</title>
<polygon fill="none" stroke="#000000" points="142.2304,-422.4989 88.2304,-422.4989 88.2304,-386.4989 142.2304,-386.4989 142.2304,-422.4989"/>
<text text-anchor="middle" x="115.2304" y="-401.9989" font-family="century schoolbook" font-size="10.00" fill="#000000">A♭</text>
</g>
<!-- 16&#45;&#45;1 -->
<g id="edge25" class="edge">
<title>16&#45;&#45;1</title>
<path fill="none" stroke="#000000" d="M134.907,-422.6106C142.454,-429.5574 151.066,-437.4845 158.6322,-444.4489"/>
</g>
<!-- 16&#45;&#45;11 -->
<g id="edge26" class="edge">
<title>16&#45;&#45;11</title>
<path fill="none" stroke="#000000" d="M117.3224,-386.256C120.7777,-356.1264 127.6367,-296.3152 131.0832,-266.2621"/>
</g>
<!-- 16&#45;&#45;17 -->
<g id="edge27" class="edge">
<title>16&#45;&#45;17</title>
<path fill="none" stroke="#000000" d="M139.7518,-386.468C150.096,-378.8618 162.1129,-370.0255 172.4553,-362.4207"/>
</g>
<!-- 18 -->
<g id="node19" class="node">
<title>18</title>
<polygon fill="none" stroke="#000000" points="158.0734,-50.5032 104.0734,-50.5032 104.0734,-14.5032 158.0734,-14.5032 158.0734,-50.5032"/>
<text text-anchor="middle" x="131.0734" y="-30.0032" font-family="century schoolbook" font-size="10.00" fill="#000000">A♮</text>
</g>
<!-- 18&#45;&#45;3 -->
<g id="edge28" class="edge">
<title>18&#45;&#45;3</title>
<path fill="none" stroke="#000000" d="M117.3797,-50.6207C109.5022,-61.0432 99.632,-74.1019 91.7313,-84.5551"/>
</g>
<!-- 18&#45;&#45;13 -->
<g id="edge29" class="edge">
<title>18&#45;&#45;13</title>
<path fill="none" stroke="#000000" d="M158.3194,-30.01C187.4382,-27.3455 233.3278,-23.1463 262.4117,-20.4849"/>
</g>
<!-- 18&#45;&#45;19 -->
<g id="edge30" class="edge">
<title>18&#45;&#45;19</title>
<path fill="none" stroke="#000000" d="M117.6807,-50.6136C97.6973,-77.6362 60.2948,-128.2137 40.3413,-155.1959"/>
</g>
<!-- 20 -->
<g id="node21" class="node">
<title>20</title>
<polygon fill="none" stroke="#000000" points="424.5814,-246.2454 370.5814,-246.2454 370.5814,-210.2454 424.5814,-210.2454 424.5814,-246.2454"/>
<text text-anchor="middle" x="397.5814" y="-225.7454" font-family="century schoolbook" font-size="10.00" fill="#000000">B♭</text>
</g>
<!-- 20&#45;&#45;5 -->
<g id="edge31" class="edge">
<title>20&#45;&#45;5</title>
<path fill="none" stroke="#000000" d="M372.3543,-210.0913C350.3505,-194.2568 318.5957,-171.4051 296.6049,-155.5799"/>
</g>
<!-- 20&#45;&#45;15 -->
<g id="edge32" class="edge">
<title>20&#45;&#45;15</title>
<path fill="none" stroke="#000000" d="M396.7542,-246.3032C395.4361,-275.0769 392.8738,-331.0132 391.5539,-359.8272"/>
</g>
<!-- 20&#45;&#45;21 -->
<g id="edge33" class="edge">
<title>20&#45;&#45;21</title>
<path fill="none" stroke="#000000" d="M390.0646,-209.7728C382.4116,-190.9655 370.6176,-161.9816 362.9882,-143.2322"/>
</g>
<!-- 22 -->
<g id="node23" class="node">
<title>22</title>
<polygon fill="none" stroke="#000000" points="370.0019,-351.8459 316.0019,-351.8459 316.0019,-315.8459 370.0019,-315.8459 370.0019,-351.8459"/>
<text text-anchor="middle" x="343.0019" y="-331.3459" font-family="century schoolbook" font-size="10.00" fill="#000000">B♮</text>
</g>
<!-- 22&#45;&#45;7 -->
<g id="edge34" class="edge">
<title>22&#45;&#45;7</title>
<path fill="none" stroke="#000000" d="M370.0958,-326.5672C383.8345,-322.8764 400.4715,-318.4069 414.1978,-314.7194"/>
</g>
<!-- 22&#45;&#45;17 -->
<g id="edge35" class="edge">
<title>22&#45;&#45;17</title>
<path fill="none" stroke="#000000" d="M315.8747,-335.8068C289.8081,-337.691 250.6202,-340.5237 224.4369,-342.4163"/>
</g>
<!-- 22&#45;&#45;23 -->
<g id="edge36" class="edge">
<title>22&#45;&#45;23</title>
<path fill="none" stroke="#000000" d="M341.6413,-315.7799C340.2646,-297.5001 338.1475,-269.3901 336.7659,-251.0446"/>
</g>
</g>
</svg>
