<?xml version="1.0" encoding="UTF-8" standalone="no"?>
<!DOCTYPE svg PUBLIC "-//W3C//DTD SVG 1.1//EN"
 "http://www.w3.org/Graphics/SVG/1.1/DTD/svg11.dtd">
<!-- Generated by graphviz version 2.40.1 (20161225.0304)
 -->
<!-- Title: g Pages: 1 -->
<svg width="579pt" height="503pt"
 viewBox="0.00 0.00 579.18 503.01" xmlns="http://www.w3.org/2000/svg" xmlns:xlink="http://www.w3.org/1999/xlink">
<g id="graph0" class="graph" transform="scale(1 1) rotate(0) translate(4 499.0069)">
<title>g</title>
<polygon fill="#ffffff" stroke="transparent" points="-4,4 -4,-499.0069 575.182,-499.0069 575.182,4 -4,4"/>
<!-- 0 -->
<g id="node1" class="node">
<title>0</title>
<polygon fill="none" stroke="#000000" points="197.0955,-153.0582 143.0955,-153.0582 143.0955,-117.0582 197.0955,-117.0582 197.0955,-153.0582"/>
<text text-anchor="middle" x="170.0955" y="-132.5582" font-family="century schoolbook" font-size="10.00" fill="#000000">2</text>
</g>
<!-- 1 -->
<g id="node2" class="node">
<title>1</title>
<polygon fill="none" stroke="#000000" points="112.4381,-36 58.4381,-36 58.4381,0 112.4381,0 112.4381,-36"/>
<text text-anchor="middle" x="85.4381" y="-15.5" font-family="century schoolbook" font-size="10.00" fill="#000000">0,1</text>
</g>
<!-- 0&#45;&#45;1 -->
<g id="edge1" class="edge">
<title>0&#45;&#45;1</title>
<path fill="none" stroke="#000000" d="M162.8617,-116.9823C149.982,-94.9608 123.6229,-58.164 105.1432,-36.1253"/>
</g>
<!-- 0&#45;&#45;1 -->
<g id="edge2" class="edge">
<title>0&#45;&#45;1</title>
<path fill="none" stroke="#000000" d="M150.4376,-116.9892C131.996,-95.0051 105.678,-58.2773 92.7566,-36.2208"/>
</g>
<!-- 2 -->
<g id="node3" class="node">
<title>2</title>
<polygon fill="none" stroke="#000000" points="335.6175,-55.8369 281.6175,-55.8369 281.6175,-19.8369 335.6175,-19.8369 335.6175,-55.8369"/>
<text text-anchor="middle" x="308.6175" y="-35.3369" font-family="century schoolbook" font-size="10.00" fill="#000000">3,6</text>
</g>
<!-- 0&#45;&#45;2 -->
<g id="edge3" class="edge">
<title>0&#45;&#45;2</title>
<path fill="none" stroke="#000000" d="M195.8258,-116.9994C220.55,-99.6468 257.7199,-73.5592 282.5549,-56.1289"/>
</g>
<!-- 3 -->
<g id="node4" class="node">
<title>3</title>
<polygon fill="none" stroke="#000000" points="250.2937,-273.4732 196.2937,-273.4732 196.2937,-237.4732 250.2937,-237.4732 250.2937,-273.4732"/>
<text text-anchor="middle" x="223.2937" y="-252.9732" font-family="century schoolbook" font-size="10.00" fill="#000000">3,7</text>
</g>
<!-- 0&#45;&#45;3 -->
<g id="edge4" class="edge">
<title>0&#45;&#45;3</title>
<path fill="none" stroke="#000000" d="M178.0598,-153.0855C188.0887,-175.7862 205.2203,-214.5639 215.2749,-237.3226"/>
</g>
<!-- 4 -->
<g id="node5" class="node">
<title>4</title>
<polygon fill="none" stroke="#000000" points="222.9876,-320.3588 168.9876,-320.3588 168.9876,-284.3588 222.9876,-284.3588 222.9876,-320.3588"/>
<text text-anchor="middle" x="195.9876" y="-299.8588" font-family="century schoolbook" font-size="10.00" fill="#000000">4,6</text>
</g>
<!-- 0&#45;&#45;4 -->
<g id="edge5" class="edge">
<title>0&#45;&#45;4</title>
<path fill="none" stroke="#000000" d="M172.9157,-153.2807C177.8962,-185.4625 188.1928,-251.9929 193.1709,-284.1587"/>
</g>
<!-- 5 -->
<g id="node6" class="node">
<title>5</title>
<polygon fill="none" stroke="#000000" points="320.849,-108.1387 266.849,-108.1387 266.849,-72.1387 320.849,-72.1387 320.849,-108.1387"/>
<text text-anchor="middle" x="293.849" y="-87.6387" font-family="century schoolbook" font-size="10.00" fill="#000000">4,7</text>
</g>
<!-- 0&#45;&#45;5 -->
<g id="edge6" class="edge">
<title>0&#45;&#45;5</title>
<path fill="none" stroke="#000000" d="M197.2537,-125.2004C217.8872,-117.7109 246.1362,-107.4573 266.7541,-99.9735"/>
</g>
<!-- 6 -->
<g id="node7" class="node">
<title>6</title>
<polygon fill="none" stroke="#000000" points="54,-172.7035 0,-172.7035 0,-136.7035 54,-136.7035 54,-172.7035"/>
<text text-anchor="middle" x="27" y="-152.2035" font-family="century schoolbook" font-size="10.00" fill="#000000">5,8</text>
</g>
<!-- 0&#45;&#45;6 -->
<g id="edge7" class="edge">
<title>0&#45;&#45;6</title>
<path fill="none" stroke="#000000" d="M142.7828,-133.3695C117.3228,-135.0629 79.5682,-140.2154 54.1581,-145.4444"/>
</g>
<!-- 0&#45;&#45;6 -->
<g id="edge8" class="edge">
<title>0&#45;&#45;6</title>
<path fill="none" stroke="#000000" d="M142.911,-144.3227C117.444,-149.5615 79.5942,-154.7225 54.1412,-156.4035"/>
</g>
<!-- 7 -->
<g id="node8" class="node">
<title>7</title>
<polygon fill="none" stroke="#000000" points="463.6637,-145.2781 409.6637,-145.2781 409.6637,-109.2781 463.6637,-109.2781 463.6637,-145.2781"/>
<text text-anchor="middle" x="436.6637" y="-124.7781" font-family="century schoolbook" font-size="10.00" fill="#000000">5</text>
</g>
<!-- 7&#45;&#45;2 -->
<g id="edge9" class="edge">
<title>7&#45;&#45;2</title>
<path fill="none" stroke="#000000" d="M410.7517,-109.1783C388.5362,-93.6607 356.6953,-71.4196 334.491,-55.9098"/>
</g>
<!-- 7&#45;&#45;5 -->
<g id="edge10" class="edge">
<title>7&#45;&#45;5</title>
<path fill="none" stroke="#000000" d="M409.4652,-120.205C384.0531,-113.5965 346.3256,-103.7854 320.9462,-97.1854"/>
</g>
<!-- 8 -->
<g id="node9" class="node">
<title>8</title>
<polygon fill="none" stroke="#000000" points="399.8096,-239.8344 345.8096,-239.8344 345.8096,-203.8344 399.8096,-203.8344 399.8096,-239.8344"/>
<text text-anchor="middle" x="372.8096" y="-219.3344" font-family="century schoolbook" font-size="10.00" fill="#000000">0,6</text>
</g>
<!-- 7&#45;&#45;8 -->
<g id="edge11" class="edge">
<title>7&#45;&#45;8</title>
<path fill="none" stroke="#000000" d="M424.352,-145.5095C413.0449,-162.2533 396.3787,-186.9329 385.0835,-203.659"/>
</g>
<!-- 9 -->
<g id="node10" class="node">
<title>9</title>
<polygon fill="none" stroke="#000000" points="530.4,-293.3359 476.4,-293.3359 476.4,-257.3359 530.4,-257.3359 530.4,-293.3359"/>
<text text-anchor="middle" x="503.4" y="-272.8359" font-family="century schoolbook" font-size="10.00" fill="#000000">0,7</text>
</g>
<!-- 7&#45;&#45;9 -->
<g id="edge12" class="edge">
<title>7&#45;&#45;9</title>
<path fill="none" stroke="#000000" d="M444.8469,-145.4329C457.6554,-173.8492 482.3003,-228.5251 495.1499,-257.0326"/>
</g>
<!-- 10 -->
<g id="node11" class="node">
<title>10</title>
<polygon fill="none" stroke="#000000" points="510.4855,-237.3843 456.4855,-237.3843 456.4855,-201.3843 510.4855,-201.3843 510.4855,-237.3843"/>
<text text-anchor="middle" x="483.4855" y="-216.8843" font-family="century schoolbook" font-size="10.00" fill="#000000">1,3</text>
</g>
<!-- 7&#45;&#45;10 -->
<g id="edge13" class="edge">
<title>7&#45;&#45;10</title>
<path fill="none" stroke="#000000" d="M445.9142,-145.4753C454.1227,-161.6228 466.0516,-185.0888 474.2543,-201.2249"/>
</g>
<!-- 11 -->
<g id="node12" class="node">
<title>11</title>
<polygon fill="none" stroke="#000000" points="477.4794,-323.3538 423.4794,-323.3538 423.4794,-287.3538 477.4794,-287.3538 477.4794,-323.3538"/>
<text text-anchor="middle" x="450.4794" y="-302.8538" font-family="century schoolbook" font-size="10.00" fill="#000000">1,4</text>
</g>
<!-- 7&#45;&#45;11 -->
<g id="edge14" class="edge">
<title>7&#45;&#45;11</title>
<path fill="none" stroke="#000000" d="M438.0645,-145.3329C440.7125,-179.4638 446.4241,-253.0835 449.0749,-287.2512"/>
</g>
<!-- 12 -->
<g id="node13" class="node">
<title>12</title>
<polygon fill="none" stroke="#000000" points="571.182,-48.8813 517.182,-48.8813 517.182,-12.8813 571.182,-12.8813 571.182,-48.8813"/>
<text text-anchor="middle" x="544.182" y="-28.3813" font-family="century schoolbook" font-size="10.00" fill="#000000">2,8</text>
</g>
<!-- 7&#45;&#45;12 -->
<g id="edge15" class="edge">
<title>7&#45;&#45;12</title>
<path fill="none" stroke="#000000" d="M463.7842,-110.5894C485.5045,-93.3126 514.8878,-66.6506 531.5269,-48.8996"/>
</g>
<!-- 7&#45;&#45;12 -->
<g id="edge16" class="edge">
<title>7&#45;&#45;12</title>
<path fill="none" stroke="#000000" d="M449.6495,-108.9077C466.3595,-91.1422 495.5354,-64.6866 517.1182,-47.5249"/>
</g>
<!-- 13 -->
<g id="node14" class="node">
<title>13</title>
<polygon fill="none" stroke="#000000" points="376.235,-350.6356 322.235,-350.6356 322.235,-314.6356 376.235,-314.6356 376.235,-350.6356"/>
<text text-anchor="middle" x="349.235" y="-330.1356" font-family="century schoolbook" font-size="10.00" fill="#000000">8</text>
</g>
<!-- 13&#45;&#45;3 -->
<g id="edge17" class="edge">
<title>13&#45;&#45;3</title>
<path fill="none" stroke="#000000" d="M322.2174,-316.0823C301.1126,-303.1517 271.9049,-285.2566 250.7011,-272.2653"/>
</g>
<!-- 13&#45;&#45;4 -->
<g id="edge18" class="edge">
<title>13&#45;&#45;4</title>
<path fill="none" stroke="#000000" d="M322.1902,-327.2924C294.2641,-321.7751 250.9406,-313.2157 223.0193,-307.6994"/>
</g>
<!-- 13&#45;&#45;8 -->
<g id="edge19" class="edge">
<title>13&#45;&#45;8</title>
<path fill="none" stroke="#000000" d="M353.1278,-314.339C357.4958,-293.8093 364.5406,-260.6989 368.9109,-240.1582"/>
</g>
<!-- 13&#45;&#45;9 -->
<g id="edge20" class="edge">
<title>13&#45;&#45;9</title>
<path fill="none" stroke="#000000" d="M376.4417,-322.5234C404.535,-312.0818 448.1179,-295.883 476.2064,-285.4431"/>
</g>
<!-- 13&#45;&#45;10 -->
<g id="edge21" class="edge">
<title>13&#45;&#45;10</title>
<path fill="none" stroke="#000000" d="M370.8046,-314.4398C395.8573,-293.3059 436.9396,-258.6495 461.9694,-237.5349"/>
</g>
<!-- 13&#45;&#45;11 -->
<g id="edge22" class="edge">
<title>13&#45;&#45;11</title>
<path fill="none" stroke="#000000" d="M376.3666,-325.3245C390.8929,-321.4102 408.7351,-316.6024 423.2728,-312.685"/>
</g>
<!-- 14 -->
<g id="node15" class="node">
<title>14</title>
<polygon fill="none" stroke="#000000" points="380.7587,-495.0069 326.7587,-495.0069 326.7587,-459.0069 380.7587,-459.0069 380.7587,-495.0069"/>
<text text-anchor="middle" x="353.7587" y="-474.5069" font-family="century schoolbook" font-size="10.00" fill="#000000">2,5</text>
</g>
<!-- 13&#45;&#45;14 -->
<g id="edge23" class="edge">
<title>13&#45;&#45;14</title>
<path fill="none" stroke="#000000" d="M345.1572,-350.7738C343.2249,-378.5269 344.8683,-431.2193 348.5235,-458.9335"/>
</g>
<!-- 13&#45;&#45;14 -->
<g id="edge24" class="edge">
<title>13&#45;&#45;14</title>
<path fill="none" stroke="#000000" d="M354.4788,-350.7739C358.1216,-378.4575 359.7617,-430.9555 357.8465,-458.7247"/>
</g>
</g>
</svg>
