<?xml version="1.0" encoding="UTF-8" standalone="no"?>
<!DOCTYPE svg PUBLIC "-//W3C//DTD SVG 1.1//EN"
 "http://www.w3.org/Graphics/SVG/1.1/DTD/svg11.dtd">
<!-- Generated by graphviz version 2.40.1 (20161225.0304)
 -->
<!-- Title: g Pages: 1 -->
<svg width="398pt" height="238pt"
 viewBox="0.00 0.00 398.34 238.32" xmlns="http://www.w3.org/2000/svg" xmlns:xlink="http://www.w3.org/1999/xlink">
<g id="graph0" class="graph" transform="scale(1 1) rotate(0) translate(4 234.3233)">
<title>g</title>
<polygon fill="#ffffff" stroke="transparent" points="-4,4 -4,-234.3233 394.3415,-234.3233 394.3415,4 -4,4"/>
<!-- 0 -->
<g id="node1" class="node">
<title>0</title>
<text text-anchor="middle" x="260.293" y="-15.5" font-family="century schoolbook" font-size="10.00" fill="#000000">A♮</text>
</g>
<!-- 1 -->
<g id="node2" class="node">
<title>1</title>
<text text-anchor="middle" x="183.1534" y="-31.406" font-family="century schoolbook" font-size="10.00" fill="#000000">E♮</text>
</g>
<!-- 0&#45;&#45;1 -->
<g id="edge1" class="edge">
<title>0&#45;&#45;1</title>
<path fill="none" stroke="#000000" d="M232.8793,-23.6526C225.5174,-25.1706 217.5623,-26.811 210.2195,-28.325"/>
<text text-anchor="middle" x="219.0494" y="-28.7888" font-family="Times,serif" font-size="9.00" fill="#000000">5</text>
</g>
<!-- 5 -->
<g id="node6" class="node">
<title>5</title>
<text text-anchor="middle" x="285.7168" y="-95.8961" font-family="century schoolbook" font-size="10.00" fill="#000000">F♮</text>
</g>
<!-- 0&#45;&#45;5 -->
<g id="edge2" class="edge">
<title>0&#45;&#45;5</title>
<path fill="none" stroke="#000000" d="M266.0621,-36.2431C270.2228,-49.4004 275.8151,-67.0845 279.9706,-80.2252"/>
<text text-anchor="middle" x="270.5163" y="-61.0342" font-family="Times,serif" font-size="9.00" fill="#000000">4</text>
</g>
<!-- 2 -->
<g id="node3" class="node">
<title>2</title>
<text text-anchor="middle" x="105.4131" y="-45.3043" font-family="century schoolbook" font-size="10.00" fill="#000000">B♮</text>
</g>
<!-- 1&#45;&#45;2 -->
<g id="edge3" class="edge">
<title>1&#45;&#45;2</title>
<path fill="none" stroke="#000000" d="M155.9636,-38.767C148.345,-40.129 140.0664,-41.609 132.4563,-42.9696"/>
<text text-anchor="middle" x="141.7099" y="-43.6683" font-family="Times,serif" font-size="9.00" fill="#000000">5</text>
</g>
<!-- 6 -->
<g id="node7" class="node">
<title>6</title>
<text text-anchor="middle" x="203.8351" y="-113.546" font-family="century schoolbook" font-size="10.00" fill="#000000">C♮</text>
</g>
<!-- 1&#45;&#45;6 -->
<g id="edge4" class="edge">
<title>1&#45;&#45;6</title>
<path fill="none" stroke="#000000" d="M187.7433,-52.1355C191.1706,-65.7475 195.8337,-84.2677 199.258,-97.8674"/>
<text text-anchor="middle" x="191.0006" y="-77.8015" font-family="Times,serif" font-size="9.00" fill="#000000">4</text>
</g>
<!-- 3 -->
<g id="node4" class="node">
<title>3</title>
<text text-anchor="middle" x="27" y="-43.2646" font-family="century schoolbook" font-size="10.00" fill="#000000">F♯</text>
</g>
<!-- 2&#45;&#45;3 -->
<g id="edge5" class="edge">
<title>2&#45;&#45;3</title>
<path fill="none" stroke="#000000" d="M77.988,-47.0909C70.2151,-46.8888 61.7611,-46.6688 54.0128,-46.4673"/>
<text text-anchor="middle" x="63.5004" y="-49.5791" font-family="Times,serif" font-size="9.00" fill="#000000">5</text>
</g>
<!-- 7 -->
<g id="node8" class="node">
<title>7</title>
<text text-anchor="middle" x="120.9137" y="-129.0287" font-family="century schoolbook" font-size="10.00" fill="#000000">G♮</text>
</g>
<!-- 2&#45;&#45;7 -->
<g id="edge6" class="edge">
<title>2&#45;&#45;7</title>
<path fill="none" stroke="#000000" d="M108.7765,-65.9713C111.3765,-80.0147 114.9586,-99.3628 117.5569,-113.3972"/>
<text text-anchor="middle" x="110.6667" y="-92.4843" font-family="Times,serif" font-size="9.00" fill="#000000">4</text>
</g>
<!-- 8 -->
<g id="node9" class="node">
<title>8</title>
<text text-anchor="middle" x="39.5935" y="-123.0029" font-family="century schoolbook" font-size="10.00" fill="#000000">D♮</text>
</g>
<!-- 3&#45;&#45;8 -->
<g id="edge7" class="edge">
<title>3&#45;&#45;8</title>
<path fill="none" stroke="#000000" d="M29.8577,-63.8585C31.9187,-76.9081 34.6888,-94.4475 36.7472,-107.4807"/>
<text text-anchor="middle" x="30.8024" y="-88.4696" font-family="Times,serif" font-size="9.00" fill="#000000">4</text>
</g>
<!-- 4 -->
<g id="node5" class="node">
<title>4</title>
<text text-anchor="middle" x="363.3415" y="-77.9826" font-family="century schoolbook" font-size="10.00" fill="#000000">B♭</text>
</g>
<!-- 4&#45;&#45;5 -->
<g id="edge8" class="edge">
<title>4&#45;&#45;5</title>
<path fill="none" stroke="#000000" d="M336.1922,-86.7479C328.5848,-88.5034 320.3185,-90.4111 312.7198,-92.1646"/>
<text text-anchor="middle" x="321.956" y="-92.2563" font-family="Times,serif" font-size="9.00" fill="#000000">5</text>
</g>
<!-- 5&#45;&#45;6 -->
<g id="edge9" class="edge">
<title>5&#45;&#45;6</title>
<path fill="none" stroke="#000000" d="M258.4514,-104.2733C249.6121,-106.1786 239.812,-108.2911 230.9814,-110.1945"/>
<text text-anchor="middle" x="242.2164" y="-110.0339" font-family="Times,serif" font-size="9.00" fill="#000000">5</text>
</g>
<!-- 9 -->
<g id="node10" class="node">
<title>9</title>
<text text-anchor="middle" x="297.6994" y="-179.4988" font-family="century schoolbook" font-size="10.00" fill="#000000">C♯</text>
</g>
<!-- 5&#45;&#45;9 -->
<g id="edge10" class="edge">
<title>5&#45;&#45;9</title>
<path fill="none" stroke="#000000" d="M288.3168,-116.5366C290.3267,-130.5596 293.0958,-149.8796 295.1044,-163.8936"/>
<text text-anchor="middle" x="289.2106" y="-143.0151" font-family="Times,serif" font-size="9.00" fill="#000000">4</text>
</g>
<!-- 6&#45;&#45;7 -->
<g id="edge11" class="edge">
<title>6&#45;&#45;7</title>
<path fill="none" stroke="#000000" d="M176.6835,-121.1156C167.5203,-122.8266 157.2942,-124.7359 148.1263,-126.4477"/>
<text text-anchor="middle" x="159.9049" y="-126.5817" font-family="Times,serif" font-size="9.00" fill="#000000">5</text>
</g>
<!-- 10 -->
<g id="node11" class="node">
<title>10</title>
<text text-anchor="middle" x="219.8845" y="-196.5267" font-family="century schoolbook" font-size="10.00" fill="#000000">A♭</text>
</g>
<!-- 6&#45;&#45;10 -->
<g id="edge12" class="edge">
<title>6&#45;&#45;10</title>
<path fill="none" stroke="#000000" d="M207.3176,-134.0516C209.9911,-147.8749 213.6677,-166.8841 216.3534,-180.7698"/>
<text text-anchor="middle" x="209.3355" y="-160.2107" font-family="Times,serif" font-size="9.00" fill="#000000">4</text>
</g>
<!-- 7&#45;&#45;8 -->
<g id="edge13" class="edge">
<title>7&#45;&#45;8</title>
<path fill="none" stroke="#000000" d="M93.8353,-129.5222C85.1491,-128.8786 75.5285,-128.1657 66.831,-127.5212"/>
<text text-anchor="middle" x="77.8331" y="-131.3217" font-family="Times,serif" font-size="9.00" fill="#000000">5</text>
</g>
<!-- 11 -->
<g id="node12" class="node">
<title>11</title>
<text text-anchor="middle" x="140.6892" y="-209.8233" font-family="century schoolbook" font-size="10.00" fill="#000000">E♭</text>
</g>
<!-- 7&#45;&#45;11 -->
<g id="edge14" class="edge">
<title>7&#45;&#45;11</title>
<path fill="none" stroke="#000000" d="M125.4011,-149.8623C128.6375,-163.0848 132.9873,-180.8565 136.2196,-194.0623"/>
<text text-anchor="middle" x="128.3104" y="-174.7623" font-family="Times,serif" font-size="9.00" fill="#000000">4</text>
</g>
<!-- 9&#45;&#45;10 -->
<g id="edge15" class="edge">
<title>9&#45;&#45;10</title>
<path fill="none" stroke="#000000" d="M270.4835,-187.9543C262.8576,-189.6231 254.571,-191.4364 246.9536,-193.1033"/>
<text text-anchor="middle" x="256.2185" y="-193.3288" font-family="Times,serif" font-size="9.00" fill="#000000">5</text>
</g>
<!-- 10&#45;&#45;11 -->
<g id="edge16" class="edge">
<title>10&#45;&#45;11</title>
<path fill="none" stroke="#000000" d="M192.63,-203.6027C184.5763,-204.9549 175.7656,-206.4341 167.7257,-207.784"/>
<text text-anchor="middle" x="177.6778" y="-208.4933" font-family="Times,serif" font-size="9.00" fill="#000000">5</text>
</g>
</g>
</svg>
