<?xml version="1.0" encoding="UTF-8" standalone="no"?>
<!DOCTYPE svg PUBLIC "-//W3C//DTD SVG 1.1//EN"
 "http://www.w3.org/Graphics/SVG/1.1/DTD/svg11.dtd">
<!-- Generated by graphviz version 2.40.1 (20161225.0304)
 -->
<!-- Title: g Pages: 1 -->
<svg width="211pt" height="250pt"
 viewBox="0.00 0.00 210.72 250.46" xmlns="http://www.w3.org/2000/svg" xmlns:xlink="http://www.w3.org/1999/xlink">
<g id="graph0" class="graph" transform="scale(1 1) rotate(0) translate(4 246.4616)">
<title>g</title>
<polygon fill="#ffffff" stroke="transparent" points="-4,4 -4,-246.4616 206.7156,-246.4616 206.7156,4 -4,4"/>
<!-- 0 -->
<g id="node1" class="node">
<title>0</title>
<text text-anchor="middle" x="71.4759" y="-221.9616" font-family="century schoolbook" font-size="10.00" fill="#000000">6,10,14</text>
</g>
<!-- 1 -->
<g id="node2" class="node">
<title>1</title>
<text text-anchor="middle" x="144.8131" y="-216.1503" font-family="century schoolbook" font-size="10.00" fill="#000000">6,11,13</text>
</g>
<!-- 0&#45;&#45;1 -->
<g id="edge1" class="edge">
<title>0&#45;&#45;1</title>
<path fill="none" stroke="#000000" d="M98.784,-222.2977C104.974,-221.8072 111.5455,-221.2865 117.7264,-220.7967"/>
</g>
<!-- 2 -->
<g id="node3" class="node">
<title>2</title>
<text text-anchor="middle" x="27" y="-163.3453" font-family="century schoolbook" font-size="10.00" fill="#000000">7,9,14</text>
</g>
<!-- 0&#45;&#45;2 -->
<g id="edge2" class="edge">
<title>0&#45;&#45;2</title>
<path fill="none" stroke="#000000" d="M57.6472,-206.2364C52.2412,-199.1116 46.0577,-190.9621 40.6673,-183.858"/>
</g>
<!-- 3 -->
<g id="node4" class="node">
<title>3</title>
<text text-anchor="middle" x="102.0966" y="-153.607" font-family="century schoolbook" font-size="10.00" fill="#000000">7,10,13</text>
</g>
<!-- 0&#45;&#45;3 -->
<g id="edge3" class="edge">
<title>0&#45;&#45;3</title>
<path fill="none" stroke="#000000" d="M79.6817,-206.1438C84.0751,-196.3365 89.4713,-184.2904 93.8682,-174.4753"/>
</g>
<!-- 1&#45;&#45;3 -->
<g id="edge4" class="edge">
<title>1&#45;&#45;3</title>
<path fill="none" stroke="#000000" d="M132.4577,-200.5602C126.8397,-192.3346 120.2046,-182.6197 114.5722,-174.3731"/>
</g>
<!-- 4 -->
<g id="node5" class="node">
<title>4</title>
<text text-anchor="middle" x="175.7156" y="-148.6086" font-family="century schoolbook" font-size="10.00" fill="#000000">7,11,12</text>
</g>
<!-- 1&#45;&#45;4 -->
<g id="edge5" class="edge">
<title>1&#45;&#45;4</title>
<path fill="none" stroke="#000000" d="M153.0944,-200.5504C157.5282,-190.8596 162.9741,-178.9568 167.4114,-169.2585"/>
</g>
<!-- 2&#45;&#45;3 -->
<g id="edge6" class="edge">
<title>2&#45;&#45;3</title>
<path fill="none" stroke="#000000" d="M54.1116,-162.3296C60.9177,-161.447 68.2207,-160.4999 75.0248,-159.6176"/>
</g>
<!-- 5 -->
<g id="node6" class="node">
<title>5</title>
<text text-anchor="middle" x="56.8694" y="-95.2949" font-family="century schoolbook" font-size="10.00" fill="#000000">8,9,13</text>
</g>
<!-- 2&#45;&#45;5 -->
<g id="edge7" class="edge">
<title>2&#45;&#45;5</title>
<path fill="none" stroke="#000000" d="M35.0045,-147.6091C39.29,-137.8453 44.5539,-125.8529 48.8429,-116.0815"/>
</g>
<!-- 3&#45;&#45;4 -->
<g id="edge8" class="edge">
<title>3&#45;&#45;4</title>
<path fill="none" stroke="#000000" d="M129.5096,-154.2457C135.7234,-153.8238 142.3202,-153.376 148.5248,-152.9547"/>
</g>
<!-- 3&#45;&#45;5 -->
<g id="edge9" class="edge">
<title>3&#45;&#45;5</title>
<path fill="none" stroke="#000000" d="M88.0343,-137.9763C82.6407,-131.0222 76.486,-123.0869 71.0787,-116.1152"/>
</g>
<!-- 6 -->
<g id="node7" class="node">
<title>6</title>
<text text-anchor="middle" x="132.876" y="-84.9747" font-family="century schoolbook" font-size="10.00" fill="#000000">8,10,12</text>
</g>
<!-- 3&#45;&#45;6 -->
<g id="edge10" class="edge">
<title>3&#45;&#45;6</title>
<path fill="none" stroke="#000000" d="M110.1835,-138.0746C114.672,-128.0662 120.2393,-115.6521 124.7362,-105.6249"/>
</g>
<!-- 4&#45;&#45;6 -->
<g id="edge11" class="edge">
<title>4&#45;&#45;6</title>
<path fill="none" stroke="#000000" d="M163.554,-133.0439C157.8151,-124.5193 150.9782,-114.3637 145.2167,-105.8056"/>
</g>
<!-- 5&#45;&#45;6 -->
<g id="edge12" class="edge">
<title>5&#45;&#45;6</title>
<path fill="none" stroke="#000000" d="M83.8805,-94.1273C90.9635,-93.1656 98.6039,-92.1282 105.6958,-91.1652"/>
</g>
<!-- 7 -->
<g id="node8" class="node">
<title>7</title>
<text text-anchor="middle" x="164.5797" y="-15.5" font-family="century schoolbook" font-size="10.00" fill="#000000">9,10,11</text>
</g>
<!-- 6&#45;&#45;7 -->
<g id="edge13" class="edge">
<title>6&#45;&#45;7</title>
<path fill="none" stroke="#000000" d="M141.2058,-69.2211C145.829,-59.0898 151.5636,-46.5233 156.1955,-36.373"/>
</g>
</g>
</svg>
