<?xml version="1.0" encoding="UTF-8" standalone="no"?>
<!DOCTYPE svg PUBLIC "-//W3C//DTD SVG 1.1//EN"
 "http://www.w3.org/Graphics/SVG/1.1/DTD/svg11.dtd">
<!-- Generated by graphviz version 2.40.1 (20161225.0304)
 -->
<!-- Title: g Pages: 1 -->
<svg width="1030pt" height="1163pt"
 viewBox="0.00 0.00 1030.06 1163.01" xmlns="http://www.w3.org/2000/svg" xmlns:xlink="http://www.w3.org/1999/xlink">
<g id="graph0" class="graph" transform="scale(1 1) rotate(0) translate(4 1159.0069)">
<title>g</title>
<polygon fill="#ffffff" stroke="transparent" points="-4,4 -4,-1159.0069 1026.0644,-1159.0069 1026.0644,4 -4,4"/>
<!-- 0 -->
<g id="node1" class="node">
<title>0</title>
<polygon fill="none" stroke="#000000" points="193.2475,-190.8141 139.2475,-190.8141 139.2475,-154.8141 193.2475,-154.8141 193.2475,-190.8141"/>
<text text-anchor="middle" x="166.2475" y="-170.3141" font-family="century schoolbook" font-size="10.00" fill="#000000">0</text>
</g>
<!-- 1 -->
<g id="node2" class="node">
<title>1</title>
<polygon fill="none" stroke="#000000" points="92.7812,-86.8083 38.7812,-86.8083 38.7812,-50.8083 92.7812,-50.8083 92.7812,-86.8083"/>
<text text-anchor="middle" x="65.7812" y="-66.3083" font-family="century schoolbook" font-size="10.00" fill="#000000">1,2</text>
</g>
<!-- 0&#45;&#45;1 -->
<g id="edge1" class="edge">
<title>0&#45;&#45;1</title>
<path fill="none" stroke="#000000" d="M155.3778,-154.5079C140.0222,-135.4639 111.9416,-106.0376 91.2309,-87.032"/>
</g>
<!-- 0&#45;&#45;1 -->
<g id="edge2" class="edge">
<title>0&#45;&#45;1</title>
<path fill="none" stroke="#000000" d="M140.8876,-154.6728C120.0758,-135.5851 91.7773,-105.9226 76.4457,-86.8598"/>
</g>
<!-- 2 -->
<g id="node3" class="node">
<title>2</title>
<polygon fill="none" stroke="#000000" points="54,-229.7137 0,-229.7137 0,-193.7137 54,-193.7137 54,-229.7137"/>
<text text-anchor="middle" x="27" y="-209.2137" font-family="century schoolbook" font-size="10.00" fill="#000000">3,4</text>
</g>
<!-- 0&#45;&#45;2 -->
<g id="edge3" class="edge">
<title>0&#45;&#45;2</title>
<path fill="none" stroke="#000000" d="M138.9328,-174.8505C114.3945,-179.8875 78.5788,-189.8274 54.1052,-198.3514"/>
</g>
<!-- 0&#45;&#45;2 -->
<g id="edge4" class="edge">
<title>0&#45;&#45;2</title>
<path fill="none" stroke="#000000" d="M139.2315,-186.1452C114.6873,-194.7 78.682,-204.6899 54.1087,-209.7195"/>
</g>
<!-- 3 -->
<g id="node4" class="node">
<title>3</title>
<polygon fill="none" stroke="#000000" points="309.1971,-127.3316 255.1971,-127.3316 255.1971,-91.3316 309.1971,-91.3316 309.1971,-127.3316"/>
<text text-anchor="middle" x="282.1971" y="-106.8316" font-family="century schoolbook" font-size="10.00" fill="#000000">5,6</text>
</g>
<!-- 0&#45;&#45;3 -->
<g id="edge5" class="edge">
<title>0&#45;&#45;3</title>
<path fill="none" stroke="#000000" d="M193.4326,-157.9303C212.0407,-147.7423 236.6107,-134.2902 255.1824,-124.1222"/>
</g>
<!-- 4 -->
<g id="node5" class="node">
<title>4</title>
<polygon fill="none" stroke="#000000" points="261.3524,-304.1595 207.3524,-304.1595 207.3524,-268.1595 261.3524,-268.1595 261.3524,-304.1595"/>
<text text-anchor="middle" x="234.3524" y="-283.6595" font-family="century schoolbook" font-size="10.00" fill="#000000">5,7</text>
</g>
<!-- 0&#45;&#45;4 -->
<g id="edge6" class="edge">
<title>0&#45;&#45;4</title>
<path fill="none" stroke="#000000" d="M177.1897,-191.025C189.8988,-212.1765 210.7398,-246.8616 223.4373,-267.9938"/>
</g>
<!-- 5 -->
<g id="node6" class="node">
<title>5</title>
<polygon fill="none" stroke="#000000" points="241.6503,-353.949 187.6503,-353.949 187.6503,-317.949 241.6503,-317.949 241.6503,-353.949"/>
<text text-anchor="middle" x="214.6503" y="-333.449" font-family="century schoolbook" font-size="10.00" fill="#000000">6,8</text>
</g>
<!-- 0&#45;&#45;5 -->
<g id="edge7" class="edge">
<title>0&#45;&#45;5</title>
<path fill="none" stroke="#000000" d="M171.6124,-190.8957C180.9164,-222.2536 199.9407,-286.3723 209.2614,-317.7865"/>
</g>
<!-- 6 -->
<g id="node7" class="node">
<title>6</title>
<polygon fill="none" stroke="#000000" points="317.3779,-74.4025 263.3779,-74.4025 263.3779,-38.4025 317.3779,-38.4025 317.3779,-74.4025"/>
<text text-anchor="middle" x="290.3779" y="-53.9025" font-family="century schoolbook" font-size="10.00" fill="#000000">7,8</text>
</g>
<!-- 0&#45;&#45;6 -->
<g id="edge8" class="edge">
<title>0&#45;&#45;6</title>
<path fill="none" stroke="#000000" d="M185.6429,-154.6248C208.9628,-132.755 247.8597,-96.2769 271.1187,-74.4641"/>
</g>
<!-- 7 -->
<g id="node8" class="node">
<title>7</title>
<polygon fill="none" stroke="#000000" points="457.4949,-145.6388 403.4949,-145.6388 403.4949,-109.6388 457.4949,-109.6388 457.4949,-145.6388"/>
<text text-anchor="middle" x="430.4949" y="-125.1388" font-family="century schoolbook" font-size="10.00" fill="#000000">3</text>
</g>
<!-- 7&#45;&#45;3 -->
<g id="edge9" class="edge">
<title>7&#45;&#45;3</title>
<path fill="none" stroke="#000000" d="M403.2948,-124.281C376.5371,-120.9778 335.9227,-115.964 309.2248,-112.6681"/>
</g>
<!-- 7&#45;&#45;6 -->
<g id="edge10" class="edge">
<title>7&#45;&#45;6</title>
<path fill="none" stroke="#000000" d="M403.4789,-113.9037C378.8264,-101.3703 342.5646,-82.9345 317.789,-70.3385"/>
</g>
<!-- 8 -->
<g id="node9" class="node">
<title>8</title>
<polygon fill="none" stroke="#000000" points="549.5474,-36 495.5474,-36 495.5474,0 549.5474,0 549.5474,-36"/>
<text text-anchor="middle" x="522.5474" y="-15.5" font-family="century schoolbook" font-size="10.00" fill="#000000">0,4</text>
</g>
<!-- 7&#45;&#45;8 -->
<g id="edge11" class="edge">
<title>7&#45;&#45;8</title>
<path fill="none" stroke="#000000" d="M452.8966,-109.5166C472.4565,-89.1253 499.6383,-56.3895 513.6873,-36.0292"/>
</g>
<!-- 7&#45;&#45;8 -->
<g id="edge12" class="edge">
<title>7&#45;&#45;8</title>
<path fill="none" stroke="#000000" d="M439.5839,-109.2786C453.6401,-88.9789 480.4723,-56.6673 499.9081,-36.3701"/>
</g>
<!-- 9 -->
<g id="node10" class="node">
<title>9</title>
<polygon fill="none" stroke="#000000" points="541.6101,-241.6321 487.6101,-241.6321 487.6101,-205.6321 541.6101,-205.6321 541.6101,-241.6321"/>
<text text-anchor="middle" x="514.6101" y="-221.1321" font-family="century schoolbook" font-size="10.00" fill="#000000">1,5</text>
</g>
<!-- 7&#45;&#45;9 -->
<g id="edge13" class="edge">
<title>7&#45;&#45;9</title>
<path fill="none" stroke="#000000" d="M446.3163,-145.6944C461.2596,-162.7478 483.5603,-188.1976 498.5736,-205.3311"/>
</g>
<!-- 10 -->
<g id="node11" class="node">
<title>10</title>
<polygon fill="none" stroke="#000000" points="480.1892,-271.266 426.1892,-271.266 426.1892,-235.266 480.1892,-235.266 480.1892,-271.266"/>
<text text-anchor="middle" x="453.1892" y="-250.766" font-family="century schoolbook" font-size="10.00" fill="#000000">1,8</text>
</g>
<!-- 7&#45;&#45;10 -->
<g id="edge14" class="edge">
<title>7&#45;&#45;10</title>
<path fill="none" stroke="#000000" d="M433.7948,-145.906C438.0975,-169.7241 445.5806,-211.1477 449.8852,-234.9767"/>
</g>
<!-- 11 -->
<g id="node12" class="node">
<title>11</title>
<polygon fill="none" stroke="#000000" points="399.8086,-246.4445 345.8086,-246.4445 345.8086,-210.4445 399.8086,-210.4445 399.8086,-246.4445"/>
<text text-anchor="middle" x="372.8086" y="-225.9445" font-family="century schoolbook" font-size="10.00" fill="#000000">2,6</text>
</g>
<!-- 7&#45;&#45;11 -->
<g id="edge15" class="edge">
<title>7&#45;&#45;11</title>
<path fill="none" stroke="#000000" d="M420.1817,-145.6608C409.7465,-163.8962 393.6997,-191.9377 383.227,-210.2386"/>
</g>
<!-- 12 -->
<g id="node13" class="node">
<title>12</title>
<polygon fill="none" stroke="#000000" points="523.0969,-321.0276 469.0969,-321.0276 469.0969,-285.0276 523.0969,-285.0276 523.0969,-321.0276"/>
<text text-anchor="middle" x="496.0969" y="-300.5276" font-family="century schoolbook" font-size="10.00" fill="#000000">2,7</text>
</g>
<!-- 7&#45;&#45;12 -->
<g id="edge16" class="edge">
<title>7&#45;&#45;12</title>
<path fill="none" stroke="#000000" d="M437.2684,-145.7479C449.872,-179.444 476.7846,-251.3955 489.3603,-285.017"/>
</g>
<!-- 13 -->
<g id="node14" class="node">
<title>13</title>
<polygon fill="none" stroke="#000000" points="398.6032,-363.31 344.6032,-363.31 344.6032,-327.31 398.6032,-327.31 398.6032,-363.31"/>
<text text-anchor="middle" x="371.6032" y="-342.81" font-family="century schoolbook" font-size="10.00" fill="#000000">4</text>
</g>
<!-- 13&#45;&#45;4 -->
<g id="edge17" class="edge">
<title>13&#45;&#45;4</title>
<path fill="none" stroke="#000000" d="M344.4869,-333.6238C320.4249,-323.2539 285.4573,-308.184 261.4124,-297.8215"/>
</g>
<!-- 13&#45;&#45;5 -->
<g id="edge18" class="edge">
<title>13&#45;&#45;5</title>
<path fill="none" stroke="#000000" d="M344.2641,-343.6795C315.4565,-341.9613 270.365,-339.272 241.6761,-337.5609"/>
</g>
<!-- 13&#45;&#45;9 -->
<g id="edge19" class="edge">
<title>13&#45;&#45;9</title>
<path fill="none" stroke="#000000" d="M393.0128,-327.0936C419.9725,-304.1548 466.0256,-264.9704 493.0542,-241.973"/>
</g>
<!-- 13&#45;&#45;10 -->
<g id="edge20" class="edge">
<title>13&#45;&#45;10</title>
<path fill="none" stroke="#000000" d="M387.722,-327.1251C402.0251,-310.9885 422.8109,-287.5383 437.1039,-271.4131"/>
</g>
<!-- 13&#45;&#45;11 -->
<g id="edge21" class="edge">
<title>13&#45;&#45;11</title>
<path fill="none" stroke="#000000" d="M371.7889,-327.3059C372.0148,-305.4087 372.3939,-268.6546 372.6207,-246.6616"/>
</g>
<!-- 13&#45;&#45;12 -->
<g id="edge22" class="edge">
<title>13&#45;&#45;12</title>
<path fill="none" stroke="#000000" d="M398.6165,-336.1354C419.3552,-329.0918 447.8742,-319.4057 468.7065,-312.3303"/>
</g>
<!-- 14 -->
<g id="node15" class="node">
<title>14</title>
<polygon fill="none" stroke="#000000" points="422.8805,-504.2805 368.8805,-504.2805 368.8805,-468.2805 422.8805,-468.2805 422.8805,-504.2805"/>
<text text-anchor="middle" x="395.8805" y="-483.7805" font-family="century schoolbook" font-size="10.00" fill="#000000">0,3</text>
</g>
<!-- 13&#45;&#45;14 -->
<g id="edge23" class="edge">
<title>13&#45;&#45;14</title>
<path fill="none" stroke="#000000" d="M370.0328,-363.3789C371.8504,-390.3187 380.465,-440.7251 387.8284,-467.8647"/>
</g>
<!-- 13&#45;&#45;14 -->
<g id="edge24" class="edge">
<title>13&#45;&#45;14</title>
<path fill="none" stroke="#000000" d="M379.5964,-363.5092C386.9636,-390.5627 395.6069,-441.0739 397.4441,-468.1105"/>
</g>
<!-- 15 -->
<g id="node16" class="node">
<title>15</title>
<polygon fill="none" stroke="#000000" points="669.9287,-578.4507 615.9287,-578.4507 615.9287,-542.4507 669.9287,-542.4507 669.9287,-578.4507"/>
<text text-anchor="middle" x="642.9287" y="-557.9507" font-family="century schoolbook" font-size="10.00" fill="#000000">1</text>
</g>
<!-- 16 -->
<g id="node17" class="node">
<title>16</title>
<polygon fill="none" stroke="#000000" points="561.9474,-482.1738 507.9474,-482.1738 507.9474,-446.1738 561.9474,-446.1738 561.9474,-482.1738"/>
<text text-anchor="middle" x="534.9474" y="-461.6738" font-family="century schoolbook" font-size="10.00" fill="#000000">0,2</text>
</g>
<!-- 15&#45;&#45;16 -->
<g id="edge25" class="edge">
<title>15&#45;&#45;16</title>
<path fill="none" stroke="#000000" d="M629.8623,-542.0893C613.0701,-524.3403 583.7675,-497.917 562.0998,-480.7811"/>
</g>
<!-- 15&#45;&#45;16 -->
<g id="edge26" class="edge">
<title>15&#45;&#45;16</title>
<path fill="none" stroke="#000000" d="M615.7194,-543.7984C593.9136,-526.5476 564.4027,-499.9181 547.6815,-482.1834"/>
</g>
<!-- 17 -->
<g id="node18" class="node">
<title>17</title>
<polygon fill="none" stroke="#000000" points="784.5354,-452.6637 730.5354,-452.6637 730.5354,-416.6637 784.5354,-416.6637 784.5354,-452.6637"/>
<text text-anchor="middle" x="757.5354" y="-432.1637" font-family="century schoolbook" font-size="10.00" fill="#000000">3,5</text>
</g>
<!-- 15&#45;&#45;17 -->
<g id="edge27" class="edge">
<title>15&#45;&#45;17</title>
<path fill="none" stroke="#000000" d="M659.349,-542.4285C681.0119,-518.6523 718.9401,-477.0241 740.7728,-453.0615"/>
</g>
<!-- 18 -->
<g id="node19" class="node">
<title>18</title>
<polygon fill="none" stroke="#000000" points="730.7692,-737.2546 676.7692,-737.2546 676.7692,-701.2546 730.7692,-701.2546 730.7692,-737.2546"/>
<text text-anchor="middle" x="703.7692" y="-716.7546" font-family="century schoolbook" font-size="10.00" fill="#000000">3,8</text>
</g>
<!-- 15&#45;&#45;18 -->
<g id="edge28" class="edge">
<title>15&#45;&#45;18</title>
<path fill="none" stroke="#000000" d="M649.9078,-578.6675C661.6438,-609.3003 685.1903,-670.7607 696.8714,-701.2502"/>
</g>
<!-- 19 -->
<g id="node20" class="node">
<title>19</title>
<polygon fill="none" stroke="#000000" points="746.8553,-686.2519 692.8553,-686.2519 692.8553,-650.2519 746.8553,-650.2519 746.8553,-686.2519"/>
<text text-anchor="middle" x="719.8553" y="-665.7519" font-family="century schoolbook" font-size="10.00" fill="#000000">4,5</text>
</g>
<!-- 15&#45;&#45;19 -->
<g id="edge29" class="edge">
<title>15&#45;&#45;19</title>
<path fill="none" stroke="#000000" d="M655.9782,-578.7377C670.2098,-598.6812 692.8433,-630.3986 706.9985,-650.235"/>
</g>
<!-- 20 -->
<g id="node21" class="node">
<title>20</title>
<polygon fill="none" stroke="#000000" points="780.5064,-506.1072 726.5064,-506.1072 726.5064,-470.1072 780.5064,-470.1072 780.5064,-506.1072"/>
<text text-anchor="middle" x="753.5064" y="-485.6072" font-family="century schoolbook" font-size="10.00" fill="#000000">4,8</text>
</g>
<!-- 15&#45;&#45;20 -->
<g id="edge30" class="edge">
<title>15&#45;&#45;20</title>
<path fill="none" stroke="#000000" d="M669.979,-542.7535C687.1145,-531.5429 709.1966,-517.096 726.3521,-505.8724"/>
</g>
<!-- 21 -->
<g id="node22" class="node">
<title>21</title>
<polygon fill="none" stroke="#000000" points="534,-627.498 480,-627.498 480,-591.498 534,-591.498 534,-627.498"/>
<text text-anchor="middle" x="507" y="-606.998" font-family="century schoolbook" font-size="10.00" fill="#000000">6,7</text>
</g>
<!-- 15&#45;&#45;21 -->
<g id="edge31" class="edge">
<title>15&#45;&#45;21</title>
<path fill="none" stroke="#000000" d="M615.8514,-564.4932C592.2358,-571.1895 558.1637,-583.3837 534.4418,-593.568"/>
</g>
<!-- 15&#45;&#45;21 -->
<g id="edge32" class="edge">
<title>15&#45;&#45;21</title>
<path fill="none" stroke="#000000" d="M615.6887,-576.2941C592.0279,-586.466 557.9596,-598.6687 534.2851,-605.3966"/>
</g>
<!-- 22 -->
<g id="node23" class="node">
<title>22</title>
<polygon fill="none" stroke="#000000" points="929.7506,-512.6493 875.7506,-512.6493 875.7506,-476.6493 929.7506,-476.6493 929.7506,-512.6493"/>
<text text-anchor="middle" x="902.7506" y="-492.1493" font-family="century schoolbook" font-size="10.00" fill="#000000">6</text>
</g>
<!-- 22&#45;&#45;17 -->
<g id="edge33" class="edge">
<title>22&#45;&#45;17</title>
<path fill="none" stroke="#000000" d="M875.4367,-483.3665C849.4745,-472.642 810.6484,-456.6037 784.7268,-445.896"/>
</g>
<!-- 22&#45;&#45;20 -->
<g id="edge34" class="edge">
<title>22&#45;&#45;20</title>
<path fill="none" stroke="#000000" d="M875.7236,-493.4646C848.7596,-492.2826 807.5659,-490.4769 780.5841,-489.2941"/>
</g>
<!-- 23 -->
<g id="node24" class="node">
<title>23</title>
<polygon fill="none" stroke="#000000" points="962.5275,-634.1208 908.5275,-634.1208 908.5275,-598.1208 962.5275,-598.1208 962.5275,-634.1208"/>
<text text-anchor="middle" x="935.5275" y="-613.6208" font-family="century schoolbook" font-size="10.00" fill="#000000">0,5</text>
</g>
<!-- 22&#45;&#45;23 -->
<g id="edge35" class="edge">
<title>22&#45;&#45;23</title>
<path fill="none" stroke="#000000" d="M907.6576,-512.8349C913.8368,-535.7347 924.3921,-574.8526 930.587,-597.811"/>
</g>
<!-- 24 -->
<g id="node25" class="node">
<title>24</title>
<polygon fill="none" stroke="#000000" points="1022.0644,-602.7518 968.0644,-602.7518 968.0644,-566.7518 1022.0644,-566.7518 1022.0644,-602.7518"/>
<text text-anchor="middle" x="995.0644" y="-582.2518" font-family="century schoolbook" font-size="10.00" fill="#000000">0,8</text>
</g>
<!-- 22&#45;&#45;24 -->
<g id="edge36" class="edge">
<title>22&#45;&#45;24</title>
<path fill="none" stroke="#000000" d="M921.4317,-512.8829C937.4477,-528.5153 960.4031,-550.9208 976.4111,-566.5454"/>
</g>
<!-- 25 -->
<g id="node26" class="node">
<title>25</title>
<polygon fill="none" stroke="#000000" points="1012.6889,-396 958.6889,-396 958.6889,-360 1012.6889,-360 1012.6889,-396"/>
<text text-anchor="middle" x="985.6889" y="-375.5" font-family="century schoolbook" font-size="10.00" fill="#000000">1,7</text>
</g>
<!-- 22&#45;&#45;25 -->
<g id="edge37" class="edge">
<title>22&#45;&#45;25</title>
<path fill="none" stroke="#000000" d="M922.1222,-476.6194C940.2329,-454.7028 966.0123,-418.1042 978.6194,-396.1358"/>
</g>
<!-- 22&#45;&#45;25 -->
<g id="edge38" class="edge">
<title>22&#45;&#45;25</title>
<path fill="none" stroke="#000000" d="M909.8848,-476.401C922.4456,-454.5413 947.9545,-418.3109 966.0178,-396.3928"/>
</g>
<!-- 26 -->
<g id="node27" class="node">
<title>26</title>
<polygon fill="none" stroke="#000000" points="880.0258,-618.189 826.0258,-618.189 826.0258,-582.189 880.0258,-582.189 880.0258,-618.189"/>
<text text-anchor="middle" x="853.0258" y="-597.689" font-family="century schoolbook" font-size="10.00" fill="#000000">2,3</text>
</g>
<!-- 22&#45;&#45;26 -->
<g id="edge39" class="edge">
<title>22&#45;&#45;26</title>
<path fill="none" stroke="#000000" d="M894.0892,-513.033C884.9626,-532.4041 870.677,-562.7248 861.588,-582.0161"/>
</g>
<!-- 27 -->
<g id="node28" class="node">
<title>27</title>
<polygon fill="none" stroke="#000000" points="1007.8249,-683.0148 953.8249,-683.0148 953.8249,-647.0148 1007.8249,-647.0148 1007.8249,-683.0148"/>
<text text-anchor="middle" x="980.8249" y="-662.5148" font-family="century schoolbook" font-size="10.00" fill="#000000">2,4</text>
</g>
<!-- 22&#45;&#45;27 -->
<g id="edge40" class="edge">
<title>22&#45;&#45;27</title>
<path fill="none" stroke="#000000" d="M911.1059,-512.8814C926.133,-545.672 957.5464,-614.2188 972.5297,-646.9138"/>
</g>
<!-- 28 -->
<g id="node29" class="node">
<title>28</title>
<polygon fill="none" stroke="#000000" points="888.2375,-734.3302 834.2375,-734.3302 834.2375,-698.3302 888.2375,-698.3302 888.2375,-734.3302"/>
<text text-anchor="middle" x="861.2375" y="-713.8302" font-family="century schoolbook" font-size="10.00" fill="#000000">7</text>
</g>
<!-- 28&#45;&#45;18 -->
<g id="edge41" class="edge">
<title>28&#45;&#45;18</title>
<path fill="none" stroke="#000000" d="M834.1678,-716.8329C805.3252,-717.3685 759.9216,-718.2117 731.0127,-718.7486"/>
</g>
<!-- 28&#45;&#45;19 -->
<g id="edge42" class="edge">
<title>28&#45;&#45;19</title>
<path fill="none" stroke="#000000" d="M833.9776,-707.0602C808.942,-698.5466 772.0406,-685.998 747.0315,-677.4934"/>
</g>
<!-- 28&#45;&#45;23 -->
<g id="edge43" class="edge">
<title>28&#45;&#45;23</title>
<path fill="none" stroke="#000000" d="M874.8635,-697.9502C888.2678,-679.8692 908.6136,-652.4249 921.988,-634.3842"/>
</g>
<!-- 28&#45;&#45;24 -->
<g id="edge44" class="edge">
<title>28&#45;&#45;24</title>
<path fill="none" stroke="#000000" d="M879.565,-698.3106C905.0495,-673.2544 950.9339,-628.1409 976.5288,-602.9759"/>
</g>
<!-- 28&#45;&#45;26 -->
<g id="edge45" class="edge">
<title>28&#45;&#45;26</title>
<path fill="none" stroke="#000000" d="M859.9545,-698.1831C858.4118,-676.3641 855.8386,-639.9707 854.2999,-618.2086"/>
</g>
<!-- 28&#45;&#45;27 -->
<g id="edge46" class="edge">
<title>28&#45;&#45;27</title>
<path fill="none" stroke="#000000" d="M888.3738,-704.6859C907.945,-696.2878 934.2496,-685.0004 953.7961,-676.6129"/>
</g>
<!-- 29 -->
<g id="node30" class="node">
<title>29</title>
<polygon fill="none" stroke="#000000" points="923.7783,-872.8996 869.7783,-872.8996 869.7783,-836.8996 923.7783,-836.8996 923.7783,-872.8996"/>
<text text-anchor="middle" x="896.7783" y="-852.3996" font-family="century schoolbook" font-size="10.00" fill="#000000">1,6</text>
</g>
<!-- 28&#45;&#45;29 -->
<g id="edge47" class="edge">
<title>28&#45;&#45;29</title>
<path fill="none" stroke="#000000" d="M861.126,-734.4679C865.0831,-761.0274 877.6072,-810.1791 887.1116,-836.7469"/>
</g>
<!-- 28&#45;&#45;29 -->
<g id="edge48" class="edge">
<title>28&#45;&#45;29</title>
<path fill="none" stroke="#000000" d="M870.8724,-734.394C880.388,-760.9616 892.948,-810.2496 896.8992,-836.8242"/>
</g>
<!-- 30 -->
<g id="node31" class="node">
<title>30</title>
<polygon fill="none" stroke="#000000" points="257.0955,-813.0582 203.0955,-813.0582 203.0955,-777.0582 257.0955,-777.0582 257.0955,-813.0582"/>
<text text-anchor="middle" x="230.0955" y="-792.5582" font-family="century schoolbook" font-size="10.00" fill="#000000">2</text>
</g>
<!-- 31 -->
<g id="node32" class="node">
<title>31</title>
<polygon fill="none" stroke="#000000" points="172.4381,-696 118.4381,-696 118.4381,-660 172.4381,-660 172.4381,-696"/>
<text text-anchor="middle" x="145.4381" y="-675.5" font-family="century schoolbook" font-size="10.00" fill="#000000">0,1</text>
</g>
<!-- 30&#45;&#45;31 -->
<g id="edge49" class="edge">
<title>30&#45;&#45;31</title>
<path fill="none" stroke="#000000" d="M222.8617,-776.9823C209.982,-754.9608 183.6229,-718.164 165.1432,-696.1253"/>
</g>
<!-- 30&#45;&#45;31 -->
<g id="edge50" class="edge">
<title>30&#45;&#45;31</title>
<path fill="none" stroke="#000000" d="M210.4376,-776.9892C191.996,-755.0051 165.678,-718.2773 152.7566,-696.2208"/>
</g>
<!-- 32 -->
<g id="node33" class="node">
<title>32</title>
<polygon fill="none" stroke="#000000" points="395.6175,-715.8369 341.6175,-715.8369 341.6175,-679.8369 395.6175,-679.8369 395.6175,-715.8369"/>
<text text-anchor="middle" x="368.6175" y="-695.3369" font-family="century schoolbook" font-size="10.00" fill="#000000">3,6</text>
</g>
<!-- 30&#45;&#45;32 -->
<g id="edge51" class="edge">
<title>30&#45;&#45;32</title>
<path fill="none" stroke="#000000" d="M255.8258,-776.9994C280.55,-759.6468 317.7199,-733.5592 342.5549,-716.1289"/>
</g>
<!-- 33 -->
<g id="node34" class="node">
<title>33</title>
<polygon fill="none" stroke="#000000" points="310.2937,-933.4732 256.2937,-933.4732 256.2937,-897.4732 310.2937,-897.4732 310.2937,-933.4732"/>
<text text-anchor="middle" x="283.2937" y="-912.9732" font-family="century schoolbook" font-size="10.00" fill="#000000">3,7</text>
</g>
<!-- 30&#45;&#45;33 -->
<g id="edge52" class="edge">
<title>30&#45;&#45;33</title>
<path fill="none" stroke="#000000" d="M238.0598,-813.0855C248.0887,-835.7862 265.2203,-874.5639 275.2749,-897.3226"/>
</g>
<!-- 34 -->
<g id="node35" class="node">
<title>34</title>
<polygon fill="none" stroke="#000000" points="282.9876,-980.3588 228.9876,-980.3588 228.9876,-944.3588 282.9876,-944.3588 282.9876,-980.3588"/>
<text text-anchor="middle" x="255.9876" y="-959.8588" font-family="century schoolbook" font-size="10.00" fill="#000000">4,6</text>
</g>
<!-- 30&#45;&#45;34 -->
<g id="edge53" class="edge">
<title>30&#45;&#45;34</title>
<path fill="none" stroke="#000000" d="M232.9157,-813.2807C237.8962,-845.4625 248.1928,-911.9929 253.1709,-944.1587"/>
</g>
<!-- 35 -->
<g id="node36" class="node">
<title>35</title>
<polygon fill="none" stroke="#000000" points="380.849,-768.1387 326.849,-768.1387 326.849,-732.1387 380.849,-732.1387 380.849,-768.1387"/>
<text text-anchor="middle" x="353.849" y="-747.6387" font-family="century schoolbook" font-size="10.00" fill="#000000">4,7</text>
</g>
<!-- 30&#45;&#45;35 -->
<g id="edge54" class="edge">
<title>30&#45;&#45;35</title>
<path fill="none" stroke="#000000" d="M257.2537,-785.2004C277.8872,-777.7109 306.1362,-767.4573 326.7541,-759.9735"/>
</g>
<!-- 36 -->
<g id="node37" class="node">
<title>36</title>
<polygon fill="none" stroke="#000000" points="114,-832.7035 60,-832.7035 60,-796.7035 114,-796.7035 114,-832.7035"/>
<text text-anchor="middle" x="87" y="-812.2035" font-family="century schoolbook" font-size="10.00" fill="#000000">5,8</text>
</g>
<!-- 30&#45;&#45;36 -->
<g id="edge55" class="edge">
<title>30&#45;&#45;36</title>
<path fill="none" stroke="#000000" d="M202.7828,-793.3695C177.3228,-795.0629 139.5682,-800.2154 114.1581,-805.4444"/>
</g>
<!-- 30&#45;&#45;36 -->
<g id="edge56" class="edge">
<title>30&#45;&#45;36</title>
<path fill="none" stroke="#000000" d="M202.911,-804.3227C177.444,-809.5615 139.5942,-814.7225 114.1412,-816.4035"/>
</g>
<!-- 37 -->
<g id="node38" class="node">
<title>37</title>
<polygon fill="none" stroke="#000000" points="523.6637,-805.2781 469.6637,-805.2781 469.6637,-769.2781 523.6637,-769.2781 523.6637,-805.2781"/>
<text text-anchor="middle" x="496.6637" y="-784.7781" font-family="century schoolbook" font-size="10.00" fill="#000000">5</text>
</g>
<!-- 37&#45;&#45;32 -->
<g id="edge57" class="edge">
<title>37&#45;&#45;32</title>
<path fill="none" stroke="#000000" d="M470.7517,-769.1783C448.5362,-753.6607 416.6953,-731.4196 394.491,-715.9098"/>
</g>
<!-- 37&#45;&#45;35 -->
<g id="edge58" class="edge">
<title>37&#45;&#45;35</title>
<path fill="none" stroke="#000000" d="M469.4652,-780.205C444.0531,-773.5965 406.3256,-763.7854 380.9462,-757.1854"/>
</g>
<!-- 38 -->
<g id="node39" class="node">
<title>38</title>
<polygon fill="none" stroke="#000000" points="459.8096,-899.8344 405.8096,-899.8344 405.8096,-863.8344 459.8096,-863.8344 459.8096,-899.8344"/>
<text text-anchor="middle" x="432.8096" y="-879.3344" font-family="century schoolbook" font-size="10.00" fill="#000000">0,6</text>
</g>
<!-- 37&#45;&#45;38 -->
<g id="edge59" class="edge">
<title>37&#45;&#45;38</title>
<path fill="none" stroke="#000000" d="M484.352,-805.5095C473.0449,-822.2533 456.3787,-846.9329 445.0835,-863.659"/>
</g>
<!-- 39 -->
<g id="node40" class="node">
<title>39</title>
<polygon fill="none" stroke="#000000" points="590.4,-953.3359 536.4,-953.3359 536.4,-917.3359 590.4,-917.3359 590.4,-953.3359"/>
<text text-anchor="middle" x="563.4" y="-932.8359" font-family="century schoolbook" font-size="10.00" fill="#000000">0,7</text>
</g>
<!-- 37&#45;&#45;39 -->
<g id="edge60" class="edge">
<title>37&#45;&#45;39</title>
<path fill="none" stroke="#000000" d="M504.8469,-805.4329C517.6554,-833.8492 542.3003,-888.5251 555.1499,-917.0326"/>
</g>
<!-- 40 -->
<g id="node41" class="node">
<title>40</title>
<polygon fill="none" stroke="#000000" points="570.4855,-897.3843 516.4855,-897.3843 516.4855,-861.3843 570.4855,-861.3843 570.4855,-897.3843"/>
<text text-anchor="middle" x="543.4855" y="-876.8843" font-family="century schoolbook" font-size="10.00" fill="#000000">1,3</text>
</g>
<!-- 37&#45;&#45;40 -->
<g id="edge61" class="edge">
<title>37&#45;&#45;40</title>
<path fill="none" stroke="#000000" d="M505.9142,-805.4753C514.1227,-821.6228 526.0516,-845.0888 534.2543,-861.2249"/>
</g>
<!-- 41 -->
<g id="node42" class="node">
<title>41</title>
<polygon fill="none" stroke="#000000" points="537.4794,-983.3538 483.4794,-983.3538 483.4794,-947.3538 537.4794,-947.3538 537.4794,-983.3538"/>
<text text-anchor="middle" x="510.4794" y="-962.8538" font-family="century schoolbook" font-size="10.00" fill="#000000">1,4</text>
</g>
<!-- 37&#45;&#45;41 -->
<g id="edge62" class="edge">
<title>37&#45;&#45;41</title>
<path fill="none" stroke="#000000" d="M498.0645,-805.3329C500.7125,-839.4638 506.4241,-913.0835 509.0749,-947.2512"/>
</g>
<!-- 42 -->
<g id="node43" class="node">
<title>42</title>
<polygon fill="none" stroke="#000000" points="631.182,-708.8813 577.182,-708.8813 577.182,-672.8813 631.182,-672.8813 631.182,-708.8813"/>
<text text-anchor="middle" x="604.182" y="-688.3813" font-family="century schoolbook" font-size="10.00" fill="#000000">2,8</text>
</g>
<!-- 37&#45;&#45;42 -->
<g id="edge63" class="edge">
<title>37&#45;&#45;42</title>
<path fill="none" stroke="#000000" d="M523.7842,-770.5894C545.5045,-753.3126 574.8878,-726.6506 591.5269,-708.8996"/>
</g>
<!-- 37&#45;&#45;42 -->
<g id="edge64" class="edge">
<title>37&#45;&#45;42</title>
<path fill="none" stroke="#000000" d="M509.6495,-768.9077C526.3595,-751.1422 555.5354,-724.6866 577.1182,-707.5249"/>
</g>
<!-- 43 -->
<g id="node44" class="node">
<title>43</title>
<polygon fill="none" stroke="#000000" points="436.235,-1010.6356 382.235,-1010.6356 382.235,-974.6356 436.235,-974.6356 436.235,-1010.6356"/>
<text text-anchor="middle" x="409.235" y="-990.1356" font-family="century schoolbook" font-size="10.00" fill="#000000">8</text>
</g>
<!-- 43&#45;&#45;33 -->
<g id="edge65" class="edge">
<title>43&#45;&#45;33</title>
<path fill="none" stroke="#000000" d="M382.2174,-976.0823C361.1126,-963.1517 331.9049,-945.2566 310.7011,-932.2653"/>
</g>
<!-- 43&#45;&#45;34 -->
<g id="edge66" class="edge">
<title>43&#45;&#45;34</title>
<path fill="none" stroke="#000000" d="M382.1902,-987.2924C354.2641,-981.7751 310.9406,-973.2157 283.0193,-967.6994"/>
</g>
<!-- 43&#45;&#45;38 -->
<g id="edge67" class="edge">
<title>43&#45;&#45;38</title>
<path fill="none" stroke="#000000" d="M413.1278,-974.339C417.4958,-953.8093 424.5406,-920.6989 428.9109,-900.1582"/>
</g>
<!-- 43&#45;&#45;39 -->
<g id="edge68" class="edge">
<title>43&#45;&#45;39</title>
<path fill="none" stroke="#000000" d="M436.4417,-982.5234C464.535,-972.0818 508.1179,-955.883 536.2064,-945.4431"/>
</g>
<!-- 43&#45;&#45;40 -->
<g id="edge69" class="edge">
<title>43&#45;&#45;40</title>
<path fill="none" stroke="#000000" d="M430.8046,-974.4398C455.8573,-953.3059 496.9396,-918.6495 521.9694,-897.5349"/>
</g>
<!-- 43&#45;&#45;41 -->
<g id="edge70" class="edge">
<title>43&#45;&#45;41</title>
<path fill="none" stroke="#000000" d="M436.3666,-985.3245C450.8929,-981.4102 468.7351,-976.6024 483.2728,-972.685"/>
</g>
<!-- 44 -->
<g id="node45" class="node">
<title>44</title>
<polygon fill="none" stroke="#000000" points="440.7587,-1155.0069 386.7587,-1155.0069 386.7587,-1119.0069 440.7587,-1119.0069 440.7587,-1155.0069"/>
<text text-anchor="middle" x="413.7587" y="-1134.5069" font-family="century schoolbook" font-size="10.00" fill="#000000">2,5</text>
</g>
<!-- 43&#45;&#45;44 -->
<g id="edge71" class="edge">
<title>43&#45;&#45;44</title>
<path fill="none" stroke="#000000" d="M405.1572,-1010.7738C403.2249,-1038.5269 404.8683,-1091.2193 408.5235,-1118.9335"/>
</g>
<!-- 43&#45;&#45;44 -->
<g id="edge72" class="edge">
<title>43&#45;&#45;44</title>
<path fill="none" stroke="#000000" d="M414.4788,-1010.7739C418.1216,-1038.4575 419.7617,-1090.9555 417.8465,-1118.7247"/>
</g>
</g>
</svg>
